<svg width="88" height="100" viewBox="0 0 88 100" fill="none" xmlns="http://www.w3.org/2000/svg">
<g clip-path="url(#clip0_29_127)">
<ellipse cx="47.5284" cy="49.81" rx="39.924" ry="39.924" fill="white"/>
<path d="M43.9531 99.7963L42.5788 99.8488L41.8628 99.6196L41.1468 99.3903L41.2379 99.2432L41.3289 99.0961L41.2056 99.1356L41.0821 99.1751L40.5977 98.9729L40.1132 98.7706L40.1972 98.6348L40.2813 98.4991L40.158 98.5324L40.0345 98.5656L39.6956 98.4505L39.3567 98.3356L39.4272 98.2218L39.4976 98.1081H39.3062H39.1149L37.8281 97.3774L36.5413 96.6467L36.6153 96.527L36.6894 96.4073L36.566 96.4469L36.4427 96.4865L35.9581 96.2842L35.4737 96.082L35.5578 95.9461L35.6417 95.8104L35.5184 95.85L35.395 95.8888L34.9105 95.6866L34.4261 95.4844L34.522 95.3293L34.6181 95.174L34.4795 95.2597L34.341 95.3451L32.9604 94.5599L31.58 93.7748L31.6916 93.6634L31.8031 93.5519L31.6535 93.5938L31.5038 93.6355L31.1649 93.5204L30.826 93.4055L30.9261 93.2436L31.0262 93.0819L30.8655 93.1812L30.7049 93.2803L30.5056 93.0815L30.3066 92.8826L30.1943 92.8561L30.082 92.8295H29.9235H29.7651L29.8598 92.6765L29.9546 92.5233L29.8312 92.5623L29.7078 92.6019L29.2233 92.3995L28.7389 92.1973L28.823 92.0615L28.9069 91.9257L28.7539 91.9669L28.6009 92.0081L26.8838 91.0412L25.1665 90.0742L25.2408 89.9544L25.315 89.8345L25.1917 89.8734L25.0684 89.9129L24.5838 89.7107L24.0993 89.5085L24.1834 89.3727L24.2675 89.2369L24.1441 89.2765L24.0207 89.3159L23.5362 89.1136L23.0517 88.9114L23.1358 88.7756L23.2198 88.6398L23.0668 88.681L22.9137 88.7223L21.1966 87.7553L19.4795 86.7884L19.5537 86.6684L19.628 86.5485L19.5045 86.5881L19.3812 86.6276L18.8966 86.4254L18.4121 86.223L18.4963 86.0872L18.5804 85.9516L18.4569 85.991L18.3336 86.03L17.8491 85.8278L17.3645 85.6255L17.4606 85.4703L17.5566 85.3152L17.4181 85.4007L17.2795 85.4863L15.8989 84.7011L14.5185 83.916L14.63 83.793L14.7416 83.67L14.5852 83.7587L14.4286 83.8473L13.7227 83.4359L13.0169 83.0244L13.131 82.8991L13.2451 82.7737L13.0727 82.872L12.9004 82.9704L12.2866 82.6223L11.6729 82.2745L11.7481 82.1993L11.8232 82.1244L11.6362 82.1242L11.4491 82.1241L9.68639 81.1133L7.92356 80.1027L7.74072 79.9201L7.55788 79.7375L7.44561 79.711L7.33333 79.6844H7.17493H7.0164L7.12397 79.4976L7.23169 79.3109L7.11072 79.4202L6.98974 79.5294L6.2679 79.1374L5.5462 78.7453L5.61511 78.634L5.68388 78.5229L5.49842 78.5432L5.31295 78.5636L3.86443 77.7477L2.41578 76.9319L2.5032 76.7909L2.59048 76.65L2.4249 76.752L2.25932 76.8541L1.50861 76.1555L0.757908 75.4568L0.840905 75.3228L0.923765 75.189L0.670216 74.8027L0.416667 74.4164L0.395123 73.8535L0.373718 73.2905L0.261444 73.3587L0.14917 73.4268V50.074V26.721L0.262549 26.8991L0.375928 27.0771L0.382695 26.5255L0.389461 25.9741L0.745756 25.2359L1.10191 24.4976L1.70803 23.8793L2.31414 23.2612L4.07766 22.2588L5.84104 21.2564L6.02319 21.3608L6.20534 21.4653L6.09003 21.3386L5.97458 21.2118L6.6137 20.8153L7.25296 20.4188L9.27348 19.2505L11.2939 18.082L13.5388 16.7825L15.7837 15.4832L20.084 12.9866L24.3841 10.4901L24.5595 10.5983L24.7349 10.7065L24.6369 10.5483L24.5389 10.39L25.2146 9.99478L25.89 9.59953L26.0388 9.69121L26.1874 9.78289L26.2763 9.5517L26.3651 9.32037L27.1713 8.85992L27.9775 8.39948L28.1328 8.49515L28.288 8.59096L28.2467 8.39313L28.2054 8.19531L28.4657 8.21557L28.7259 8.23598L28.664 8.13603L28.6022 8.03608L30.5521 6.92025L32.5021 5.80456L32.6362 5.84178L32.7701 5.87914V5.74942V5.61969L34.4954 4.6227L36.2206 3.62557L36.4036 3.73048L36.5865 3.83539L36.4752 3.7127L36.3639 3.59014L36.6583 3.38432L36.9526 3.17849L38.79 2.11891L40.6272 1.05947L41.3382 0.697589L42.049 0.335572L42.9048 0.196472L43.7607 0.057373L44.5476 0.149738L45.3343 0.242104L45.2401 0.394437L45.1457 0.546771L45.3316 0.432073L45.5173 0.317512L46.099 0.579306L46.6805 0.841099L46.5866 0.992744L46.4927 1.14439L46.6382 1.05464L46.7837 0.964897L48.1572 1.75441L49.5307 2.54393L49.4193 2.65518L49.3077 2.76657L49.4574 2.7186L49.6069 2.67048L50.0915 2.87286L50.576 3.0751L50.492 3.21075L50.4079 3.34654L50.5312 3.31318L50.6547 3.27996L50.9936 3.39507L51.3325 3.51004L51.2324 3.67175L51.1322 3.83346L51.2886 3.7371L51.4449 3.64059L52.1206 4.01764L52.7965 4.39468L52.8844 4.62339L52.9723 4.8521L53.1457 4.74512L53.3192 4.638L53.5209 4.91358L53.7227 5.18902V5.07625V4.96349L54.3153 5.29586L54.9079 5.62838L54.816 5.77671L54.7242 5.92519L54.8834 5.8269L55.0426 5.7286L55.2798 5.81945L55.517 5.9103L55.4199 6.06705L55.3227 6.22393L55.4641 6.13666L55.6057 6.0494L56.6117 6.60966L57.6179 7.16978L57.5411 7.27138L57.4642 7.37298L57.5581 7.30419L57.6519 7.23553L58.0819 7.45749L58.512 7.67944V7.82502V7.9706L58.6548 7.93338L58.7975 7.89602L61.0372 9.16225L63.277 10.4286L63.2032 10.548L63.1291 10.6674L63.2526 10.6284L63.3759 10.5889L63.8604 10.7912L64.345 10.9934L64.2785 11.1005L64.2122 11.2078H64.4046H64.597L66.2614 12.1553L67.9257 13.1028L67.8353 13.2491L67.7447 13.3953L67.904 13.297L68.0633 13.1987L68.3004 13.2896L68.5376 13.3804L68.4524 13.5179L68.3674 13.6553L68.4907 13.6221L68.6141 13.5888L68.953 13.7039L69.2919 13.819L69.1918 13.9807L69.0917 14.1424L69.2355 14.0536L69.3792 13.965L70.2357 14.4495L71.0922 14.9341L70.9756 15.062L70.8589 15.19L71.0331 15.0904L71.2072 14.991L73.2392 16.1635L75.2713 17.3359L75.1604 17.4466L75.0495 17.5573L75.1992 17.5093L75.3488 17.4613L75.8334 17.6636L76.3178 17.8658L76.2339 18.0016L76.1498 18.1374L76.2731 18.0978L76.3965 18.059L76.881 18.2612L77.3656 18.4634L77.2815 18.5992L77.1974 18.7349L77.3208 18.696L77.4442 18.657L77.9286 18.8592L78.4132 19.0615L78.3468 19.1687L78.2805 19.2758H78.461H78.6415L80.997 20.6211L83.3526 21.9661L83.242 22.0766L83.1313 22.1871L83.281 22.1447L83.4306 22.1029L83.7695 22.218L84.1084 22.3331L84.0203 22.4754L83.9322 22.6178L84.0556 22.5788L84.179 22.5392L84.6634 22.7415L85.148 22.9438L85.0519 23.0989L84.9559 23.254L85.131 23.1459L85.3063 23.0379L86.1315 23.8326L86.9569 24.6272L87.0358 25.0754L87.1148 25.5236L87.2521 26.1212L87.3893 26.7188V49.3533V71.9876L87.2954 72.7683L87.2015 73.5489L87.0492 73.4548L86.8967 73.3608L86.9993 73.5264L87.1018 73.6921L87.0064 74.0715L86.9111 74.4507L86.7791 74.3694L86.6472 74.2879L86.7263 74.4939L86.8055 74.6998L86.3037 75.4353L85.8022 76.1709L85.6243 76.1337L85.4464 76.0965L85.4837 76.27L85.521 76.4436L83.8747 77.4129L82.2284 78.3823L80.4703 79.4149L78.7123 80.4473L78.5391 80.3405L78.3658 80.2335L78.4548 80.3773L78.5438 80.5209L75.7467 82.1515L72.9495 83.782L70.2554 85.3382L67.5616 86.8945L67.3746 86.9002L67.1874 86.9058V87.0174V87.1289L66.1086 87.7498L65.0298 88.3707L64.874 88.3979L64.718 88.4249L64.6431 88.5225L64.5683 88.62L62.8822 89.613L61.196 90.6058L61.0258 90.5009L60.8554 90.3957L60.945 90.5405L61.0346 90.6852L57.1895 92.9166L53.3446 95.1481H53.1814H53.0181L52.7538 95.412L52.4893 95.676L51.9248 95.9636L51.3602 96.251L51.243 96.1454L51.1256 96.0397L51.2332 96.2265L51.3409 96.4131L51.1451 96.4306L50.9491 96.4481L50.8369 96.4306L50.7246 96.4131V96.5482V96.6835L49.8641 97.1697L49.0035 97.6559H48.823H48.6425L48.7099 97.7648L48.7773 97.8737L48.5401 97.9644L48.303 98.0553L48.1438 97.9571L47.9844 97.8587L48.0782 98.0102L48.1718 98.1614L46.7442 98.951L45.3166 99.7405L43.9423 99.793L43.9531 99.7963ZM45.123 99.5516H45.1979V99.4769V99.4022H45.123H45.0482V99.4769V99.5516H45.123ZM12.7961 82.8186H12.8709V82.7439V82.6692H12.7961H12.7212V82.7439V82.8186H12.7961ZM41.5311 82.0717H41.6059V81.997V81.9222H41.5311H41.4564V81.997V82.0717H41.5311ZM43.6265 81.9012L45.4224 81.9198L46.7693 81.7735L48.1163 81.6272L49.0891 81.4607L50.0618 81.294L51.2419 81.0022L52.4218 80.7103L52.6339 80.7917L52.8462 80.873L52.7682 80.747L52.6901 80.621L53.8455 80.2689L55.0007 79.9168L55.1863 79.9314L55.3717 79.946L55.2995 79.8296L55.2273 79.7129L55.591 79.6218L55.9548 79.5307L56.9396 79.0757L57.9242 78.6207L58.0945 78.7257L58.2648 78.8308L58.1686 78.6757L58.0727 78.5206L58.5571 78.3183L59.0416 78.116L59.165 78.155L59.2883 78.1945L59.2033 78.0571L59.1182 77.9197L59.3553 77.8288L59.5924 77.738L59.7517 77.8363L59.911 77.9344L59.8041 77.7619L59.6974 77.5895L59.8934 77.572L60.0892 77.5545L60.2389 77.5844L60.3886 77.6143L60.2763 77.5022L60.164 77.3901L61.1693 76.7801L62.1745 76.1701L62.3029 76.2113L62.4312 76.2525L62.341 76.107L62.251 75.9614L62.5171 75.8188L62.7831 75.6763L63.8223 74.8491L64.8613 74.0221L65.0052 74.1109L65.1491 74.1997L65.0621 74.0592L64.9751 73.9187L66.4013 72.5047L67.8273 71.0908L69.0139 69.5661L70.2006 68.0415L70.8578 66.9774L71.515 65.9131L71.2648 65.6473L71.0146 65.3816L70.9397 65.3759L70.8649 65.3702L70.669 65.3527L70.4731 65.3352L70.5798 65.1628L70.6866 64.9902L70.5427 65.079L70.3989 65.1677L69.3216 64.5301L68.2443 63.8925L68.3527 63.7843L68.4613 63.676L68.1793 63.784L67.8974 63.892L68.0207 63.6798L68.1442 63.4677L68.0232 63.577L67.9022 63.6862L67.3318 63.3661L66.7614 63.046L66.8379 62.9224L66.9144 62.7988L66.6576 62.8972L66.4007 62.9955L66.5113 62.8171L66.6218 62.6386L66.4983 62.6775L66.375 62.717L65.8906 62.5148L65.4061 62.3125L65.5021 62.1573L65.5982 62.0022L65.4558 62.09L65.3136 62.1777L64.6078 61.7662L63.9019 61.3548L64.016 61.241L64.1301 61.1271L63.9804 61.1751L63.8308 61.223L63.3462 61.0208L62.8618 60.8186L62.9579 60.6633L63.0539 60.5083L62.9116 60.5961L62.7694 60.6837L62.0636 60.2724L61.3578 59.8609L61.4391 59.7795L61.5204 59.6983L61.2255 59.7153L60.9303 59.7328L60.3065 60.7039L59.6829 61.6749L58.916 62.5713L58.149 63.4678L57.3981 64.182L56.6469 64.8964L55.5821 65.7068L54.517 66.5172L54.3104 66.5612L54.1039 66.6053L53.9536 66.7869L53.8034 66.9686L52.4565 67.6302L51.1095 68.2919L50.3893 68.5331L49.6691 68.7744L48.5186 69.0716L47.368 69.3688L46.2455 69.5139L45.123 69.6588L43.9102 69.6644L42.6975 69.6701L41.7817 69.5745L40.8659 69.479L40.9218 69.3877L40.9779 69.2966L40.3567 69.2909L39.7355 69.2853L38.5042 68.9338L37.273 68.5821L37.3676 68.4295L37.462 68.2767L37.2962 68.379L37.1302 68.4814L36.7503 68.3862L36.3702 68.2911L36.4672 68.1345L36.5641 67.9778L36.4053 68.0759L36.2463 68.1739L35.3392 67.7457L34.432 67.3174L34.5396 67.2101L34.647 67.1027L34.4975 67.1445L34.3478 67.187L34.0089 67.0718L33.67 66.9569L33.7581 66.8145L33.8462 66.6721L33.7227 66.7054L33.5994 66.7388L33.2605 66.6237L32.9216 66.5087L33.0097 66.3663L33.0978 66.2239L32.9745 66.2618L32.8512 66.2996L32.3728 66.0138L31.8946 65.728L31.9843 65.583L32.0742 65.4379L31.9346 65.524L31.7951 65.6101L31.4252 65.31L31.0552 65.0099L31.2654 65.1207L31.4756 65.2314L31.3673 65.0565L31.259 64.8815L31.1396 64.9552L31.0203 65.0288L30.7756 64.7587L30.5307 64.4886L30.6433 64.3648L30.7558 64.2409L30.5859 64.3378L30.4159 64.4347L29.7627 63.7619L29.1095 63.0891V62.9495V62.8098L28.8923 62.6156L28.6751 62.4213L28.8715 62.7201L29.0678 63.0189L28.6085 62.5091L28.1492 61.9992L28.2409 61.851L28.3326 61.7028L28.1756 61.7997L28.0184 61.8966L27.9042 61.6361L27.7899 61.3755L27.826 61.2261L27.8622 61.0766L27.7462 61.1926L27.6301 61.3084L27.1463 60.5253L26.6624 59.7422L26.7492 59.602L26.836 59.4618L26.6789 59.5587L26.5217 59.6556L26.4308 59.4189L26.3398 59.1822L26.4382 59.0232L26.5366 58.8642L26.3886 58.9556L26.2404 59.047L25.9888 58.5202L25.7372 57.9934L25.8376 57.8312L25.938 57.6689L25.7652 57.7756L25.5924 57.8822L25.5687 57.612L25.5449 57.3416L25.5517 57.1565L25.5585 56.9714L25.4021 57.0679L25.2458 57.1642L25.3303 56.8419L25.4147 56.5196L25.2961 56.5928L25.1773 56.666L25.1029 56.4061L25.0283 56.1464L24.6983 54.9512L24.3683 53.7559L24.344 52.9875L24.3197 52.2191L24.2075 52.2866L24.0952 52.3543L24.0845 51.1876L24.0738 50.0209L24.0957 48.9026L24.1173 47.7842L24.2186 47.7074L24.3201 47.6305L24.3468 46.8946L24.3733 46.1585L24.7793 44.6806L25.1855 43.2026L25.3818 43.0065L25.5782 42.8105L25.497 42.7295L25.416 42.6485L25.9366 41.5538L26.4572 40.4592L27.1183 39.4466L27.7792 38.4339L27.9071 38.5501L28.0351 38.6663L27.9339 38.4902L27.8328 38.314L28.56 37.4444L29.2874 36.5747L30.3657 35.562L31.444 34.5493L31.6094 34.6513L31.775 34.7534L31.6786 34.598L31.5823 34.4425L32.8154 33.6202L34.0484 32.798L34.9771 32.3345L35.9056 31.8712L36.9143 31.492L37.923 31.1132L39.1255 30.8066L40.328 30.5001L40.7348 30.5597L41.1415 30.6193L41.079 30.5182L41.0163 30.417L42.0222 30.3222L43.0281 30.2273H43.9416H44.855L45.7709 30.3229L46.6867 30.4184L46.5928 30.57L46.4989 30.7217L46.6786 30.6108L46.8582 30.5L47.5998 30.6017L48.3414 30.7036L48.271 30.8174L48.2006 30.9311L48.5923 30.8564L48.9843 30.7815L48.864 30.9758L48.7438 31.1699L48.9184 31.0622L49.0929 30.9545L50.1355 31.2829L51.178 31.6113L51.0834 31.7642L50.9888 31.9169L51.1465 31.8196L51.304 31.7224L51.9172 31.9965L52.5304 32.2704L52.4188 32.3934L52.3072 32.5162L52.4777 32.4189L52.6484 32.3215L53.3384 32.7066L54.0283 33.0915V33.253V33.4145L54.1222 33.3209L54.216 33.2271L54.9079 33.6954L55.5997 34.1639L56.003 34.4946L56.4062 34.8255L56.3398 34.9169L56.2732 35.0081L56.3756 34.9308L56.478 34.8534L56.9684 35.328L57.4588 35.8025L57.3787 35.9319L57.2986 36.0614L57.4968 36.0201L57.695 35.9789L57.6537 36.1768L57.6124 36.3746L57.7414 36.295L57.8705 36.2154L58.4359 36.7933L59.0011 37.3713L58.8981 37.5378L58.7948 37.7044L58.9885 37.6631L59.1822 37.6219L60.0362 38.8882L60.8902 40.1544L61.0367 40.2029L61.1832 40.2516L64.7105 38.2155L68.2377 36.1796L68.4146 36.2887L68.5914 36.3979L68.4885 36.2318L68.3857 36.0656L68.8439 35.8291L69.3023 35.5924L69.4706 35.6963L69.639 35.8003L69.5379 35.6368L69.4368 35.4734L70.4114 34.9294L71.3861 34.3853L71.4728 34.2452L71.5595 34.1051L71.2515 33.6079L70.9437 33.1106L71.0539 32.989L71.1643 32.8675L70.9879 32.9684L70.8116 33.0691L70.6964 32.7308L70.5811 32.3925L70.6229 32.2431L70.6653 32.0937L70.5551 32.2038L70.4449 32.3138L70.0987 31.8452L69.7523 31.3768L69.8463 31.2123L69.9402 31.0479L69.8214 31.1548L69.7026 31.2618L69.4136 30.8948L69.1243 30.5279L69.232 30.3539L69.3397 30.18L69.1801 30.2785L69.0204 30.377L68.5624 29.7995L68.1041 29.2222L68.1849 29.1416L68.2657 29.0609L68.083 28.9481L67.9003 28.8354L68.0199 29.0452L68.1396 29.255L67.5567 28.5901L66.9737 27.9251V27.7683V27.6116H66.8009H66.628L65.6601 26.6838L64.6921 25.7559L64.7852 25.6628L64.8784 25.5699L64.7258 25.6195L64.5734 25.6692L64.1697 25.3529L63.7662 25.0367L63.8732 24.9296L63.9804 24.8226L63.8308 24.8712L63.6811 24.9203L62.8249 24.3068L61.9687 23.6935L62.0767 23.5857L62.1846 23.478L62.0349 23.5165L61.8852 23.5548L61.4783 23.3576L61.0715 23.1603L61.135 23.0576L61.1985 22.9549L61.018 22.947L60.8375 22.9392L59.6812 22.271L58.5251 21.6029L58.6336 21.4944L58.7423 21.386L58.5926 21.416L58.4429 21.4459L58.2471 21.4284L58.0511 21.4109L58.1579 21.2384L58.2648 21.0659L58.0906 21.1733L57.9165 21.2807L57.6163 21.1856L57.3162 21.0906L57.4163 20.9288L57.5164 20.767L57.3587 20.8644L57.2011 20.9616L56.588 20.6875L55.9748 20.4134L56.0591 20.3295L56.1432 20.2455L55.9461 20.2539L55.749 20.2625L55.4783 20.2388L55.2075 20.2151L55.2896 20.0824L55.3717 19.95L55.1863 19.9567L55.0007 19.9635L54.73 19.9398L54.4592 19.916L54.5661 19.7436L54.6728 19.5711L54.507 19.6734L54.341 19.7758L53.9611 19.6806L53.581 19.5853L53.6626 19.4537L53.7441 19.3219L53.5494 19.39L53.3544 19.4582L52.4132 19.1949L51.472 18.9317L51.5402 18.8636L51.6084 18.7955L51.2093 18.7809L50.8102 18.7662L49.6574 18.5682L48.5045 18.3702L48.556 18.2838L48.6075 18.1975L47.1645 18.1235L45.7214 18.0493H43.7759H41.8302L40.3122 18.124L38.7943 18.1987L38.8496 18.291L38.905 18.3832L38.2232 18.4765L37.5414 18.5697L36.297 18.87L35.0525 19.1704L33.3215 19.7662L31.5905 20.362L30.298 20.9581L29.0057 21.5542L27.6538 22.3265L26.302 23.0987L24.8384 24.1859L23.3749 25.2732L23.2738 25.1723L23.1725 25.0713L23.2223 25.2237L23.2721 25.3762L22.18 26.3772L21.0879 27.3782L20.3092 28.2417L19.5306 29.105L19.4493 29.1797L19.3681 29.2545L18.681 30.106L17.9938 30.9574L17.8892 30.8529L17.7845 30.7484L17.8338 30.8979L17.8835 31.0473L17.0486 32.3548L16.2136 33.6623L16.1011 33.55L15.9887 33.4378L16.0186 33.5871L16.0486 33.7365L16.0311 33.9321L16.0135 34.1276L15.8408 34.0211L15.668 33.9145L15.7665 34.0734L15.8649 34.2324L15.7739 34.4692L15.6829 34.7059L15.5258 34.6089L15.3687 34.5121L15.468 34.6724L15.5672 34.8328L14.8337 36.3301L14.1002 37.8275L13.9853 37.7242L13.8702 37.621L13.9605 37.7796L14.0507 37.9382L13.3946 39.9697L12.7384 42.0011L12.55 42.9111L12.3618 43.8212H12.2332H12.1048L12.1948 43.9666L12.2849 44.112L12.054 45.7645L11.8231 47.4171V49.8454V52.2737L12.0432 54.0449L12.2632 55.8161L12.1697 55.9672L12.076 56.1183L12.2489 56.0117L12.4217 55.905V56.1754V56.4456L12.7863 57.8649L13.1509 59.2842L13.4429 60.1807L13.735 61.0771L14.033 61.8245L14.3311 62.5719L14.7934 63.5249L15.2559 64.4779L15.1612 64.6308L15.0666 64.7835L15.2185 64.6899L15.3704 64.5962L15.6532 65.224L15.936 65.8519L15.8986 65.9669L15.8613 66.082H15.9896H16.1181L16.6983 67.0159L17.2785 67.9496L17.2434 68.0617L17.2083 68.1736H17.3326H17.4569L17.9682 68.8833L18.4794 69.593L18.4302 69.7424L18.3811 69.8917L18.4922 69.7808L18.6036 69.6696L18.8403 70.0048L19.0771 70.3401L19.0409 70.452L19.0047 70.5641L19.117 70.528L19.2291 70.4918L19.9387 71.2514L20.648 72.011L20.5647 72.0942L20.4814 72.1774L20.6641 72.2901L20.847 72.4028L20.7245 72.193L20.602 71.9832L21.0344 72.4314L21.4667 72.8797L21.4328 72.9916L21.3989 73.1037L21.5184 73.0665L21.6379 73.0293L22.5286 73.8422L23.4193 74.6552L23.1201 74.4398L22.8207 74.2244L23.0222 74.481L23.2235 74.7377L23.3214 74.7062L23.4193 74.6745L23.7552 74.9109L24.0909 75.1472L23.9796 75.2583L23.8683 75.3694L24.018 75.3333L24.1677 75.2972L24.4287 75.4112L24.6897 75.5252L24.6046 75.6628L24.5196 75.8002L24.6429 75.759L24.7663 75.7178L25.4666 76.16L26.1669 76.6023L26.0787 76.7577L25.9904 76.9129L26.1089 76.8062L26.2274 76.6993L26.5114 76.851L26.7951 77.0026L26.693 77.1676L26.5908 77.3327L26.7416 77.2396L26.8924 77.1465L28.3334 77.9413L29.7745 78.7362L29.665 78.857L29.5555 78.9777L29.7271 78.8798L29.8986 78.782L30.3657 78.9779L30.8326 79.1739L30.7178 79.2999L30.6031 79.426L30.7658 79.3335L30.9284 79.2412L32.001 79.6578L33.0735 80.0743L32.9608 80.1983L32.848 80.3224L33.0183 80.2253L33.1883 80.1284L34.0334 80.3956L34.8786 80.6628L34.7614 80.7914L34.644 80.92L34.8279 80.8144L35.0119 80.709L36.1353 80.9698L37.2587 81.2306L37.0738 81.3643L36.8889 81.4979L37.1699 81.4065L37.4508 81.3151L38.1772 81.4112L38.9036 81.5074L38.8362 81.6163L38.7687 81.7254L39.101 81.6689L39.4331 81.6123L40.6304 81.7451L41.8277 81.8777L43.6265 81.9012ZM66.824 27.8386H66.7493V27.7639V27.6892H66.824H66.8988V27.7639V27.8386H66.824ZM35.6944 81.1752H35.7692V81.1005V81.0258H35.6944H35.6195V81.1005V81.1752H35.6944ZM6.06131 78.9342H6.13602V78.8594V78.7847H6.06131H5.98646V78.8594V78.9342H6.06131ZM0.97279 75.4979H1.04764V75.4232V75.3485H0.97279H0.89794V75.4232V75.4979H0.97279ZM46.0209 69.3724H46.0958V69.2977V69.223H46.0209H45.9462V69.2977V69.3724H46.0209ZM14.5919 63.6951H14.6668V63.6204V63.5457H14.5919H14.5172V63.6204V63.6951H14.5919ZM12.4967 57.5697H12.5715V57.4949V57.4202H12.4967H12.4218V57.4949V57.5697H12.4967ZM25.2179 56.0757H25.2928V56.001V55.9262H25.2179H25.1432V56.001V56.0757H25.2179ZM64.4545 55.6275H66.4499V53.6026V51.5779L68.5078 51.623L70.5656 51.6682V49.9501V48.2319L68.5078 48.2772L66.4499 48.3224V46.2975V44.2728H64.3546H62.2594V46.2896V48.3065H60.2389H58.2185V49.9499V51.5935H60.2389H62.2594V53.5107V55.428L62.3591 55.5277L62.459 55.6272L64.4545 55.6275ZM79.3956 55.6275H81.1168V53.6105V51.5936H83.1371H85.1577V49.9502V48.3068H83.1371H81.1168V46.2898V44.2729H79.3956H77.6745V46.2968V48.3207L75.2425 48.2761L72.8105 48.2315V49.9497V51.6677L75.2425 51.6237L77.6745 51.579V53.6029V55.6268L79.3956 55.6275ZM11.898 54.4323H11.9729V54.3576V54.2828H11.898H11.8232V54.3576V54.4323H11.898ZM61.4362 51.8924H61.511V51.8176V51.7429H61.4362H61.3613V51.8176V51.8924H61.4362ZM77.45 51.8924H77.5248V51.8176V51.7429H77.45H77.3753V51.8176V51.8924H77.45ZM81.6406 51.8924H81.7154V51.8176V51.7429H81.6406H81.5657V51.8176V51.8924H81.6406ZM11.6236 50.3486L11.7235 50.2489L11.6236 50.1494L11.5239 50.0497V50.2489V50.4482L11.6236 50.3486ZM11.6147 49.9097L11.7051 49.8194L11.6264 49.6233L11.5478 49.4273L11.5359 49.7136L11.5241 50L11.6145 49.9097H11.6147ZM58.4432 48.1574H58.518V48.0826V48.0079H58.4432H58.3683V48.0826V48.1574H58.4432ZM77.2882 48.1455L77.5751 48.1574L77.4846 48.0671L77.3942 47.9768L77.1978 48.0553L77.0014 48.1338L77.2882 48.1456V48.1455ZM58.7426 37.4004H58.8174V37.3257V37.2509H58.7426H58.6677V37.3257V37.4004H58.7426ZM70.1169 31.7231H70.1916V31.6484V31.5737H70.1169H70.0421V31.6484V31.7231H70.1169ZM37.4906 31.5737H37.5653V31.4989V31.4242H37.4906H37.4157V31.4989V31.5737H37.4906ZM69.3686 30.6773H69.4434V30.6026V30.5279H69.3686H69.2937V30.6026V30.6773H69.3686ZM86.7294 24.7013H86.8042V24.6265V24.5518H86.7294H86.6545V24.6265V24.7013H86.7294ZM35.6946 18.8745H35.7695V18.7998V18.7251H35.6946H35.6198V18.7998V18.8745H35.6946ZM45.9465 17.978H46.1461L46.0462 17.8785L45.9465 17.7788L45.8467 17.8785L45.747 17.978H45.9465ZM67.4229 13.0478H67.4978V12.9732V12.8985H67.4229H67.3481V12.9732V13.0478H67.4229ZM54.4024 5.57778H54.4773V5.50307V5.42835H54.4024H54.3276V5.50307V5.57778H54.4024ZM51.5588 3.93437H51.6337V3.85965V3.78493H51.5588H51.484V3.85965V3.93437H51.5588ZM53.0554 95.3683H52.9806V95.2937V95.219H53.0554H53.1303V95.2937V95.3683H53.0554ZM26.1163 9.61153H26.0414V9.53681V9.46223H26.1163H26.1911V9.53681V9.61153H26.1163ZM53.0554 4.68129H52.9806V4.60657V4.53185H53.0554H53.1303V4.60657V4.68129H53.0554Z" fill="#00B2FF"/>
</g>
<defs>
<clipPath id="clip0_29_127">
<rect width="87.4525" height="100" fill="white"/>
</clipPath>
</defs>
</svg>
