<svg width="101" height="100" viewBox="0 0 101 100" fill="none" xmlns="http://www.w3.org/2000/svg">
<g clip-path="url(#clip0_29_132)">
<circle cx="50.4528" cy="49.9999" r="45.4545" fill="white"/>
<path d="M50.1108 99.9848L49.8192 99.9732L48.3611 99.9125L46.903 99.8517L45.8615 99.7546L44.8201 99.6575L43.6119 99.4901L42.4038 99.3227L41.279 99.1163L40.1542 98.9099L38.9461 98.6268L37.7379 98.3437L36.4159 97.9607L35.0939 97.5776L33.6664 97.0685L32.2389 96.5593L31.0725 96.0634L29.906 95.5676L28.7395 95.0083L27.5731 94.4489L26.3479 93.7706L25.1227 93.0923L24.0566 92.43L22.9905 91.7677L21.949 91.0391L20.9076 90.3105L19.8399 89.4817L18.7724 88.6528L17.8403 87.8529L16.9083 87.053L15.4611 85.632L14.014 84.211L13.0916 83.17L12.1692 82.129L11.3502 81.1024L10.5312 80.0757L9.70199 78.9091L8.87279 77.7426L8.24921 76.7583L7.62562 75.7739L7.03402 74.7434L6.44238 73.7129L5.62333 72.0465L4.80423 70.3801L4.37862 69.3678L3.95304 68.3554L3.53066 67.2015L3.10831 66.0475L2.73763 64.8547L2.36698 63.6619L2.07806 62.5446L1.78918 61.4271L1.50237 60.0296L1.21557 58.6321L1.0452 57.4657L0.874831 56.2992L0.744748 55.05L0.614665 53.8008L0.540628 51.9047L0.466553 50.0086L0.540628 48.1126L0.614665 46.2164L0.744748 44.9673L0.874831 43.7181L1.0452 42.5516L1.21557 41.3851L1.50237 39.9876L1.78918 38.5902L2.07806 37.4727L2.36698 36.3553L2.74874 35.1257L3.13053 33.896L3.5385 32.7873L3.94643 31.6787L4.41568 30.5746L4.88488 29.4706L5.45642 28.2782L6.02799 27.0859L6.58846 26.0703L7.14892 25.0547L7.80929 23.9715L8.46966 22.8884L9.09617 21.9719L9.72264 21.0554L10.536 19.9722L11.3493 18.8891L12.1131 17.9726L12.877 17.0561L14.1427 15.696L15.4085 14.3359L15.6226 14.2228L15.8366 14.1096L27.7624 26.0393L39.6883 37.9691L39.7272 45.3428L39.7661 52.7165L39.8225 53.0914L39.8789 53.4664L39.1417 52.2961L38.4045 51.1258L31.4482 40.2357L24.492 29.3456H22.304H20.116V43.5931V57.8406H21.7824H23.4488L23.4604 47.1133L23.4721 36.386L23.4595 35.7612L23.4469 35.1362L23.404 34.2197L23.3611 33.3032L23.574 33.7851L23.7868 34.2669L24.2019 34.9515L24.6169 35.6362L31.7632 46.7176L38.9095 57.799L41.0107 57.8213L43.1121 57.8437V49.6149V41.3861L46.7781 45.0514L50.4442 48.7167V53.2788V57.8408H55.0059H59.5677L72.9725 71.2458L86.3772 84.6506L86.2527 84.8283L86.1283 85.006L85.1375 85.9442L84.1466 86.8825L83.3869 87.5581L82.6272 88.2337L81.5692 89.0777L80.5112 89.9217L79.3446 90.7509L78.178 91.5801L77.1938 92.2037L76.2094 92.8272L75.1789 93.4206L74.1484 94.014L72.482 94.8307L70.8156 95.6473L69.7753 96.0855L68.735 96.5237L67.5061 96.9711L66.2772 97.4184L64.922 97.8269L63.5669 98.2353L62.3587 98.5294L61.1506 98.8236L59.8175 99.0766L58.4844 99.3296L57.6096 99.4548L56.7347 99.5799L55.4978 99.7078L54.261 99.8357L52.3317 99.9161L50.4025 99.9966L50.1108 99.9848ZM37.9463 77.9634L39.0711 77.9317L39.7376 77.7646L40.4041 77.5975L40.8416 77.4146L41.279 77.2316V76.4929V75.7541H41.2488H41.2185L40.6815 75.9977L40.1444 76.2412L39.6076 76.3889L39.0709 76.5367L37.9461 76.5412L36.8213 76.5456L36.363 76.3903L35.9048 76.2351L35.5298 76.0218L35.1549 75.8085L34.8326 75.5522L34.5102 75.2958L34.1451 74.785L33.7799 74.2744L33.5826 73.8269L33.3853 73.3794L33.2494 72.7798L33.1136 72.1801V71.3807V70.5813L33.244 69.939L33.3745 69.2968L33.6973 68.6302L34.0201 67.9637L34.3517 67.5669L34.6834 67.1701L35.0441 66.8673L35.4048 66.5645L35.9781 66.2887L36.5514 66.0131L37.0196 65.9158L37.4878 65.8186L38.5293 65.8618L39.5708 65.9051L40.1118 66.089L40.6528 66.273L40.9555 66.4274L41.2582 66.5818L41.3102 66.5299L41.3621 66.4779V65.7376V64.9974L41.0497 64.8663L40.7372 64.7351L39.9457 64.571L39.1542 64.4069L37.9461 64.4458L36.7379 64.4846L36.1547 64.6702L35.5715 64.8558L34.9466 65.1794L34.3217 65.503L33.8424 65.9002L33.3631 66.2974L33.0254 66.7077L32.6878 67.1181L32.4132 67.5867L32.1385 68.0553L31.9183 68.6056L31.6982 69.156L31.5727 69.7526L31.4472 70.3492V71.4477V72.5463L31.6154 73.2544L31.7836 73.9627L32.1739 74.7541L32.5641 75.5457L33.2757 76.2589L33.9873 76.972L34.5705 77.2692L35.1537 77.5665L35.5923 77.7088L36.0308 77.8512L36.4254 77.923L36.8201 77.995L37.9449 77.9633L37.9463 77.9634ZM47.5751 77.9972L48.0806 78.0038L48.5749 77.9147L49.0693 77.8256L49.7434 77.5021L50.4175 77.1787L50.8682 76.7305L51.3189 76.2822L51.5907 75.8251L51.8625 75.3679L52.0262 74.9021L52.1899 74.4362L52.2856 73.8246L52.3813 73.2129L52.3319 72.4631L52.2825 71.7132L52.1455 71.2549L52.0084 70.7967L51.747 70.2578L51.4855 69.7189L51.0273 69.2514L50.569 68.784L50.0275 68.5191L49.4859 68.2542L48.861 68.1216L48.2361 67.9889L47.5223 68.0369L46.8085 68.0849L46.2725 68.2505L45.7366 68.4161L45.2366 68.716L44.7367 69.0161L44.4636 69.2793L44.1905 69.5424L43.8648 70.0446L43.5391 70.5467L43.3097 71.2133L43.0803 71.8798L43.0756 73.0046L43.0709 74.1294L43.2555 74.7127L43.4401 75.2959L43.7552 75.8266L44.0703 76.3574L44.557 76.8083L45.0437 77.2592L45.5494 77.5144L46.0552 77.7697L46.5625 77.8801L47.0698 77.9905L47.5753 77.9971L47.5751 77.9972ZM47.9049 76.6459L47.153 76.6689L46.8051 76.5554L46.4571 76.4419L46.1802 76.2699L45.9032 76.0979L45.5954 75.7802L45.2876 75.4625L45.0132 74.8793L44.7389 74.2961L44.7077 73.3051L44.6765 72.3142L44.8205 71.7822L44.9645 71.2501L45.2789 70.7637L45.5933 70.2773L45.8777 70.0604L46.162 69.8435L46.574 69.6597L46.986 69.4758L47.6943 69.4699L48.4025 69.4639L48.8332 69.6142L49.2641 69.7645L49.6437 70.0987L50.0235 70.4329L50.3182 71.0316L50.6129 71.6302L50.7059 72.3579L50.7989 73.0857L50.7139 73.7326L50.629 74.3797L50.4461 74.8615L50.2631 75.3432L49.9993 75.6878L49.7355 76.0323L49.196 76.3278L48.6564 76.6232L47.9045 76.6462L47.9049 76.6459ZM65.1229 77.9651L65.9292 77.9281L66.4488 77.7935L66.9684 77.6589L67.5381 77.372L68.1077 77.0851V76.378V75.6708L68.0452 75.674L67.9827 75.6771L67.5244 75.9699L67.0662 76.2626L66.4829 76.4446L65.8997 76.6265L65.1001 76.6297L64.3004 76.6328L63.7284 76.3412L63.1565 76.0496L62.8395 75.6331L62.5225 75.2164L62.3573 74.6869L62.192 74.1574V73.8329V73.5084H65.4831H68.7742V72.6866V71.8648L68.6893 71.416L68.6045 70.9671L68.4186 70.4871L68.2327 70.007L67.9411 69.573L67.6494 69.1388L67.2328 68.8234L66.8162 68.5081L66.358 68.3327L65.8997 68.1573L65.1915 68.1164L64.4833 68.0755L63.9026 68.2121L63.322 68.3487L62.8094 68.6353L62.2969 68.9219L61.8326 69.4234L61.3683 69.9249L61.0732 70.5294L60.7781 71.1338L60.6519 71.6304L60.5257 72.127V73.1335V74.1399L60.6519 74.6365L60.7781 75.1331L61.0831 75.758L61.388 76.3829L61.8525 76.8465L62.317 77.3101L62.7802 77.5359L63.2433 77.7616L63.78 77.8837L64.3167 78.0058L65.1229 77.9689V77.9651ZM64.6874 72.1715H62.1735L62.2301 71.859L62.2868 71.5466L62.4798 71.12L62.6728 70.6934L62.9878 70.3446L63.3029 69.9959L63.6702 69.7807L64.0375 69.5654L64.6071 69.5247L65.1766 69.4839L65.4661 69.5382L65.7556 69.5925L66.1004 69.8241L66.4454 70.0558L66.6384 70.3429L66.8314 70.6301L66.9646 71.005L67.0977 71.3799L67.1495 71.7757L67.2014 72.1715H64.6874ZM55.4849 77.7538H56.2764V75.0501V72.3463L56.3685 71.9048L56.4605 71.4632L56.6964 70.9633L56.9322 70.4634L57.2084 70.1803L57.4845 69.8972L57.7761 69.7716L58.0677 69.646H58.5677H59.0676L59.3384 69.7875L59.6092 69.9291V69.0988V68.2686L59.2262 68.2112L58.8433 68.1538L58.4404 68.2015L58.0375 68.2492L57.7007 68.4211L57.364 68.5928L57.0704 68.8864L56.7767 69.18L56.5273 69.6149L56.2779 70.0498V69.1958V68.3417H55.4865H54.6949V73.0492V77.7567L55.4849 77.7538ZM11.9565 58.2497L12.2538 58.2572L12.6979 58.1254L13.1419 57.9935L13.5809 57.5544L14.02 57.1154L14.1518 56.6714L14.2837 56.2273L14.2805 55.9717L14.2774 55.716L14.1307 55.2918L13.9841 54.8676L13.7794 54.6148L13.5746 54.362L13.1797 54.0892L12.7848 53.8164L12.1765 53.7774L11.5683 53.7383L11.1311 53.9264L10.6938 54.1145L10.3699 54.4825L10.0461 54.8504L9.91484 55.2356L9.78364 55.6207V56.0569V56.493L10.0562 57.021L10.3287 57.549L10.7323 57.8199L11.1358 58.0908L11.3971 58.1665L11.6583 58.2422L11.9556 58.2497L11.9565 58.2497ZM87.3861 83.6694H87.3444L87.396 83.5861L87.4475 83.5028H87.4891H87.5308L87.4793 83.5861L87.4278 83.6694H87.3861ZM88.0527 82.9195H88.011L88.0625 82.8362L88.114 82.7529H88.1557H88.1974L88.1459 82.8362L88.0943 82.9195H88.0527ZM88.5526 82.3363H88.511L88.5625 82.253L88.6139 82.1697H88.6556H88.6972L88.6457 82.253L88.5942 82.3363H88.5526ZM89.0624 81.7531H89.0207V81.7114V81.6698H89.0624H89.104V81.7114V81.7531H89.0624ZM89.3956 81.3365H89.354V81.2948V81.2532H89.3956H89.4373V81.2948V81.3365H89.3956ZM89.7289 80.9199H89.6872V80.8783V80.8366H89.7289H89.7705V80.8783V80.9199H89.7289ZM89.9789 80.5867H89.9372V80.545V80.5033H89.9789H90.0205V80.545V80.5867H89.9789ZM90.3121 80.17H90.2705V80.1284V80.0867H90.3121H90.3538V80.1284V80.17H90.3121ZM90.5621 79.8368H90.5204V79.7951V79.7534H90.5621H90.6037V79.7951V79.8368H90.5621ZM90.9787 79.2535H90.937V79.2119V79.1702H90.9787H91.0204V79.2119V79.2535H90.9787ZM91.2286 78.9203H91.187V78.8786V78.8369H91.2286H91.2703V78.8786V78.9203H91.2286ZM91.3952 78.6703H91.3536V78.6287V78.587H91.3952H91.4369V78.6287V78.6703H91.3952ZM92.5618 76.9206H92.5201V76.8789V76.8372H92.5618H92.6034V76.8789V76.9206H92.5618ZM92.7284 76.6706H92.6867V76.629V76.5873H92.7284H92.77V76.629V76.6706H92.7284ZM92.9783 76.2541H92.9366V76.2124V76.1708H92.9783H93.02V76.2124V76.2541H92.9783ZM93.145 76.0041H93.1033V75.9624V75.9207H93.145H93.1866V75.9624V76.0041H93.145ZM93.3949 75.5875H93.3532V75.5459V75.5042H93.3949H93.4366V75.5459V75.5875H93.3949ZM93.7282 75.0042H93.6865V74.9626V74.921H93.7282H93.7699V74.9626V75.0042H93.7282ZM94.0615 74.421H94.0198V74.3793V74.3377H94.0615H94.1031V74.3793V74.421H94.0615ZM94.3948 73.8378H94.3531V73.7961V73.7545H94.3948H94.4364V73.7961V73.8378H94.3948ZM94.4781 73.6712H94.4364V73.6295V73.5879H94.4781H94.5197V73.6295V73.6712H94.4781ZM94.5614 73.5045H94.5197V73.4629V73.4212H94.5614H94.603V73.4629V73.5045H94.5614ZM95.6445 71.3382H95.6029V71.2966V71.255H95.6445H95.6861V71.2966V71.3382H95.6445ZM95.7278 71.1716H95.6861V71.13V71.0883H95.7278H95.7695V71.13V71.1716H95.7278ZM95.8111 71.005H95.7695V70.9633V70.9216H95.8111H95.8528V70.9633V71.005H95.8111ZM96.1444 70.2551H96.1028V70.2135V70.1718H96.1444H96.1861V70.2135V70.2551H96.1444ZM96.4777 69.5052H96.436V69.4636V69.4219H96.4777H96.5194V69.4636V69.5052H96.4777ZM96.6444 69.0886H96.6027V69.047V69.0053H96.6444H96.6861V69.047V69.0886H96.6444ZM96.811 68.6721H96.7693V68.6304V68.5887H96.811H96.8527V68.6304V68.6721H96.811ZM96.9777 68.2555H96.936V68.2138V68.1721H96.9777H97.0193V68.2138V68.2555H96.9777ZM97.1443 67.8388H97.1026V67.7972V67.7556H97.1443H97.1859V67.7972V67.8388H97.1443ZM97.3942 67.1723H97.3525V67.1307V67.089H97.3942H97.4359V67.1307V67.1723H97.3942ZM97.4775 66.9223H97.4359V66.8807V66.839H97.4775H97.5192V66.8807V66.9223H97.4775ZM98.2274 64.6728H98.1857V64.6311V64.5894H98.2274H98.269V64.6311V64.6728H98.2274ZM98.4774 63.8395H98.4357V63.7979V63.7563H98.4774H98.5191V63.7979V63.8395H98.4774ZM98.7273 62.923H98.6857V62.8814V62.8397H98.7273H98.769V62.8814V62.923H98.7273ZM98.9773 61.9232H98.9356V61.8815V61.8399H98.9773H99.0189V61.8815V61.9232H98.9773ZM99.0606 61.59H99.0189V61.5483V61.5066H99.0606H99.1023V61.5483V61.59H99.0606ZM99.144 61.2567H99.1023V61.215V61.1734H99.144H99.1856V61.215V61.2567H99.144ZM99.2272 60.8401H99.1856V60.7984V60.7568H99.2272H99.2689V60.7984V60.8401H99.2272ZM99.3939 60.0902H99.3522V60.0486V60.0069H99.3939H99.4356V60.0486V60.0902H99.3939ZM99.4772 59.6736H99.4356V59.632V59.5903H99.4772H99.5188V59.632V59.6736H99.4772ZM99.6438 58.7571H99.6022V58.7155V58.6738H99.6438H99.6855V58.7155V58.7571H99.6438ZM99.7272 58.2572H99.6855V58.2156V58.1739H99.7272H99.7688V58.2156V58.2572H99.7272ZM99.8104 57.7573H99.7688V57.7156V57.674H99.8104H99.8521V57.7156V57.7573H99.8104ZM99.8938 57.1741H99.8521V57.1324V57.0908H99.8938H99.9354V57.1324V57.1741H99.8938ZM99.9771 56.5908H99.9354V56.5492V56.5075H99.9771H100.019V56.5492V56.5908H99.9771ZM100.06 55.9243H100.019V55.8826V55.8409H100.06H100.102V55.8826V55.9243H100.06ZM100.144 55.1744H100.102V55.1327V55.0911H100.144H100.185V55.1327V55.1744H100.144ZM55.1099 54.6745H53.8601V53.4049V52.1354L55.1099 53.383L56.3597 54.6307V54.6525V54.6745L55.1099 54.6745ZM100.227 54.2579H100.185V54.2162V54.1746H100.227H100.269V54.2162V54.2579H100.227ZM100.324 53.0637L100.269 53.1192V53.0081V52.897L100.324 52.9526L100.38 53.0081L100.324 53.0637ZM100.411 51.0304L100.375 51.2168V50.8001V50.3836L100.41 50.6139L100.444 50.8441L100.408 51.0304H100.411ZM100.411 49.4474L100.375 49.6337V49.2171V48.8005L100.41 49.0308L100.444 49.2611L100.408 49.4474H100.411ZM100.324 47.0647L100.269 47.1203V47.0092V46.8981L100.324 46.9536L100.38 47.0092L100.324 47.0647ZM100.227 45.8427H100.185V45.801V45.7594H100.227H100.269V45.801V45.8427H100.227ZM100.144 44.9262H100.102V44.8845V44.8429H100.144H100.185V44.8845V44.9262H100.144ZM100.06 44.1764H100.019V44.1347V44.093H100.06H100.102V44.1347V44.1764H100.06ZM99.9771 43.5098H99.9354V43.4681V43.4265H99.9771H100.019V43.4681V43.5098H99.9771ZM99.8938 42.9265H99.8521V42.8849V42.8432H99.8938H99.9354V42.8849V42.9265H99.8938ZM99.8104 42.3433H99.7688V42.3017V42.26H99.8104H99.8521V42.3017V42.3433H99.8104ZM99.7272 41.8434H99.6855V41.8017V41.7601H99.7272H99.7688V41.8017V41.8434H99.7272ZM99.6438 41.3435H99.6022V41.3018V41.2602H99.6438H99.6855V41.3018V41.3435H99.6438ZM99.4772 40.427H99.4356V40.3853V40.3436H99.4772H99.5188V40.3853V40.427H99.4772ZM99.3939 40.0104H99.3522V39.9687V39.9271H99.3939H99.4356V39.9687V40.0104H99.3939ZM99.144 38.8439H99.1023V38.8022V38.7606H99.144H99.1856V38.8022V38.8439H99.144ZM99.0606 38.5107H99.0189V38.469V38.4273H99.0606H99.1023V38.469V38.5107H99.0606ZM98.9773 38.1774H98.9356V38.1357V38.0941H98.9773H99.0189V38.1357V38.1774H98.9773ZM98.7273 37.1776H98.6857V37.1359V37.0943H98.7273H98.769V37.1359V37.1776H98.7273ZM98.4774 36.2611H98.4357V36.2194V36.1777H98.4774H98.5191V36.2194V36.2611H98.4774ZM98.2274 35.4279H98.1857V35.3862V35.3445H98.2274H98.269V35.3862V35.4279H98.2274ZM97.4775 33.1783H97.4359V33.1366V33.0949H97.4775H97.5192V33.1366V33.1783H97.4775ZM97.3942 32.9283H97.3525V32.8866V32.8449H97.3942H97.4359V32.8866V32.9283H97.3942ZM59.3592 32.389H53.8185L56.5888 32.3661L59.3592 32.3431L62.1295 32.3661L64.8999 32.389H59.3592ZM72.1903 32.389H68.066L70.1281 32.3651L72.1903 32.3412L74.2524 32.3651L76.3146 32.389H72.1903ZM83.8133 32.389L79.6473 32.389L81.7569 32.3654L83.8666 32.3418L85.9228 32.3654L87.9792 32.3893L83.8133 32.389ZM97.1443 32.261H97.1026V32.2193V32.1777H97.1443H97.1859V32.2193V32.261H97.1443ZM96.9777 31.8444H96.936V31.8027V31.7611H96.9777H97.0193V31.8027V31.8444H96.9777ZM96.811 31.4278H96.7693V31.3862V31.3445H96.811H96.8527V31.3862V31.4278H96.811ZM96.6444 31.0113H96.6027V30.9696V30.9279H96.6444H96.6861V30.9696V31.0113H96.6444ZM96.4777 30.5946H96.436V30.553V30.5113H96.4777H96.5194V30.553V30.5946H96.4777ZM96.1444 29.8448H96.1028V29.8031V29.7614H96.1444H96.1861V29.8031V29.8448H96.1444ZM95.8111 29.0949H95.7695V29.0532V29.0116H95.8111H95.8528V29.0532V29.0949H95.8111ZM95.7278 28.9283H95.6861V28.8866V28.8449H95.7278H95.7695V28.8866V28.9283H95.7278ZM94.5614 26.5954H94.5197V26.5537V26.512H94.5614H94.603V26.5537V26.5954H94.5614ZM94.4781 26.4287H94.4364V26.387V26.3454H94.4781H94.5197V26.387V26.4287H94.4781ZM94.3948 26.2621H94.3531V26.2204V26.1787H94.3948H94.4364V26.2204V26.2621H94.3948ZM94.0615 25.6788H94.0198V25.6372V25.5955H94.0615H94.1031V25.6372V25.6788H94.0615ZM93.7282 25.0956H93.6865V25.054V25.0123H93.7282H93.7699V25.054V25.0956H93.7282ZM93.3949 24.5124H93.3532V24.4707V24.4291H93.3949H93.4366V24.4707V24.5124H93.3949ZM93.145 24.0958H93.1033V24.0541V24.0124H93.145H93.1866V24.0541V24.0958H93.145ZM92.7284 23.4292H92.6867V23.3876V23.3459H92.7284H92.77V23.3876V23.4292H92.7284ZM91.3952 21.4296H91.3536V21.3879V21.3462H91.3952H91.4369V21.3879V21.4296H91.3952ZM91.2286 21.1796H91.187V21.138V21.0963H91.2286H91.2703V21.138V21.1796H91.2286ZM90.9787 20.8463H90.937V20.8047V20.763H90.9787H91.0204V20.8047V20.8463H90.9787ZM90.5621 20.2631H90.5204V20.2214V20.1798H90.5621H90.6037V20.2214V20.2631H90.5621ZM90.3121 19.9298H90.2705V19.8882V19.8465H90.3121H90.3538V19.8882V19.9298H90.3121ZM89.7289 19.18H89.6872V19.1383V19.0967H89.7289H89.7705V19.1383V19.18H89.7289ZM89.3956 18.7634H89.354V18.7217V18.68H89.3956H89.4373V18.7217V18.7634H89.3956ZM89.0624 18.3468H89.0207V18.3051V18.2635H89.0624H89.104V18.3051V18.3468H89.0624ZM88.6507 17.8469H88.6139L88.5545 17.7507L88.495 17.6545L88.5912 17.714L88.6874 17.7734V17.8101V17.8469H88.6507ZM88.1508 17.2636H88.114L88.0546 17.1674L87.9951 17.0713L88.0913 17.1307L88.1874 17.1902V17.2269V17.2636H88.1508ZM87.4842 16.5138H87.4475L87.388 16.4176L87.3286 16.3214L87.4248 16.3808L87.521 16.4403V16.477V16.5138H87.4842ZM86.2477 15.1806H86.2244L85.7271 14.6599L85.2298 14.1392L85.7505 14.6365L86.2713 15.1338V15.1571V15.1804L86.2477 15.1806ZM16.8151 13.0977H16.7735L16.8249 13.0144L16.8764 12.9311H16.9181H16.9597L16.9083 13.0144L16.8568 13.0977H16.8151ZM84.0681 13.0977H84.0314L83.972 13.0015L83.9125 12.9053L84.0087 12.9648L84.1049 13.0242V13.0609V13.0977H84.0681ZM17.5649 12.4311H17.5233L17.5748 12.3478L17.6263 12.2645H17.668H17.7096L17.6581 12.3478L17.6066 12.4311H17.5649ZM83.3182 12.4311H83.2815L83.2221 12.335L83.1626 12.2388L83.2588 12.2982L83.355 12.3576V12.3944V12.4311H83.3182ZM18.1482 11.9313H18.1065L18.1581 11.8479L18.2095 11.7646H18.2512H18.2929L18.2414 11.8479L18.1898 11.9313H18.1482ZM82.735 11.9313H82.6983L82.6388 11.835L82.5794 11.7389L82.6756 11.7983L82.7718 11.8578V11.8945V11.9313H82.735ZM18.7413 11.4313H18.6996V11.3896V11.348H18.7413H18.7829V11.3896V11.4313H18.7413ZM82.1469 11.4313H82.1052V11.3896V11.348H82.1469H82.1886V11.3896V11.4313H82.1469ZM19.1579 11.098H19.1162V11.0564V11.0147H19.1579H19.1995V11.0564V11.098H19.1579ZM81.7303 11.098H81.6887V11.0564V11.0147H81.7303H81.7719V11.0564V11.098H81.7303ZM19.5745 10.7648H19.5328V10.7231V10.6814H19.5745H19.6161V10.7231V10.7648H19.5745ZM81.3137 10.7648H81.272V10.7231V10.6814H81.3137H81.3553V10.7231V10.7648H81.3137ZM19.9077 10.5148H19.8661V10.4731V10.4315H19.9077H19.9494V10.4731V10.5148H19.9077ZM80.9804 10.5148H80.9388V10.4731V10.4315H80.9804H81.0221V10.4731V10.5148H80.9804ZM20.3243 10.1815H20.2827V10.1399V10.0982H20.3243H20.366V10.1399V10.1815H20.3243ZM80.5638 10.1815H80.5221V10.1399V10.0982H80.5638H80.6055V10.1399V10.1815H80.5638ZM20.6576 9.93157H20.6159V9.8899V9.84823H20.6576H20.6993V9.8899V9.93157H20.6576ZM80.2305 9.93157H80.1889V9.8899V9.84823H80.2305H80.2722V9.8899V9.93157H80.2305ZM21.2408 9.51495H21.1992V9.47332V9.43165H21.2408H21.2825V9.47332V9.51495H21.2408ZM79.6473 9.51495H79.6056V9.47332V9.43165H79.6473H79.689V9.47332V9.51495H79.6473ZM21.5741 9.26501H21.5324V9.22338V9.18171H21.5741H21.6158V9.22338V9.26501H21.5741ZM79.314 9.26501H79.2724V9.22338V9.18171H79.314H79.3557V9.22338V9.26501H79.314ZM21.8241 9.09837H21.7824V9.0567V9.01507H21.8241H21.8657V9.0567V9.09837H21.8241ZM79.0641 9.09837H79.0224V9.0567V9.01507H79.0641H79.1058V9.0567V9.09837H79.0641ZM22.074 8.93173H22.0324V8.89006V8.84839H22.074H22.1157V8.89006V8.93173H22.074ZM78.4809 8.68179H78.4392V8.64012V8.59845H78.4809H78.5225V8.64012V8.68179H78.4809ZM78.2309 8.51515H78.1892V8.47348V8.43181H78.2309H78.2725V8.47348V8.51515H78.2309ZM23.8237 7.76529H23.782V7.72362V7.68195H23.8237H23.8654V7.72362V7.76529H23.8237ZM77.0644 7.76529H77.0227V7.72362V7.68195H77.0644H77.1061V7.72362V7.76529H77.0644ZM24.2403 7.51531H24.1987V7.47364V7.43201H24.2403H24.282V7.47364V7.51531H24.2403ZM24.4903 7.34867H24.4486V7.307V7.26537H24.4903H24.5319V7.307V7.34867H24.4903ZM76.3979 7.34867H76.3562V7.307V7.26537H76.3979H76.4395V7.307V7.34867H76.3979ZM24.9068 7.09873H24.8652V7.05706V7.01539H24.9068H24.9485V7.05706V7.09873H24.9068ZM75.9813 7.09873H75.9396V7.05706V7.01539H75.9813H76.023V7.05706V7.09873H75.9813ZM25.3235 6.84875H25.2818V6.80708V6.76545H25.3235H25.3651V6.80708V6.84875H25.3235ZM75.5647 6.84875H75.523V6.80708V6.76545H75.5647H75.6064V6.80708V6.84875H75.5647ZM25.4901 6.76545H25.4484V6.72382V6.68215H25.4901H25.5318V6.72382V6.76545H25.4901ZM25.9067 6.51551H25.865V6.47384V6.43217H25.9067H25.9484V6.47384V6.51551H25.9067ZM74.9815 6.51551H74.9398V6.47384V6.43217H74.9815H75.0231V6.47384V6.51551H74.9815ZM26.0733 6.43217H26.0317V6.3905V6.34883H26.0733H26.115V6.3905V6.43217H26.0733ZM74.8148 6.43217H74.7731V6.3905V6.34883H74.8148H74.8565V6.3905V6.43217H74.8148ZM26.6566 6.09889H26.6149V6.05726V6.01559H26.6566H26.6982V6.05726V6.09889H26.6566ZM74.2316 6.09889H74.19V6.05726V6.01559H74.2316H74.2732V6.05726V6.09889H74.2316ZM26.8232 6.01559H26.7815V5.97392V5.93225H26.8232H26.8649V5.97392V6.01559H26.8232ZM74.065 6.01559H74.0233V5.97392V5.93225H74.065H74.1066V5.97392V6.01559H74.065ZM26.9898 5.93225H26.9482V5.89058V5.84895H26.9898H27.0315V5.89058V5.93225H26.9898ZM73.8983 5.93225H73.8566V5.89058V5.84895H73.8983H73.94V5.89058V5.93225H73.8983ZM29.3228 4.7658H29.2811V4.72413V4.6825H29.3228H29.3644V4.72413V4.7658H29.3228ZM71.5654 4.7658H71.5237V4.72413V4.6825H71.5654H71.6071V4.72413V4.7658H71.5654ZM29.4894 4.6825H29.4477V4.64083V4.59916H29.4894H29.5311V4.64083V4.6825H29.4894ZM71.3987 4.6825H71.3571V4.64083V4.59916H71.3987H71.4404V4.64083V4.6825H71.3987ZM30.2393 4.34918H30.1976V4.30751V4.26588H30.2393H30.2809V4.30751V4.34918H30.2393ZM70.6489 4.34918H70.6072V4.30751V4.26588H70.6489H70.6905V4.30751V4.34918H70.6489ZM30.9892 4.01594H30.9475V3.97427V3.9326H30.9892H31.0308V3.97427V4.01594H30.9892ZM69.899 4.01594H69.8573V3.97427V3.9326H69.899H69.9407V3.97427V4.01594H69.899ZM31.4057 3.84926H31.3641V3.80763V3.766H31.4057H31.4474V3.80763V3.84926H31.4057ZM69.4825 3.84926H69.4408V3.80763V3.766H69.4825H69.524V3.80763V3.84926H69.4825ZM31.8223 3.68266H31.7806V3.64099V3.59932H31.8223H31.864V3.64099V3.68266H31.8223ZM68.6493 3.51602H68.6076V3.47435V3.43268H68.6493H68.6909V3.47435V3.51602H68.6493ZM32.6555 3.34938H32.6138V3.30771V3.26608H32.6555H32.6972V3.30771V3.34938H32.6555ZM68.2326 3.34938H68.191V3.30771V3.26608H68.2326H68.2743V3.30771V3.34938H68.2326ZM33.322 3.09944H33.2804V3.05777V3.0161H33.322H33.3637V3.05777V3.09944H33.322ZM67.5661 3.09944H67.5244V3.05777V3.0161H67.5661H67.6077V3.05777V3.09944H67.5661ZM33.572 3.0161H33.5303V2.97443V2.93276H33.572H33.6137V2.97443V3.0161H33.572ZM67.3161 3.0161H67.2745V2.97443V2.93276H67.3161H67.3578V2.97443V3.0161H67.3161ZM35.8216 2.26624H35.78V2.22457V2.18294H35.8216H35.8633V2.22457V2.26624H35.8216ZM65.0666 2.26624H65.0249V2.22457V2.18294H65.0666H65.1082V2.22457V2.26624H65.0666ZM64.8166 2.18294H64.7749V2.14127V2.0996H64.8166H64.8582V2.14127V2.18294H64.8166ZM36.6548 2.01626H36.6132V1.97463V1.93296H36.6548H36.6965V1.97463V2.01626H36.6548ZM64.2333 2.01626H64.1917V1.97463V1.93296H64.2333H64.275V1.97463V2.01626H64.2333ZM63.6501 1.84962H63.6085V1.80795V1.76632H63.6501H63.6918V1.80795V1.84962H63.6501ZM37.5713 1.76632H37.5297V1.72469V1.68302H37.5713H37.613V1.72469V1.76632H37.5713ZM63.3168 1.76632H63.2752V1.72469V1.68302H63.3168H63.3585V1.72469V1.76632H63.3168ZM38.5711 1.51638H38.5295V1.47471V1.43304H38.5711H38.6128V1.47471V1.51638H38.5711ZM38.9044 1.43304H38.8628V1.39137V1.3497H38.9044H38.9461V1.39137V1.43304H38.9044ZM61.9837 1.43304H61.9421V1.39137V1.3497H61.9837H62.0254V1.39137V1.43304H61.9837ZM39.2377 1.3497H39.196V1.30807V1.26644H39.2377H39.2793V1.30807V1.3497H39.2377ZM61.6505 1.3497H61.6088V1.30807V1.26644H61.6505H61.6921V1.30807V1.3497H61.6505ZM39.6543 1.26644H39.6127V1.22477V1.1831H39.6543H39.696V1.22477V1.26644H39.6543ZM60.9006 1.1831H60.8589V1.14143V1.09976H60.9006H60.9423V1.14143V1.1831H60.9006ZM40.4041 1.09976H40.3625V1.05813V1.01646H40.4041H40.4458V1.05813V1.09976H40.4041ZM60.484 1.09976H60.4423V1.05813V1.01646H60.484H60.5257V1.05813V1.09976H60.484ZM40.8207 1.01646H40.7791V0.97479V0.93312H40.8207H40.8624V0.97479V1.01646H40.8207ZM60.0674 1.01646H60.0258V0.97479V0.93312H60.0674H60.1091V0.97479V1.01646H60.0674ZM59.6508 0.93312H59.6092V0.89145V0.849819H59.6508H59.6925V0.89145V0.93312H59.6508ZM41.7372 0.849819H41.6956V0.80815V0.766518H41.7372H41.7789V0.80815V0.849819H41.7372ZM59.1509 0.849819H59.1092V0.80815V0.766518H59.1509H59.1926V0.80815V0.849819H59.1509ZM42.2372 0.766518H42.1955V0.724849V0.683179H42.2372H42.2788V0.724849V0.766518H42.2372ZM42.7371 0.683179H42.6954V0.641509V0.599878H42.7371H42.7787V0.641509V0.683179H42.7371ZM43.3203 0.599878H43.2787V0.558209V0.516539H43.3203H43.362V0.558209V0.599878H43.3203ZM57.5679 0.599878H57.5262V0.558209V0.516539H57.5679H57.6095V0.558209V0.599878H57.5679ZM43.9036 0.516539H43.8619V0.474869V0.4332H43.9036H43.9452V0.474869V0.516539H43.9036ZM44.5701 0.4332H44.5284V0.391568V0.349899H44.5701H44.6118V0.391568V0.4332H44.5701ZM56.318 0.4332H56.2764V0.391568V0.349899H56.318H56.3597V0.391568V0.4332H56.318ZM45.32 0.349899H45.2783V0.308229V0.266598H45.32H45.3616V0.308229V0.349899H45.32ZM55.5682 0.349899H55.5265V0.308229V0.266598H55.5682H55.6098V0.308229V0.349899H55.5682ZM46.2365 0.266598H46.1948V0.224928V0.183259H46.2365H46.2781V0.224928V0.266598H46.2365ZM54.6933 0.266598H54.5822L54.6378 0.211051L54.6933 0.155505L54.7489 0.211051L54.8044 0.266598H54.6933ZM47.4029 0.183259H47.3613V0.141628V0.0999579H47.4029H47.4446V0.141628V0.183259H47.4029ZM53.4436 0.183259H53.3325L53.388 0.127712L53.4436 0.0721653L53.4991 0.127712L53.5547 0.183259H53.4436ZM49.5276 0.0806223H49.2359L49.3818 0.0425276L49.5276 0.00439453L49.6734 0.0425276L49.8192 0.0806223H49.5276ZM51.3606 0.0806223H51.069L51.2148 0.0425276L51.3606 0.00439453L51.5064 0.0425276L51.6522 0.0806223H51.3606Z" fill="#B945FF"/>
<path d="M86.6324 84.4381L86.3915 84.6651L72.9796 71.2529L59.5676 57.8407H62.5878H65.608V56.2577V54.6746H61.0037H56.3993L55.1297 53.4031L53.8601 52.1315V48.4873V44.843H59.0277H64.1954L64.1727 43.3225L64.15 41.8019L59.0051 41.7804L53.8602 41.759V37.0944V32.4298L59.3801 32.4084L64.8999 32.387L64.9226 30.8664L64.9453 29.3458H57.6946H50.444V39.0313V48.7168L46.778 45.0514L43.112 41.3861V35.366V29.3458H41.4039H39.6959V33.6575V37.9691L27.7569 26.0304L15.818 14.0916L15.7382 14.1563L15.6584 14.2209L15.9917 13.8606L16.325 13.5003L17.481 12.4872L18.637 11.474L19.8158 10.5575L20.9945 9.64095L22.1592 8.83719L23.3237 8.0334L24.4902 7.32671L25.6567 6.61994L26.9065 5.94469L28.1563 5.26948L29.406 4.69498L30.6558 4.12049L31.6012 3.73374L32.5466 3.34698L33.8289 2.89092L35.1112 2.4349L36.4245 2.05396L37.7379 1.67305L38.9461 1.39339L40.1542 1.11381L41.029 0.946634L41.9039 0.779494L43.0287 0.609856L44.1535 0.440256L45.3903 0.311172L46.6272 0.182088L48.5425 0.103861L50.4577 0.0256348L52.3464 0.104515L54.235 0.183395L55.5265 0.314747L56.8179 0.446137L57.8594 0.602245L58.9009 0.758314L60.194 1.01214L61.4871 1.266L62.7769 1.59363L64.0667 1.92126L65.305 2.3062L66.5433 2.69119L67.8462 3.17846L69.1491 3.66577L70.0656 4.05806L70.9821 4.45038L72.1486 5.0095L73.315 5.56862L74.5402 6.24691L75.7654 6.92519L76.8315 7.58749L77.8976 8.24982L78.939 8.97842L79.9805 9.70699L81.0481 10.5359L82.1157 11.3647L83.0478 12.1646L83.9798 12.9646L85.4263 14.3855L86.8729 15.8065L87.7936 16.848L88.7144 17.8895L89.5144 18.8893L90.3143 19.8892L91.0318 20.889L91.7493 21.8888L92.3725 22.847L92.9957 23.8051L93.6013 24.8466L94.2069 25.8881L94.8165 27.0546L95.4261 28.221L95.897 29.2625L96.368 30.304L96.7868 31.3455L97.2056 32.387L97.618 33.5535L98.0305 34.7199L98.4048 36.0114L98.7791 37.3028L99.0622 38.5109L99.3453 39.719L99.5517 40.8438L99.7581 41.9687L99.9248 43.1768L100.092 44.3849L100.184 45.3501L100.277 46.3153L100.344 48.1621L100.411 50.0089L100.344 51.8557L100.277 53.7025L100.184 54.6677L100.092 55.6329L99.9248 56.841L99.7581 58.0492L99.5575 59.1376L99.357 60.226L99.0684 61.4705L98.7799 62.7151L98.4052 64.0064L98.0305 65.2979L97.618 66.4643L97.2056 67.6309L96.7716 68.714L96.3376 69.7971L95.6503 71.2665L94.9631 72.7358L94.2287 74.0576L93.4944 75.3795L92.7394 76.5852L91.9843 77.791L91.1482 78.9599L90.3121 80.1288L89.513 81.1285L88.7141 82.1283L87.7937 83.1698L86.8733 84.2113L86.6324 84.4381ZM77.9809 57.8407H79.6889V45.1346V32.4285H83.8132H87.9374V30.8871V29.3457H78.0225H68.1076V30.8871V32.4285H72.1902H76.2729V45.1346V57.8407H77.9809Z" fill="#9E00FF"/>
</g>
<defs>
<clipPath id="clip0_29_132">
<rect width="100" height="100" fill="white" transform="translate(0.452881)"/>
</clipPath>
</defs>
</svg>
