<svg className="icon"
width="100%"
height="100%"
viewBox="0 0 100 100"
fill="none"
xmlns="http://www.w3.org/2000/svg"
>
<path d="M46.7734 99.9749C46.7394 99.941 46.2201 99.8833 45.6194 99.8466C45.0186 99.81 44.189 99.7273 43.7759 99.6629C43.3627 99.5985 42.8426 99.5226 42.6201 99.4941C42.3976 99.4657 42.0595 99.4147 41.8688 99.3809C41.6781 99.347 41.2892 99.2909 41.0046 99.2561C40.7199 99.2213 40.3904 99.1411 40.2723 99.078C40.1542 99.0149 40.0321 98.9887 40.001 99.0197C39.9699 99.0508 39.7793 99.0278 39.5775 98.9686C39.3757 98.9094 39.0285 98.831 38.806 98.7944C38.5835 98.7579 38.2975 98.6724 38.1703 98.6045C38.0432 98.5367 37.9262 98.4899 37.9103 98.5007C37.7897 98.5821 37.4205 98.4959 37.4797 98.4001C37.5284 98.3215 37.445 98.3074 37.2382 98.3592C37.0327 98.4107 36.9481 98.3967 36.996 98.3193C37.0366 98.2537 36.9662 98.1731 36.8397 98.14C36.7132 98.107 36.6389 98.1271 36.6745 98.1846C36.7618 98.3257 36.7062 98.3176 36.2343 98.1207C36.0121 98.028 35.7977 97.9847 35.7579 98.0245C35.718 98.0643 35.6854 98.0307 35.6854 97.9499C35.6854 97.869 35.6125 97.8308 35.5233 97.865C35.4342 97.8991 35.3259 97.8917 35.2826 97.8485C35.2032 97.7692 35.1402 97.7528 34.8118 97.7265C34.7112 97.7185 34.6665 97.6556 34.7107 97.5843C34.762 97.5013 34.7138 97.4794 34.573 97.5217C34.4538 97.5576 34.1492 97.4896 33.8961 97.3706C33.6431 97.2516 33.396 97.179 33.3471 97.2091C33.2983 97.2393 33.2582 97.222 33.2582 97.1706C33.2582 97.1192 33.1247 97.0695 32.9617 97.0601C32.7987 97.0507 32.5986 96.9518 32.517 96.8404C32.4354 96.729 32.3103 96.674 32.2389 96.7181C32.1675 96.7621 31.9864 96.718 31.8365 96.6199C31.6866 96.5218 31.5291 96.4763 31.4865 96.5189C31.4439 96.5614 31.409 96.5269 31.409 96.4423C31.409 96.3576 31.3748 96.3225 31.333 96.3643C31.2912 96.4061 31.1871 96.3824 31.1018 96.3117C31.0165 96.241 30.9467 96.2128 30.9467 96.2491C30.9467 96.3455 30.1298 95.9895 29.7779 95.7398C29.6118 95.622 29.4444 95.5571 29.4059 95.5955C29.3674 95.634 29.1912 95.5696 29.0144 95.4523C28.8376 95.3351 28.6201 95.2276 28.5312 95.2135C28.4422 95.1994 28.3329 95.1289 28.2884 95.057C28.2439 94.9851 28.1347 94.9155 28.0457 94.9023C27.7301 94.8557 27.1327 94.5656 27.1327 94.459C27.1327 94.3995 27.0806 94.3828 27.0171 94.4221C26.9535 94.4613 26.9015 94.4353 26.9015 94.3644C26.9015 94.2934 26.8537 94.2648 26.7952 94.3009C26.7368 94.337 26.613 94.2905 26.5201 94.1978C26.4271 94.105 26.3189 94.0612 26.2796 94.1005C26.2402 94.1398 26.208 94.1147 26.208 94.0448C26.208 93.9748 26.026 93.8518 25.8035 93.7714C25.5801 93.6908 25.3982 93.5453 25.3972 93.4465C25.396 93.3163 25.3709 93.3063 25.3052 93.4096C25.2394 93.513 25.0991 93.4563 24.7896 93.2015C24.5558 93.009 24.2461 92.8288 24.1016 92.8012C23.957 92.7735 23.7809 92.6724 23.7104 92.5764C23.6398 92.4804 23.5283 92.4019 23.4627 92.4019C23.397 92.4019 23.3121 92.3207 23.274 92.2214C23.2358 92.1221 23.1484 92.0756 23.0797 92.1181C22.9355 92.2071 22.3724 91.7221 22.4584 91.5831C22.4899 91.5321 22.4103 91.5107 22.2815 91.5355C22.1526 91.5603 22.0472 91.5377 22.0472 91.4857C22.0472 91.4336 21.8912 91.3264 21.7005 91.2475C21.5098 91.1686 21.3538 91.0584 21.3538 91.0026C21.3538 90.9468 21.2882 90.9012 21.2081 90.9012C21.128 90.9012 20.9082 90.7583 20.7197 90.5837C20.5312 90.4091 20.3325 90.2663 20.2781 90.2663C20.1196 90.2663 19.8518 89.8392 19.9306 89.7119C19.9718 89.6454 19.9447 89.6314 19.8672 89.6792C19.7928 89.7252 19.7627 89.8241 19.8004 89.8991C19.8381 89.9741 19.7656 89.9185 19.6393 89.7757C19.513 89.6328 19.3645 89.5159 19.3093 89.5159C19.254 89.5159 19.1359 89.4148 19.0467 89.2912C18.9575 89.1676 18.842 89.0928 18.79 89.1249C18.6435 89.2153 18.6785 89.0039 18.84 88.8231C18.9622 88.6862 18.9543 88.6839 18.789 88.8085C18.6251 88.9319 18.536 88.9132 18.2368 88.6923C18.0407 88.5474 17.9057 88.3624 17.9369 88.2812C17.9681 88.1999 17.9566 88.1412 17.9112 88.1507C17.7194 88.1908 17.2062 87.8953 16.9892 87.6198C16.8605 87.4563 16.706 87.3226 16.6459 87.3226C16.4876 87.3226 15.691 86.437 15.7743 86.3538C15.813 86.3152 15.784 86.2836 15.71 86.2836C15.5043 86.2836 14.7301 85.5113 14.8086 85.3844C14.8466 85.323 14.7164 85.2406 14.5193 85.2012C14.2315 85.1437 14.1728 85.084 14.2214 84.8984C14.2547 84.7712 14.2356 84.6958 14.1789 84.7308C14.0309 84.8221 13.3523 84.0953 13.4203 83.9183C13.4575 83.8213 13.405 83.789 13.2682 83.8247C13.138 83.8587 12.9888 83.7789 12.8723 83.6128C12.6542 83.3017 12.6281 83.1178 12.8189 83.2355C12.8997 83.2854 12.921 83.2673 12.873 83.1897C12.8293 83.1191 12.7082 83.0941 12.6039 83.1341C12.4596 83.1895 12.4325 83.1592 12.4907 83.0077C12.538 82.8845 12.5217 82.8366 12.4479 82.8821C12.2788 82.9865 11.9692 82.6999 12.0432 82.5074C12.0771 82.419 12.0572 82.3761 11.999 82.4121C11.9407 82.4481 11.8595 82.3721 11.8186 82.2433C11.7777 82.1144 11.7018 82.0352 11.65 82.0672C11.5224 82.146 11.2618 81.8188 11.3451 81.6842C11.3816 81.6251 11.3211 81.506 11.2105 81.4194C11.0262 81.2751 11.0227 81.2811 11.1685 81.4929C11.2558 81.6199 11.1908 81.578 11.024 81.3999C10.8571 81.2218 10.7206 80.9979 10.7206 80.9025C10.7206 80.807 10.6723 80.7587 10.6134 80.7951C10.5544 80.8316 10.4728 80.7567 10.4322 80.6288C10.3916 80.5009 10.3085 80.3963 10.2477 80.3963C10.1868 80.3963 10.0876 80.2664 10.0271 80.1077C9.96673 79.9489 9.85793 79.8191 9.78537 79.8191C9.71032 79.8191 9.67953 79.7195 9.71394 79.588C9.74721 79.461 9.74028 79.3762 9.69853 79.3996C9.65678 79.4231 9.50377 79.3193 9.3585 79.1689C9.21323 79.0186 9.12431 78.8955 9.16091 78.8955C9.19751 78.8955 9.10033 78.7586 8.94495 78.5912C8.78957 78.4239 8.59402 78.1512 8.5104 77.9852C8.42677 77.8192 8.26459 77.5894 8.14999 77.4745C8.03539 77.3597 7.96848 77.2222 8.00131 77.1692C8.03414 77.1161 7.98328 77.0429 7.88829 77.0065C7.79331 76.9701 7.71559 76.8651 7.71559 76.7732C7.71559 76.6812 7.66075 76.5878 7.59372 76.5654C7.52669 76.5431 7.45802 76.4307 7.44111 76.3157C7.42421 76.2007 7.33602 76.0596 7.24515 76.0021C7.15427 75.9447 7.12873 75.8969 7.18839 75.8959C7.24805 75.895 7.1859 75.7909 7.05028 75.6647C6.90629 75.5307 6.82258 75.3373 6.84908 75.1999C6.87807 75.0495 6.84825 74.993 6.76672 75.0433C6.6818 75.0957 6.6614 75.0365 6.70588 74.8666C6.75846 74.6658 6.7405 74.6379 6.62201 74.7361C6.51006 74.8289 6.45321 74.8142 6.40127 74.679C6.36091 74.5739 6.37965 74.5267 6.44556 74.5674C6.5084 74.6062 6.55981 74.5864 6.55981 74.5235C6.55981 74.4605 6.45504 74.3758 6.32698 74.3352C6.19892 74.2946 6.12398 74.2132 6.16043 74.1543C6.19689 74.0953 6.17999 74.0471 6.12288 74.0471C6.06576 74.0471 5.95828 73.9139 5.88402 73.7512C5.80594 73.58 5.79812 73.4855 5.86547 73.5271C5.92952 73.5666 5.98193 73.544 5.98193 73.4767C5.98193 73.4095 5.90084 73.3545 5.80174 73.3545C5.70263 73.3545 5.65095 73.307 5.68688 73.2489C5.72281 73.1908 5.70378 73.1259 5.64458 73.1046C5.58539 73.0833 5.52005 72.988 5.49939 72.8927C5.47873 72.7975 5.43582 72.6936 5.40404 72.6619C5.28997 72.5479 4.82551 71.5625 4.82583 71.435C4.82606 71.3634 4.75123 71.2428 4.65965 71.1669C4.56808 71.0909 4.52491 70.9462 4.56372 70.8452C4.61051 70.7234 4.58873 70.6896 4.49906 70.745C4.40966 70.8002 4.36384 70.7312 4.36384 70.5413C4.36384 70.3834 4.2883 70.1787 4.19598 70.0865C4.10365 69.9943 4.06031 69.8867 4.09966 69.8474C4.13901 69.808 4.10416 69.7759 4.02222 69.7759C3.90283 69.7759 3.90399 69.7357 4.02804 69.5739C4.11319 69.4628 4.13723 69.4105 4.08146 69.4577C3.95282 69.5666 3.63261 69.1223 3.72829 68.9676C3.76751 68.9042 3.74144 68.8524 3.67037 68.8524C3.5993 68.8524 3.5733 68.8004 3.61259 68.7369C3.65187 68.6735 3.62894 68.6215 3.56162 68.6215C3.4943 68.6215 3.44538 68.5825 3.45291 68.5349C3.47128 68.4187 3.40596 68.1317 3.26898 67.7269C3.22065 67.584 3.13189 67.4671 3.07174 67.4671C3.01159 67.4671 2.97865 67.3712 2.99853 67.254C3.01841 67.1367 2.96424 66.9561 2.87815 66.8524C2.79205 66.7488 2.71404 66.5331 2.70479 66.373C2.69553 66.213 2.64896 66.082 2.60128 66.0819C2.5536 66.0819 2.52285 66.0429 2.53295 65.9953C2.54304 65.9477 2.51758 65.8308 2.47637 65.7355C2.24516 65.2012 1.98207 64.2348 2.06781 64.2348C2.12284 64.2348 2.16786 64.1798 2.16786 64.1126C2.16786 64.0453 2.11585 64.0224 2.05229 64.0617C1.95187 64.1237 1.88521 63.9598 1.9656 63.8485C1.98149 63.8265 1.93377 63.7355 1.85956 63.6462C1.78535 63.5569 1.73609 63.3184 1.75011 63.1162C1.76412 62.914 1.73382 62.7744 1.68278 62.8059C1.63174 62.8374 1.586 62.8212 1.58113 62.7698C1.57627 62.7184 1.54651 62.5725 1.51502 62.4455C1.48352 62.3185 1.45826 62.1237 1.45889 62.0126C1.45945 61.9015 1.40445 61.8106 1.33651 61.8106C1.25845 61.8106 1.23863 61.6513 1.28263 61.3777C1.33289 61.0653 1.31963 60.993 1.23497 61.118C1.1448 61.2511 1.124 61.211 1.14505 60.9448C1.16011 60.7543 1.10747 60.4797 1.02807 60.3344C0.948667 60.1891 0.916094 59.9684 0.955683 59.8438C0.997723 59.7115 0.974244 59.6173 0.89923 59.6173C0.828593 59.6173 0.782581 59.5523 0.796983 59.473C0.811385 59.3936 0.763085 59.043 0.689646 58.6938C0.616209 58.3446 0.526227 57.7772 0.489688 57.4329C0.453148 57.0887 0.40098 56.771 0.373758 56.727C0.329026 56.6547 0.234189 55.5667 0.152772 54.1916C0.135854 53.9059 0.179253 53.5973 0.24921 53.5057C0.342813 53.3832 0.341722 53.36 0.24506 53.4178C0.0128076 53.5568 -0.016842 53.0728 0.00665152 49.5264C0.0243344 46.8572 0.0657715 45.9899 0.185662 45.7795C0.27901 45.6158 0.289521 45.5381 0.211829 45.586C0.0764791 45.6696 0.0753842 45.6856 0.325654 43.9176C0.39306 43.4414 0.449417 42.9739 0.450892 42.8786C0.452377 42.7834 0.481256 42.6276 0.515093 42.5323C0.54893 42.4371 0.594613 42.1106 0.616613 41.8069C0.638612 41.5031 0.693506 41.1949 0.738596 41.1221C0.783688 41.0492 0.833255 40.8562 0.848746 40.6931C0.864236 40.5301 0.907858 40.2668 0.945682 40.1081C0.983507 39.9494 1.04238 39.6637 1.07651 39.4732C1.11063 39.2827 1.20745 38.8931 1.29166 38.6074C1.37586 38.3217 1.45142 38.049 1.45957 38.0014C1.46772 37.9537 1.47796 37.9018 1.48234 37.8859C1.48672 37.87 1.50995 37.7069 1.53397 37.5235C1.55799 37.34 1.61329 37.1062 1.65687 37.004C1.70044 36.9018 1.75256 36.693 1.77268 36.54C1.7928 36.387 1.85113 36.2312 1.90229 36.1937C1.95345 36.1562 2.01318 35.9696 2.03501 35.7792C2.05684 35.5887 2.12804 35.3679 2.19322 35.2885C2.2584 35.2092 2.28329 35.1443 2.24853 35.1443C2.19522 35.1443 2.29895 34.7995 2.69917 33.6468C2.75111 33.4972 2.77103 33.4972 2.86576 33.6468C2.92493 33.7402 2.97415 33.7622 2.97512 33.6955C2.97604 33.6288 2.91448 33.5119 2.8382 33.4358C2.73032 33.328 2.73307 33.2972 2.85056 33.2972C2.93735 33.2972 2.97332 33.2236 2.93509 33.1241C2.8985 33.0288 2.91894 32.9509 2.98052 32.9509C3.04209 32.9509 3.08631 32.912 3.07878 32.8643C3.07126 32.8167 3.07511 32.7518 3.08737 32.72C3.09962 32.6883 3.13276 32.5325 3.161 32.3737C3.18925 32.215 3.29593 32.0227 3.39807 31.9464C3.5002 31.8701 3.55351 31.7289 3.51653 31.6326C3.47955 31.5364 3.49232 31.431 3.5449 31.3986C3.59748 31.3661 3.67261 31.1792 3.71186 30.9832C3.75877 30.7489 3.83001 30.6557 3.91979 30.7111C4.01171 30.7679 4.0327 30.7339 3.98399 30.6071C3.94418 30.5034 3.9622 30.3874 4.02402 30.3493C4.08585 30.3111 4.10652 30.2315 4.06994 30.1724C4.03337 30.1133 4.06719 30.0649 4.14511 30.0649C4.22302 30.0649 4.25628 30.0345 4.21902 29.9973C4.14532 29.9237 4.78315 28.4341 4.93043 28.3358C4.98008 28.3027 5.11401 28.0289 5.22806 27.7273C5.34211 27.4257 5.48037 27.179 5.5353 27.179C5.59024 27.179 5.62281 27.14 5.6077 27.0924C5.56843 26.9687 5.87908 26.2555 5.97224 26.2555C6.01506 26.2555 6.14661 26.0217 6.26458 25.736C6.38254 25.4503 6.51759 25.2165 6.56469 25.2165C6.61179 25.2165 6.68407 25.0822 6.72531 24.9181C6.76656 24.7539 6.94123 24.4857 7.11347 24.322C7.28571 24.1583 7.35643 24.0651 7.27063 24.1149C7.14442 24.1881 7.13968 24.1587 7.2458 23.9606C7.31795 23.826 7.40423 23.7158 7.43752 23.7158C7.47082 23.7158 7.46096 23.7758 7.4156 23.8491C7.36286 23.9343 7.38408 23.9509 7.47445 23.8951C7.55217 23.8472 7.58784 23.7352 7.55372 23.6464C7.5196 23.5576 7.54206 23.4849 7.60363 23.4849C7.6652 23.4849 7.70258 23.4367 7.68669 23.3776C7.6708 23.3186 7.76181 23.1849 7.88895 23.0805C8.01608 22.9761 8.04209 22.9304 7.94674 22.9791C7.79263 23.0577 7.79263 23.0426 7.94674 22.8433C8.18978 22.5291 8.32124 22.4499 8.46132 22.5335C8.52792 22.5732 8.5044 22.5081 8.40905 22.3888C8.25255 22.193 8.25459 22.179 8.43002 22.2446C8.57675 22.2994 8.61386 22.2628 8.58148 22.0948C8.55771 21.9716 8.62563 21.8218 8.73388 21.7587C8.84128 21.6961 8.88894 21.6434 8.8398 21.6414C8.79066 21.6395 8.83535 21.5085 8.93913 21.3503C9.0429 21.1921 9.18712 21.0966 9.25963 21.1379C9.33213 21.1793 9.35428 21.172 9.30884 21.1218C9.15405 20.9505 9.45553 20.5737 9.6969 20.6367C9.88623 20.6862 9.90099 20.6676 9.78418 20.5271C9.67013 20.3898 9.69106 20.3247 9.89509 20.1819C10.0334 20.0852 10.1166 19.9576 10.08 19.8984C10.0434 19.8393 10.0702 19.7909 10.1395 19.7909C10.2088 19.7909 10.2982 19.7 10.3381 19.5889C10.378 19.4778 10.6 19.205 10.8314 18.9828C11.0628 18.7606 11.169 18.6307 11.0674 18.6942C10.9658 18.7577 10.99 18.7058 11.1212 18.5788C11.2524 18.4518 11.3761 18.296 11.3961 18.2325C11.4605 18.0283 11.8489 17.7243 11.9404 17.8065C11.9891 17.8503 11.9901 17.8187 11.9424 17.7363C11.8874 17.641 12.0067 17.4443 12.2706 17.1957C12.4988 16.9808 12.6854 16.7718 12.6854 16.7312C12.6854 16.5622 13.7675 15.5319 13.8752 15.5984C13.9397 15.6382 13.9597 15.6177 13.9196 15.5529C13.8525 15.4446 14.2694 14.9633 14.3734 15.0291C14.3986 15.0449 14.4061 15.0344 14.3902 15.0058C14.329 14.8953 15.2718 14.0323 15.3804 14.0993C15.4434 14.1382 15.4615 14.116 15.4206 14.0499C15.3281 13.9003 15.6191 13.6431 15.7485 13.7602C15.8005 13.8073 15.8079 13.7845 15.7649 13.7096C15.7188 13.6292 15.8847 13.4161 16.1695 13.1901C16.4349 12.9793 16.8068 12.651 16.9959 12.4605C17.185 12.2701 17.383 12.1142 17.436 12.1142C17.489 12.1142 17.6936 11.9324 17.8907 11.7102C18.0878 11.488 18.2186 11.3675 18.1814 11.4425C18.1442 11.5174 18.1747 11.6164 18.2491 11.6623C18.3398 11.7183 18.3533 11.6955 18.2898 11.593C18.2197 11.4795 18.2491 11.4607 18.4039 11.5201C18.5761 11.586 18.5883 11.5708 18.4737 11.4329C18.3604 11.2966 18.4027 11.2161 18.7024 10.9973C18.9046 10.8497 19.1197 10.7432 19.1803 10.7607C19.2409 10.7781 19.2575 10.7391 19.2172 10.6739C19.1769 10.6087 19.277 10.5048 19.4398 10.443C19.6025 10.3812 19.7357 10.2774 19.7357 10.2123C19.7357 10.1473 19.8081 10.094 19.8967 10.094C19.9852 10.094 20.0876 10.0161 20.1242 9.92089C20.1608 9.82565 20.2648 9.74773 20.3554 9.74773C20.4459 9.74773 20.552 9.66442 20.5911 9.56259C20.633 9.45353 20.7355 9.40555 20.8406 9.44583C20.9434 9.48522 20.9889 9.46549 20.9479 9.39927C20.9088 9.33606 20.9711 9.24954 21.0864 9.207C21.2017 9.16446 21.3331 9.07392 21.3784 9.0058C21.4238 8.93767 21.5167 8.88194 21.5849 8.88194C21.6531 8.88194 21.7582 8.80402 21.8185 8.70878C21.8788 8.61354 21.9289 8.58451 21.9299 8.64426C21.9308 8.70402 22.0135 8.65207 22.1136 8.52883C22.2136 8.40558 22.2563 8.37989 22.2083 8.47175C22.1572 8.56953 22.2734 8.53039 22.4887 8.37731C22.6908 8.23351 22.8563 8.06439 22.8563 8.00147C22.8563 7.93856 22.9051 7.91722 22.9647 7.95404C23.0244 7.99087 23.1268 7.929 23.1924 7.81656C23.2579 7.70411 23.3131 7.6531 23.3151 7.70319C23.317 7.75328 23.4324 7.68834 23.5715 7.55889C23.7106 7.42943 23.9203 7.32351 24.0375 7.32351C24.1546 7.32351 24.2804 7.24559 24.317 7.15036C24.3536 7.05512 24.456 6.9772 24.5445 6.9772C24.6331 6.9772 24.7055 6.93359 24.7055 6.88029C24.7055 6.6899 25.2451 6.52347 25.3916 6.66867C25.4964 6.77251 25.5107 6.75811 25.4531 6.60686C25.3973 6.46051 25.4552 6.39032 25.6774 6.3346C25.8421 6.29332 25.9769 6.21016 25.9769 6.1498C25.9769 6.08944 26.0289 6.07217 26.0924 6.11141C26.156 6.15065 26.208 6.12937 26.208 6.06412C26.208 5.99888 26.2946 5.97867 26.4003 6.01921C26.521 6.06544 26.5643 6.04707 26.5166 5.96996C26.4747 5.90234 26.5209 5.81618 26.6192 5.77851C26.7215 5.73929 26.7677 5.75879 26.7273 5.82413C26.6885 5.8869 26.7118 5.93825 26.7791 5.93825C26.8464 5.93825 26.9015 5.85726 26.9015 5.75828C26.9015 5.6593 26.9474 5.60664 27.0035 5.64127C27.0596 5.67589 27.2286 5.61069 27.3791 5.49637C27.684 5.26478 28.4895 4.86787 28.7392 4.82621C28.8282 4.81136 28.9322 4.7553 28.9703 4.70163C29.0711 4.55987 30.7274 3.82155 30.9399 3.82365C31.039 3.82458 31.1513 3.77789 31.1894 3.71978C31.2276 3.66167 31.3316 3.60313 31.4206 3.5897C31.5096 3.57626 31.6474 3.5247 31.7269 3.47512C31.8063 3.42554 31.8721 3.427 31.8731 3.47836C31.874 3.52973 31.9202 3.50032 31.9755 3.41302C32.0309 3.32572 32.2121 3.2543 32.3783 3.2543C32.5444 3.2543 32.6804 3.21447 32.6804 3.1658C32.6804 3.07746 33.1389 2.92563 33.2694 2.97074C33.3073 2.98384 33.4113 2.9365 33.5006 2.86553C33.7817 2.64194 34.8312 2.34957 35.0506 2.43369C35.1894 2.48686 35.2343 2.47115 35.1826 2.38757C35.0904 2.23854 35.4867 2.09127 35.9449 2.10428C36.12 2.10926 36.2633 2.0562 36.2633 1.98637C36.2633 1.91654 36.2959 1.89197 36.3357 1.93177C36.3756 1.97156 36.5576 1.92694 36.7402 1.8326C36.9229 1.73827 37.0723 1.69022 37.0723 1.72583C37.0723 1.76144 37.1633 1.74195 37.2746 1.68251C37.3858 1.62308 37.6329 1.54839 37.8236 1.51653C38.0143 1.48468 38.2699 1.41875 38.3915 1.37004C38.5641 1.30095 38.591 1.31753 38.5138 1.44538C38.4357 1.57478 38.45 1.58226 38.5816 1.48091C38.6732 1.41031 38.9042 1.31065 39.0949 1.25945C39.2856 1.20825 39.4677 1.1589 39.4995 1.14977C39.6459 1.10769 40.8763 0.852196 41.2909 0.777759C41.5452 0.732107 41.9433 0.692737 42.1756 0.690271C42.4079 0.687784 42.5773 0.652343 42.552 0.611466C42.5267 0.570589 42.6227 0.534208 42.7653 0.530618C42.9079 0.52704 43.3887 0.46995 43.8336 0.40378C45.0078 0.229174 48.2119 0.0180975 49.9593 0.000240406C50.6393 -0.00670992 53.6117 0.138729 54.409 0.217967C54.6315 0.240079 55.1776 0.291943 55.6226 0.333222C56.0675 0.374501 56.7697 0.462555 57.1829 0.528895C57.5961 0.595235 58.0901 0.672519 58.2809 0.700637C58.4716 0.728757 58.8876 0.806734 59.2055 0.873924C59.5233 0.941114 59.9654 1.02227 60.1879 1.05427C60.6523 1.12107 63.2796 1.75546 63.5396 1.86358C63.635 1.90323 63.752 1.94665 63.7997 1.96007C63.8474 1.97349 63.9254 1.99712 63.9731 2.01257C64.0207 2.02803 64.0987 2.03452 64.1464 2.027C64.1941 2.01948 64.2331 2.06068 64.2331 2.11856C64.2331 2.17643 64.3241 2.20907 64.4354 2.1911C64.5466 2.17313 64.6896 2.19692 64.7532 2.24398C64.8168 2.29104 65.0764 2.36701 65.3302 2.41279C65.584 2.45858 65.844 2.53029 65.9081 2.57214C65.9722 2.614 66.2846 2.73394 66.6024 2.83868C66.9667 2.95872 67.1666 3.08674 67.1432 3.185C67.1145 3.30537 67.1378 3.30973 67.2454 3.20411C67.353 3.09858 67.4473 3.10821 67.6582 3.24625C67.8086 3.34464 67.9316 3.38684 67.9316 3.34002C67.9316 3.2932 68.0014 3.31275 68.0867 3.38346C68.172 3.45417 68.276 3.47785 68.3178 3.43607C68.3597 3.3943 68.3939 3.41423 68.3939 3.48036C68.3939 3.5465 68.5534 3.63247 68.7483 3.67141C68.9432 3.71034 69.0756 3.7859 69.0426 3.83931C69.0096 3.89272 69.0971 3.92541 69.2372 3.91196C69.3773 3.89851 69.7061 4.00945 69.9679 4.15849C70.2297 4.30752 70.4767 4.39665 70.5169 4.35654C70.557 4.31644 70.5899 4.3473 70.5899 4.42512C70.5899 4.50294 70.636 4.53814 70.6924 4.50335C70.7487 4.46855 70.8591 4.51744 70.9377 4.61197C71.0162 4.70651 71.1781 4.78386 71.2975 4.78386C71.4168 4.78386 71.5145 4.83887 71.5145 4.90611C71.5145 4.97335 71.5578 5.00162 71.6108 4.96894C71.6637 4.93625 71.8915 5.03469 72.1169 5.1877C72.3423 5.3407 72.5578 5.43489 72.5957 5.39702C72.7044 5.28851 73.023 5.60429 72.9401 5.73829C72.8992 5.80439 72.9198 5.8251 72.9859 5.78431C73.1649 5.67378 73.8392 5.93901 73.7492 6.08455C73.7009 6.16262 73.7436 6.18113 73.8649 6.13465C73.9707 6.0941 74.0572 6.10081 74.0572 6.14956C74.0572 6.1983 74.243 6.30528 74.4701 6.3873C74.7666 6.4944 74.8636 6.58684 74.8142 6.71541C74.7589 6.85919 74.7778 6.86753 74.9102 6.75783C75.0008 6.68271 75.093 6.66237 75.1151 6.71264C75.1371 6.76291 75.3633 6.91771 75.6175 7.05665C75.8718 7.19558 76.0647 7.37078 76.0462 7.44598C76.0272 7.52319 76.085 7.55495 76.179 7.51895C76.2705 7.48387 76.5142 7.60577 76.7206 7.78981C76.927 7.97386 77.1401 8.09716 77.1941 8.0638C77.2482 8.03044 77.4311 8.14893 77.6007 8.3271C77.7703 8.50528 77.8665 8.5781 77.8145 8.48892C77.7489 8.37635 77.7632 8.35345 77.8613 8.41402C77.939 8.462 77.9769 8.56804 77.9456 8.64967C77.908 8.7474 77.9609 8.77919 78.1004 8.74276C78.2212 8.71122 78.4162 8.79127 78.5541 8.92898C78.6871 9.06184 78.8254 9.17053 78.8614 9.17053C78.9334 9.17053 79.6885 9.72059 79.931 9.94974C80.015 10.0291 80.1286 10.094 80.1833 10.094C80.238 10.094 80.3158 10.1979 80.3562 10.3249C80.3966 10.4519 80.5257 10.5558 80.6433 10.5558C80.7608 10.5558 80.9692 10.6987 81.1064 10.8733C81.2435 11.0479 81.322 11.1128 81.2808 11.0176C81.2396 10.9223 81.2861 10.943 81.3841 11.0634C81.4822 11.1839 81.5406 11.3176 81.514 11.3606C81.4874 11.4035 81.5801 11.4348 81.72 11.4301C81.865 11.4253 81.9619 11.4836 81.9454 11.5659C81.9295 11.6453 81.9555 11.6981 82.0032 11.6834C82.2343 11.6119 83.5778 12.9286 83.4692 13.1201C83.4022 13.2385 83.4164 13.2397 83.5391 13.126C83.6638 13.0105 83.8089 13.1038 84.3022 13.6166C84.6373 13.9649 84.9744 14.2498 85.0513 14.2498C85.1282 14.2498 85.1604 14.2806 85.1227 14.3183C85.085 14.3559 85.3494 14.6678 85.7102 15.0113C86.071 15.3548 86.3686 15.7007 86.3715 15.7798C86.3745 15.8589 86.432 15.9132 86.4996 15.9003C86.5671 15.8874 86.7695 16.0303 86.9494 16.2177C87.1292 16.4052 87.2329 16.5586 87.1798 16.5586C87.1267 16.5586 87.2487 16.7166 87.451 16.9096C87.6533 17.1027 87.7883 17.3099 87.7511 17.3701C87.7133 17.4311 87.7657 17.4479 87.8696 17.4081C87.9963 17.3595 88.0761 17.4137 88.1189 17.5772C88.1535 17.7095 88.3113 17.9024 88.4696 18.006C88.6633 18.1328 88.7385 18.2667 88.6995 18.4156C88.6676 18.5373 88.6825 18.6116 88.7324 18.5807C88.7824 18.5499 88.9644 18.6656 89.1369 18.8379C89.4624 19.163 89.8379 19.7909 89.7068 19.7909C89.6656 19.7909 89.6898 19.8606 89.7606 19.9458C89.8314 20.031 89.8508 20.1432 89.8037 20.1952C89.7565 20.2472 89.7855 20.2507 89.8681 20.2032C89.9837 20.1365 89.9871 20.0793 89.8828 19.9538C89.8084 19.8642 89.7871 19.7909 89.8355 19.7909C89.9715 19.7909 90.2254 20.1501 90.4271 20.6278C90.5276 20.8659 90.6767 21.0607 90.7584 21.0607C90.8904 21.0607 91.0289 21.2504 91.0111 21.407C91.0076 21.4388 91.1432 21.6141 91.3126 21.7967C91.4821 21.9793 91.5923 22.1745 91.5577 22.2304C91.5231 22.2864 91.5761 22.3633 91.6755 22.4014C91.7748 22.4395 91.8562 22.5193 91.8562 22.5786C91.8562 22.638 91.9584 22.7961 92.0833 22.9301C92.2082 23.064 92.283 23.218 92.2494 23.2724C92.2158 23.3267 92.2709 23.4028 92.3719 23.4415C92.5175 23.4973 92.527 23.5463 92.4174 23.6781C92.3415 23.7695 92.3271 23.8352 92.3856 23.8241C92.6606 23.7718 92.7579 23.854 92.7293 24.1144C92.7119 24.2728 92.7546 24.3872 92.8262 24.3741C92.8966 24.3612 92.9476 24.4375 92.9396 24.5436C92.9313 24.6537 92.9869 24.7128 93.0692 24.6813C93.2279 24.6204 93.3977 24.9447 93.2944 25.1115C93.2587 25.1693 93.3136 25.2165 93.4165 25.2165C93.5193 25.2165 93.5739 25.2643 93.5378 25.3226C93.5017 25.381 93.5554 25.5119 93.6571 25.6136C93.8198 25.7761 93.8973 25.9701 93.9277 26.2911C93.9326 26.3425 93.9825 26.3562 94.0387 26.3215C94.1409 26.2584 94.4782 26.9291 94.4264 27.0924C94.4112 27.14 94.4425 27.179 94.4959 27.179C94.6447 27.179 94.8742 27.7559 94.7863 27.9091C94.7436 27.9837 94.7502 28.0072 94.801 27.9613C94.9057 27.8668 95.4453 28.8057 95.3631 28.9394C95.3338 28.987 95.3681 29.026 95.4391 29.026C95.5101 29.026 95.5361 29.0779 95.4969 29.1414C95.4576 29.2049 95.4754 29.2569 95.5365 29.2569C95.6695 29.2569 95.9116 29.9009 95.8149 29.9974C95.7777 30.0346 95.8079 30.0649 95.8821 30.0649C95.9563 30.0649 96.0169 30.1948 96.0169 30.3535C96.0169 30.5123 96.072 30.6421 96.1393 30.6421C96.2067 30.6421 96.2296 30.6941 96.1903 30.7576C96.151 30.8211 96.177 30.873 96.2481 30.873C96.3192 30.873 96.3432 30.9282 96.3014 30.9957C96.2596 31.0632 96.3216 31.228 96.439 31.3619C96.5873 31.5309 96.5996 31.579 96.4793 31.5192C96.3698 31.4648 96.379 31.4931 96.5041 31.5957C96.661 31.7245 96.6731 31.79 96.5619 31.9098C96.4513 32.0291 96.4523 32.0438 96.5669 31.9792C96.7153 31.8955 96.9639 32.3474 96.8634 32.518C96.8353 32.5656 96.8761 32.6046 96.954 32.6046C97.0319 32.6046 97.0614 32.6388 97.0196 32.6806C96.9777 32.7223 96.9941 32.8173 97.0558 32.8916C97.1176 32.9659 97.1836 33.1266 97.2026 33.2486C97.2216 33.3706 97.2699 33.5227 97.31 33.5867C97.35 33.6507 97.4211 33.9104 97.4678 34.1639C97.5145 34.4174 97.5959 34.653 97.6487 34.6875C97.7015 34.722 97.7682 34.8778 97.7968 35.0338C97.8255 35.1898 97.8593 35.3304 97.872 35.3463C97.8847 35.3621 97.908 35.4271 97.9239 35.4906C97.9398 35.5541 97.9633 35.619 97.9761 35.6349C97.9889 35.6507 98.0186 35.7416 98.0421 35.8369C98.0656 35.9321 98.1638 36.2587 98.2602 36.5626C98.3566 36.8664 98.3854 37.0841 98.3242 37.0464C98.263 37.0086 98.2129 37.0327 98.2129 37.0999C98.2129 37.1671 98.2534 37.2221 98.3028 37.2221C98.3994 37.2221 98.7807 38.4146 98.849 38.9301C98.8718 39.1018 98.9006 39.2423 98.9131 39.2423C98.9553 39.2423 99.0306 39.7013 99.0552 40.1081C99.0687 40.3303 99.1139 40.5382 99.1556 40.57C99.1974 40.6019 99.2609 40.8616 99.2968 41.1472C99.3721 41.7466 99.451 42.2407 99.5352 42.6391C99.6413 43.1415 99.824 44.6446 99.9151 45.7646C100.058 47.5252 100.01 53.9974 99.8455 55.1729C99.7653 55.7443 99.679 56.4456 99.6537 56.7313C99.6079 57.2491 99.2181 59.5308 99.0818 60.079C99.0424 60.2377 98.9862 60.4975 98.957 60.6562C98.9086 60.9194 98.8064 61.3443 98.721 61.6374C98.7025 61.7009 98.6571 61.9087 98.6201 62.0992C98.5832 62.2897 98.5212 62.5234 98.4824 62.6187C98.4437 62.7139 98.3978 62.8697 98.3806 62.965C98.2136 63.8865 97.6128 65.7354 97.5025 65.6674C97.4484 65.634 97.4123 65.7006 97.4223 65.8154C97.4562 66.2058 97.4041 66.4419 97.2984 66.3767C97.2404 66.3409 97.2077 66.4028 97.2256 66.5142C97.2436 66.6256 97.2274 66.7687 97.19 66.8322C97.1523 66.8957 97.1057 67.0498 97.0863 67.1746C97.0668 67.2995 96.9627 67.5332 96.8549 67.6941C96.7472 67.8549 96.6733 68.0337 96.6907 68.0913C96.7426 68.2624 96.2302 69.4321 96.1303 69.3705C96.0798 69.3393 96.0657 69.4178 96.099 69.5448C96.1363 69.6873 96.1025 69.7759 96.0111 69.7759C95.9296 69.7759 95.8976 69.8106 95.9401 69.8531C95.9826 69.8955 95.9401 70.0151 95.8466 70.1189C95.7009 70.2796 95.598 70.5871 95.5632 70.9659C95.5585 71.0173 95.5085 71.0308 95.4521 70.996C95.3957 70.9612 95.3567 70.9969 95.3654 71.0758C95.3936 71.3301 94.4639 73.1289 94.3307 73.0779C94.2539 73.0484 94.2137 73.138 94.2314 73.2991C94.2489 73.4577 94.1102 73.7749 93.8966 74.065C93.6961 74.3374 93.5529 74.5805 93.5784 74.6054C93.6039 74.6303 93.5284 74.779 93.4104 74.9358C93.2924 75.0927 93.1848 75.2972 93.1711 75.3902C93.1371 75.6214 92.8996 75.8922 92.7578 75.8616C92.6938 75.8477 92.6237 75.9843 92.6022 76.1651C92.5806 76.3459 92.4689 76.565 92.354 76.652C92.2391 76.7391 92.194 76.8119 92.2538 76.814C92.3137 76.8161 92.279 76.8826 92.1769 76.9619C92.0748 77.0413 91.9707 77.2101 91.9457 77.3371C91.9207 77.4641 91.8382 77.555 91.7626 77.5391C91.6869 77.5232 91.625 77.6086 91.625 77.7288C91.625 77.849 91.5437 77.9785 91.4443 78.0166C91.3449 78.0547 91.2911 78.1303 91.3247 78.1846C91.4191 78.3371 90.9364 78.7964 90.7801 78.7028C90.6898 78.6486 90.6941 78.6838 90.7925 78.8052C90.9189 78.961 90.9053 79.0162 90.7066 79.1552C90.5768 79.246 90.505 79.3546 90.547 79.3965C90.5889 79.4384 90.564 79.4727 90.4914 79.4727C90.4189 79.4727 90.2729 79.6415 90.1671 79.8479C89.9589 80.2537 89.7817 80.4135 89.6381 80.3249C89.5881 80.294 89.5784 80.3501 89.6166 80.4494C89.7004 80.6675 89.4513 81.0008 89.2824 80.8966C89.2163 80.8558 89.194 80.8738 89.2329 80.9368C89.3331 81.0987 88.977 81.5706 88.8253 81.477C88.7549 81.4335 88.7327 81.4527 88.7747 81.5205C88.8743 81.6815 87.8186 82.9543 87.6643 82.8591C87.5982 82.8182 87.5775 82.8389 87.6184 82.905C87.711 83.0546 87.4199 83.3117 87.2905 83.1946C87.2385 83.1476 87.2348 83.1763 87.2822 83.2584C87.3879 83.4414 87.1376 83.77 86.9709 83.6671C86.9012 83.6241 86.8851 83.6487 86.9327 83.7256C86.9818 83.8049 86.8966 83.9122 86.7216 83.9919C86.5604 84.0653 86.3979 84.2213 86.3606 84.3387C86.3233 84.456 86.2153 84.552 86.1204 84.552C86.0256 84.552 85.9759 84.597 86.0099 84.6521C86.0838 84.7715 85.6878 85.1551 85.5767 85.0718C85.5342 85.0399 85.5236 85.0466 85.5531 85.0867C85.6211 85.179 85.3848 85.6305 85.3084 85.5542C85.2773 85.5231 84.7882 85.9638 84.2216 86.5335C83.5567 87.202 83.1395 87.5395 83.0451 87.4851C82.9647 87.4389 82.9337 87.4397 82.9762 87.4873C83.0788 87.6016 82.6122 88.1309 82.4089 88.1309C82.3179 88.1309 82.2849 88.0737 82.332 87.9976C82.3835 87.9144 82.3637 87.8957 82.2792 87.9478C82.2047 87.9938 82.1704 88.0743 82.2029 88.1268C82.2927 88.2719 81.8888 88.715 81.6274 88.7582C81.5003 88.7792 81.4088 88.8529 81.4241 88.922C81.449 89.0349 81.0495 89.3287 80.857 89.3389C80.8146 89.3411 80.7366 89.3903 80.6836 89.4481C80.6277 89.5091 80.6478 89.5184 80.7318 89.4701C81.0105 89.3099 80.8725 89.4755 80.5006 89.7473C80.192 89.973 80.1538 89.982 80.2865 89.7979C80.3752 89.6747 80.2972 89.7343 80.1131 89.9304C79.927 90.1285 79.7012 90.2625 79.6049 90.232C79.5095 90.2018 79.4681 90.2164 79.5127 90.2644C79.5947 90.3525 79.4997 90.47 79.0911 90.7859C78.892 90.9398 78.8784 90.9398 78.9692 90.7859C79.06 90.6321 79.0464 90.632 78.8469 90.7857C78.7235 90.8808 78.5384 91.0496 78.4356 91.1609C78.3328 91.2721 78.1668 91.3631 78.0668 91.3631C77.9667 91.3631 77.8478 91.4231 77.8024 91.4964C77.7478 91.5846 77.7711 91.5981 77.8712 91.5363C77.9683 91.4763 77.9945 91.4881 77.9444 91.569C77.9015 91.6384 77.7621 91.6751 77.6346 91.6506C77.5071 91.6261 77.4332 91.6552 77.4704 91.7154C77.5077 91.7756 77.454 91.8249 77.3511 91.8249C77.2392 91.8249 77.1972 91.8784 77.2466 91.9581C77.296 92.038 77.2785 92.0602 77.2027 92.0134C77.1332 91.9705 77.0249 92.0274 76.9618 92.1399C76.8988 92.2523 76.8046 92.343 76.7525 92.3413C76.7003 92.3396 76.565 92.4176 76.4517 92.5145C76.3384 92.6114 76.2141 92.6732 76.1756 92.6519C76.1372 92.6306 76.0733 92.6654 76.0338 92.7292C75.9943 92.7931 75.8847 92.8624 75.7902 92.8834C75.6956 92.9044 75.5492 92.9994 75.4648 93.0947C75.3284 93.2486 75.3197 93.2486 75.3863 93.0947C75.4275 92.9994 75.3794 93.0224 75.2793 93.1456C75.1792 93.2688 75.0974 93.3338 75.0974 93.2899C75.0974 93.246 74.9883 93.3191 74.8549 93.4523C74.6953 93.6117 74.5162 93.6761 74.3308 93.6407C74.1759 93.6111 74.0761 93.6139 74.1091 93.6468C74.204 93.7415 73.5909 94.2603 73.4713 94.1864C73.4121 94.1499 73.3637 94.1781 73.3637 94.2491C73.3637 94.3201 73.3117 94.346 73.2481 94.3068C73.1846 94.2676 73.1325 94.296 73.1325 94.37C73.1325 94.4499 73.0517 94.4737 72.9338 94.4285C72.8245 94.3866 72.7731 94.3903 72.8196 94.4368C72.9073 94.5243 71.9136 95.0852 71.6589 95.0918C71.5795 95.094 71.5145 95.1389 71.5145 95.1918C71.5145 95.2447 71.4104 95.288 71.2833 95.288C71.1562 95.288 71.0521 95.3423 71.0521 95.4085C71.0521 95.4748 70.9871 95.5142 70.9077 95.496C70.8282 95.4778 70.5141 95.6088 70.2097 95.787C69.9052 95.9653 69.5542 96.1188 69.4295 96.1282C69.3049 96.1376 69.2029 96.1922 69.2029 96.2496C69.2029 96.3069 69.0729 96.3291 68.914 96.2987C68.7108 96.2599 68.625 96.2944 68.625 96.4148C68.625 96.5612 68.5966 96.5631 68.4295 96.4277C68.3219 96.3406 68.2665 96.3238 68.3064 96.3905C68.3463 96.4571 68.2728 96.5778 68.1431 96.6587C68.013 96.7399 67.9417 96.7502 67.9841 96.6818C68.0263 96.6137 68.0113 96.5579 67.9507 96.5579C67.8902 96.5579 67.8126 96.6309 67.7784 96.7201C67.7441 96.8094 67.5452 96.9199 67.3364 96.9657C67.1276 97.0115 66.877 97.0938 66.7796 97.1485C66.3025 97.4165 64.5797 97.9204 64.578 97.7924C64.5767 97.6938 64.5521 97.6912 64.4913 97.7833C64.422 97.8884 64.1388 98.021 63.7707 98.1206C63.7389 98.1292 63.6349 98.1687 63.5396 98.2084C63.3665 98.2804 61.8268 98.6729 61.1702 98.8124C60.2765 99.0024 59.6815 99.084 59.5922 99.0288C59.5384 98.9956 59.4944 99.0186 59.4944 99.0799C59.4944 99.1412 59.2213 99.2282 58.8876 99.2733C58.5539 99.3185 58.1768 99.3761 58.0496 99.4013C57.9225 99.4266 57.5979 99.4691 57.3283 99.4958C57.0587 99.5225 56.797 99.5698 56.7467 99.6008C56.6616 99.6534 55.7661 99.7402 53.9466 99.8725C52.7598 99.9588 46.8417 100.043 46.7733 99.9751L46.7734 99.9749ZM76.8311 91.9854C76.8311 91.8899 76.6067 91.8359 76.5552 91.919C76.5218 91.973 76.5702 92.0171 76.6628 92.0171C76.7554 92.0171 76.8311 92.0029 76.8311 91.9854V91.9854ZM77.1231 91.5007C77.0875 91.4651 76.9942 91.5006 76.9158 91.5795C76.8025 91.6935 76.8158 91.7068 76.9805 91.6441C77.0945 91.6008 77.1587 91.5362 77.1231 91.5007V91.5007ZM79.897 89.8846C79.8614 89.849 79.7681 89.8845 79.6897 89.9634C79.5764 90.0774 79.5897 90.0906 79.7544 90.028C79.8684 89.9846 79.9325 89.9201 79.897 89.8846V89.8846ZM16.4995 87.0519C16.4995 87.03 16.3825 86.9131 16.2395 86.7922L15.9794 86.5723L16.1996 86.832C16.4065 87.0761 16.4995 87.1443 16.4995 87.0519ZM15.1126 85.2011C15.1126 85.1772 15.0216 85.0862 14.9103 84.9991C14.727 84.8555 14.7229 84.8596 14.8667 85.0427C15.0177 85.235 15.1126 85.2961 15.1126 85.2011V85.2011ZM13.9568 84.2511C13.9568 84.1555 13.7324 84.1015 13.6809 84.1846C13.6475 84.2386 13.696 84.2827 13.7885 84.2827C13.8811 84.2827 13.9568 84.2685 13.9568 84.251V84.2511ZM89.0276 81.1112C88.992 81.0757 88.8988 81.1111 88.8203 81.19C88.7071 81.304 88.7203 81.3173 88.8851 81.2547C88.999 81.2113 89.0632 81.1468 89.0276 81.1112ZM19.7209 79.8546C19.6306 79.7435 19.6211 79.6945 19.6988 79.7411C19.7965 79.7996 29.3643 79.8551 33.3103 79.8201C33.3707 79.8196 33.3577 79.7568 33.2814 79.6806C33.0741 79.4735 33.0799 36.7107 33.2872 36.8299C33.3666 36.8755 33.4004 36.8777 33.3622 36.8347C33.3241 36.7917 30.2399 36.7566 26.5086 36.7567C21.1597 36.7568 19.7416 36.7267 19.8063 36.6143C19.8514 36.536 19.8532 36.503 19.8102 36.541C19.7672 36.579 19.7333 46.2859 19.7348 58.1119C19.7372 77.5436 19.7201 79.607 19.5572 79.5445C19.4357 79.498 19.4036 79.522 19.4587 79.6184C19.5909 79.8494 19.7596 80.05 19.8218 80.05C19.8535 80.05 19.8082 79.9621 19.7209 79.8547L19.7209 79.8546ZM54.4715 79.7906C54.4851 79.7745 54.5269 74.9303 54.5644 69.0256C54.6469 56.0291 54.701 52.6841 54.8304 52.5898C54.8847 52.5502 54.9251 52.388 54.9202 52.2292C54.9153 52.0705 54.9654 51.8367 55.0315 51.7098C55.0975 51.5828 55.1405 51.4399 55.127 51.3923C55.1135 51.3447 55.1576 51.3057 55.2249 51.3057C55.2922 51.3057 55.3185 51.2592 55.2833 51.2024C55.2482 51.1455 55.3004 51.068 55.3994 51.03C55.4984 50.9921 55.5471 50.9087 55.5075 50.8448C55.4679 50.7808 55.4993 50.7285 55.5772 50.7285C55.6551 50.7285 55.6892 50.6989 55.6529 50.6627C55.5627 50.5725 55.8401 50.06 56.227 49.6019C56.9985 48.6883 57.4136 48.2904 57.524 48.3586C57.5925 48.4009 57.6154 48.3611 57.5782 48.2643C57.5428 48.1722 57.5773 48.0575 57.6552 48.0096C57.7513 47.9502 57.7695 47.9741 57.712 48.0845C57.6656 48.1736 57.7244 48.1427 57.8427 48.0157C58.0345 47.8098 59.0524 47.2303 59.2875 47.1932C59.3377 47.1853 59.4049 47.1658 59.4366 47.1499C59.4684 47.1341 59.5334 47.1101 59.5811 47.0967C59.6288 47.0833 59.7718 47.0248 59.8989 46.9668C60.1465 46.8539 63.0965 46.825 63.4819 46.9317C64.4925 47.2117 64.6954 47.2887 64.6954 47.3921C64.6954 47.4569 64.7474 47.4778 64.811 47.4385C64.8746 47.3993 64.9266 47.4222 64.9266 47.4894C64.9266 47.5567 65.025 47.6117 65.1454 47.6117C65.2657 47.6117 65.3943 47.6901 65.4311 47.7859C65.4679 47.8817 65.558 47.9467 65.6313 47.9302C65.7046 47.9138 65.7911 47.9735 65.8236 48.063C65.8652 48.1773 65.8245 48.2034 65.6876 48.1509C65.5681 48.1051 65.521 48.1221 65.566 48.1949C65.6064 48.2602 65.73 48.285 65.8406 48.25C66.0696 48.1774 66.6475 48.7466 66.5726 48.971C66.5473 49.0469 66.6578 49.1688 66.8183 49.2418C67.1179 49.3782 67.5312 50.1888 67.405 50.3927C67.3674 50.4536 67.3983 50.4891 67.4738 50.4717C67.5493 50.4542 67.6318 50.5634 67.6572 50.7142C67.6827 50.8651 67.7895 51.1768 67.8947 51.4069C68.1869 52.0458 68.1935 52.0728 67.998 51.832C67.7246 51.4953 67.7791 51.727 68.0638 52.1115C68.2979 52.4278 68.3145 52.607 68.3654 55.368C68.4072 57.6426 68.5388 79.0308 68.5149 79.6748C68.5105 79.7886 69.9359 79.8191 75.2708 79.8191H82.0321L82.0266 67.9C82.0217 57.2909 81.923 50.6587 81.7599 49.9782C81.6835 49.6596 81.355 48.0794 81.2919 47.7271C81.2635 47.5684 81.2324 47.4385 81.2228 47.4385C81.2132 47.4385 81.1864 47.3606 81.1632 47.2654C81.14 47.1701 81.0866 46.9623 81.0446 46.8036C81.0027 46.6449 80.9523 46.3651 80.9327 46.182C80.9132 45.9988 80.836 45.8111 80.7613 45.765C80.6866 45.7189 80.6276 45.6489 80.6303 45.6096C80.6329 45.5702 80.553 45.3422 80.4527 45.103C80.3524 44.8637 80.2621 44.6161 80.2522 44.5526C80.2422 44.4891 80.1936 44.3724 80.1442 44.2933C80.0947 44.2141 80.0339 44.0444 80.0092 43.9161C79.9845 43.7878 79.8834 43.602 79.7846 43.5034C79.617 43.336 79.5584 43.1729 79.5913 42.9653C79.5988 42.9177 79.5613 42.8787 79.5079 42.8787C79.4249 42.8787 79.1177 42.3638 79.0931 42.1834C79.0886 42.1501 78.9696 41.9994 78.8288 41.8484C78.688 41.6974 78.6 41.5298 78.6334 41.476C78.6667 41.4221 78.636 41.378 78.5648 41.378C78.4937 41.378 78.4685 41.3248 78.5087 41.2597C78.549 41.1946 78.5131 41.1557 78.4289 41.1731C78.3447 41.1906 78.2879 41.1428 78.3026 41.0669C78.3173 40.991 78.17 40.8156 77.9751 40.677C77.7327 40.5046 77.6388 40.3568 77.6775 40.2087C77.7087 40.0898 77.6856 40.0224 77.6262 40.0591C77.5668 40.0957 77.2543 39.849 76.9318 39.5109C76.6093 39.1727 76.3833 38.974 76.4295 39.0692C76.4758 39.1645 76.377 39.1018 76.21 38.93C76.0431 38.7581 75.9065 38.5633 75.9065 38.4971C75.9065 38.4308 75.8514 38.3766 75.7841 38.3766C75.7168 38.3766 75.6988 38.3166 75.7442 38.2433C75.7964 38.1588 75.7757 38.1415 75.6876 38.1959C75.5804 38.262 75.5829 38.3237 75.6986 38.4647C75.8174 38.6096 75.7824 38.6047 75.5309 38.4412C75.3561 38.3276 75.213 38.18 75.213 38.1132C75.213 38.0464 75.1826 38.0222 75.1453 38.0594C75.1081 38.0966 74.9479 38.0143 74.7894 37.8766C74.6308 37.7389 74.4402 37.6239 74.3658 37.621C74.2915 37.6181 74.2418 37.5585 74.2556 37.4885C74.2702 37.4139 74.1746 37.3844 74.0244 37.4172C73.811 37.4638 73.7972 37.4505 73.9417 37.3376C74.0858 37.225 74.0713 37.2118 73.855 37.2591C73.712 37.2904 73.5949 37.2751 73.5949 37.2251C73.5949 37.1751 73.364 37.0761 73.0817 37.0051C72.7994 36.9341 72.5358 36.8232 72.4958 36.7586C72.4559 36.6941 72.3748 36.6711 72.3156 36.7077C72.2564 36.7442 72.208 36.7191 72.208 36.6518C72.208 36.5846 72.169 36.5383 72.1213 36.549C71.9432 36.5889 71.1678 36.385 71.1678 36.2982C71.1678 36.2486 71.0871 36.177 70.9884 36.1392C70.8712 36.0943 70.8378 36.1168 70.8918 36.2042C70.9495 36.2974 70.9075 36.3115 70.7533 36.2507C70.4189 36.1187 70.1273 36.0611 69.4919 36.0014C68.4199 35.9007 68.1516 35.8333 68.2395 35.6868C68.3037 35.5801 68.2842 35.5795 68.1545 35.6841C68.0424 35.7747 67.3622 35.8235 66.1145 35.8305C65.085 35.8364 63.9675 35.8953 63.6311 35.9616C63.2948 36.0278 62.8505 36.084 62.6439 36.0865C62.4374 36.0889 62.2683 36.1407 62.2683 36.2016C62.2683 36.2625 62.2226 36.2841 62.1668 36.2497C62.1109 36.2152 61.8991 36.2698 61.696 36.371C61.4929 36.4721 61.1257 36.5593 60.88 36.5647C60.6343 36.5701 60.4591 36.6164 60.4908 36.6675C60.5224 36.7186 60.4934 36.767 60.4259 36.7749C60.1464 36.8078 59.7512 36.9589 59.2404 37.2279C59.0053 37.3518 58.7323 37.4531 58.6336 37.4531C58.535 37.4531 58.4543 37.505 58.4543 37.5685C58.4543 37.632 58.3762 37.684 58.2809 37.684C58.1855 37.684 58.1075 37.739 58.1075 37.8062C58.1075 37.8735 58.0551 37.8961 57.9911 37.8566C57.9271 37.8171 57.8435 37.866 57.8054 37.9653C57.7673 38.0645 57.6636 38.1457 57.5751 38.1457C57.4865 38.1457 57.4141 38.2032 57.4141 38.2735C57.4141 38.3438 57.3385 38.3723 57.2461 38.337C57.1459 38.2985 56.9521 38.4215 56.7652 38.6421C56.5931 38.8453 56.4165 39.0012 56.3728 38.9885C56.3291 38.9759 56.097 39.1957 55.8569 39.477C55.6168 39.7583 55.3735 39.9596 55.3163 39.9243C55.2591 39.889 55.2266 39.9289 55.2441 40.013C55.2616 40.0971 55.207 40.1516 55.1228 40.1342C55.0386 40.1167 54.9995 40.1506 55.0359 40.2095C55.0724 40.2683 54.9136 40.4276 54.6832 40.5633C54.4528 40.6991 54.297 40.8428 54.3369 40.8827C54.3769 40.9226 54.3184 41.0558 54.207 41.1787C54.0956 41.3017 54.0153 41.4358 54.0285 41.4767C54.0711 41.6088 53.5468 42.2999 53.4035 42.3007C53.3272 42.3012 53.2117 42.3924 53.1469 42.5035C53.037 42.6921 53.0289 42.691 53.0256 42.4878C53.0237 42.3681 52.8859 41.1473 52.7195 39.775C52.553 38.4027 52.41 37.1501 52.4016 36.9913L52.3864 36.7027L46.7231 36.7004C43.6083 36.6992 40.9038 36.6599 40.7131 36.6132C40.4391 36.5462 40.4096 36.5544 40.5723 36.6522C40.7587 36.7643 40.7799 37.0095 40.795 39.2214C40.8042 40.5663 40.8259 43.7705 40.8432 46.3419C40.8605 48.9133 40.8903 57.5106 40.9094 65.447L40.9442 79.8768L47.6955 79.8484C51.4087 79.8327 54.4579 79.8068 54.4715 79.7907L54.4715 79.7906ZM54.4668 40.8008C54.5061 40.7373 54.5902 40.6854 54.6538 40.6854C54.7174 40.6854 54.7372 40.7373 54.698 40.8008C54.6587 40.8643 54.5745 40.9162 54.5109 40.9162C54.4474 40.9162 54.4275 40.8643 54.4668 40.8008ZM10.605 79.7755C10.605 79.7516 10.514 79.6606 10.4028 79.5735C10.2195 79.4299 10.2154 79.434 10.3591 79.6171C10.5101 79.8094 10.605 79.8705 10.605 79.7755ZM77.9869 40.339C77.9869 40.2756 77.9318 40.2236 77.8645 40.2236C77.7971 40.2236 77.7742 40.2756 77.8135 40.339C77.8528 40.4025 77.9079 40.4545 77.9359 40.4545C77.9639 40.4545 77.9869 40.4025 77.9869 40.339ZM75.9643 37.9148C75.925 37.8513 75.8309 37.8002 75.7552 37.8012C75.6725 37.8022 75.6867 37.8476 75.7909 37.9148C76.0129 38.0582 76.053 38.0582 75.9643 37.9148H75.9643ZM19.6809 36.2055C19.6454 36.17 19.5521 36.2055 19.4737 36.2844C19.3604 36.3984 19.3737 36.4116 19.5384 36.349C19.6524 36.3056 19.7165 36.2411 19.6809 36.2055ZM33.4308 36.0691C33.4713 36.0037 33.4249 35.9843 33.3221 36.0238C33.1218 36.1005 33.0852 36.1833 33.2515 36.1833C33.3113 36.1833 33.392 36.1319 33.4308 36.0691V36.0691ZM27.306 31.5063C27.6874 31.4752 28.0905 31.4466 28.2017 31.4428C28.313 31.439 28.404 31.3811 28.404 31.3142C28.404 31.2472 28.508 31.2196 28.6352 31.2528C28.7623 31.286 28.8663 31.2678 28.8663 31.2122C28.8663 31.1566 28.9443 31.1411 29.0397 31.1776C29.135 31.2142 29.2131 31.1831 29.2131 31.1085C29.2131 31.0228 29.3034 31.0016 29.4587 31.0508C29.624 31.1032 29.6784 31.0869 29.6252 31.0009C29.5817 30.9306 29.6193 30.8731 29.7086 30.8731C29.798 30.8731 29.9911 30.7692 30.1377 30.6422C30.445 30.376 30.527 30.3515 30.4281 30.5556C30.3896 30.635 30.4449 30.583 30.5509 30.4402C30.657 30.2973 30.8351 30.1804 30.9467 30.1804C31.0583 30.1804 31.221 30.0895 31.3082 29.9784C31.4553 29.7911 31.45 29.789 31.2357 29.9496C31.0202 30.111 31.0155 30.1087 31.1667 29.9164C31.2559 29.803 31.4373 29.7251 31.5698 29.7433C31.7349 29.766 31.8112 29.7125 31.8121 29.5733C31.813 29.4616 31.946 29.2538 32.108 29.1115C32.2699 28.9693 32.325 28.9048 32.2303 28.9683C32.1357 29.0318 32.1821 28.9149 32.3333 28.7086C32.4845 28.5022 32.6895 28.3293 32.7888 28.3243C32.8886 28.3193 32.9101 28.291 32.8369 28.261C32.7468 28.2241 32.807 27.9594 33.0252 27.4331C33.2016 27.0077 33.3954 26.5023 33.4557 26.3101C33.5854 25.8973 33.5187 23.4022 33.371 23.1387C33.3532 23.1069 33.3285 23.029 33.3162 22.9655C33.2814 22.7866 33.137 22.4092 33.0187 22.1879C32.9598 22.0776 32.9115 21.9168 32.9115 21.8306C32.9115 21.7443 32.8057 21.5781 32.6763 21.4611C32.5469 21.3442 32.4683 21.1776 32.5016 21.0909C32.5349 21.0043 32.5108 20.9651 32.4479 21.0039C32.3851 21.0427 32.3337 20.9903 32.3337 20.8876C32.3337 20.7849 32.2816 20.7329 32.2181 20.7722C32.1545 20.8114 32.1025 20.7975 32.1025 20.7413C32.1025 20.5809 31.0741 19.503 30.9155 19.4971C30.8373 19.4942 30.7864 19.4293 30.8022 19.3528C30.8181 19.2763 30.7661 19.2267 30.6867 19.2426C30.6072 19.2585 30.556 19.2041 30.5729 19.1217C30.5898 19.0393 30.5378 18.9805 30.4573 18.9911C30.1828 19.027 30.0575 18.9829 29.7993 18.7592C29.6573 18.6362 29.4673 18.5638 29.3771 18.5984C29.2869 18.633 29.2131 18.6117 29.2131 18.551C29.2131 18.4904 29.0491 18.4362 28.8487 18.4305C28.6483 18.4248 28.4533 18.3779 28.4153 18.3263C28.3773 18.2747 28.1642 18.227 27.9417 18.2202C25.444 18.1439 24.8079 18.1723 24.2299 18.3861C24.0783 18.4421 23.8893 18.4651 23.8098 18.4372C23.7303 18.4093 23.6653 18.4514 23.6653 18.5307C23.6653 18.6101 23.6336 18.6434 23.5948 18.6047C23.5561 18.5659 23.3358 18.6352 23.1054 18.7586C22.8749 18.8819 22.6231 18.9829 22.5459 18.9829C22.4687 18.9829 22.3524 19.0738 22.2876 19.1849C22.2229 19.296 22.1683 19.3503 22.1663 19.3056C22.1644 19.2609 22.0377 19.3388 21.8849 19.4787C21.372 19.9484 21.2359 20.034 21.1183 19.9614C21.0539 19.9217 21.0088 19.9321 21.0179 19.9844C21.0574 20.2119 20.9987 20.3766 20.8998 20.3156C20.8408 20.2791 20.759 20.3548 20.7181 20.4836C20.6772 20.6124 20.6013 20.6917 20.5495 20.6597C20.4977 20.6277 20.3844 20.6919 20.2978 20.8023C20.1552 20.984 20.1594 20.988 20.3425 20.8446C20.4807 20.7364 20.5447 20.7284 20.5447 20.8194C20.5447 20.8926 20.467 20.9824 20.372 21.0188C20.277 21.0552 20.2247 21.126 20.2558 21.1762C20.2868 21.2264 20.2312 21.2985 20.1322 21.3365C20.0332 21.3744 19.9846 21.4578 20.0241 21.5217C20.0637 21.5857 20.0379 21.638 19.9668 21.638C19.8958 21.638 19.8698 21.6899 19.909 21.7534C19.9483 21.8169 19.9223 21.8688 19.8513 21.8688C19.7802 21.8688 19.7484 21.9115 19.7807 21.9637C19.813 22.0159 19.7604 22.2107 19.6638 22.3966C19.5673 22.5825 19.4919 22.7476 19.4964 22.7635C19.5431 22.9291 19.4766 23.0201 19.3601 22.9502C19.2518 22.8852 19.2532 22.9098 19.3657 23.0485C19.4482 23.1503 19.4733 23.2598 19.4214 23.2918C19.2361 23.4062 19.2559 25.3947 19.4506 26.2117C19.5546 26.6485 19.6574 27.0838 19.6789 27.179C19.7004 27.2743 19.728 27.3782 19.7402 27.4099C19.7754 27.5016 19.8146 27.6859 19.8337 27.8496C19.8433 27.9327 19.9033 27.9686 19.9668 27.9294C20.0304 27.8901 20.0889 27.913 20.0969 27.9803C20.1048 28.0475 20.1243 28.1545 20.1402 28.218C20.1561 28.2815 20.1756 28.394 20.1836 28.4681C20.1915 28.5422 20.2323 28.5685 20.2743 28.5265C20.3163 28.4846 20.4248 28.5561 20.5155 28.6854C20.6455 28.8708 20.6508 28.9561 20.5406 29.0887C20.4637 29.1812 20.4332 29.2569 20.4728 29.2569C20.6686 29.2569 20.7156 29.2228 20.6875 29.1011C20.6707 29.0281 20.764 29.0938 20.8949 29.2471C21.0257 29.4004 21.1067 29.5936 21.0749 29.6763C21.0431 29.759 21.0749 29.8624 21.1455 29.906C21.2233 29.954 21.2414 29.9327 21.1914 29.852C21.0029 29.5472 21.6795 29.8753 21.9107 30.2007C21.9945 30.3187 22.1119 30.385 22.1715 30.3482C22.2312 30.3114 22.3111 30.3622 22.3491 30.4611C22.3871 30.56 22.4606 30.6147 22.5123 30.5827C22.5641 30.5508 22.6825 30.6006 22.7754 30.6934C22.8683 30.7861 22.9765 30.8299 23.0159 30.7906C23.0552 30.7513 23.0874 30.7828 23.0874 30.8606C23.0874 30.9385 23.1395 30.97 23.203 30.9308C23.2666 30.8915 23.3186 30.9175 23.3186 30.9885C23.3186 31.0595 23.3576 31.0946 23.4053 31.0666C23.453 31.0386 23.622 31.0692 23.7809 31.1347C24.126 31.2768 24.1198 31.2753 24.9844 31.437C25.3603 31.5073 25.6886 31.5856 25.714 31.611C25.7395 31.6364 25.9521 31.636 26.1864 31.61C26.4208 31.584 26.9246 31.5373 27.306 31.5062L27.306 31.5063ZM22.3748 31.1182C22.497 31.0409 22.4875 31.0048 22.3293 30.9441C22.2195 30.9021 22.1025 30.8948 22.0692 30.9281C22.0359 30.9613 22.0824 30.9893 22.1724 30.9903C22.3073 30.9917 22.3056 31.0118 22.1628 31.1039C22.0675 31.1655 22.0415 31.2158 22.105 31.2158C22.1686 31.2158 22.29 31.1719 22.3748 31.1182H22.3748ZM32.0398 30.073C32.0764 30.0139 32.0621 29.9382 32.0081 29.9049C31.9541 29.8716 31.9099 29.9199 31.9099 30.0124C31.9099 30.207 31.9463 30.224 32.0398 30.073H32.0398ZM7.88814 23.9481C7.92863 23.8826 7.88223 23.8633 7.77938 23.9027C7.57916 23.9794 7.54252 24.0622 7.70877 24.0622C7.76859 24.0622 7.8493 24.0108 7.88814 23.9481V23.9481ZM88.4347 18.1941C88.4675 18.1411 88.4208 18.0978 88.3311 18.0978C88.2413 18.0978 88.1947 18.1411 88.2274 18.1941C88.2601 18.247 88.3068 18.2902 88.3311 18.2902C88.3554 18.2902 88.402 18.247 88.4347 18.1941ZM13.5386 16.0332C13.578 15.9305 13.5587 15.8841 13.4932 15.9246C13.4303 15.9634 13.3789 16.044 13.3789 16.1037C13.3789 16.2698 13.4617 16.2332 13.5386 16.0332V16.0332ZM83.8428 13.3656C83.8428 13.2635 83.7831 13.2553 83.6309 13.3367C83.5144 13.399 83.419 13.463 83.419 13.4789C83.419 13.4948 83.5144 13.5078 83.6309 13.5078C83.7475 13.5078 83.8428 13.4438 83.8428 13.3656ZM82.9567 12.4739C82.9567 12.4494 82.8137 12.3424 82.6389 12.2361L82.321 12.0429L82.5939 12.2806C82.8601 12.5126 82.9567 12.564 82.9567 12.4739Z" fill="#75DBCD"/>
</svg>
