<svg width="97" height="100" viewBox="0 0 97 100" fill="none" xmlns="http://www.w3.org/2000/svg">
<g clip-path="url(#clip0_29_113)">
<path d="M38.442 5.12403L47.599 2L55.8259 3.47645L65.5503 2H73.2917L83.4051 3.47645L92.6677 10.8587L94.1254 28.8713L81.6564 58.105L86.2539 59.6644L93.2508 58.5453L95 63.27L83.4051 70.8025L75.1756 70.618L71.3856 92.7989L59.7574 99L48.3542 94.5707L45.1473 73.3098L37.2759 74.1957L28.5298 71.5381L27.0297 70.8025L21.2414 73.3098L15.4107 70.0668L10.8452 62.1559L2 30.1405L3.16159 14.6145L10.8452 5.12403L24.7398 3.47645L38.442 5.12403L47.599 2V70.618L43.3936 70.8025L39.1882 70.618L35.0289 70.0668L30.9612 69.1549L27.0297 67.8921L23.2776 66.2925L19.7458 64.3734L16.4731 62.1559L13.4954 59.6644L10.8452 56.9261L8.55165 53.971L6.63983 50.8314L5.13068 47.5419L4.04075 44.1384L3.38198 40.6582L3.16159 37.1395L3.38198 33.6207L4.04075 30.1405L5.13068 26.737L6.63983 23.4475L8.55165 20.3079L10.8452 17.3528L13.4954 14.6145L16.4731 12.123L19.7458 9.90551L23.2776 7.98643L27.0297 6.38677L30.9612 5.12403L35.0289 4.21206L39.6082 4.72618L38.442 5.12403Z" fill="white"/>
<path d="M57.1404 100.074H56.3449L56.743 99.9974L57.1404 99.9207L57.5384 99.9974L57.9365 100.074H57.1404ZM55.0189 99.9454H54.7833L54.9008 99.8274L55.0189 99.7096L55.137 99.8274L55.2545 99.9454H55.0189ZM59.5124 99.9313L59.1738 99.9173L59.4061 99.8243L59.6377 99.7314L59.7448 99.8383L59.8518 99.9452L59.5124 99.9313ZM53.9585 99.7683H53.7222L53.8404 99.6505L53.9585 99.5325L54.0759 99.6505L54.1941 99.7683H53.9585ZM60.6766 99.7683H60.4411L60.5585 99.6505L60.6766 99.5325L60.7947 99.6505L60.9122 99.7683H60.6766ZM53.3392 99.5916H53.2511V99.5032V99.4147H53.3392H53.4279V99.5032V99.5916H53.3392ZM61.5608 99.5916H61.3246L61.4427 99.4736L61.5608 99.3558L61.6783 99.4736L61.7964 99.5916H61.5608ZM52.7206 99.4147H52.485L52.6024 99.2967L52.7206 99.1789L52.8387 99.2967L52.9561 99.4147H52.7206ZM62.2676 99.4147H62.032L62.1501 99.2967L62.2676 99.1789L62.3857 99.2967L62.5038 99.4147H62.2676ZM52.2788 99.2378H52.19V99.1494V99.0609H52.2788H52.3669V99.1494V99.2378H52.2788ZM62.975 99.2378H62.7394L62.8568 99.12L62.975 99.002L63.0931 99.12L63.2105 99.2378H62.975ZM51.7482 99.0609H51.6595V98.9725V98.884H51.7482H51.8363V98.9725V99.0609H51.7482ZM63.6823 99.0609H63.4468L63.5642 98.9431L63.6823 98.8251L63.8004 98.9431L63.9179 99.0609H63.6823ZM51.3945 98.884H51.3058V98.7958V98.7073H51.3945H51.4826V98.7958V98.884H51.3945ZM64.301 98.884H64.2129V98.7958V98.7073H64.301H64.3897V98.7958V98.884H64.301ZM51.0409 98.7073H50.9528V98.6189V98.5304H51.0409H51.1296V98.6189V98.7073H51.0409ZM64.8315 98.7073H64.7428V98.6189V98.5304H64.8315H64.9196V98.6189V98.7073H64.8315ZM50.6872 98.5304H50.5991V98.442V98.3535H50.6872H50.7759V98.442V98.5304H50.6872ZM65.1852 98.5304H65.0964V98.442V98.3535H65.1852H65.2733V98.442V98.5304H65.1852ZM65.7157 98.3535H65.627V98.2653V98.1768H65.7157H65.8038V98.2653V98.3535H65.7157ZM66.2456 98.1768H66.1575V98.0884V97.9999H66.2456H66.3344V98.0884V98.1768H66.2456ZM49.814 97.9999H49.7357L49.6098 97.7958L49.4832 97.5917L49.6874 97.7178L49.8917 97.8439V97.9219V97.9999H49.814ZM66.5993 97.9999H66.5112V97.9115V97.823H66.5993H66.688V97.9115V97.9999H66.5993ZM66.953 97.823H66.8649V97.7346V97.6463H66.953H67.0417V97.7346V97.823H66.953ZM57.7597 97.6016L57.0523 97.5949L57.4523 97.5181L57.8517 97.4412L58.159 97.5216L58.4664 97.6021L57.7597 97.5954V97.6016ZM67.3067 97.6463H67.2179V97.558V97.4696H67.3067H67.3948V97.558V97.6463H67.3067ZM55.8 97.4556L55.4607 97.4415L55.693 97.3487L55.9253 97.2558L56.0317 97.3626L56.1387 97.4694L55.8 97.4556ZM59.8661 97.4556L59.5275 97.4415L59.7591 97.3487L59.9914 97.2558L60.0985 97.3626L60.2048 97.4694L59.8661 97.4556ZM67.6604 97.4696H67.5716V97.3811V97.2927H67.6604H67.7485V97.3811V97.4696H67.6604ZM48.9553 97.2927H48.9024L48.2035 96.5411L47.5046 95.7895L48.2564 96.4886L49.0075 97.1876V97.2405V97.2934L48.9553 97.2927ZM55.0189 97.2927H54.7833L54.9008 97.1749L55.0189 97.0569L55.137 97.1749L55.2545 97.2927H55.0189ZM60.8535 97.2927H60.6179L60.7354 97.1749L60.8535 97.0569L60.9716 97.1749L61.089 97.2927H60.8535ZM67.9932 97.2927H67.9044L68.0141 97.1158L68.123 96.9391H68.2118H68.2999L68.1909 97.1158L68.0813 97.2927H67.9932ZM54.4003 97.1158H54.3115V97.0275V96.9391H54.4003H54.4884V97.0275V97.1158H54.4003ZM61.6489 97.1158H61.5608V97.0275V96.9391H61.6489H61.7377V97.0275V97.1158H61.6489ZM53.8697 96.9391H53.7816V96.8506V96.7622H53.8697H53.9585V96.8506V96.9391H53.8697ZM62.3563 96.9391H62.2676V96.8506V96.7622H62.3563H62.4444V96.8506V96.9391H62.3563ZM68.5237 96.9391H68.435L68.5446 96.7622L68.6536 96.5853H68.7417H68.8304L68.7208 96.7622L68.6118 96.9391H68.5237ZM53.516 96.7622H53.4279V96.6738V96.5853H53.516H53.6048V96.6738V96.7622H53.516ZM63.0637 96.7622H62.975V96.6738V96.5853H63.0637H63.1518V96.6738V96.7622H63.0637ZM53.1623 96.5853H53.0742V96.497V96.4086H53.1623H53.2511V96.497V96.5853H53.1623ZM63.5936 96.5853H63.5055V96.497V96.4086H63.5936H63.6823V96.497V96.5853H63.5936ZM69.0536 96.5853H68.9655L69.0745 96.4086L69.1841 96.2317H69.2722H69.361L69.2513 96.4086L69.1423 96.5853H69.0536ZM52.8087 96.4086H52.7206V96.3202V96.2317H52.8087H52.8974V96.3202V96.4086H52.8087ZM64.4778 96.2317H64.3897V96.1433V96.0548H64.4778H64.5666V96.1433V96.2317H64.4778ZM52.2788 96.0548H52.19V95.9664V95.8779H52.2788H52.3669V95.9664V96.0548H52.2788ZM65.362 95.8779H65.2733V95.7895V95.701H65.362H65.4501V95.7895V95.8779H65.362ZM69.8895 95.8779H69.8008L70.4005 95.259L71.0002 94.64H71.0889H71.177L70.5773 95.259L69.9776 95.8779H69.8895ZM51.7482 95.701H51.6595V95.6128V95.5243H51.7482H51.8363V95.6128V95.701H51.7482ZM65.7157 95.701H65.627V95.6128V95.5243H65.7157H65.8038V95.6128V95.701H65.7157ZM47.3284 95.5243H47.2397V95.4359V95.3474H47.3284H47.4165V95.4359V95.5243H47.3284ZM51.405 95.5243H51.3273L51.2007 95.3202L51.0748 95.1159L51.279 95.2422L51.4826 95.3683V95.4463V95.5243H51.405ZM66.0688 95.5243H65.9807V95.4359V95.3474H66.0688H66.1575V95.4359V95.5243H66.0688ZM66.4225 95.3474H66.3344V95.259V95.1705H66.4225H66.5112V95.259V95.3474H66.4225ZM46.9852 94.9938H46.9069L46.7809 94.7895L46.655 94.5854L46.8586 94.7117L47.0628 94.8378V94.9158V94.9938H46.9852ZM66.953 94.9938H66.8649V94.9054V94.8169H66.953H67.0417V94.9054V94.9938H66.953ZM67.3067 94.8169H67.2179V94.7285V94.64H67.3067H67.3948V94.7285V94.8169H67.3067ZM57.7225 94.6224L56.5217 94.6043L55.8561 94.4475L55.1905 94.2905L54.4564 93.9159L53.7216 93.5412L52.8661 92.6626L52.0106 91.7841L51.3247 90.3383L50.6395 88.8923L50.4503 88.0934L50.261 87.2946L49.97 84.6449L49.679 81.9955L49.5628 72.6227L49.4466 63.25L49.0616 62.4127L48.6766 61.5754L47.8152 60.7138L46.9538 59.8522L45.9411 59.4732L44.9283 59.0941H44.2274H43.5266V59.0373V58.9805L44.5609 56.1639L45.5952 53.3472L46.0344 52.4629L46.4742 51.5788L46.8462 50.5177L47.2188 49.4567L47.4863 48.4841L47.7532 47.5114L48.0273 45.9408L48.3007 44.3703V42.0502V39.7303L48.1239 38.1866L47.947 36.6431L47.4987 34.2176L47.0511 31.792L46.5375 30.7211L46.0239 29.6501L45.175 28.7916L44.3253 27.9331L43.6675 27.597L43.0104 27.261L41.995 26.9967L40.9803 26.7321H39.559H38.137L36.2289 27.1652L34.3202 27.5983L32.6314 28.3984L30.9432 29.1985L31.0645 28.0963L31.1866 26.9942L31.5253 25.2069L31.8639 23.4197L32.4043 21.4932L32.9446 19.5667L34.0546 17.2678L35.164 14.9688L36.24 13.5258L37.3168 12.0828L38.6317 10.9616L39.9473 9.84035L41.1251 9.18713L42.3024 8.53409L43.4026 8.09562L44.5022 7.65732L46.005 7.37045L47.5079 7.08357L50.0711 7.07688L52.6351 7.07019L54.5797 7.35902L56.525 7.64785L58.3639 8.26011L60.2029 8.87236L61.6627 9.55658L63.1224 10.2408L64.4204 11.0773L65.7183 11.9139L67.0443 12.9948L68.3704 14.0757L70.0076 15.8469L71.6449 17.618L72.4032 18.679L73.1608 19.7402L74.0757 21.2432L74.9913 22.7465L75.7032 24.3912L76.4145 26.0357V26.1595L76.4139 26.2834H74.0718H71.7298L70.7568 26.522L69.7845 26.7607L68.651 27.2932L67.5175 27.8258L66.7396 28.6263L65.9617 29.4269L65.5526 30.2394L65.1434 31.0519L64.9444 31.989L64.746 32.9261L64.7467 34.1112V35.2962L65.0253 36.887L65.3033 38.478L66.2391 41.0429L67.1749 43.6078L68.3195 45.9068L69.4641 48.2057L70.7059 50.5048L71.9484 52.8038L72.6982 54.2977L73.4486 55.7918L74.5117 57.2157L75.5753 58.6396L75.743 58.8501L75.9101 59.0607L75.0082 59.4489L74.1057 59.8371L73.3599 60.6703L72.6133 61.5031L72.291 62.3704L71.9693 63.2376L71.8172 65.2713L71.6652 67.305L71.2116 71.4961L70.7581 75.6874L70.4873 77.6858L70.2165 79.6841L69.7597 82.6905L69.3029 85.6968L68.9681 87.0231L68.6333 88.3494L68.0937 89.4538L67.5533 90.5582L66.7239 91.4039L65.8952 92.2496L64.5692 92.8934L63.2432 93.5369L62.4412 93.8019L61.6392 94.0668L60.2831 94.3471L58.9264 94.6273L57.7257 94.61L57.7225 94.6224ZM46.621 94.4633H46.5323V94.3749V94.2864H46.621H46.7091V94.3749V94.4633H46.621ZM67.9932 94.2864H67.9044L68.0141 94.1095L68.123 93.9327H68.2118H68.2999L68.1909 94.1095L68.0813 94.2864H67.9932ZM71.3513 94.2864H71.2847V94.2195V94.1528L71.594 93.91L71.9034 93.6673L71.6606 93.9769L71.4178 94.2863L71.3513 94.2864ZM46.4442 94.1095H46.3554V94.0211V93.9327H46.4442H46.5323V94.0211V94.1095H46.4442ZM49.8036 93.9327H49.7148V93.8442V93.7558H49.8036H49.8917V93.8442V93.9327H49.8036ZM46.2673 93.7558H46.1786V93.6675V93.579H46.2673H46.3554V93.6675V93.7558H46.2673ZM71.8825 93.579H71.7944L71.9034 93.4022L72.013 93.2253H72.1011H72.1898L72.0802 93.4022L71.9712 93.579H71.8825ZM46.0905 93.4022H46.0017V93.3137V93.2253H46.0905H46.1786V93.3137V93.4022H46.0905ZM49.4603 93.4022H49.382L49.2561 93.198L49.1301 92.9939L49.3337 93.12L49.538 93.2462V93.3242V93.4022H49.4603ZM69.2298 93.0485H69.1632V92.9816V92.9147L69.4725 92.6721L69.7819 92.4294L69.5391 92.7388L69.2963 93.0484L69.2298 93.0485ZM72.257 93.0485H72.1689V92.9601V92.8717H72.257H72.3458V92.9601V93.0485H72.257ZM45.9137 92.8717H45.8256V92.7832V92.6948H45.9137H46.0017V92.7832V92.8717H45.9137ZM49.0962 92.8717H49.0075V92.7832V92.6948H49.0962H49.1843V92.7832V92.8717H49.0962ZM48.9194 92.5179H48.8306V92.4294V92.3412H48.9194H49.0075V92.4294V92.5179H48.9194ZM45.7368 92.3412H45.6487V92.2527V92.1643H45.7368H45.8256V92.2527V92.3412H45.7368ZM69.761 92.3412H69.6729L69.7819 92.1643L69.8908 91.9874H69.9796H70.0677L69.9587 92.1643L69.8497 92.3412H69.761ZM48.7425 92.1643H48.6544V92.0758V91.9874H48.7425H48.8306V92.0758V92.1643H48.7425ZM72.7876 92.1643H72.6988V92.0758V91.9874H72.7876H72.8757V92.0758V92.1643H72.7876ZM45.56 91.8105H45.4719V91.7222V91.6338H45.56H45.6487V91.7222V91.8105H45.56ZM72.9644 91.8105H72.8757V91.7222V91.6338H72.9644H73.0525V91.7222V91.8105H72.9644ZM48.595 91.5747L48.4776 91.6927V91.4569V91.2211L48.595 91.3389L48.7132 91.4569L48.595 91.5747ZM73.1413 91.28H73.0525V91.1917V91.1033H73.1413H73.2294V91.1917V91.28H73.1413ZM48.3888 91.1033H48.3007V91.0148V90.9264H48.3888H48.4776V91.0148V91.1033H48.3888ZM45.3831 90.9264H45.295V90.8379V90.7495H45.3831H45.4719V90.8379V90.9264H45.3831ZM73.3475 90.8675L73.2294 90.9855V90.7497V90.5139L73.3475 90.6317L73.4649 90.7497L73.3475 90.8675ZM48.212 90.5728H48.1239V90.4843V90.3959H48.212H48.3007V90.4843V90.5728H48.212ZM70.8429 90.5728H70.7542V90.4843V90.3959H70.8429H70.931V90.4843V90.5728H70.8429ZM73.5243 90.337L73.4062 90.455V90.2192V89.9834L73.5243 90.1012L73.6418 90.2192L73.5243 90.337ZM48.0351 90.2192H47.947V90.1307V90.0423H48.0351H48.1239V90.1307V90.2192H48.0351ZM71.0198 90.2192H70.931V90.1307V90.0423H71.0198H71.1079V90.1307V90.2192H71.0198ZM45.2356 89.9834L45.1182 90.1012V89.8654V89.6296L45.2356 89.7476L45.3538 89.8654L45.2356 89.9834ZM73.7012 89.8065L73.583 89.9244V89.6885V89.4527L73.7012 89.5707L73.8186 89.6885L73.7012 89.8065ZM47.8583 89.6885H47.7702V89.6002V89.5118H47.8583H47.947V89.6002V89.6885H47.8583ZM71.1966 89.6885H71.1079V89.6002V89.5118H71.1966H71.2847V89.6002V89.6885H71.1966ZM71.4028 89.276L71.2847 89.3938V89.158V88.9222L71.4028 89.0402L71.5203 89.158L71.4028 89.276ZM73.878 89.0991L73.7599 89.2169V88.9813V88.7455L73.878 88.8633L73.9955 88.9813L73.878 89.0991ZM45.0484 88.9333L44.9413 89.0402L44.955 88.7011L44.9694 88.3622L45.0621 88.5944L45.1547 88.8264L45.0484 88.9333ZM47.6815 88.9814H47.5934V88.893V88.8045H47.6815H47.7702V88.893V88.9814H47.6815ZM71.5797 88.7456L71.4616 88.8634V88.6277V88.3919L71.5797 88.5098L71.6971 88.6277L71.5797 88.7456ZM47.5346 88.215L47.4165 88.333V88.0972V87.8614L47.5346 87.9793L47.6521 88.0972L47.5346 88.215ZM71.7559 88.215L71.6384 88.333V88.0972V87.8614L71.7559 87.9793L71.874 88.0972L71.7559 88.215ZM74.0248 88.2739H73.9367V88.1854V88.0972H74.0248H74.1136V88.1854V88.2739H74.0248ZM44.8806 87.6141L44.7926 87.8318L44.7991 87.3012L44.8056 86.7707L44.8872 87.0835L44.9687 87.3965L44.8806 87.6141ZM74.2017 87.5667H74.1136V87.4782V87.3898H74.2017H74.2904V87.4782V87.5667H74.2017ZM71.9327 87.3309L71.8153 87.4487V87.2129V86.9772L71.9327 87.0951L72.0508 87.2129L71.9327 87.3309ZM47.3284 87.0362H47.2397V86.9477V86.8593H47.3284H47.4165V86.9477V87.0362H47.3284ZM72.1096 86.6235L71.9921 86.7415V86.5057V86.2697L72.1096 86.3877L72.2277 86.5057L72.1096 86.6235ZM74.4085 86.6235L74.2904 86.7415V86.5057V86.2697L74.4085 86.3877L74.526 86.5057L74.4085 86.6235ZM44.709 85.9329L44.6288 86.2403L44.6353 85.5329L44.6418 84.8256L44.7188 85.2255L44.7958 85.6255L44.7155 85.9329H44.709ZM47.1698 85.7503L47.0628 85.8572L47.0772 85.5182L47.0909 85.1792L47.1835 85.4114L47.2769 85.6436L47.1698 85.7503ZM72.2864 85.7389L72.1689 85.8568V85.6211V85.3853L72.2864 85.5031L72.4045 85.6211L72.2864 85.7389ZM74.5847 85.3853L74.4673 85.5031V85.2673V85.0315L74.5847 85.1495L74.7029 85.2673L74.5847 85.3853ZM72.4632 84.501L72.3458 84.619V84.3832V84.1474L72.4632 84.2652L72.5814 84.3832L72.4632 84.501ZM74.7616 84.3241L74.6441 84.4421V84.2063V83.9705L74.7616 84.0883L74.8797 84.2063L74.7616 84.3241ZM44.5354 83.72L44.4591 84.1178V83.322V82.5263L44.5354 82.9242L44.6124 83.322L44.5354 83.72ZM47.0034 83.8967L46.914 84.1178V83.6758V83.2336L47.0034 83.4547L47.0922 83.6758L47.0034 83.8967ZM72.6107 83.322H72.522V83.2336V83.1451H72.6107H72.6988V83.2336V83.322H72.6107ZM74.9384 83.0862L74.821 83.2042V82.9684V82.7326L74.9384 82.8504L75.0565 82.9684L74.9384 83.0862ZM72.8169 82.2021L72.6988 82.3199V82.0841V81.8483L72.8169 81.9663L72.9351 82.0841L72.8169 82.2021ZM75.1042 81.8594L74.9978 81.9663L75.0115 81.6272L75.0259 81.2883L75.1185 81.5205L75.2112 81.7525L75.1042 81.8594ZM44.3605 80.8051L44.2868 81.2883V80.2273V79.1663L44.3586 79.7441L44.4304 80.3221L44.3566 80.8051H44.3605ZM46.8305 80.981L46.7502 81.2883L46.7568 80.5811L46.764 79.8735L46.8403 80.2735L46.9173 80.6734L46.837 80.981H46.8305ZM72.9938 80.9642L72.8757 81.0822V80.8464V80.6106L72.9938 80.7284L73.1119 80.8464L72.9938 80.9642ZM75.2915 80.36L75.2021 80.5811V80.139V79.6968L75.2915 79.9179L75.3809 80.139L75.2915 80.36ZM73.1706 79.7263L73.0525 79.8443V79.6085V79.3727L73.1706 79.4905L73.2887 79.6085L73.1706 79.7263ZM75.467 79.1255L75.3789 79.3432L75.3854 78.8127L75.3926 78.2822L75.4735 78.595L75.5551 78.9078L75.467 79.1255ZM73.3364 78.4995L73.2294 78.6063L73.2437 78.2673L73.2574 77.9284L73.3507 78.1606L73.4434 78.3926L73.3364 78.4995ZM75.6439 77.7107L75.5558 77.9284L75.5623 77.3979L75.5695 76.8674L75.6504 77.1802L75.7319 77.493L75.6439 77.7107ZM73.5132 77.0848L73.4062 77.1916L73.4206 76.8527L73.4343 76.5136L73.5276 76.7458L73.6202 76.9779L73.5132 77.0848ZM75.822 75.9389L75.7326 76.16V75.7178V75.2757L75.822 75.4968L75.9107 75.7178L75.822 75.9389ZM73.6901 75.67L73.583 75.7769L73.5974 75.4379L73.6111 75.099L73.7038 75.3311L73.7971 75.5631L73.6901 75.67ZM38.1344 75.4804H36.7203L37.476 75.4125L38.2323 75.3444L38.8908 75.4136L39.5485 75.4828H38.1344V75.4804ZM35.5705 75.3642H35.3349L35.453 75.2464L35.5705 75.1284L35.6886 75.2464L35.8067 75.3642H35.5705ZM40.4328 75.3642H40.3447V75.2757V75.1873H40.4328H40.5215V75.2757V75.3642H40.4328ZM34.4213 75.1873H34.3332V75.099V75.0106H34.4213H34.5101V75.099V75.1873H34.4213ZM41.1401 75.1873H41.0514V75.099V75.0106H41.1401H41.2282V75.099V75.1873H41.1401ZM33.5378 75.0106H33.449V74.9221V74.8337H33.5378H33.6259V74.9221V75.0106H33.5378ZM41.6707 75.0106H41.5819V74.9221V74.8337H41.6707H41.7588V74.9221V75.0106H41.6707ZM32.6535 74.8337H32.5654V74.7452V74.6568H32.6535H32.7423V74.7452V74.8337H32.6535ZM42.2006 74.8337H42.1125V74.7452V74.6568H42.2006H42.2893V74.7452V74.8337H42.2006ZM21.25 74.6289H20.8082L21.0288 74.5396L21.25 74.4505L21.4712 74.5396L21.6918 74.6289H21.25ZM31.6812 74.657H31.4456L31.5631 74.539L31.6812 74.4212L31.7993 74.539L31.9168 74.657H31.6812ZM46.6634 73.5517L46.6015 74.7454V72.3579V69.9706L46.6634 71.1642L46.7248 72.3579L46.6634 73.5517ZM73.8819 74.4359L73.801 74.7454V74.1265V73.5075L73.8819 73.8169L73.9628 74.1265L73.8819 74.4359ZM19.7471 74.4801H19.6584V74.3916V74.3032H19.7471H19.8352V74.3916V74.4801H19.7471ZM22.3104 74.4801H22.0748L22.1929 74.3621L22.3104 74.2443L22.4285 74.3621L22.5466 74.4801H22.3104ZM30.8857 74.4801H30.797V74.3916V74.3032H30.8857H30.9738V74.3916V74.4801H30.8857ZM43.0848 74.4801H42.9967V74.3916V74.3032H43.0848H43.1735V74.3916V74.4801H43.0848ZM44.1968 74.3273L44.1191 74.5594L44.0095 74.1405L43.9005 73.7218L44.0871 73.9086L44.2738 74.0955L44.1968 74.3273ZM75.9988 74.3474L75.9094 74.5685V74.1265V73.6842L75.9988 73.9053L76.0876 74.1265L75.9988 74.3474ZM19.2166 74.3033H19.1285V74.2149V74.1265H19.2166H19.3053V74.2149V74.3033H19.2166ZM23.1065 74.3033H23.0178V74.2149V74.1265H23.1065H23.1946V74.2149V74.3033H23.1065ZM30.3552 74.3033H30.2665V74.2149V74.1265H30.3552H30.4433V74.2149V74.3033H30.3552ZM43.4385 74.3033H43.3504V74.2149V74.1265H43.4385H43.5266V74.2149V74.3033H43.4385ZM18.686 74.1265H18.598V74.038V73.9496H18.686H18.7748V74.038V74.1265H18.686ZM23.4602 74.1265H23.3715V74.038V73.9496H23.4602H23.5483V74.038V74.1265H23.4602ZM29.8247 74.1265H29.7366V74.038V73.9496H29.8247H29.9134V74.038V74.1265H29.8247ZM18.3324 73.9496H18.2443V73.8611V73.7727H18.3324H18.4211V73.8611V73.9496H18.3324ZM23.8132 73.9496H23.7252V73.8611V73.7727H23.8132H23.902V73.8611V73.9496H23.8132ZM29.2941 73.9496H29.206V73.8611V73.7727H29.2941H29.3829V73.8611V73.9496H29.2941ZM17.9793 73.7727H17.8906V73.6842V73.596H17.9793H18.0674V73.6842V73.7727H17.9793ZM24.1669 73.7727H24.0788V73.6842V73.596H24.1669H24.2557V73.6842V73.7727H24.1669ZM28.7643 73.7727H28.6755V73.6842V73.596H28.7643H28.8524V73.6842V73.7727H28.7643ZM17.6256 73.596H17.5369V73.5075V73.4191H17.6256H17.7137V73.5075V73.596H17.6256ZM24.5206 73.596H24.4325V73.5075V73.4191H24.5206H24.6094V73.5075V73.596H24.5206ZM28.4106 73.596H28.3218V73.5075V73.4191H28.4106H28.4987V73.5075V73.596H28.4106ZM17.2824 73.4191H17.2041L17.0781 73.2149L16.9522 73.0106L17.1564 73.1369L17.36 73.2631V73.3411V73.4191H17.2824ZM28.0569 73.4191H27.9681V73.3306V73.2422H28.0569H28.145V73.3306V73.4191H28.0569ZM25.0303 73.2422H24.9415L25.0512 73.0655L25.1601 72.8886H25.2489H25.337L25.228 73.0655L25.1184 73.2422H25.0303ZM27.7032 73.2422H27.6144V73.1537V73.0655H27.7032H27.7913V73.1537V73.2422H27.7032ZM35.9242 73.2422H35.6886L35.8067 73.1244L35.9242 73.0064L36.0423 73.1244L36.1604 73.2422H35.9242ZM39.4604 73.2422H39.2249L39.3423 73.1244L39.4604 73.0064L39.5786 73.1244L39.696 73.2422H39.4604ZM34.6869 73.0655H34.4514L34.5688 72.9475L34.6869 72.8295L34.8044 72.9475L34.9225 73.0655H34.6869ZM40.7865 73.0655H40.6977V72.977V72.8886H40.7865H40.8746V72.977V73.0655H40.7865ZM16.5861 72.8886H16.5195L16.2768 72.579L16.034 72.2695L16.3433 72.5123L16.6527 72.7549V72.8218V72.8887L16.5861 72.8886ZM33.8915 72.8886H33.8027V72.8001V72.7117H33.8915H33.9796V72.8001V72.8886H33.8915ZM41.4938 72.8886H41.4051V72.8001V72.7117H41.4938H41.5819V72.8001V72.8886H41.4938ZM74.0529 72.7593L73.9648 72.977L73.9713 72.4464L73.9779 71.9158L74.0594 72.2287L74.141 72.5415L74.0529 72.7593ZM33.1841 72.7118H33.0953V72.6234V72.535H33.1841H33.2722V72.6234V72.7118H33.1841ZM42.1125 72.7118H41.8769L41.9944 72.5939L42.1125 72.4761L42.2306 72.5939L42.348 72.7118H42.1125ZM76.1652 72.6637L76.0582 72.7706L76.0726 72.4317L76.0863 72.0927L76.1789 72.3248L76.2723 72.5568L76.1652 72.6637ZM25.9354 72.5348H25.8466V72.4464V72.3579H25.9354H26.0235V72.4464V72.5348H25.9354ZM32.6535 72.5348H32.5654V72.4464V72.3579H32.6535H32.7423V72.4464V72.5348H32.6535ZM42.7311 72.5348H42.643V72.4464V72.3579H42.7311H42.8198V72.4464V72.5348H42.7311ZM32.123 72.3579H32.0349V72.2695V72.1812H32.123H32.2118V72.2695V72.3579H32.123ZM43.0848 72.3579H42.9967V72.2695V72.1812H43.0848H43.1735V72.2695V72.3579H43.0848ZM26.6526 72.1812H26.5749L26.4483 71.9769L26.3224 71.7727L26.5266 71.8989L26.7309 72.0252V72.1032V72.1812H26.6526ZM31.7693 72.1812H31.6812V72.0927V72.0043H31.7693H31.8581V72.0927V72.1812H31.7693ZM43.6153 72.1812H43.5266V72.0927V72.0043H43.6153H43.7034V72.0927V72.1812H43.6153ZM21.7805 71.956H20.9844L21.3824 71.8795L21.7805 71.8028L22.1779 71.8795L22.576 71.956H21.7805ZM43.969 72.0041H43.8803V71.9157V71.8272H43.969H44.0571V71.9157V72.0041H43.969ZM20.2777 71.8272H20.1889V71.739V71.6505H20.2777H20.3658V71.739V71.8272H20.2777ZM23.1946 71.8272H22.959L23.0765 71.7094L23.1946 71.5914L23.3127 71.7094L23.4302 71.8272H23.1946ZM79.8594 71.7765H78.9758L79.464 71.7026L79.9527 71.6287L80.3482 71.705L80.7436 71.7814L79.8594 71.7765ZM15.3599 71.6502H15.3045L14.785 71.0755L14.2662 70.5007L14.8405 71.0201L15.4154 71.5396V71.595V71.6505L15.3599 71.6502ZM19.7471 71.6502H19.6584V71.5619V71.4735H19.7471H19.8352V71.5619V71.6502H19.7471ZM77.2961 71.6221H76.8537L77.0749 71.533L77.2961 71.4438L77.5167 71.533L77.7379 71.6221H77.2961ZM82.6002 71.6089H81.9809L82.2909 71.528L82.6002 71.447L82.9095 71.528L83.2188 71.6089H82.6002ZM19.3934 71.473H19.3053V71.3845V71.2961H19.3934H19.4815V71.3845V71.473H19.3934ZM44.8526 71.473H44.7645V71.3845V71.2961H44.8526H44.9413V71.3845V71.473H44.8526ZM84.0143 71.4449H83.5725L83.7931 71.3558L84.0143 71.2666L84.2355 71.3558L84.4567 71.4449H84.0143ZM19.0397 71.2961H18.9516V71.2076V71.1192H19.0397H19.1285V71.2076V71.2961H19.0397ZM85.2522 71.2961H85.0166L85.1341 71.1781L85.2522 71.0603L85.3697 71.1781L85.4878 71.2961H85.2522ZM18.686 71.1192H18.598V71.0308V70.9423H18.686H18.7748V71.0308V71.1192H18.686ZM45.3831 71.1192H45.295V71.0308V70.9423H45.3831H45.4719V71.0308V71.1192H45.3831ZM85.9589 71.1192H85.7234L85.8415 71.0014L85.9589 70.8834L86.077 71.0014L86.1952 71.1192H85.9589ZM25.0512 70.9423H24.9624V70.8539V70.7656H25.0512H25.1393V70.8539V70.9423H25.0512ZM74.2317 70.8836L74.1136 71.0014V70.7656V70.5298L74.2317 70.6478L74.3492 70.7656L74.2317 70.8836ZM86.7551 70.9423H86.6663V70.8539V70.7656H86.7551H86.8432V70.8539V70.9423H86.7551ZM18.1562 70.7656H18.0674V70.6771V70.5887H18.1562H18.2443V70.6771V70.7656H18.1562ZM45.8928 70.7656H45.8047L45.9137 70.5887L46.0233 70.4118H46.1114H46.1995L46.0905 70.5887L45.9815 70.7656H45.8928ZM87.4618 70.7656H87.3737V70.6771V70.5887H87.4618H87.5505V70.6771V70.7656H87.4618ZM25.7585 70.4118H25.6698V70.3234V70.2349H25.7585H25.8466V70.3234V70.4118H25.7585ZM29.471 70.4118H29.3829V70.3234V70.2349H29.471H29.5597V70.3234V70.4118H29.471ZM88.346 70.4118H88.2579V70.3234V70.2349H88.346H88.4341V70.3234V70.4118H88.346ZM14.0998 70.2349H14.0222L13.8956 70.0308L13.7696 69.8266L13.9739 69.9528L14.1775 70.0791V70.1571V70.2349H14.0998ZM17.4592 70.2349H17.3809L17.255 70.0308L17.129 69.8266L17.3326 69.9528L17.5369 70.0791V70.1571V70.2349H17.4592ZM37.4271 70.2129L36.3666 70.1935L35.5411 70.0541L34.7156 69.9149L33.7727 69.6344L32.8304 69.3541L32.57 69.1852L32.3096 69.0163L32.57 68.9246L32.8304 68.8329L35.3499 68.2229L37.8688 67.6129L39.0206 66.9689L40.1717 66.3248L41.5402 64.707L42.9079 63.0893L43.3804 62.5948L43.8535 62.1002H44.3175H44.7821L45.2611 62.3482L45.7407 62.5961L46.1479 63.3205L46.5545 64.0447L46.5649 64.7671L46.5747 65.4895L46.0474 66.2266L45.5195 66.9635L44.3416 67.9617L43.1637 68.9598L41.9311 69.4167L40.699 69.8735L39.5936 70.053L38.4881 70.2325L37.4271 70.2129ZM88.8765 70.2349H88.7878V70.1465V70.0582H88.8765H88.9646V70.1465V70.2349H88.8765ZM29.2941 70.0582H29.206V69.9698V69.8813H29.2941H29.3829V69.9698V70.0582H29.2941ZM89.3183 70.0582H89.0828L89.2009 69.9402L89.3183 69.8224L89.4364 69.9402L89.5539 70.0582H89.3183ZM89.7608 69.8813H89.672V69.7929V69.7044H89.7608H89.8489V69.7929V69.8813H89.7608ZM29.1473 69.6455L29.0292 69.7633V69.5275V69.2917L29.1473 69.4097L29.2648 69.5275L29.1473 69.6455ZM74.3785 69.7043H74.2904V69.6158V69.5275H74.3785H74.4673V69.6158V69.7043H74.3785ZM90.1138 69.7043H90.0257V69.6158V69.5275H90.1138H90.2026V69.6158V69.7043H90.1138ZM13.5693 69.5275H13.4916L13.365 69.3232L13.2391 69.1191L13.4433 69.2454L13.6476 69.3715V69.4495V69.5275H13.5693ZM90.4466 69.5275H90.3585L90.4675 69.3506L90.5771 69.1738H90.6652H90.754L90.6443 69.3506L90.5354 69.5275H90.4466ZM76.8393 69.3366L76.5007 69.3226L76.7323 69.2297L76.9646 69.1367L77.071 69.2436L77.178 69.3505L76.8393 69.3366ZM79.7713 69.3099H79.1527L79.462 69.2291L79.7713 69.1481L80.0806 69.2291L80.3899 69.3099H79.7713ZM74.7322 69.1741H74.6441V69.0856V68.9974H74.7322H74.821V69.0856V69.1741H74.7322ZM75.5277 69.1741H75.2921L75.4102 69.0561L75.5277 68.9383L75.6458 69.0561L75.7639 69.1741H75.5277ZM81.6129 69.1601L81.2742 69.146L81.5058 69.0532L81.7381 68.9602L81.8452 69.067L81.9515 69.1739L81.6129 69.1601ZM90.998 69.1741H90.9099V69.0856V68.9974H90.998H91.0868V69.0856V69.1741H90.998ZM13.2156 68.9974H13.1379L13.012 68.7931L12.8854 68.5889L13.0897 68.7151L13.2939 68.8414V68.9194V68.9974H13.2156ZM16.2324 68.9974H16.1658L15.9231 68.6878L15.6803 68.3783L15.9897 68.6211L16.2996 68.8637V68.9306V68.9974H16.2324ZM22.2706 68.8053L21.6918 68.9316L21.1364 68.814L20.5811 68.6961L19.9716 68.3195L19.3628 67.9431L18.4844 67.0111L17.6061 66.0794L16.8876 65.0182L16.1698 63.9572L15.0624 61.7476L13.955 59.5378L13.027 57.2379L12.0991 54.9382L10.9453 51.4013L9.79094 47.8643L8.724 43.7085L7.65705 39.5527L6.94511 36.0158L6.23381 32.479L5.95778 30.8874L5.68239 29.2957L5.57472 26.9968L5.4677 24.6978L5.67913 22.5218L5.89056 20.3457L6.23903 18.9848L6.58685 17.6241L7.23354 15.9666L7.88088 14.309L8.95174 12.8755L10.0233 11.442L11.0837 10.584L12.1447 9.72596L13.1171 9.23185L14.0894 8.73757L15.3867 8.27153L16.684 7.80548L18.1947 7.54211L19.7047 7.27874H22.2895H24.8743L26.4653 7.46036L28.0569 7.64214L29.8247 7.9982L31.5925 8.35442L33.6259 8.90353L35.6593 9.45279L35.7265 9.50762L35.7943 9.56229L34.8566 10.5853L33.9189 11.6084L32.9446 13.1115L31.9697 14.6147L31.1298 16.5257L30.2893 18.4367L29.8377 19.7973L29.3868 21.1579L28.8661 23.6337L28.346 26.1096L28.1495 27.878L27.9538 29.6464L28.0053 32.8297L28.0569 36.0129L28.0366 39.196L28.0164 42.3792L27.7887 44.0593L27.5603 45.7392L27.5812 47.5961L27.602 49.4529L27.9525 50.8145L28.3029 52.1759L28.9137 53.498L29.5245 54.8201L30.0668 55.6092L30.6097 56.3982L31.5155 57.3895L32.4212 58.3808L30.2377 60.8139L28.0536 63.2469L26.3961 65.1922L24.7386 67.1374L24.1878 67.6399L23.6371 68.1421L23.2429 68.4091L22.8494 68.6761L22.2706 68.8024V68.8053ZM27.1178 68.9974H27.0297L27.3495 68.6436L27.6693 68.2898H27.758H27.8461L27.5263 68.6436L27.2066 68.9974H27.1178ZM82.8651 68.9974H82.777V68.9089V68.8205H82.8651H82.9539V68.9089V68.9974H82.8651ZM83.7494 68.8205H83.6606V68.732V68.6436H83.7494H83.8374V68.732V68.8205H83.7494ZM91.5077 68.8205H91.4189L91.5286 68.6436L91.6376 68.4667H91.7263H91.8144L91.7054 68.6436L91.5958 68.8205H91.5077ZM84.4567 68.6436H84.368V68.5551V68.4667H84.4567H84.5448V68.5551V68.6436H84.4567ZM12.8626 68.4667H12.7843L12.6583 68.2626L12.5317 68.0584L12.736 68.1846L12.9402 68.3107V68.3887V68.4667H12.8626ZM29.1173 68.4667H29.0292V68.3783V68.2898H29.1173H29.206V68.3783V68.4667H29.1173ZM85.3403 68.4667H85.2522V68.3783V68.2898H85.3403H85.4291V68.3783V68.4667H85.3403ZM85.8708 68.2898H85.7827V68.2015V68.1131H85.8708H85.9589V68.2015V68.2898H85.8708ZM86.4014 68.1131H86.3126V68.0247V67.9362H86.4014H86.4895V68.0247V68.1131H86.4014ZM93.0751 67.413L92.236 68.2015L93.0236 67.3615L93.8119 66.5214H93.8634H93.915V66.573V66.6244L93.0751 67.413ZM15.3377 67.9362H15.2594L15.1335 67.7321L15.0069 67.5279L15.2111 67.6541L15.4154 67.7802V67.8582V67.9362H15.3377ZM86.9319 67.9362H86.8432V67.8478V67.7593H86.9319H87.02V67.8478V67.9362H86.9319ZM12.3216 67.7593H12.2328V67.671V67.5826H12.3216H12.4097V67.671V67.7593H12.3216ZM29.471 67.7593H29.3829V67.671V67.5826H29.471H29.5597V67.671V67.7593H29.471ZM87.2849 67.7593H87.1968V67.671V67.5826H87.2849H87.3737V67.671V67.7593H87.2849ZM28.3897 67.5826H28.3009L28.4106 67.4057L28.5195 67.2288H28.6083H28.6964L28.5874 67.4057L28.4778 67.5826H28.3897ZM87.6386 67.5826H87.5505V67.4941V67.4057H87.6386H87.7274V67.4941V67.5826H87.6386ZM12.1447 67.4057H12.056V67.3173V67.2288H12.1447H12.2328V67.3173V67.4057H12.1447ZM14.7968 67.2288H14.708V67.1404V67.0519H14.7968H14.8849V67.1404V67.2288H14.7968ZM88.5229 67.2288H88.4341V67.1404V67.0519H88.5229H88.611V67.1404V67.2288H88.5229ZM30.1784 67.0519H30.0896V66.9635V66.8752H30.1784H30.2665V66.9635V67.0519H30.1784ZM11.7911 66.8752H11.7023V66.7868V66.6983H11.7911H11.8791V66.7868V66.8752H11.7911ZM14.4431 66.6983H14.3543V66.6099V66.5214H14.4431H14.5312V66.6099V66.6983H14.4431ZM30.7089 66.6983H30.6201V66.6099V66.5214H30.7089H30.797V66.6099V66.6983H30.7089ZM11.6142 66.5214H11.5261V66.433V66.3445H11.6142H11.7023V66.433V66.5214H11.6142ZM31.0626 66.5214H30.9738V66.433V66.3445H31.0626H31.1507V66.433V66.5214H31.0626ZM29.4501 66.3445H29.362L29.471 66.1678L29.5806 65.9909H29.6687H29.7575L29.6478 66.1678L29.5388 66.3445H29.4501ZM31.4163 66.3445H31.3275V66.2563V66.1678H31.4163H31.5044V66.2563V66.3445H31.4163ZM78.0916 66.3193L77.9148 66.2944L76.7656 66.1727L75.6164 66.051L75.1994 65.9146L74.7831 65.7783L74.8516 64.5639L74.9202 63.3497L75.2856 62.8577L75.6504 62.3657L76.5666 62.0323L77.4828 61.699L78.6711 62.2373L79.8594 62.7759L80.7965 62.9687L81.7336 63.1615H83.7135H85.694L87.3737 62.8892L89.0534 62.6167L89.4952 62.5157L89.937 62.4145L88.7963 63.2588L87.6556 64.1031L86.3818 64.6918L85.108 65.2806L83.6032 65.6316L82.0984 65.9826L80.1831 66.1641L78.2685 66.3458L78.0916 66.321V66.3193ZM11.4374 66.1677H11.3493V66.0792V65.9908H11.4374H11.5261V66.0792V66.1677H11.4374ZM14.0894 66.1677H14.0013V66.0792V65.9908H14.0894H14.1775V66.0792V66.1677H14.0894ZM32.123 66.1677H32.0349V66.0792V65.9908H32.123H32.2118V66.0792V66.1677H32.123ZM90.1138 66.1677H90.0257V66.0792V65.9908H90.1138H90.2026V66.0792V66.1677H90.1138ZM94.1597 66.1677H94.071L94.1806 65.9908L94.2896 65.814H94.3783H94.4664L94.3574 65.9908L94.2478 66.1677H94.1597ZM32.6535 65.9908H32.5654V65.9023V65.814H32.6535H32.7423V65.9023V65.9908H32.6535ZM11.2605 65.814H11.1724V65.7256V65.6372H11.2605H11.3493V65.7256V65.814H11.2605ZM33.3609 65.814H33.2722V65.7256V65.6372H33.3609H33.449V65.7256V65.814H33.3609ZM90.6443 65.814H90.5563V65.7256V65.6372H90.6443H90.7331V65.7256V65.814H90.6443ZM13.7357 65.6372H13.6476V65.5487V65.4603H13.7357H13.8244V65.5487V65.6372H13.7357ZM34.1564 65.6372H33.9208L34.0383 65.5192L34.1564 65.4014L34.2745 65.5192L34.392 65.6372H34.1564ZM11.0837 65.4603H10.9956V65.3718V65.2834H11.0837H11.1724V65.3718V65.4603H11.0837ZM34.8638 65.4603H34.6275L34.7457 65.3423L34.8638 65.2245L34.9812 65.3423L35.0994 65.4603H34.8638ZM91.154 65.4603H91.0659L91.1749 65.2834L91.2839 65.1065H91.3726H91.4607L91.3517 65.2834L91.2421 65.4603H91.154ZM94.7111 65.4603H94.6224V65.3718V65.2834H94.7111H94.7992V65.3718V65.4603H94.7111ZM13.5588 65.2834H13.4708V65.1949V65.1065H13.5588H13.6476V65.1949V65.2834H13.5588ZM30.3337 65.2834H30.2665V65.2166V65.1497L30.5758 64.9071L30.8857 64.6643L30.643 64.9738L30.4002 65.2832L30.3337 65.2834ZM35.6593 65.2834H35.5705V65.1949V65.1065H35.6593H35.7474V65.1949V65.2834H35.6593ZM10.9068 65.1065H10.8187V65.0181V64.9298H10.9068H10.9956V65.0181V65.1065H10.9068ZM36.1898 65.1065H36.101V65.0181V64.9298H36.1898H36.2779V65.0181V65.1065H36.1898ZM95.0648 64.9298H94.9761V64.8413V64.7529H95.0648H95.1529V64.8413V64.9298H95.0648ZM37.2502 64.7529H37.1621V64.6644V64.576H37.2502H37.339V64.6644V64.7529H37.2502ZM37.6039 64.576H37.5158V64.4875V64.3993H37.6039H37.6926V64.4875V64.576H37.6039ZM92.2151 64.576H92.1263L92.236 64.3993L92.3449 64.2224H92.4337H92.5218L92.4128 64.3993L92.3032 64.576H92.2151ZM13.0283 64.3993H12.9402V64.3108V64.2224H13.0283H13.1171V64.3108V64.3993H13.0283ZM37.9367 64.3993H37.8486L37.9576 64.2224L38.0666 64.0455H38.1553H38.2434L38.1344 64.2224L38.0255 64.3993H37.9367ZM12.8521 64.0455H12.7634V63.957V63.8686H12.8521H12.9402V63.957V64.0455H12.8521ZM95.5947 64.0455H95.5066V63.957V63.8686H95.5947H95.6834V63.957V64.0455H95.5947ZM12.6753 63.6919H12.5865V63.6034V63.515H12.6753H12.7634V63.6034V63.6919H12.6753ZM31.7145 63.6919H31.6264L31.9462 63.3381L32.2666 62.9845H32.3547H32.4434L32.123 63.3381L31.8033 63.6919H31.7145ZM93.1195 63.515H93.0314V63.4265V63.3381H93.1195H93.2083V63.4265V63.515H93.1195ZM38.9978 63.3381H38.909L39.0187 63.1612L39.1276 62.9845H39.2164H39.3045L39.1955 63.1612L39.0859 63.3381H38.9978ZM95.9484 63.1612H95.8603V63.0728V62.9845H95.9484H96.0371V63.0728V63.1612H95.9484ZM9.84641 62.9845H9.75766V62.896V62.8076H9.84641H9.93451V62.896V62.9845H9.84641ZM93.4732 62.9845H93.3851V62.896V62.8076H93.4732H93.562V62.896V62.9845H93.4732ZM96.1546 62.7487L96.0371 62.8665V62.6307V62.3949L96.1546 62.5129L96.2727 62.6307L96.1546 62.7487ZM9.66956 62.6307H9.58082V62.5424V62.454H9.66956H9.75766V62.5424V62.6307H9.66956ZM93.6501 62.6307H93.562V62.5424V62.454H93.6501H93.7382V62.5424V62.6307H93.6501ZM9.49272 62.2771H9.40397V62.1887V62.1002H9.49272H9.58082V62.1887V62.2771H9.49272ZM39.8814 62.2771H39.7933L39.9022 62.1002L40.0119 61.9233H40.1H40.1887L40.0791 62.1002L39.9701 62.2771H39.8814ZM33.1508 62.1002H33.0953V62.0447V61.9893L33.6702 61.4698L34.2445 60.9504L33.7251 61.5252L33.2063 62.0999L33.1508 62.1002ZM96.3204 62.0521L96.214 62.159L96.2277 61.82L96.242 61.4811L96.3347 61.7132L96.4274 61.9454L96.3204 62.0521ZM9.34524 61.8643L9.22712 61.9821V61.7463V61.5106L9.34524 61.6285L9.46335 61.7463L9.34524 61.8643ZM40.2559 61.7463H40.1678V61.6578V61.5696H40.2559H40.3447V61.6578V61.7463H40.2559ZM93.8563 61.6875L93.7382 61.8054V61.5697V61.3339L93.8563 61.4517L93.9744 61.5697L93.8563 61.6875ZM39.1805 61.5557L38.8418 61.5416L39.0735 61.4488L39.3058 61.3559L39.4128 61.4627L39.5192 61.5696L39.1805 61.5557ZM9.13903 61.3928H9.05028V61.3044V61.2159H9.13903H9.22712V61.3044V61.3928H9.13903ZM38.2225 61.3928H37.987L38.1051 61.2748L38.2225 61.157L38.3406 61.2748L38.4588 61.3928H38.2225ZM37.4271 61.2159H37.339V61.1275V61.0391H37.4271H37.5158V61.1275V61.2159H37.4271ZM8.99155 60.9801L8.87343 61.098V60.8622V60.6264L8.99155 60.7443L9.10966 60.8622L8.99155 60.9801ZM11.4374 61.0389H11.3493V60.9504V60.8622H11.4374H11.5261V60.9504V61.0389H11.4374ZM96.4972 60.9907L96.3908 61.0976L96.4045 60.7587L96.4189 60.4198L96.5116 60.6518L96.6042 60.884L96.4972 60.9907ZM36.5435 60.8618H36.4547V60.7734V60.6851H36.5435H36.6316V60.7734V60.8618H36.5435ZM11.2605 60.6851H11.1724V60.5967V60.5082H11.2605H11.3493V60.5967V60.6851H11.2605ZM36.0129 60.6851H35.9242V60.5967V60.5082H36.0129H36.101V60.5967V60.6851H36.0129ZM8.78534 60.5082H8.69724V60.4198V60.3313H8.78534H8.87343V60.4198V60.5082H8.78534ZM35.6593 60.5082H35.5705V60.4198V60.3313H35.6593H35.7474V60.4198V60.5082H35.6593ZM11.0837 60.3313H10.9956V60.2429V60.1546H11.0837H11.1724V60.2429V60.3313H11.0837ZM35.3056 60.3313H35.2175V60.2429V60.1546H35.3056H35.3937V60.2429V60.3313H35.3056ZM82.0696 60.3313H81.8341L81.9515 60.2135L82.0696 60.0955L82.1878 60.2135L82.3052 60.3313H82.0696ZM85.1491 60.3173L84.8098 60.3033L85.0421 60.2104L85.2744 60.1176L85.3808 60.2245L85.4878 60.3313L85.1491 60.3173ZM93.3068 60.3313H93.2292L93.1026 60.1272L92.9766 59.9231L93.1809 60.0492L93.3851 60.1753V60.2533V60.3313H93.3068ZM8.60849 60.1546H8.5204V60.0662V59.9777H8.60849H8.69724V60.0662V60.1546H8.60849ZM80.9205 60.1546H80.8317V60.0662V59.9777H80.9205H81.0086V60.0662V60.1546H80.9205ZM86.8432 60.1546H86.6076L86.725 60.0366L86.8432 59.9187L86.9613 60.0366L87.0787 60.1546H86.8432ZM10.9362 59.9187L10.8187 60.0366V59.8008V59.565L10.9362 59.6829L11.0543 59.8008L10.9362 59.9187ZM80.3899 59.9776H80.3018V59.8891V59.8007H80.3899H80.4787V59.8891V59.9776H80.3899ZM87.9042 59.9776H87.668L87.7861 59.8596L87.9042 59.7418L88.0217 59.8596L88.1398 59.9776H87.9042ZM88.7878 59.8007H88.5522L88.6703 59.6829L88.7878 59.5649L88.9059 59.6829L89.024 59.8007H88.7878ZM92.589 59.8007H92.5009V59.7122V59.6238H92.589H92.6777V59.7122V59.8007H92.589ZM96.3315 59.7419L96.214 59.8597V59.624V59.3882L96.3315 59.5061L96.4496 59.624L96.3315 59.7419ZM89.8489 59.624H89.6133L89.7308 59.5061L89.8489 59.3882L89.967 59.5061L90.0844 59.624H89.8489ZM92.236 59.624H92.1472V59.5355V59.4472H92.236H92.3241V59.5355V59.624H92.236ZM10.73 59.4472H10.6419V59.3588V59.2703H10.73H10.8187V59.3588V59.4472H10.73ZM8.2548 59.2703H8.16671V59.1819V59.0934H8.2548H8.34355V59.1819V59.2703H8.2548ZM79.8594 59.2703H79.7713V59.1819V59.0934H79.8594H79.9482V59.1819V59.2703H79.8594ZM96.1252 59.2703H96.0371V59.1819V59.0934H96.1252H96.214V59.1819V59.2703H96.1252ZM8.07796 58.9166H7.98986V58.8281V58.7398H8.07796H8.16671V58.8281V58.9166H8.07796ZM10.5531 58.9166H10.465V58.8281V58.7398H10.5531H10.6419V58.8281V58.9166H10.5531ZM80.0363 58.9166H79.9482V58.8281V58.7398H80.0363H80.125V58.8281V58.9166H80.0363ZM95.9484 58.9166H95.8603V58.8281V58.7398H95.9484H96.0371V58.8281V58.9166H95.9484ZM39.9975 58.5504L39.3723 58.5377L38.3015 58.2309L37.2306 57.9243L36.0547 57.2663L34.8781 56.6085L33.7662 55.4581L32.6535 54.3079L31.9892 53.1196L31.3249 51.9313L30.9804 50.8334L30.6365 49.7355L30.5223 48.4459L30.4074 47.1565L30.705 44.3269L31.0026 41.4974L30.9497 37.0864L30.8968 32.6755L31.4215 32.3418L31.9462 32.0079L33.5378 31.2318L35.1287 30.4558L36.6022 30.0808L38.0757 29.7059L39.4311 29.6919L40.7865 29.6779L41.7066 29.9842L42.6267 30.2906L43.1657 30.9047L43.7047 31.5187L43.956 32.1215L44.2079 32.7243L44.5661 34.5465L44.9244 36.3688L45.1378 37.7835L45.3518 39.1983L45.3616 41.7625L45.3714 44.3268L45.1358 45.6345L44.9002 46.9421L44.388 48.5236L43.875 50.105L42.8401 52.5212L41.8058 54.9374L41.2139 56.7502L40.6227 58.5628L39.9969 58.5501L39.9975 58.5504ZM40.6501 34.5121H41.24L41.8234 34.2683L42.4068 34.0245L42.7898 33.5371L43.1735 33.0497V32.6383V32.2269L42.7833 31.8634L42.3931 31.4996L41.6779 31.3015L40.9633 31.1034L39.9603 31.0967L38.958 31.09L38.4927 31.3952L38.0268 31.7002L37.9341 31.9428L37.8408 32.1855L38.1521 32.8405L38.4627 33.4958L39.2614 34.0025L40.0602 34.5092H40.6501V34.5121ZM80.3899 58.3861H80.3018V58.2976V58.2093H80.3899H80.4787V58.2976V58.3861H80.3899ZM85.5172 58.328H84.2799L84.8502 58.257L85.4212 58.186L86.0881 58.2555L86.7551 58.3252H85.5172V58.328ZM83.042 58.2092H82.9539V58.1207V58.0323H83.042H83.1301V58.1207V58.2092H83.042ZM88.4341 58.2092H88.1985L88.3167 58.0914L88.4341 57.9734L88.5522 58.0914L88.6703 58.2092H88.4341ZM7.72427 58.0323H7.63617V57.9438V57.8556H7.72427H7.81302V57.9438V58.0323H7.72427ZM10.2001 58.0323H10.1114V57.9438V57.8556H10.2001H10.2882V57.9438V58.0323H10.2001ZM89.672 58.0323H89.4364L89.5539 57.9145L89.672 57.7965L89.7901 57.9145L89.9076 58.0323H89.672ZM95.0648 58.0323H94.9761V57.9438V57.8556H95.0648H95.1529V57.9438V58.0323H95.0648ZM80.7436 57.8556H80.6549V57.7671V57.6787H80.7436H80.8317V57.7671V57.8556H80.7436ZM90.8068 57.8415L90.4675 57.8273L90.6998 57.7346L90.9315 57.6416L91.0385 57.7485L91.1455 57.8554L90.8068 57.8415ZM94.7111 57.8556H94.6224V57.7671V57.6787H94.7111H94.7992V57.7671V57.8556H94.7111ZM91.7935 57.6508H91.3517L91.5729 57.5615L91.7935 57.4723L92.0147 57.5615L92.236 57.6508H91.7935ZM94.2687 57.6788H94.0331L94.1512 57.5609L94.2687 57.4429L94.3868 57.5609L94.5049 57.6788H94.2687ZM7.54808 57.502H7.45933V57.4135V57.3251H7.54808H7.63617V57.4135V57.502H7.54808ZM83.3957 57.502H83.3069V57.4135V57.3251H83.3957H83.4838V57.4135V57.502H83.3957ZM93.1195 57.4672L92.589 57.4605L92.9022 57.3789L93.2148 57.2975L93.4328 57.3856L93.6501 57.4736L93.1195 57.4672ZM81.0973 57.3247H81.0086V57.2363V57.148H81.0973H81.1854V57.2363V57.3247H81.0973ZM7.4006 57.0889L7.28248 57.2069V56.9711V56.7353L7.4006 56.8531L7.51806 56.9711L7.4006 57.0889ZM83.5725 57.1479H83.4838V57.0594V56.971H83.5725H83.6606V57.0594V57.1479H83.5725ZM81.2742 56.971H81.1854V56.8825V56.7941H81.2742H81.3623V56.8825V56.971H81.2742ZM9.66956 56.7941H9.58082V56.7056V56.6172H9.66956H9.75766V56.7056V56.7941H9.66956ZM83.7494 56.7941H83.6606V56.7056V56.6172H83.7494H83.8374V56.7056V56.7941H83.7494ZM7.22375 56.5583L7.10564 56.6763V56.4403V56.2047L7.22375 56.3225L7.34121 56.4403L7.22375 56.5583ZM77.8012 56.617H77.6707L77.5657 56.4473L77.4606 56.2774L77.9957 55.2176L78.5301 54.1577L78.9941 52.6021L79.4574 51.0465L79.5481 48.7251L79.6388 46.4036L79.2408 42.8893L78.8427 39.3747L78.9458 37.4294L79.0489 35.4842L79.4241 33.0084L79.7987 30.5326L79.7295 28.4105L79.6604 26.2883L78.8832 24.3548L78.1066 22.4212L76.9183 20.3475L75.7306 18.2738L74.7061 16.8873L73.6816 15.5009L72.2773 13.9331L70.8729 12.3654L69.2663 11.0273L67.6604 9.68924L66.2456 8.77021L64.8315 7.85101L63.7267 7.29653L62.6213 6.74204V6.67432V6.6066L63.7456 6.41078L64.87 6.2148L67.2205 6.02633L69.5704 5.83785L71.7885 6.0384L74.0066 6.23895L75.6073 6.57086L77.2074 6.90277L78.4453 7.28527L79.6826 7.66776L81.59 8.64064L83.4968 9.61353L85.0499 10.814L86.603 12.0147L87.9636 13.4925L89.3249 14.9703L89.6564 15.8555L89.9885 16.7408L90.2052 18.1546L90.4212 19.5682L90.3031 21.7393L90.1849 23.9101L89.8547 26.1604L89.5239 28.4105L89.0547 30.2673L88.5849 32.1241L87.9695 34.3124L87.3541 36.5006L86.3798 39.1756L85.4062 41.8507L84.2453 44.5033L83.0844 47.156L82.1166 49.1013L81.1495 51.0465L79.541 53.8319L77.9324 56.617H77.8012ZM81.6279 56.4403H81.5391V56.3519V56.2634H81.6279H81.716V56.3519V56.4403H81.6279ZM83.9053 56.4403H83.8166L83.9262 56.2634L84.0352 56.0865H84.1239H84.212L84.103 56.2634L83.9934 56.4403H83.9053ZM7.04691 56.0276L6.92879 56.1456V55.9098V55.674L7.04691 55.7918L7.16437 55.9098L7.04691 56.0276ZM81.8047 56.0865H81.716V55.9981V55.9096H81.8047H81.8928V55.9981V56.0865H81.8047ZM84.2799 55.9096H84.1911V55.8212V55.7327H84.2799H84.368V55.8212V55.9096H84.2799ZM81.9809 55.7327H81.8928V55.6443V55.5559H81.9809H82.0696V55.6443V55.7327H81.9809ZM6.8407 55.5559H6.75195V55.4674V55.379H6.8407H6.92879V55.4674V55.5559H6.8407ZM84.4567 55.5559H84.368V55.4674V55.379H84.4567H84.5448V55.4674V55.5559H84.4567ZM9.13903 55.379H9.05028V55.2907V55.2022H9.13903H9.22712V55.2907V55.379H9.13903ZM82.3346 55.2022H82.2465V55.1138V55.0254H82.3346H82.4233V55.1138V55.2022H82.3346ZM6.66385 55.0254H6.5751V54.9369V54.8485H6.66385H6.75195V54.9369V55.0254H6.66385ZM84.8098 55.0254H84.7217V54.9369V54.8485H84.8098H84.8985V54.9369V55.0254H84.8098ZM8.99155 54.7896L8.87343 54.9075V54.6717V54.436L8.99155 54.5538L9.10966 54.6717L8.99155 54.7896ZM82.5114 54.8485H82.4233V54.76V54.6716H82.5114H82.6002V54.76V54.8485H82.5114ZM84.9866 54.6716H84.8985V54.5831V54.4947H84.9866H85.0754V54.5831V54.6716H84.9866ZM6.48701 54.4947H6.39826V54.4063V54.3178H6.48701H6.5751V54.4063V54.4947H6.48701ZM82.6883 54.4947H82.6002V54.4063V54.3178H82.6883H82.777V54.4063V54.4947H82.6883ZM8.8147 54.2589L8.69724 54.3767V54.1411V53.9053L8.8147 54.0231L8.93282 54.1411L8.8147 54.2589ZM85.1635 54.3176H85.0754V54.2294V54.1409H85.1635H85.2522V54.2294V54.3176H85.1635ZM6.31016 53.964H6.22206V53.8756V53.7871H6.31016H6.39826V53.8756V53.964H6.31016ZM8.63786 53.7282L8.5204 53.8462V53.6104V53.3746L8.63786 53.4924L8.75597 53.6104L8.63786 53.7282ZM6.13332 53.6104H6.04522V53.522V53.4335H6.13332H6.22206V53.522V53.6104H6.13332ZM83.2188 53.6104H83.1301V53.522V53.4335H83.2188H83.3069V53.522V53.6104H83.2188ZM85.5172 53.6104H85.4291V53.522V53.4335H85.5172H85.6059V53.522V53.6104H85.5172ZM75.8285 52.8825L75.5753 53.481L74.3779 51.2025L73.1798 48.924L71.7741 46.2146L70.3685 43.5051L69.5874 41.6405L68.8063 39.7758L68.3573 38.2488L67.9083 36.7217L67.8072 34.8649L67.7054 33.0081L67.9214 32.2122L68.1367 31.4164L68.8931 30.6889L69.6494 29.9615L70.5114 29.6487L71.3728 29.336L73.7109 29.2505L76.0491 29.1652L76.4922 29.2765L76.9346 29.3876L76.838 30.2252L76.7415 31.0628L76.3728 33.5386L76.0041 36.0143V38.3134V40.6123L76.3303 43.0882L76.6566 45.564V47.7746L76.656 49.985L76.3721 51.1345L76.0882 52.2841L75.8351 52.8825H75.8285ZM71.9066 33.2692L72.6172 33.2758L73.2926 32.8168L73.9681 32.3576L74.2017 31.8023L74.4346 31.2472L74.2715 30.9412L74.1077 30.6353L73.3834 30.4403L72.659 30.2453L71.9275 30.3609L71.1966 30.4766L70.4533 30.827L69.7101 31.1773L69.605 31.5081L69.4999 31.839L69.7172 32.1876L69.9352 32.536L70.5656 32.9018L71.1966 33.2678L71.9066 33.2745V33.2692ZM8.46101 53.1977L8.34355 53.3156V53.0799V52.8441L8.46101 52.9619L8.57913 53.0799L8.46101 53.1977ZM83.3957 53.2565H83.3069V53.168V53.0798H83.3957H83.4838V53.168V53.2565H83.3957ZM85.694 53.2565H85.6059V53.168V53.0798H85.694H85.7827V53.168V53.2565H85.694ZM5.95647 53.0798H5.86837V52.9913V52.9029H5.95647H6.04522V52.9913V53.0798H5.95647ZM85.8708 52.9029H85.7827V52.8144V52.726H85.8708H85.9589V52.8144V52.9029H85.8708ZM5.77963 52.5491H5.69153V52.4607V52.3724H5.77963H5.86837V52.4607V52.5491H5.77963ZM86.0477 52.5491H85.9589V52.4607V52.3724H86.0477H86.1358V52.4607V52.5491H86.0477ZM86.2245 52.1955H86.1358V52.107V52.0186H86.2245H86.3126V52.107V52.1955H86.2245ZM5.60278 52.0186H5.51469V51.9302V51.8419H5.60278H5.69153V51.9302V52.0186H5.60278ZM84.2799 51.665H84.1911V51.5765V51.4881H84.2799H84.368V51.5765V51.665H84.2799ZM86.5782 51.665H86.4895V51.5765V51.4881H86.5782H86.6663V51.5765V51.665H86.5782ZM5.42594 51.3112H5.33784V51.2228V51.1343H5.42594H5.51469V51.2228V51.3112H5.42594ZM84.4567 51.3112H84.368V51.2228V51.1343H84.4567H84.5448V51.2228V51.3112H84.4567ZM86.7551 51.3112H86.6663V51.2228V51.1343H86.7551H86.8432V51.2228V51.3112H86.7551ZM7.72427 50.9576H7.63617V50.8692V50.7807H7.72427H7.81302V50.8692V50.9576H7.72427ZM84.6329 50.9576H84.5448V50.8692V50.7807H84.6329H84.7217V50.8692V50.9576H84.6329ZM86.9319 50.9576H86.8432V50.8692V50.7807H86.9319H87.02V50.8692V50.9576H86.9319ZM5.27911 50.7218L5.161 50.8396V50.6038V50.368L5.27911 50.486L5.39657 50.6038L5.27911 50.7218ZM87.1087 50.6038H87.02V50.5154V50.4271H87.1087H87.1968V50.5154V50.6038H87.1087ZM7.54808 50.4271H7.45933V50.3387V50.2502H7.54808H7.63617V50.3387V50.4271H7.54808ZM5.10226 50.1913L4.98415 50.3091V50.0733V49.8375L5.10226 49.9553L5.21973 50.0733L5.10226 50.1913ZM87.2849 50.25H87.1968V50.1616V50.0732H87.2849H87.3737V50.1616V50.25H87.2849ZM7.37123 49.8964H7.28248V49.808V49.7195H7.37123H7.45933V49.808V49.8964H7.37123ZM87.4618 49.8964H87.3737V49.808V49.7195H87.4618H87.5505V49.808V49.8964H87.4618ZM4.92542 49.6606L4.8073 49.7785V49.5427V49.3069L4.92542 49.4248L5.04288 49.5427L4.92542 49.6606ZM87.6386 49.3658H87.5505V49.2773V49.189H87.6386H87.7274V49.2773V49.3658H87.6386ZM7.19439 49.189H7.10564V49.1006V49.0122H7.19439H7.28248V49.1006V49.189H7.19439ZM4.71921 49.0122H4.63046V48.9237V48.8353H4.71921H4.8073V48.9237V49.0122H4.71921ZM87.8155 49.0122H87.7274V48.9237V48.8353H87.8155H87.9042V48.9237V49.0122H87.8155ZM7.01754 48.6585H6.92879V48.5701V48.4817H7.01754H7.10564V48.5701V48.6585H7.01754ZM87.9923 48.6585H87.9042V48.5701V48.4817H87.9923H88.0811V48.5701V48.6585H87.9923ZM4.54236 48.4817H4.45361V48.3932V48.3048H4.54236H4.63046V48.3932V48.4817H4.54236ZM85.8708 48.3048H85.7827V48.2163V48.1279H85.8708H85.9589V48.2163V48.3048H85.8708ZM88.1692 48.3048H88.0811V48.2163V48.1279H88.1692H88.2579V48.2163V48.3048H88.1692ZM6.87006 48.069L6.75195 48.1868V47.951V47.7154L6.87006 47.8332L6.98818 47.951L6.87006 48.069ZM86.0477 47.951H85.9589V47.8625V47.7743H86.0477H86.1358V47.8625V47.951H86.0477ZM88.346 47.951H88.2579V47.8625V47.7743H88.346H88.4341V47.8625V47.951H88.346ZM4.36552 47.7743H4.27677V47.6858V47.5974H4.36552H4.45361V47.6858V47.7743H4.36552ZM6.68212 47.5494L6.5751 47.6563L6.58946 47.3174L6.60316 46.9784L6.69648 47.2105L6.78914 47.4427L6.68212 47.5494ZM86.2245 47.5975H86.1358V47.5091V47.4208H86.2245H86.3126V47.5091V47.5975H86.2245ZM88.5229 47.5975H88.4341V47.5091V47.4208H88.5229H88.611V47.5091V47.5975H88.5229ZM4.18867 47.2439H4.09992V47.1555V47.067H4.18867H4.27677V47.1555V47.2439H4.18867ZM86.4014 47.2439H86.3126V47.1555V47.067H86.4014H86.4895V47.1555V47.2439H86.4014ZM6.51637 46.8312L6.39826 46.9491V46.7134V46.4776L6.51637 46.5955L6.63449 46.7134L6.51637 46.8312ZM86.5782 46.89H86.4895V46.8016V46.7133H86.5782H86.6663V46.8016V46.89H86.5782ZM88.8765 46.7133H88.7878V46.6248V46.5364H88.8765H88.9646V46.6248V46.7133H88.8765ZM4.01183 46.5364H3.92308V46.4479V46.3595H4.01183H4.09992V46.4479V46.5364H4.01183ZM89.0534 46.3595H88.9646V46.2711V46.1828H89.0534H89.1415V46.2711V46.3595H89.0534ZM3.83498 46.0059H3.74624V45.9174V45.829H3.83498H3.92308V45.9174V46.0059H3.83498ZM6.31016 46.0059H6.22206V45.9174V45.829H6.31016H6.39826V45.9174V46.0059H6.31016ZM86.9319 46.0059H86.8432V45.9174V45.829H86.9319H87.02V45.9174V46.0059H86.9319ZM89.2302 46.0059H89.1415V45.9174V45.829H89.2302H89.3183V45.9174V46.0059H89.2302ZM89.4071 45.4754H89.3183V45.3869V45.2985H89.4071H89.4952V45.3869V45.4754H89.4071ZM3.65814 45.2985H3.56939V45.2101V45.1216H3.65814H3.74624V45.2101V45.2985H3.65814ZM6.13332 45.2985H6.04522V45.2101V45.1216H6.13332H6.22206V45.2101V45.2985H6.13332ZM89.5839 45.1216H89.4952V45.0332V44.9447H89.5839H89.672V45.0332V45.1216H89.5839ZM3.48129 44.768H3.3932V44.6796V44.5911H3.48129H3.56939V44.6796V44.768H3.48129ZM5.95647 44.768H5.86837V44.6796V44.5911H5.95647H6.04522V44.6796V44.768H5.95647ZM87.4618 44.768H87.3737V44.6796V44.5911H87.4618H87.5505V44.6796V44.768H87.4618ZM89.7608 44.5911H89.672V44.5027V44.4142H89.7608H89.8489V44.5027V44.5911H89.7608ZM87.6386 44.4142H87.5505V44.3258V44.2375H87.6386H87.7274V44.3258V44.4142H87.6386ZM89.937 44.2375H89.8489V44.1491V44.0606H89.937H90.0257V44.1491V44.2375H89.937ZM3.30445 44.0606H3.21635V43.9722V43.8837H3.30445H3.3932V43.9722V44.0606H3.30445ZM5.77963 44.0606H5.69153V43.9722V43.8837H5.77963H5.86837V43.9722V44.0606H5.77963ZM87.8155 43.8837H87.7274V43.7953V43.7068H87.8155H87.9042V43.7953V43.8837H87.8155ZM90.1438 43.825L90.0257 43.9428V43.707V43.4712L90.1438 43.589L90.2613 43.707L90.1438 43.825ZM3.14587 43.4823L3.03951 43.589L3.05321 43.2501L3.06757 42.9112L3.16023 43.1434L3.2529 43.3754L3.14653 43.4823H3.14587ZM87.9923 43.5304H87.9042V43.442V43.3535H87.9923H88.0811V43.442V43.5304H87.9923ZM5.60278 43.3535H5.51469V43.2651V43.1767H5.60278H5.69153V43.2651V43.3535H5.60278ZM90.2907 43.3535H90.2026V43.2651V43.1767H90.2907H90.3794V43.2651V43.3535H90.2907ZM88.1692 43.1767H88.0811V43.0882V42.9998H88.1692H88.2579V43.0882V43.1767H88.1692ZM90.4969 42.9409L90.3794 43.0588V42.823V42.5872L90.4969 42.7051L90.615 42.823L90.4969 42.9409ZM2.98012 42.5872L2.86266 42.7051V42.4693V42.2335L2.98012 42.3515L3.09824 42.4693L2.98012 42.5872ZM5.42594 42.646H5.33784V42.5576V42.4693H5.42594H5.51469V42.5576V42.646H5.42594ZM88.346 42.646H88.2579V42.5576V42.4693H88.346H88.4341V42.5576V42.646H88.346ZM90.6443 42.4693H90.5563V42.3808V42.2924H90.6443H90.7331V42.3808V42.4693H90.6443ZM88.5229 42.1155H88.4341V42.0271V41.9386H88.5229H88.611V42.0271V42.1155H88.5229ZM2.80328 41.8797L2.68582 41.9975V41.7617V41.5259L2.80328 41.6439L2.92139 41.7617L2.80328 41.8797ZM5.24909 41.9384H5.161V41.85V41.7617H5.24909H5.33784V41.85V41.9384H5.24909ZM90.8212 41.9384H90.7331V41.85V41.7617H90.8212H90.9099V41.85V41.9384H90.8212ZM88.6997 41.5848H88.611V41.4964V41.4079H88.6997H88.7878V41.4964V41.5848H88.6997ZM90.998 41.5848H90.9099V41.4964V41.4079H90.998H91.0868V41.4964V41.5848H90.998ZM2.62709 41.1721L2.50897 41.2901V41.0543V40.8185L2.62709 40.9364L2.74455 41.0543L2.62709 41.1721ZM5.07225 41.2311H4.98415V41.1426V41.0542H5.07225H5.161V41.1426V41.2311H5.07225ZM88.8765 41.2311H88.7878V41.1426V41.0542H88.8765H88.9646V41.1426V41.2311H88.8765ZM91.1749 41.0542H91.0868V40.9657V40.8773H91.1749H91.263V40.9657V41.0542H91.1749ZM89.0534 40.7004H88.9646V40.6119V40.5237H89.0534H89.1415V40.6119V40.7004H89.0534ZM2.45024 40.4646L2.33213 40.5826V40.3468V40.111L2.45024 40.229L2.5677 40.3468L2.45024 40.4646ZM4.92542 40.4646L4.8073 40.5826V40.3468V40.111L4.92542 40.229L5.04288 40.3468L4.92542 40.4646ZM91.5286 40.1699H91.4398V40.0815V39.9932H91.5286H91.6167V40.0815V40.1699H91.5286ZM2.24403 39.8163H2.15528V39.7278V39.6394H2.24403H2.33213V39.7278V39.8163H2.24403ZM4.74857 39.7574L4.63046 39.8754V39.6396V39.4038L4.74857 39.5216L4.86604 39.6396L4.74857 39.7574ZM91.7054 39.6396H91.6167V39.5511V39.4627H91.7054H91.7935V39.5511V39.6396H91.7054ZM89.5839 39.2859H89.4952V39.1975V39.1091H89.5839H89.672V39.1975V39.2859H89.5839ZM2.09655 39.0502L1.97844 39.168V38.9322V38.6964L2.09655 38.8142L2.21401 38.9322L2.09655 39.0502ZM4.56063 39.0608L4.45361 39.1676L4.46797 38.8287L4.48167 38.4896L4.57499 38.7218L4.66766 38.954L4.56063 39.0608ZM91.8823 39.1089H91.7935V39.0205V38.932H91.8823H91.9704V39.0205V39.1089H91.8823ZM89.7608 38.7551H89.672V38.6667V38.5784H89.7608H89.8489V38.6667V38.7551H89.7608ZM92.0591 38.5784H91.9704V38.49V38.4015H92.0591H92.1472V38.49V38.5784H92.0591ZM1.89034 38.2246H1.80159V38.1362V38.0479H1.89034H1.97844V38.1362V38.2246H1.89034ZM89.937 38.2246H89.8489V38.1362V38.0479H89.937H90.0257V38.1362V38.2246H89.937ZM4.39488 37.9888L4.27677 38.1068V37.871V37.6352L4.39488 37.753L4.51234 37.871L4.39488 37.9888ZM92.2653 37.9888L92.1472 38.1068V37.871V37.6352L92.2653 37.753L92.3828 37.871L92.2653 37.9888ZM90.1138 37.6941H90.0257V37.6057V37.5172H90.1138H90.2026V37.6057V37.6941H90.1138ZM1.7135 37.5172H1.62475V37.4288V37.3403H1.7135H1.80159V37.4288V37.5172H1.7135ZM92.4422 37.4585L92.3241 37.5763V37.3405V37.1049L92.4422 37.2227L92.5596 37.3405L92.4422 37.4585ZM4.21804 37.1049L4.09992 37.2227V36.9869V36.7511L4.21804 36.8689L4.33615 36.9869L4.21804 37.1049ZM90.2907 37.1636H90.2026V37.0752V36.9867H90.2907H90.3794V37.0752V37.1636H90.2907ZM92.619 36.9278L92.5009 37.0456V36.8098V36.574L92.619 36.692L92.7365 36.8098L92.619 36.9278ZM1.56602 36.7509L1.4479 36.8689V36.6331V36.3972L1.56602 36.5151L1.68413 36.6331L1.56602 36.7509ZM90.4675 36.6331H90.3794V36.5447V36.4562H90.4675H90.5563V36.5447V36.6331H90.4675ZM92.7658 36.4562H92.6777V36.3678V36.2793H92.7658H92.8546V36.3678V36.4562H92.7658ZM4.01183 36.2793H3.92308V36.1909V36.1026H4.01183H4.09992V36.1909V36.2793H4.01183ZM90.6737 36.0435L90.5563 36.1614V35.9257V35.6899L90.6737 35.8078L90.7918 35.9257L90.6737 36.0435ZM1.35981 35.9257H1.27106V35.8373V35.7488H1.35981H1.4479V35.8373V35.9257H1.35981ZM92.9427 35.9257H92.8546V35.8373V35.7488H92.9427H93.0314V35.8373V35.9257H92.9427ZM3.83498 35.3951H3.74624V35.3066V35.2183H3.83498H3.92308V35.3066V35.3951H3.83498ZM90.8212 35.3951H90.7331V35.3066V35.2183H90.8212H90.9099V35.3066V35.3951H90.8212ZM1.20123 35.1704L1.09421 35.2773L1.10857 34.9383L1.12227 34.5994L1.21559 34.8314L1.30825 35.0635L1.20123 35.1704ZM93.1195 35.2185H93.0314V35.1301V35.0418H93.1195H93.2083V35.1301V35.2185H93.1195ZM90.998 34.688H90.9099V34.5996V34.5111H90.998H91.0868V34.5996V34.688H90.998ZM93.2964 34.688H93.2083V34.5996V34.5111H93.2964H93.3851V34.5996V34.688H93.2964ZM3.65814 34.5111H3.56939V34.4228V34.3344H3.65814H3.74624V34.4228V34.5111H3.65814ZM1.02439 34.1097L0.91802 34.2164L0.931724 33.8775L0.946079 33.5386L1.03874 33.7706L1.13141 34.0028L1.02439 34.1097ZM91.1749 34.1577H91.0868V34.0694V33.9809H91.1749H91.263V34.0694V34.1577H91.1749ZM3.48129 33.6272H3.3932V33.5389V33.4504H3.48129H3.56939V33.5389V33.6272H3.48129ZM91.3517 33.4504H91.263V33.362V33.2736H91.3517H91.4398V33.362V33.4504H91.3517ZM93.6501 33.4504H93.562V33.362V33.2736H93.6501H93.7382V33.362V33.4504H93.6501ZM0.847543 33.2257L0.741174 33.3325L0.754879 32.9935L0.769235 32.6546L0.861899 32.8867L0.954564 33.1189L0.848196 33.2257H0.847543ZM91.5286 32.9199H91.4398V32.8315V32.7431H91.5286H91.6167V32.8315V32.9199H91.5286ZM93.8563 32.861L93.7382 32.9789V32.7432V32.5074L93.8563 32.6252L93.9744 32.7432L93.8563 32.861ZM3.30445 32.5663H3.21635V32.4779V32.3895H3.30445H3.3932V32.4779V32.5663H3.30445ZM0.670698 32.3415L0.56433 32.4484L0.578033 32.1094L0.59239 31.7705L0.685055 32.0025L0.777718 32.2348L0.671351 32.3415H0.670698ZM91.7054 32.2126H91.6167V32.1241V32.0357H91.7054H91.7935V32.1241V32.2126H91.7054ZM94.0331 32.1538L93.915 32.2716V32.0358V31.8002L94.0331 31.918L94.1512 32.0358L94.0331 32.1538ZM3.1276 31.5053H3.03951V31.4169V31.3284H3.1276H3.21635V31.4169V31.5053H3.1276ZM91.8823 31.5053H91.7935V31.4169V31.3284H91.8823H91.9704V31.4169V31.5053H91.8823ZM94.21 31.4466L94.0919 31.5644V31.3286V31.0928L94.21 31.2108L94.3281 31.3286L94.21 31.4466ZM0.493853 31.2808L0.387485 31.3877L0.401188 31.0486L0.415545 30.7097L0.508209 30.9419L0.600873 31.1739L0.494505 31.2808H0.493853ZM92.0885 30.7392L91.9704 30.857V30.6214V30.3854L92.0885 30.5034L92.2059 30.6214L92.0885 30.7392ZM94.3757 30.7506L94.2687 30.8573L94.2831 30.5184L94.2967 30.1795L94.3901 30.4117L94.4827 30.6437L94.3757 30.7506ZM2.98012 30.3858L2.86266 30.5037V30.2679V30.0321L2.98012 30.15L3.09824 30.2679L2.98012 30.3858ZM0.328101 30.0321L0.21064 30.15V29.9142V29.6785L0.328101 29.7963L0.446215 29.9142L0.328101 30.0321ZM92.2653 30.0321L92.1472 30.15V29.9142V29.6785L92.2653 29.7963L92.3828 29.9142L92.2653 30.0321ZM94.5637 29.8553L94.4455 29.9732V29.7374V29.5016L94.5637 29.6195L94.6811 29.7374L94.5637 29.8553ZM92.4422 29.1479L92.3241 29.2658V29.0301V28.7943L92.4422 28.9121L92.5596 29.0301L92.4422 29.1479ZM94.7405 29.1479L94.6224 29.2658V29.0301V28.7943L94.7405 28.9121L94.858 29.0301L94.7405 29.1479ZM0.140815 28.9821L0.0337952 29.089L0.0474989 28.75L0.0618545 28.4111L0.154519 28.6431L0.247836 28.8754L0.140815 28.9821ZM2.79284 28.9821L2.68582 29.089L2.69952 28.75L2.71388 28.4111L2.80654 28.6431L2.89921 28.8754L2.79284 28.9821ZM92.6079 28.2747L92.5009 28.3816L92.5153 28.0426L92.529 27.7037L92.6216 27.9358L92.7149 28.168L92.6079 28.2747ZM94.9173 28.2641L94.7992 28.3819V28.1461V27.9103L94.9173 28.0283L95.0348 28.1461L94.9173 28.2641ZM-0.0216738 27.2197L-0.101938 27.5272L-0.095413 26.8198L-0.0888876 26.1124L-0.0118846 26.5123L0.0651184 26.9123L-0.0151473 27.2197H-0.0216738ZM95.0942 27.3798L94.9761 27.4978V27.262V27.0262L95.0942 27.144L95.2116 27.262L95.0942 27.3798ZM92.7848 27.214L92.6777 27.3209L92.6914 26.982L92.7058 26.6429L92.7985 26.8751L92.8911 27.1071L92.7848 27.214ZM95.241 26.3777H95.1529V26.2893V26.2008H95.241H95.3298V26.2893V26.3777H95.241ZM92.9616 25.9761L92.8546 26.083L92.8683 25.7441L92.8826 25.4052L92.9753 25.6372L93.068 25.8692L92.9616 25.9761ZM95.4479 25.4345L95.3298 25.5523V25.3167V25.0809L95.4479 25.1987L95.5653 25.3167L95.4479 25.4345ZM93.1489 24.3735L93.0314 24.4913V24.2556V24.0198L93.1489 24.1377L93.267 24.2556L93.1489 24.3735ZM95.6247 24.0198L95.5066 24.1377V23.9019V23.6661L95.6247 23.784L95.7422 23.9019L95.6247 24.0198ZM-0.0268943 22.8884L-0.11499 23.1061L-0.108465 22.5754L-0.101938 22.0449L-0.0203678 22.3578L0.0612027 22.6707L-0.0268943 22.8884ZM2.80785 22.7966L2.72693 23.1061V22.4872V21.8682L2.80785 22.1776L2.88876 22.4872L2.80785 22.7966ZM95.8009 22.605L95.6834 22.723V22.4872V22.2514L95.8009 22.3692L95.919 22.4872L95.8009 22.605ZM93.3251 22.1776L93.2363 22.3987V21.9567V21.5144L93.3251 21.7356L93.4145 21.9567L93.3251 22.1776ZM2.96968 21.0244L2.86266 21.1313L2.87637 20.7924L2.89072 20.4534L2.98339 20.6855L3.07605 20.9177L2.96968 21.0244ZM0.151909 20.3061L0.0337952 20.4239V20.1881V19.9523L0.151909 20.0703L0.269371 20.1881L0.151909 20.3061ZM93.3323 20.0581L93.2559 20.4534V19.5692V18.6849L93.3303 19.1736L93.404 19.6625L93.3277 20.0581H93.3323ZM95.9862 19.7934L95.9132 20.2766V19.2154V18.1544L95.9849 18.7324L96.0561 19.3102L95.983 19.7934H95.9862ZM3.1276 19.6576H3.03951V19.5692V19.4807H3.1276H3.21635V19.5692V19.6576H3.1276ZM0.317008 19.256L0.21064 19.3629L0.224344 19.024L0.2387 18.6849L0.331364 18.9171L0.424681 19.1491L0.31766 19.256H0.317008ZM3.30445 18.5966H3.21635V18.5082V18.4197H3.30445H3.3932V18.5082V18.5966H3.30445ZM0.493853 18.0181L0.387485 18.1249L0.401188 17.7859L0.415545 17.447L0.508209 17.6792L0.600873 17.9113L0.494505 18.0181H0.493853ZM3.48129 17.8892H3.3932V17.8008V17.7123H3.48129H3.56939V17.8008V17.8892H3.48129ZM93.1489 17.8303L93.0314 17.9483V17.7125V17.4767L93.1489 17.5945L93.267 17.7125L93.1489 17.8303ZM0.681792 17.1229L0.56433 17.2409V17.0051V16.7693L0.681792 16.8871L0.799906 17.0051L0.681792 17.1229ZM3.65814 17.1818H3.56939V17.0934V17.005H3.65814H3.74624V17.0934V17.1818H3.65814ZM92.972 16.5923L92.8546 16.7102V16.4745V16.2387L92.972 16.3565L93.0902 16.4745L92.972 16.5923ZM0.858637 16.4155L0.741174 16.5334V16.2976V16.0618L0.858637 16.1796L0.976751 16.2976L0.858637 16.4155ZM3.83498 16.4743H3.74624V16.3858V16.2974H3.83498H3.92308V16.3858V16.4743H3.83498ZM95.8009 16.2385L95.6834 16.3563V16.1205V15.8849L95.8009 16.0027L95.919 16.1205L95.8009 16.2385ZM92.7959 15.8849L92.6777 16.0027V15.7669V15.5311L92.7959 15.6491L92.9133 15.7669L92.7959 15.8849ZM1.03548 15.708L0.91802 15.8258V15.59V15.3542L1.03548 15.4722L1.1536 15.59L1.03548 15.708ZM4.01183 15.7667H3.92308V15.6783V15.59H4.01183H4.09992V15.6783V15.7667H4.01183ZM4.21804 15.3541L4.09992 15.472V15.2362V15.0004L4.21804 15.1183L4.33615 15.2362L4.21804 15.3541ZM1.21233 15.0004L1.09421 15.1183V14.8826V14.6468L1.21233 14.7646L1.33044 14.8826L1.21233 15.0004ZM92.619 15.0004L92.5009 15.1183V14.8826V14.6468L92.619 14.7646L92.7365 14.8826L92.619 15.0004ZM95.6247 15.0004L95.5066 15.1183V14.8826V14.6468L95.6247 14.7646L95.7422 14.8826L95.6247 15.0004ZM4.39488 14.8236L4.27677 14.9415V14.7057V14.4699L4.39488 14.5878L4.51234 14.7057L4.39488 14.8236ZM1.35981 14.5288H1.27106V14.4404V14.352H1.35981H1.4479V14.4404V14.5288H1.35981ZM4.54236 14.352H4.45361V14.2635V14.1752H4.54236H4.63046V14.2635V14.352H4.54236ZM92.4128 14.352H92.3241V14.2635V14.1752H92.4128H92.5009V14.2635V14.352H92.4128ZM95.4179 14.1752H95.3298V14.0868V13.9983H95.4179H95.5066V14.0868V14.1752H95.4179ZM1.53665 13.9983H1.4479V13.9099V13.8215H1.53665H1.62475V13.9099V13.9983H1.53665ZM4.71921 13.8215H4.63046V13.733V13.6447H4.71921H4.8073V13.733V13.8215H4.71921ZM92.236 13.8215H92.1472V13.733V13.6447H92.236H92.3241V13.733V13.8215H92.236ZM95.241 13.6447H95.1529V13.5563V13.4678H95.241H95.3298V13.5563V13.6447H95.241ZM1.7135 13.4678H1.62475V13.3794V13.291H1.7135H1.80159V13.3794V13.4678H1.7135ZM4.89605 13.4678H4.8073V13.3794V13.291H4.89605H4.98415V13.3794V13.4678H4.89605ZM92.0591 13.4678H91.9704V13.3794V13.291H92.0591H92.1472V13.3794V13.4678H92.0591ZM5.07225 13.1141H4.98415V13.0256V12.9372H5.07225H5.161V13.0256V13.1141H5.07225ZM95.0648 13.1141H94.9761V13.0256V12.9372H95.0648H95.1529V13.0256V13.1141H95.0648ZM91.7159 12.9372H91.6376L91.5116 12.733L91.3857 12.5289L91.5893 12.655L91.7935 12.7813V12.8594V12.9372H91.7159ZM5.24909 12.7605H5.161V12.672V12.5836H5.24909H5.33784V12.672V12.7605H5.24909ZM2.06719 12.5836H1.97844V12.4951V12.4067H2.06719H2.15528V12.4951V12.5836H2.06719ZM2.24403 12.23H2.15528V12.1415V12.0531H2.24403H2.33213V12.1415V12.23H2.24403ZM94.7111 12.23H94.6224V12.1415V12.0531H94.7111H94.7992V12.1415V12.23H94.7111ZM2.42022 11.8775H2.33213V11.789V11.7008H2.42022H2.50897V11.789V11.8775H2.42022ZM5.77963 11.8775H5.69153V11.789V11.7008H5.77963H5.86837V11.789V11.8775H5.77963ZM90.8316 11.8775H90.754L90.6274 11.6734L90.5014 11.4692L90.7057 11.5954L90.9099 11.7217V11.7997V11.8775H90.8316ZM94.5447 11.8775H94.4664L94.3405 11.6734L94.2145 11.4692L94.4181 11.5954L94.6224 11.7217V11.7997V11.8775H94.5447ZM2.59707 11.5239H2.50897V11.4354V11.347H2.59707H2.68582V11.4354V11.5239H2.59707ZM6.13332 11.347H6.04522V11.2585V11.1701H6.13332H6.22206V11.2585V11.347H6.13332ZM94.191 11.347H94.1127L93.9868 11.1429L93.8608 10.9387L94.0644 11.0649L94.2687 11.191V11.269V11.347H94.191ZM2.77391 11.1701H2.68582V11.0817V10.9934H2.77391H2.86266V11.0817V11.1701H2.77391ZM2.92988 10.8165H2.84178L2.95076 10.6396L3.06039 10.4629H3.14849H3.23723L3.1276 10.6396L3.01863 10.8165H2.92988ZM6.48701 10.8165H6.39826V10.728V10.6396H6.48701H6.5751V10.728V10.8165H6.48701ZM93.6716 10.6396H93.605L93.3623 10.3301L93.1195 10.0207L93.4288 10.2633L93.7382 10.5061V10.573V10.6398L93.6716 10.6396ZM3.30445 10.286H3.21635V10.1975V10.1091H3.30445H3.3932V10.1975V10.286H3.30445ZM6.96273 10.1091H6.87398L7.19439 9.75533L7.51414 9.40172H7.60289H7.69099L7.37123 9.75533L7.05082 10.1091H6.96273ZM3.65814 9.75533H3.56939V9.66689V9.5786H3.65814H3.74624V9.66689V9.75533H3.65814ZM88.733 9.75533H88.6775L88.1581 9.18061L87.6386 8.60589L88.2135 9.12529L88.7878 9.64469V9.70017V9.75566L88.733 9.75533ZM92.6275 9.40172H92.5772L91.6108 8.38478L90.6443 7.368L91.661 8.33452L92.6777 9.3012V9.35129V9.40155L92.6275 9.40172ZM4.01183 9.22483H3.92308V9.13639V9.0481H4.01183H4.09992V9.13639V9.22483H4.01183ZM7.86848 9.22483H7.81302V9.16935V9.11387L8.38727 8.59446L8.96218 8.07506L8.44274 8.64994L7.9233 9.22467L7.86848 9.22483ZM87.484 8.69433H87.4168L87.174 8.38478L86.9313 8.07539L87.2412 8.31804L87.5505 8.56085V8.62759V8.69449L87.484 8.69433ZM4.52018 8.5176H4.45361V8.4507V8.3838L4.76293 8.14115L5.07225 7.89833L4.82949 8.20789L4.58739 8.51744L4.52018 8.5176ZM9.31587 7.98694H9.22712V7.8985V7.81005H9.31587H9.40397V7.8985V7.98694H9.31587ZM86.5782 7.98694H86.4895V7.8985V7.81005H86.5782H86.6663V7.8985V7.98694H86.5782ZM9.82553 7.63333H9.73678L9.84641 7.45644L9.95539 7.27955H10.0441H10.1322L10.0233 7.45644L9.91362 7.63333H9.82553ZM86.0477 7.63333H85.9589V7.54489V7.45644H86.0477H86.1358V7.54489V7.63333H86.0477ZM5.4044 7.45644H5.33784V7.3897V7.3228L5.64716 7.07998L5.95647 6.83733L5.71372 7.14673L5.47096 7.45628L5.4044 7.45644ZM38.3994 7.45644H38.1638L38.2819 7.33863L38.3994 7.22065L38.5175 7.33863L38.6356 7.45644H38.3994ZM37.9576 7.27955H37.8695V7.19111V7.10283H37.9576H38.0463V7.19111V7.27955H37.9576ZM85.5276 7.27955H85.4499L85.3233 7.07542L85.1974 6.87128L85.4016 6.99742L85.6059 7.12355V7.20155V7.27955H85.5276ZM10.5531 7.10283H10.465V7.01439V6.92594H10.5531H10.6419V7.01439V7.10283H10.5531ZM37.4271 7.10283H37.339V7.01439V6.92594H37.4271H37.5158V7.01439V7.10283H37.4271ZM39.0187 7.10283H38.9299V7.01439V6.92594H39.0187H39.1068V7.01439V7.10283H39.0187ZM10.9068 6.92594H10.8187V6.8375V6.74905H10.9068H10.9956V6.8375V6.92594H10.9068ZM36.8965 6.92594H36.8084V6.8375V6.74905H36.8965H36.9853V6.8375V6.92594H36.8965ZM39.3723 6.92594H39.2836V6.8375V6.74905H39.3723H39.4604V6.8375V6.92594H39.3723ZM84.9866 6.92594H84.8985V6.8375V6.74905H84.9866H85.0754V6.8375V6.92594H84.9866ZM89.9592 6.92594H89.8919L89.6492 6.61639L89.4064 6.307L89.7164 6.54965L90.0257 6.7923V6.8592V6.92611L89.9592 6.92594ZM11.2605 6.74905H11.1724V6.66061V6.57217H11.2605H11.3493V6.66061V6.74905H11.2605ZM36.2779 6.74905H36.0423L36.1604 6.63107L36.2779 6.51326L36.396 6.63107L36.5135 6.74905H36.2779ZM84.6434 6.74905H84.5657L84.4398 6.54492L84.3132 6.34078L84.5174 6.46692L84.7217 6.59305V6.67105V6.74905H84.6434ZM11.6142 6.57217H11.5261V6.48372V6.39544H11.6142H11.7023V6.48372V6.57217H11.6142ZM35.7474 6.57217H35.5118L35.6299 6.45435L35.7474 6.33637L35.8655 6.45435L35.9836 6.57217H35.7474ZM39.9022 6.57217H39.8141V6.48372V6.39544H39.9022H39.991V6.48372V6.57217H39.9022ZM11.9679 6.39544H11.8791V6.307V6.21855H11.9679H12.056V6.307V6.39544H11.9679ZM35.1287 6.39544H35.0406V6.307V6.21855H35.1287H35.2175V6.307V6.39544H35.1287ZM40.2559 6.39544H40.1678V6.307V6.21855H40.2559H40.3447V6.307V6.39544H40.2559ZM84.103 6.39544H84.0143V6.307V6.21855H84.103H84.1911V6.307V6.39544H84.103ZM6.81916 6.21855H6.75195V6.15165V6.08491L7.06126 5.8421L7.37058 5.59945L7.12848 5.90884L6.88572 6.21839L6.81916 6.21855ZM12.3216 6.21855H12.2328V6.13011V6.04167H12.3216H12.4097V6.13011V6.21855H12.3216ZM34.4213 6.21855H34.3332V6.13011V6.04167H34.4213H34.5101V6.13011V6.21855H34.4213ZM83.7494 6.21855H83.6606V6.13011V6.04167H83.7494H83.8374V6.13011V6.21855H83.7494ZM12.8521 6.04167H12.7634V5.95322V5.86478H12.8521H12.9402V5.95322V6.04167H12.8521ZM33.8915 6.04167H33.8027V5.95322V5.86478H33.8915H33.9796V5.95322V6.04167H33.8915ZM40.7656 6.04167H40.6775L40.7865 5.86478L40.8954 5.68805H40.9842H41.0723L40.9633 5.86478L40.8537 6.04167H40.7656ZM83.3957 6.04167H83.3069V5.95322V5.86478H83.3957H83.4838V5.95322V6.04167H83.3957ZM88.887 6.04167H88.8087L88.6827 5.83753L88.5568 5.63339L88.7604 5.75953L88.9646 5.88567V5.96367V6.04167H88.887ZM13.2052 5.86478H13.1171V5.77634V5.68805H13.2052H13.2939V5.77634V5.86478H13.2052ZM33.1841 5.86478H33.0953V5.77634V5.68805H33.1841H33.2722V5.77634V5.86478H33.1841ZM83.042 5.86478H82.9539V5.77634V5.68805H83.042H83.1301V5.77634V5.86478H83.042ZM13.7357 5.68805H13.6476V5.59961V5.51117H13.7357H13.8244V5.59961V5.68805H13.7357ZM32.3886 5.68805H32.1524L32.2705 5.57008L32.3886 5.4521L32.5061 5.57008L32.6242 5.68805H32.3886ZM7.70339 5.51117H7.61529L7.72427 5.33428L7.8339 5.15755H7.922H8.01075L7.90111 5.33428L7.79213 5.51117H7.70339ZM14.2662 5.51117H14.1775V5.42272V5.33428H14.2662H14.3543V5.42272V5.51117H14.2662ZM31.5925 5.51117H31.5044V5.42272V5.33428H31.5925H31.6812V5.42272V5.51117H31.5925ZM41.8475 5.51117H41.7588V5.42272V5.33428H41.8475H41.9356V5.42272V5.51117H41.8475ZM88.1692 5.51117H88.0811V5.42272V5.33428H88.1692H88.2579V5.42272V5.51117H88.1692ZM14.7968 5.33428H14.708V5.24584V5.15755H14.7968H14.8849V5.24584V5.33428H14.7968ZM30.8857 5.33428H30.797V5.24584V5.15755H30.8857H30.9738V5.24584V5.33428H30.8857ZM42.2006 5.33428H42.1125V5.24584V5.15755H42.2006H42.2893V5.24584V5.33428H42.2006ZM81.8047 5.33428H81.716V5.24584V5.15755H81.8047H81.8928V5.24584V5.33428H81.8047ZM8.23392 5.15755H8.14583L8.2548 4.98067L8.36444 4.80378H8.45253H8.54128L8.43165 4.98067L8.32267 5.15755H8.23392ZM15.5922 5.15755H15.3567L15.4741 5.03958L15.5922 4.9216L15.7104 5.03958L15.8278 5.15755H15.5922ZM29.9134 5.15755H29.6772L29.7953 5.03958L29.9134 4.9216L30.0309 5.03958L30.149 5.15755H29.9134ZM42.9079 5.15755H42.8198V5.06911V4.98067H42.9079H42.9967V5.06911V5.15755H42.9079ZM81.451 5.15755H81.3623V5.06911V4.98067H81.451H81.5391V5.06911V5.15755H81.451ZM87.6386 5.15755H87.5505V5.06911V4.98067H87.6386H87.7274V5.06911V5.15755H87.6386ZM16.2996 4.98067H16.064L16.1815 4.86269L16.2996 4.74487L16.4171 4.86269L16.5352 4.98067H16.2996ZM28.9261 4.96663L28.5874 4.9526L28.8191 4.85959L29.0514 4.76674L29.1584 4.87362L29.2648 4.9805L28.9261 4.96663ZM43.4385 4.98067H43.3504V4.89222V4.80378H43.4385H43.5266V4.89222V4.98067H43.4385ZM57.5828 4.98067H57.4941V4.89222V4.80378H57.5828H57.6709V4.89222V4.98067H57.5828ZM81.0973 4.98067H81.0086V4.89222V4.80378H81.0973H81.1854V4.89222V4.98067H81.0973ZM8.78534 4.80378H8.69724V4.71534V4.62689H8.78534H8.87343V4.71534V4.80378H8.78534ZM17.4338 4.78975L17.0951 4.77571L17.3268 4.68286L17.5591 4.59001L17.6661 4.69673L17.7725 4.80362L17.4338 4.78975ZM27.865 4.78975L27.5263 4.77571L27.7587 4.68286L27.9903 4.59001L28.0973 4.69673L28.2044 4.80362L27.865 4.78975ZM44.0571 4.80378H43.8215L43.9396 4.6858L44.0571 4.56798L44.1752 4.6858L44.2927 4.80378H44.0571ZM56.6098 4.80378H56.3743L56.4924 4.6858L56.6098 4.56798L56.728 4.6858L56.8461 4.80378H56.6098ZM58.2014 4.80378H57.9659L58.0833 4.6858L58.2014 4.56798L58.3196 4.6858L58.437 4.80378H58.2014ZM80.5668 4.80378H80.4787V4.71534V4.62689H80.5668H80.6549V4.71534V4.80378H80.5668ZM87.1087 4.80378H87.02V4.71534V4.62689H87.1087H87.1968V4.71534V4.80378H87.1087ZM18.598 4.59899H18.1562L18.3767 4.50989L18.598 4.42063L18.8185 4.50989L19.0397 4.59899H18.598ZM26.2884 4.5923L25.7585 4.58561L26.0711 4.50418L26.3837 4.42259L26.6017 4.51071L26.819 4.59866L26.2884 4.5923ZM45.0151 4.61302L44.6764 4.59899L44.9081 4.50614L45.1404 4.41329L45.2467 4.52017L45.3538 4.62689L45.0151 4.61302ZM55.3726 4.59899H54.9308L55.1514 4.50989L55.3726 4.42063L55.5938 4.50989L55.8144 4.59899H55.3726ZM58.8201 4.62705H58.732V4.53861V4.45017H58.8201H58.9088V4.53861V4.62705H58.8201ZM80.0363 4.62705H79.9482V4.53861V4.45017H80.0363H80.125V4.53861V4.62705H80.0363ZM9.31587 4.45017H9.22712V4.36172V4.27344H9.31587H9.40397V4.36172V4.45017H9.31587ZM20.8963 4.39746H19.924L20.4101 4.3237L20.8963 4.25011L21.3824 4.3237L21.8686 4.39746H20.8963ZM23.9901 4.39746H23.1065L23.5946 4.32354L24.0834 4.24962L24.4789 4.32599L24.8743 4.40219L23.9901 4.39746ZM46.1786 4.42014H45.7368L45.958 4.33088L46.1786 4.24179L46.3998 4.33088L46.621 4.42014H46.1786ZM54.2234 4.41345L53.6929 4.40676L54.0055 4.32517L54.3187 4.24374L54.536 4.3317L54.754 4.41982L54.2234 4.41345ZM59.5275 4.44821H59.4387V4.35977V4.27132H59.5275H59.6156V4.35977V4.44821H59.5275ZM79.4176 4.44821H79.182L79.2995 4.33023L79.4176 4.21241L79.5357 4.33023L79.6532 4.44821H79.4176ZM86.5782 4.44821H86.4895V4.35977V4.27132H86.5782H86.6663V4.35977V4.44821H86.5782ZM9.66956 4.27132H9.58082V4.18304V4.0946H9.66956H9.75766V4.18304V4.27132H9.66956ZM37.4127 4.25729L37.0734 4.24325L37.3057 4.1504L37.538 4.05755L37.6444 4.16444L37.7514 4.27132L37.4127 4.25729ZM47.8583 4.23656L47.3284 4.23004L47.641 4.14845L47.9536 4.06686L48.1715 4.15497L48.3888 4.24309L47.8583 4.23656ZM52.2788 4.22661L51.5714 4.21992L51.9714 4.14306L52.3708 4.0662L52.6781 4.14665L52.9855 4.2271L52.2788 4.22661ZM60.1461 4.27132H59.9105L60.0286 4.1535L60.1461 4.03553L60.2642 4.1535L60.3817 4.27132H60.1461ZM78.8871 4.27132H78.6515L78.769 4.1535L78.8871 4.03553L79.0052 4.1535L79.1227 4.27132H78.8871ZM86.2245 4.27132H86.1358V4.18304V4.0946H86.2245H86.3126V4.18304V4.27132H86.2245ZM10.0233 4.0946H9.93451V4.00615V3.91771H10.0233H10.1114V4.00615V4.0946H10.0233ZM36.7203 4.0946H36.6316V4.00615V3.91771H36.7203H36.8084V4.00615V4.0946H36.7203ZM37.9576 4.0946H37.8695V4.00615V3.91771H37.9576H38.0463V4.00615V4.0946H37.9576ZM60.9416 4.0946H60.8535V4.00615V3.91771H60.9416H61.0303V4.00615V4.0946H60.9416ZM78.1797 4.0946H77.9441L78.0622 3.97662L78.1797 3.8588L78.2978 3.97662L78.4159 4.0946H78.1797ZM36.1898 3.91771H36.101V3.82927V3.74082H36.1898H36.2779V3.82927V3.91771H36.1898ZM61.8258 3.91771H61.7377V3.82927V3.74082H61.8258H61.9139V3.82927V3.91771H61.8258ZM77.2074 3.91771H77.1193V3.82927V3.74082H77.2074H77.2961V3.82927V3.91771H77.2074ZM85.694 3.91771H85.6059V3.82927V3.74082H85.694H85.7827V3.82927V3.91771H85.694ZM35.6593 3.74082H35.5705V3.65238V3.56393H35.6593H35.7474V3.65238V3.74082H35.6593ZM62.71 3.74082H62.6213V3.65238V3.56393H62.71H62.7981V3.65238V3.74082H62.71ZM76.4119 3.74082H76.1763L76.2938 3.623L76.4119 3.50503L76.53 3.623L76.6475 3.74082H76.4119ZM85.3403 3.74082H85.2522V3.65238V3.56393H85.3403H85.4291V3.65238V3.74082H85.3403ZM11.0837 3.56393H10.9956V3.47549V3.38705H11.0837H11.1724V3.47549V3.56393H11.0837ZM34.9519 3.56393H34.8638V3.47549V3.38705H34.9519H35.0406V3.47549V3.56393H34.9519ZM63.7704 3.56393H63.6823V3.47549V3.38705H63.7704H63.8592V3.47549V3.56393H63.7704ZM75.6164 3.56393H75.5277V3.47549V3.38705H75.6164H75.7045V3.47549V3.56393H75.6164ZM84.9866 3.56393H84.8985V3.47549V3.38705H84.9866H85.0754V3.47549V3.56393H84.9866ZM11.4374 3.38705H11.3493V3.29877V3.21032H11.4374H11.5261V3.29877V3.38705H11.4374ZM34.4213 3.38705H34.3332V3.29877V3.21032H34.4213H34.5101V3.29877V3.38705H34.4213ZM39.1955 3.38705H39.1068V3.29877V3.21032H39.1955H39.2836V3.29877V3.38705H39.1955ZM65.0964 3.38705H64.8609L64.979 3.26923L65.0964 3.15141L65.2146 3.26923L65.3327 3.38705H65.0964ZM74.2904 3.38705H74.0549L74.1723 3.26923L74.2904 3.15141L74.4085 3.26923L74.526 3.38705H74.2904ZM84.6329 3.38705H84.5448V3.29877V3.21032H84.6329H84.7217V3.29877V3.38705H84.6329ZM11.9679 3.21032H11.8791V3.12188V3.03343H11.9679H12.056V3.12188V3.21032H11.9679ZM33.7146 3.21032H33.6259V3.12188V3.03343H33.7146H33.8027V3.12188V3.21032H33.7146ZM39.5485 3.21032H39.4604V3.12188V3.03343H39.5485H39.6373V3.12188V3.21032H39.5485ZM66.8649 3.18225H66.4225L66.6437 3.09299L66.8649 3.0039L67.0855 3.09299L67.3067 3.18225H66.8649ZM72.6988 3.21032H72.4632L72.5814 3.0925L72.6988 2.97453L72.8169 3.0925L72.9351 3.21032H72.6988ZM84.2799 3.21032H84.1911V3.12188V3.03343H84.2799H84.368V3.12188V3.21032H84.2799ZM12.4097 3.03343H12.1741L12.2922 2.91562L12.4097 2.79764L12.5278 2.91562L12.6453 3.03343H12.4097ZM32.9185 3.03343H32.6829L32.801 2.91562L32.9185 2.79764L33.0366 2.91562L33.1547 3.03343H32.9185ZM40.0791 3.03343H39.991V2.94499V2.85655H40.0791H40.1678V2.94499V3.03343H40.0791ZM83.9262 3.03343H83.8374V2.94499V2.85655H83.9262H84.0143V2.94499V3.03343H83.9262ZM12.9402 2.85655H12.7046L12.8221 2.73873L12.9402 2.62075L13.0583 2.73873L13.1758 2.85655H12.9402ZM32.1087 2.84251L31.7693 2.82848L32.0016 2.73563L32.2339 2.64278L32.3403 2.74966L32.4473 2.85655L32.1087 2.84251ZM40.5215 2.85655H40.2853L40.4034 2.73873L40.5215 2.62075L40.639 2.73873L40.7571 2.85655H40.5215ZM83.5725 2.85655H83.4838V2.76827V2.67982H83.5725H83.6606V2.76827V2.85655H83.5725ZM13.4708 2.67982H13.2352L13.3526 2.56184L13.4708 2.44403L13.5882 2.56184L13.7063 2.67982H13.4708ZM31.2244 2.66579L30.8857 2.65175L31.1174 2.5589L31.3497 2.46589L31.4567 2.57277L31.5631 2.67966L31.2244 2.66579ZM40.9633 2.67982H40.8746V2.59138V2.50293H40.9633H41.0514V2.59138V2.67982H40.9633ZM83.042 2.67982H82.9539V2.59138V2.50293H83.042H83.1301V2.59138V2.67982H83.042ZM14.1775 2.50293H13.9419L14.06 2.38495L14.1775 2.26714L14.2956 2.38495L14.4137 2.50293H14.1775ZM30.4433 2.50293H30.2077L30.3258 2.38495L30.4433 2.26714L30.5614 2.38495L30.6795 2.50293H30.4433ZM41.4938 2.50293H41.4051V2.41449V2.32605H41.4938H41.5819V2.41449V2.50293H41.4938ZM82.6883 2.50293H82.6002V2.41449V2.32605H82.6883H82.777V2.41449V2.50293H82.6883ZM14.8849 2.32605H14.6493L14.7674 2.20823L14.8849 2.09025L15.003 2.20823L15.1204 2.32605H14.8849ZM29.3829 2.32605H29.1473L29.2648 2.20823L29.3829 2.09025L29.5003 2.20823L29.6185 2.32605H29.3829ZM42.1125 2.32605H41.8769L41.9944 2.20823L42.1125 2.09025L42.2306 2.20823L42.348 2.32605H42.1125ZM57.1404 2.32605H56.9048L57.0229 2.20823L57.1404 2.09025L57.2585 2.20823L57.3766 2.32605H57.1404ZM82.3346 2.32605H82.2465V2.2376V2.14932H82.3346H82.4233V2.2376V2.32605H82.3346ZM15.5922 2.14932H15.3567L15.4741 2.03134L15.5922 1.91353L15.7104 2.03134L15.8278 2.14932H15.5922ZM28.3218 2.14932H28.0862L28.2044 2.03134L28.3218 1.91353L28.4399 2.03134L28.5574 2.14932H28.3218ZM42.7311 2.14932H42.643V2.06088V1.97243H42.7311H42.8198V2.06088V2.14932H42.7311ZM56.4336 2.14932H56.1974L56.3155 2.03134L56.4336 1.91353L56.5511 2.03134L56.6692 2.14932H56.4336ZM57.5828 2.14932H57.4941V2.06088V1.97243H57.5828H57.6709V2.06088V2.14932H57.5828ZM81.8047 2.14932H81.716V2.06088V1.97243H81.8047H81.8928V2.06088V2.14932H81.8047ZM16.6533 1.97243H16.4171L16.5352 1.85445L16.6533 1.73664L16.7708 1.85445L16.8889 1.97243H16.6533ZM27.2614 1.97243H27.0252L27.1433 1.85445L27.2614 1.73664L27.3789 1.85445L27.497 1.97243H27.2614ZM43.3504 1.97243H43.1141L43.2323 1.85445L43.3504 1.73664L43.4678 1.85445L43.586 1.97243H43.3504ZM55.5494 1.97243H55.3139L55.4313 1.85445L55.5494 1.73664L55.6675 1.85445L55.785 1.97243H55.5494ZM58.1127 1.97243H58.0246V1.88399V1.79555H58.1127H58.2014V1.88399V1.97243H58.1127ZM81.2742 1.97243H81.1854V1.88399V1.79555H81.2742H81.3623V1.88399V1.97243H81.2742ZM17.7875 1.78151L17.4488 1.76748L17.6804 1.67463L17.9128 1.58178L18.0198 1.68866L18.1261 1.79555L17.7875 1.78151ZM25.493 1.76748H25.0512L25.2724 1.67838L25.493 1.58912L25.7142 1.67838L25.9354 1.76748H25.493ZM44.234 1.79555H43.9984L44.1165 1.67773L44.234 1.55975L44.3521 1.67773L44.4695 1.79555H44.234ZM54.5771 1.79555H54.4884V1.70727V1.61882H54.5771H54.6652V1.70727V1.79555H54.5771ZM58.8201 1.79555H58.732V1.70727V1.61882H58.8201H58.9088V1.70727V1.79555H58.8201ZM19.924 1.57411L19.2166 1.56758L19.6166 1.49056L20.0166 1.4137L20.324 1.49415L20.6313 1.5746L19.924 1.56791V1.57411ZM23.4602 1.58423L22.9297 1.57754L23.2423 1.49595L23.5548 1.41452L23.7728 1.50264L23.9901 1.59059L23.4602 1.58423ZM45.1182 1.61898H44.8826L45.0001 1.50101L45.1182 1.38319L45.2356 1.50101L45.3538 1.61898H45.1182ZM53.4279 1.61898H53.1924L53.3098 1.50101L53.4279 1.38319L53.5454 1.50101L53.6635 1.61898H53.4279ZM59.3506 1.61898H59.2625V1.53054V1.4421H59.3506H59.4387V1.53054V1.61898H59.3506ZM80.2131 1.61898H80.125V1.53054V1.4421H80.2131H80.3018V1.53054V1.61898H80.2131ZM46.7091 1.4421H46.4736L46.5917 1.32428L46.7091 1.2063L46.8272 1.32428L46.9447 1.4421H46.7091ZM51.8363 1.41403H51.3945L51.6158 1.32493L51.8363 1.23567L52.0576 1.32493L52.2788 1.41403H51.8363ZM60.058 1.4421H59.9692V1.35365V1.26521H60.058H60.1461V1.35365V1.4421H60.058ZM79.6826 1.4421H79.5945V1.35365V1.26521H79.6826H79.7713V1.35365V1.4421H79.6826ZM60.7647 1.26521H60.6766V1.17677V1.08849H60.7647H60.8535V1.17677V1.26521H60.7647ZM79.0639 1.26521H78.8284L78.9458 1.14739L79.0639 1.02958L79.182 1.14739L79.2995 1.26521H79.0639ZM61.5608 1.08849H61.3246L61.4427 0.970505L61.5608 0.852689L61.6783 0.970505L61.7964 1.08849H61.5608ZM78.1797 1.08849H77.9441L78.0622 0.970505L78.1797 0.852689L78.2978 0.970505L78.4159 1.08849H78.1797ZM62.5182 0.897727L62.1795 0.883693L62.4118 0.790681L62.6434 0.697831L62.7505 0.804714L62.8568 0.911597L62.5182 0.897727ZM77.2961 0.91176H77.0599L77.178 0.793781L77.2961 0.675801L77.4136 0.793781L77.5317 0.91176H77.2961ZM63.6823 0.706969H63.2406L63.4611 0.617709L63.6823 0.528449L63.9036 0.617709L64.1241 0.706969H63.6823ZM76.4856 0.721002L76.147 0.706969L76.3786 0.613956L76.6109 0.521106L76.718 0.62799L76.8243 0.734873L76.4856 0.721002ZM64.8315 0.523554L64.301 0.516864L64.6135 0.435273L64.9268 0.353846L65.1441 0.441964L65.362 0.529918L64.8315 0.523554ZM75.2627 0.523554L74.7322 0.516864L75.0448 0.435273L75.358 0.353846L75.5753 0.441964L75.7933 0.529918L75.2627 0.523554ZM66.5112 0.353194H66.0688L66.29 0.264097L66.5112 0.174837L66.7318 0.264097L66.953 0.353194H66.5112ZM73.7599 0.353194H73.3181L73.5387 0.264097L73.7599 0.174837L73.9811 0.264097L74.2017 0.353194H73.7599ZM70.1355 0.146281H68.8976L69.4686 0.0752971L70.039 0.00415039L70.7059 0.0738285L71.3728 0.143507H70.1355V0.146281Z" fill="#0057FF"/>
<path d="M57.759 99.8639L55.2839 99.9302L54.5014 99.765L53.719 99.5999L52.8217 99.3062L51.9244 99.0123L50.9091 98.5045L49.8943 97.9966L48.6995 96.8663L47.5046 95.7361L46.9075 94.7446L46.3104 93.7531L45.9098 92.6494L45.5097 91.5456L45.2311 89.7772L44.9524 88.0089L44.6829 84.914L44.4128 81.8192L44.3084 78.0171L44.204 74.2149L44.1393 74.0016L44.0747 73.7882L43.3145 74.2082L42.5549 74.628L41.2576 75.018L39.961 75.4081L37.4564 75.3176L34.9525 75.2271L32.8304 74.7752L30.7089 74.3232L29.7281 73.9814L28.7473 73.6397L28.0086 73.2626L27.2699 72.8858L26.8849 72.3652L26.5005 71.8448L25.6874 72.5622L24.8743 73.2795L23.8139 73.8262L22.7528 74.3728L21.1547 74.3821L19.5566 74.3914L18.1953 73.7198L16.8341 73.048L15.6607 71.863L14.4868 70.6778L13.4283 69.1883L12.3692 67.6989L11.3205 65.7758L10.2712 63.8531L9.11878 61.1643L7.967 58.4755L6.887 55.4692L5.80701 52.4627L5.41873 51.1364L5.0298 49.8102L4.31459 47.4025L3.59938 44.9948L2.71124 41.3896L1.8231 37.7848L1.62341 36.9005L1.42438 36.0163L0.814232 32.6562L0.204082 29.2962L0.0167963 27.1742L-0.171143 25.052L-0.056291 22.9298L0.0592135 20.8077L0.391369 18.774L0.724177 16.7402L1.18163 15.1487L1.63907 13.5571L2.24204 12.2758L2.84436 10.9947L3.62744 9.80001L4.41117 8.60537L5.31889 7.60181L6.22661 6.59808L7.31705 5.77826L8.40748 4.95828L9.60168 4.26085L10.7959 3.56325L12.6191 2.95736L14.4431 2.35147L15.818 2.07178L17.1923 1.79209L19.4424 1.60655L21.6918 1.42102L24.1676 1.62091L26.6428 1.82097L28.2337 2.08222L29.8247 2.34348L31.9468 2.78211L34.0683 3.22057L35.7819 3.74879L37.4962 4.277L38.6108 3.67356L39.726 3.07028L41.1173 2.59804L42.5086 2.12596L44.0343 1.78344L45.5606 1.44093L47.859 1.32866L50.1573 1.21639L52.1907 1.42657L54.2234 1.6369L55.6774 1.95266L57.1313 2.26858L58.4083 1.8523L59.6848 1.43603L61.3743 1.09776L63.0637 0.759646L65.2459 0.482403L67.4275 0.205322H70.1193H72.8105L74.744 0.462005L76.6776 0.718851L78.0036 0.994137L79.3296 1.26942L80.7437 1.73008L82.1584 2.19074L84.0013 3.05707L85.8441 3.92339L87.5571 5.06402L89.2701 6.20482L91.0601 7.90744L92.8507 9.61007L93.7369 10.7877L94.6238 11.9654L94.9951 12.9381L95.367 13.9107L95.6072 15.2372L95.848 16.5635L95.8545 19.139L95.8617 21.7145L95.5967 23.7369L95.3324 25.7594L95.0499 27.1742L94.768 28.5889L94.1624 31.1532L93.5562 33.7174L92.5643 36.8121L91.5724 39.9068L90.1622 43.4438L88.752 46.9807L87.0546 50.4292L85.3573 53.8775L84.5795 55.204L83.8016 56.5302L83.3846 57.3524L82.967 58.1745L84.3315 58.2934L85.6954 58.4121L87.5545 58.2209L89.4137 58.0298L91.002 57.7695L92.5904 57.5091H93.3043H94.0188L94.8071 57.9069L95.5961 58.3048L96.0078 59.1008L96.419 59.8964L96.3309 61.0462L96.2428 62.1958L95.8702 63.1919L95.4982 64.1879L94.642 65.4021L93.7859 66.6165L92.7463 67.6034L91.7068 68.5904L90.9198 69.0872L90.1321 69.584L88.8864 70.1L87.64 70.6159L86.2259 70.9434L84.8111 71.2709L82.7947 71.4898L80.7776 71.7086L78.5171 71.6004L76.256 71.4922L76.1562 72.2376L76.0563 72.983L75.4468 78.1999L74.8373 83.4168L74.4823 85.6308L74.1267 87.8449L73.6673 89.4329L73.2072 91.0212L72.8666 91.7932L72.5253 92.5653L71.7396 93.6668L70.9539 94.7681L69.9966 95.6357L69.0386 96.5032L68.0526 97.0926L67.0659 97.682L65.7725 98.2099L64.4792 98.7378L62.3577 99.2709L60.2362 99.8039L57.7603 99.8701L57.759 99.8639ZM58.5545 97.5275L59.8805 97.4425L61.649 97.0275L63.4168 96.6125L64.8465 96.0086L66.277 95.4047L67.2728 94.7435L68.2686 94.0823L69.1137 93.152L69.9581 92.2218L70.7066 90.7268L71.4551 89.2319L71.8088 87.8098L72.1625 86.3878L72.7674 82.2466L73.3717 78.1054L73.6529 75.9833L73.9342 73.8611L74.1215 71.9158L74.3081 69.9705L74.4034 69.5854L74.4986 69.2003L74.7368 69.1091L74.9744 69.0179L76.179 69.2075L77.3843 69.3971L79.4268 69.2964L81.4687 69.1958L83.3161 68.8249L85.1635 68.4538L85.7821 68.2643L86.4008 68.0747L87.4618 67.617L88.5223 67.1591L89.8483 66.2815L91.1743 65.4039L91.7936 64.8708L92.4122 64.3377L93.0034 63.5822L93.5947 62.8265L93.7421 62.171L93.8903 61.5155L93.6195 60.839L93.3486 60.1626L92.7711 59.8054L92.1936 59.4483H91.1475H90.1015L88.0746 59.8277L86.0471 60.2073L83.8375 60.2259L81.6273 60.2447L80.7828 59.9994L79.9384 59.754L79.8366 59.5885L79.7342 59.423L80.315 58.5074L80.8957 57.592L82.1297 55.4698L83.3631 53.3477L84.8353 50.397L86.3068 47.4462L87.2093 45.3569L88.1118 43.2677L89.246 40.124L90.3808 36.9803L91.1678 34.1456L91.9554 31.3106L92.3091 29.6778L92.6628 28.0451L92.9277 26.0182L93.1933 23.9917L93.3134 21.8669L93.4328 19.7423L93.2162 18.1532L92.9995 16.5642L92.6569 15.1514L92.315 13.7385L91.8836 13.0866L91.4523 12.4347L89.8111 10.7174L88.1692 8.99994L86.5783 7.8642L84.9867 6.7283L83.0414 5.79213L81.0967 4.8558L79.9476 4.48261L78.7984 4.10958L77.1187 3.76462L75.439 3.41949L73.5929 3.20491L71.7461 2.99032L68.5538 3.08334L65.3614 3.17635L63.2399 3.55118L61.1184 3.92584L59.3206 4.38323L57.5235 4.84063L55.6963 4.51574L53.8697 4.19068H50.2448H46.6204L45.3831 4.42158L44.1452 4.65248L43.0848 4.98178L42.0237 5.31108L41.3607 5.59322L40.6977 5.87552V6.04996V6.2244H40.4961H40.2951L39.3952 6.77823L38.4953 7.33207L37.0773 6.87728L35.6586 6.4225L33.9796 5.97587L32.2999 5.52909L30.0896 5.09062L27.8794 4.65199L25.6698 4.44198L23.4596 4.23197L21.0725 4.33869L18.686 4.44524L17.0944 4.72722L15.5035 5.00903L13.9589 5.52419L12.4142 6.03935L11.4837 6.50964L10.5531 6.98009L9.45811 7.75993L8.36376 8.53993L7.48084 9.5058L6.59792 10.4718L5.78939 11.7693L4.98086 13.0667L4.55082 14.1256L4.12078 15.1845L3.67964 16.9382L3.23786 18.6919L2.96182 20.5716L2.68514 22.4511V25.5004V28.5498L2.96182 30.4293L3.23916 32.309L3.94198 35.9342L4.64479 39.5596L5.62494 43.4501L6.60509 47.3407L7.83453 51.2712L9.06331 55.2017L9.83007 57.107L10.5968 59.0125L10.7326 59.4545L10.8677 59.8966L12.2198 62.6377L13.5719 65.3788L14.522 66.7936L15.4728 68.2084L16.7401 69.4648L18.008 70.7212L19.2224 71.3192L20.4369 71.9173L21.7714 71.91L23.1059 71.9026L24.1669 71.3564L25.2274 70.8101L26.0639 70.0722L26.8999 69.3343L28.8041 67.0916L30.7076 64.8486L32.542 62.8149L34.377 60.7812L34.6667 60.4741L34.9564 60.167L36.2805 60.7068L37.6039 61.2467L38.8855 61.4517L40.1672 61.6568V61.7503V61.8438L39.2882 62.9176L38.4092 63.9914L37.5641 64.4431L36.7197 64.8948L34.007 65.5673L31.2943 66.2397L30.5151 66.7344L29.7353 67.2288L29.3829 67.8071L29.0298 68.3856V68.9691V69.5526L29.2863 70.0481L29.5428 70.5436L30.1751 71.0993L30.8081 71.6549L31.492 72.0041L32.1765 72.3533L33.4764 72.7227L34.7763 73.0922L36.8097 73.1927L38.8425 73.2932L40.1267 73.0922L41.411 72.8912L42.5699 72.5106L43.7289 72.1301L45.1123 71.2197L46.4958 70.3093L46.6047 74.8296L46.7144 79.3498L46.8919 82.3313L47.0694 85.3126L47.3363 87.0908L47.6032 88.8688L48.1539 90.4758L48.7053 92.0826L49.0251 92.7225L49.3455 93.3623L50.2363 94.3368L51.127 95.3115L52.3219 96.0331L53.5174 96.7547L54.3128 97.0391L55.1083 97.3234L56.1694 97.4712L57.2298 97.6192L58.5558 97.5342L58.5545 97.5275Z" fill="black"/>
</g>
<defs>
<clipPath id="clip0_29_113">
<rect width="96.4706" height="100" fill="white"/>
</clipPath>
</defs>
</svg>
