<?xml version="1.0" encoding="UTF-8" standalone="no"?>
<!-- Created with Inkscape (http://www.inkscape.org/) -->

<svg
   width="67.664146mm"
   height="67.567078mm"
   viewBox="0 0 67.664146 67.567078"
   version="1.1"
   id="svg5"
   inkscape:version="1.1 (c68e22c387, 2021-05-23)"
   sodipodi:docname="Back to Top.svg"
   xmlns:inkscape="http://www.inkscape.org/namespaces/inkscape"
   xmlns:sodipodi="http://sodipodi.sourceforge.net/DTD/sodipodi-0.dtd"
   xmlns="http://www.w3.org/2000/svg"
   xmlns:svg="http://www.w3.org/2000/svg">
  <sodipodi:namedview
     id="namedview7"
     pagecolor="#ffffff"
     bordercolor="#666666"
     borderopacity="1.0"
     inkscape:pageshadow="2"
     inkscape:pageopacity="0.0"
     inkscape:pagecheckerboard="0"
     inkscape:document-units="mm"
     showgrid="false"
     fit-margin-top="0"
     fit-margin-left="0"
     fit-margin-right="0"
     fit-margin-bottom="0"
     inkscape:zoom="0.72337262"
     inkscape:cx="138.93255"
     inkscape:cy="133.40289"
     inkscape:window-width="1920"
     inkscape:window-height="1001"
     inkscape:window-x="-9"
     inkscape:window-y="-9"
     inkscape:window-maximized="1"
     inkscape:current-layer="layer1" />
  <defs
     id="defs2" />
  <g
     inkscape:label="Layer 1"
     inkscape:groupmode="layer"
     id="layer1"
     transform="translate(-68.221733,-113.21332)">
    <path
       style="fill:#000000;stroke-width:0.264583"
       d="m 97.153236,180.54001 c -10.92703,-1.58759 -20.361906,-8.4175 -25.37247,-18.36715 -4.157974,-8.25664 -4.703173,-18.2274 -1.47488,-26.97303 5.09591,-13.80512 18.95694,-22.82091 33.708384,-21.92534 12.32597,0.74832 22.82767,7.71021 28.39621,18.82467 4.63498,9.25112 4.63376,20.59209 -0.003,29.87556 -4.73593,9.48159 -13.23862,16.061 -23.61236,18.27134 -2.6335,0.56112 -8.74132,0.71534 -11.641674,0.29395 z m -9.72231,-22.12599 c 0.23147,0 3.61502,-3.18 7.51898,-7.06666 l 7.098124,-7.06667 7.0776,7.03107 c 7.49597,7.44669 7.81639,7.68307 9.45879,6.9779 0.4366,-0.18745 2.01421,-1.58811 3.5058,-3.11258 2.60517,-2.6626 2.71198,-2.81742 2.71198,-3.93099 v -1.15923 l -10.78538,-10.78538 -10.78538,-10.78537 h -1.18341 -1.18341 L 90.079236,139.30148 79.29386,150.08686 v 1.15923 c 0,1.1136 0.106751,1.26832 2.711979,3.93063 2.624517,2.68202 3.917147,3.61566 4.651847,3.35995 0.1938,-0.0675 0.54176,-0.12265 0.77324,-0.12265 z"
       id="path21" />
  </g>
</svg>
