<svg width="118" height="55" viewBox="0 0 118 55" fill="none" xmlns="http://www.w3.org/2000/svg">
<g clip-path="url(#clip0_29_123)">
<path d="M29.4016 54.9763L27.1966 54.9554L25.7549 54.8113L24.3131 54.6672L22.634 54.3163L20.955 53.9653L19.4115 53.4662L17.8677 52.9671L16.0869 52.125L14.3058 51.2832L12.3551 50.0007L10.4046 48.7182L8.19531 46.5225L5.98601 44.3268L4.8463 42.6328L3.70659 40.939L2.9519 39.4392L2.19752 37.9396L1.69418 36.582L1.19084 35.2244L0.71505 33.2203L0.239258 31.2163V27.6024V23.9886L0.615509 22.2903L0.992074 20.592L1.42749 19.2648L1.86259 17.9376L3.03641 15.5844L4.20993 13.2312L5.31583 11.7595L6.42174 10.2878L7.73517 8.92558L9.0483 7.56321L10.3226 6.54391L11.5966 5.52446L12.8687 4.70943L14.1408 3.89439L15.8371 3.07207L17.533 2.24959L18.9883 1.7463L20.4435 1.24301L22.3933 0.809668L24.3431 0.376327L26.5778 0.219214L28.8128 0.0622559L31.0474 0.219214L33.2818 0.376327L35.3302 0.788885L37.3783 1.20129L38.9897 1.71962L40.6008 2.23811L43.1451 3.48835L45.6893 4.73858L47.1865 5.80844L48.6833 6.87846L50.2945 8.26859L51.9059 9.65888L53.4384 11.3609L54.971 13.0633L56.7352 15.3928L58.4994 17.7224L58.6671 17.9981L58.8346 18.2737L59.0021 17.9981L59.1699 17.7224L60.9319 15.3863L62.6939 13.0502L64.3388 11.2452L65.9834 9.44004L67.4994 8.14886L69.0156 6.85752L70.4978 5.79805L71.9799 4.73858L74.5242 3.48835L77.0684 2.23811L78.6795 1.71962L80.291 1.20129L82.3391 0.788885L84.3875 0.376327L86.6218 0.219214L88.8562 0.0622559L90.9525 0.209443L93.0484 0.35663L94.8114 0.710406L96.574 1.06418L98.3551 1.65153L100.136 2.23889L101.85 3.07176L103.564 3.90463L104.988 4.84638L106.412 5.78813L107.538 6.69808L108.664 7.60803L109.956 8.94792L111.247 10.2878L112.353 11.7595L113.459 13.2312L114.633 15.5844L115.807 17.9376L116.241 19.2628L116.676 20.5881L117.024 22.2042L117.371 23.8205L117.47 26.4483L117.569 29.0761L117.36 30.7344L117.151 32.3928L116.669 34.2532L116.187 36.1138L115.467 37.7761L114.747 39.4384L113.991 40.7719L113.234 42.1056L111.994 43.7365L110.754 45.3673L108.945 47.0791L107.136 48.7909L105.247 50.0371L103.359 51.2832L101.578 52.1193L99.7969 52.9554L98.2659 53.4576L96.7352 53.9598L95.0433 54.3099L93.3514 54.66L91.5948 54.8299L89.8384 55.0001H87.9838H86.1294L84.4823 54.8208L82.8352 54.6413L81.2394 54.3015L79.6436 53.9617L77.9474 53.3767L76.2511 52.7915L74.7092 52.0269L73.1672 51.2622L71.8103 50.3883L70.4533 49.5143L68.9267 48.2492L67.4001 46.9842L66.0391 45.5714L64.6781 44.1586L63.391 42.5618L62.1038 40.965L60.6285 38.8728L59.1533 36.7807L58.9939 36.5197L58.8346 36.2588L58.6753 36.5197L58.516 36.7807L57.0407 38.8728L55.5651 40.965L54.3149 42.5151L53.0647 44.065L51.5202 45.666L49.9755 47.2671L48.426 48.5093L46.8766 49.7513L45.6261 50.5483L44.3755 51.3452L42.4883 52.2304L40.6008 53.1155L38.9897 53.6206L37.3783 54.1258L36.0213 54.3927L34.6644 54.6596L33.1378 54.8285L31.6112 54.9973L29.4016 54.9763ZM29.5756 45.3974L31.4459 45.4191L32.8833 45.2449L34.3204 45.0708L35.5077 44.7527L36.6949 44.4344L37.8794 43.9078L39.0639 43.3811L40.4396 42.4738L41.8157 41.5665L43.4662 40.0185L45.1171 38.4705L46.5611 36.6921L48.005 34.9139L50.2544 31.5522L52.5038 28.1905L52.8052 27.6692L53.1063 27.1479L51.7926 25.1479L50.4791 23.148L48.7691 20.8789L47.0594 18.6097L45.0097 16.5928L42.9601 14.5758L41.6056 13.6207L40.2512 12.6657L38.8971 11.9779L37.5432 11.2899L35.9747 10.7906L34.4061 10.2912L32.8366 10.0389L31.2675 9.78668H28.8691H26.4707L25.0866 10.0469L23.7024 10.307L22.5661 10.6523L21.4295 10.9975L19.9295 11.7333L18.4295 12.4691L17.307 13.2629L16.1846 14.0565L15.0627 15.1572L13.9411 16.2579L13.2359 17.2132L12.5307 18.1684L11.9297 19.2522L11.3283 20.3361L10.836 21.6738L10.3433 23.0116L10.0772 24.4016L9.81082 25.7917V27.5195V29.2473L10.0675 30.587L10.3239 31.9268L10.7436 33.1499L11.1634 34.373L11.857 35.6525L12.5504 36.9322L13.4935 38.1573L14.4366 39.3824L15.4737 40.3229L16.5107 41.2633L17.9747 42.2241L19.439 43.1851L20.8777 43.7819L22.3163 44.3787L23.739 44.7319L25.1617 45.085L26.4335 45.231L27.7053 45.3768L29.5756 45.3974ZM29.4864 29.4513H20.836V26.762V24.0727H29.4864H38.1367V26.762V29.4513H29.4864ZM87.5797 45.3966L89.4456 45.4163L90.9722 45.2465L92.4985 45.0765L93.9402 44.7232L95.382 44.3697L96.8279 43.7532L98.2737 43.1367L99.7114 42.1996L101.149 41.2625L102.203 40.3067L103.257 39.3506L104.241 38.0568L105.224 36.7628L105.925 35.4182L106.627 34.0735L107.053 32.7247L107.48 31.3762L107.688 29.9654L107.896 28.5546L107.799 26.6077L107.702 24.6608L107.361 23.3707L107.021 22.0804L106.48 20.7924L105.939 19.5043L104.964 18.0323L103.988 16.5604L102.738 15.3094L101.488 14.0585L100.359 13.2632L99.2303 12.4677L97.7165 11.7223L96.2028 10.977L94.7748 10.5676L93.3468 10.1581L92.0327 9.94876L90.7189 9.73937L87.7925 9.82995L84.8658 9.92037L83.1698 10.3567L81.4736 10.7929L80.2014 11.3024L78.9293 11.8119L77.6221 12.6054L76.3153 13.3992L74.9405 14.4779L73.5657 15.5567L72.0266 17.1673L70.4878 18.7778L68.8341 20.963L67.1807 23.148L65.867 25.1479L64.5535 27.1479L64.8531 27.6692L65.1526 28.1905L67.4011 31.5522L69.6492 34.9139L71.096 36.6921L72.5427 38.4705L74.1933 40.0185L75.8439 41.5665L77.2359 42.4842L78.6279 43.4019L79.7472 43.9051L80.8669 44.408L82.103 44.7429L83.3395 45.0776L84.5268 45.2271L85.7141 45.3766L87.5797 45.3966ZM87.5797 34.9981H84.62L84.5734 32.3508L84.5265 29.7035L81.8551 29.6571L79.1838 29.6107V26.6735V23.7363H81.8974H84.6113V21.1311V18.5256H87.5797H90.548V21.1311V23.7363H93.1768H95.8059V26.6733V29.6104L93.2194 29.6568L90.6326 29.7031L90.5859 32.3505L90.539 34.9978L87.5797 34.9981Z" fill="#00FFFF"/>
</g>
<defs>
<clipPath id="clip0_29_123">
<rect width="118" height="55" fill="white"/>
</clipPath>
</defs>
</svg>
