<svg width="92" height="100" viewBox="0 0 92 100" fill="none" xmlns="http://www.w3.org/2000/svg">
<g clip-path="url(#clip0_29_138)">
<rect x="19.708" y="23.3577" width="66.4233" height="54.0146" fill="white"/>
<path d="M45.4692 99.9918H45.0288V99.8709V99.75L44.9145 99.8206L44.8002 99.8911L44.7985 99.7417L44.7968 99.5923L44.6984 99.7474L44.6 99.9025L44.1377 99.8245L43.6753 99.7465L43.6078 99.5707L43.5403 99.395L43.2456 99.4512L42.951 99.5075L42.5656 99.3894L42.1803 99.2712L42.2391 99.1762L42.2978 99.0812L42.1017 99.1564L41.9056 99.2315L41.9992 99.0803L42.0927 98.9292L41.9586 99.012L41.8245 99.0948L40.853 98.5658L39.8814 98.0368L39.9585 97.9123L40.0356 97.7877L39.9139 97.8628L39.7923 97.9379L39.6112 97.8685L39.4301 97.7991L39.5043 97.6793L39.5784 97.5594L39.4574 97.6341L39.3364 97.7088L38.6121 97.2999L37.8878 96.891L37.8029 96.7577L37.718 96.6244L37.7163 96.713L37.7146 96.8015L37.3717 96.6244L37.0288 96.4474V96.3865V96.3256L37.1431 96.3962L37.2574 96.4667V96.3386V96.2106L37.0574 96.2309L36.8574 96.2512L36.7078 96.2382L36.5582 96.2253L36.628 96.1124L36.6979 95.9996L36.5406 96.0598L36.3833 96.1201L36.0578 95.8017L35.7322 95.4833L35.8264 95.643L35.9205 95.8026L35.4507 95.5389L34.981 95.2753L35.0394 95.1808L35.0978 95.0864L34.9017 95.1616L34.7056 95.2368L34.7874 95.1045L34.8693 94.9722L34.6732 95.0474L34.477 95.1226L34.5517 95.0019L34.6264 94.8813L34.4276 94.8968L34.2288 94.9124L34.2602 94.7612L34.2916 94.61L34.1779 94.6802L34.0641 94.7504L33.7179 94.5716L33.3717 94.3928V94.3319V94.271L33.5036 94.3525L33.6356 94.4339L33.5529 94.3003L33.4702 94.1666L33.3741 94.2259L33.278 94.2853L33.0969 94.2158L32.9158 94.1464L32.9711 94.0572L33.0264 93.9679L32.8276 93.9834L32.6288 93.9989L32.6602 93.8478L32.6916 93.6966L32.5848 93.7625L32.478 93.8284L32.2969 93.7591L32.1158 93.6897L32.19 93.5699L32.2641 93.45L32.1371 93.5284L32.01 93.6069L31.3765 93.2498L30.7431 92.8927V92.7324V92.5721H30.6221H30.501L30.5769 92.6947L30.6527 92.8173L30.1836 92.5782L29.7145 92.3392V92.2777V92.2162L29.8465 92.2976L29.9784 92.3791L29.8999 92.2523L29.8215 92.1255L29.6537 92.1898L29.4859 92.2541V92.0707V91.8872H29.3649H29.2439L29.325 92.0184L29.4062 92.1495L28.9364 91.8858L28.4667 91.6221L28.5368 91.5087L28.607 91.3954L28.4753 91.4767L28.3435 91.558L28.0067 91.3592L27.6698 91.1605L27.7384 91.0497L27.807 90.9388L27.6784 91.0182L27.5498 91.0976L27.2036 90.9187L26.8573 90.7399V90.6791V90.6182L26.9893 90.6996L27.1212 90.781L27.0385 90.6474L26.9558 90.5138L26.8462 90.5814L26.7366 90.6491L25.7728 90.1087L24.8089 89.5684L24.8794 89.4546L24.9498 89.3407L24.8206 89.4205L24.6915 89.5002L24.2324 89.2384L23.7734 88.9765L23.7635 88.8053L23.7536 88.6341L23.6963 88.7759L23.6389 88.9176L23.4164 88.7987L23.1938 88.6797L23.2601 88.5726L23.3264 88.4655L23.1302 88.5406L22.9341 88.6158L23.0277 88.4646L23.1212 88.3134L22.9895 88.3948L22.8578 88.4761L22.4001 88.2034L21.9424 87.9308L22.0284 87.8362L22.1145 87.7414L21.9719 87.8234L21.8292 87.9054L21.4924 87.7066L21.1555 87.5079L21.2241 87.3969L21.2927 87.2861L21.1602 87.3679L21.0278 87.4497L20.5758 87.1959L20.1238 86.9421L20.1781 86.8543L20.2325 86.7665L20.1163 86.6947L20.0002 86.6231V86.748V86.8729L19.7684 86.749L19.5366 86.6251L19.6146 86.499L19.6926 86.373L19.571 86.4481L19.4494 86.5231L19.2581 86.4498L19.0667 86.3765L19.2192 86.2707L19.3716 86.165L19.123 86.2346L18.8743 86.3041L18.7596 86.0993L18.6448 85.8946L18.5796 85.9231L18.5144 85.9516H18.3934H18.2724L18.3539 85.8197L18.4355 85.688L18.3139 85.7631L18.1922 85.8381L18.0111 85.7687L17.83 85.6993L17.8853 85.61L17.9405 85.5207L17.7418 85.5362L17.543 85.5518L17.5744 85.4006L17.6058 85.2494L17.4921 85.3197L17.3783 85.3899L17.0321 85.2111L16.6859 85.0323V84.9714V84.9106L16.8001 84.9811L16.9144 85.0516V84.9441V84.8365L16.6857 84.7767L16.457 84.717L16.5339 84.8413L16.6108 84.9655L15.8197 84.5275L15.0287 84.0894L14.8294 83.9543L14.6302 83.8191L14.7117 83.7377L14.7932 83.6563L14.5779 83.7389L14.3626 83.8213L14.4445 83.6891L14.5263 83.5568L14.3742 83.6152L14.2222 83.6734L13.9969 83.4912L13.7716 83.309L13.9321 83.3922L14.0926 83.4754L14.0099 83.3417L13.9272 83.2081L13.8209 83.2737L13.7147 83.3392L13.1514 83.023L12.5881 82.7068L12.6546 82.5992L12.7212 82.4917L12.6021 82.5652L12.483 82.6387L11.732 82.2218L10.9811 81.8049L11.0511 81.6917L11.1211 81.5785L10.9916 81.6585L10.862 81.7385L10.6311 81.615L10.4001 81.4916V81.3244V81.1572H10.2791H10.158L10.2339 81.2797L10.3097 81.4023L9.84062 81.1633L9.37153 80.9243V80.8655V80.8067L9.62868 80.9312L9.88582 81.0557L9.66053 80.8756L9.43524 80.6956L9.29047 80.7511L9.1457 80.8066L9.17291 80.6822L9.20013 80.5579L9.04136 80.5003L8.8826 80.4427L8.97291 80.5886L9.06322 80.7346L8.59346 80.4709L8.1237 80.2072L8.18214 80.1128L8.24057 80.0184L8.04445 80.0935L7.84834 80.1687L7.94189 80.0175L8.03544 79.8663L7.91879 79.9383L7.80214 80.0104L7.15827 79.662L6.5144 79.3137V79.2585V79.2032L6.62868 79.2738L6.74297 79.3444V79.2162V79.0882L6.54297 79.1085L6.34297 79.1288L6.19337 79.1158L6.04376 79.1029L6.10642 79.0016L6.16908 78.9004L5.97031 78.9159L5.77154 78.9314L5.80294 78.7802L5.83434 78.6291L5.71689 78.7016L5.59943 78.7741L5.03169 78.4655L4.46394 78.1569L4.53539 78.0414L4.60684 77.9259L4.47813 78.0054L4.34941 78.0848L4.06144 77.8964L3.77348 77.7079L3.83558 77.6076L3.89768 77.5073L3.74167 77.567L3.58567 77.6268L3.36431 77.366L3.14295 77.1051L3.40009 77.3226L3.65723 77.54V77.4204V77.3008L3.45723 77.2142L3.25723 77.1277L3.10362 77.0966L2.95 77.0651L2.62143 76.6976L2.29286 76.33L2.34522 76.2454L2.39757 76.1608L2.19882 76.0052L2.00009 75.8496L2.16954 76.0778L2.339 76.3061L2.0798 76.085L1.82059 75.8639L1.87765 75.7155L1.93471 75.5669L1.79597 75.5941L1.65722 75.6212L1.65593 75.4295L1.65463 75.2379L1.55205 75.1442L1.44947 75.0505L1.53168 75.1932L1.6139 75.3359H1.5613H1.50869L1.26222 74.9187L1.01574 74.5014L1.16521 74.4067L1.31469 74.3121H1.11827H0.921855L0.994837 74.1221L1.06781 73.9322L0.942333 74.0096L0.816853 74.0871L0.744108 73.8582L0.671357 73.6293L0.753533 73.4964L0.835717 73.3637L0.707119 73.443L0.578529 73.5223L0.507273 73.2389L0.436018 72.9553L0.521576 72.817L0.60714 72.6788L0.489109 72.7516L0.371077 72.8245L0.305272 72.4958L0.239461 72.1672L0.293448 71.7272L0.347441 71.2872L0.239092 71.5155L0.130742 71.7438L0.122707 71.2016L0.114673 70.6594H0.228961H0.343249V50.0561V29.4528H0.228961H0.114673L0.128198 28.8535L0.141716 28.2543L0.238149 28.5967L0.334589 28.9391L0.279574 28.3529L0.224552 27.7667L0.398185 27.7002L0.571813 27.6336L0.563778 27.3732L0.555744 27.1128L0.457524 27.3411L0.359305 27.5694L0.351271 27.4685L0.343236 27.3676L0.47561 26.9263L0.607984 26.485H0.685138H0.762286V26.3263V26.1675L0.91268 25.8049L1.06307 25.4423L1.17108 25.5927L1.27909 25.7431L1.21401 25.5414L1.14893 25.3397L1.35602 24.9996L1.56311 24.6595L1.65721 24.7447L1.75132 24.8299L1.67646 24.6991L1.60161 24.5683L1.83828 24.2996L2.07495 24.0309L1.99144 24.1912L1.90793 24.3515L2.04173 24.2689L2.17554 24.1863L2.10538 24.0729L2.03523 23.9595L2.72496 23.2706L3.4147 22.5817L3.55378 22.6676L3.69286 22.7535L3.61904 22.6342L3.54522 22.5149L3.84403 22.3193L4.14283 22.1238L4.06568 22.2484L3.98853 22.3731L4.16228 22.3065L4.33603 22.24L4.31107 22.1081L4.2861 21.9762L4.48487 21.9918L4.68364 22.0073L4.63394 21.927L4.58424 21.8466L4.92112 21.6479L5.258 21.4491L5.40063 21.5311L5.54325 21.6131L5.45826 21.5194L5.37327 21.4257L5.60132 21.2662L5.82937 21.1067L5.96111 21.188L6.09285 21.2693L5.99931 21.1181L5.90576 20.9669L6.10187 21.0421L6.29798 21.1173L6.22816 21.0044L6.15834 20.8916L6.30794 20.8787L6.45754 20.8653L6.65755 20.8856L6.85754 20.9058V20.7778V20.6497L6.71468 20.7303L6.57183 20.8108L6.68611 20.7003L6.8004 20.5898L8.26295 19.767L9.72549 18.9442L9.85204 19.0223L9.97859 19.1004L9.90444 18.9806L9.8303 18.8608L10.0114 18.7914L10.1925 18.722L10.2886 18.7813L10.3846 18.8406L10.4673 18.7069L10.55 18.5733L10.4181 18.6548L10.2861 18.7362V18.6753V18.6145L10.6324 18.4356L10.9786 18.2568L11.1181 18.3369L11.2576 18.4169L11.1726 18.3232L11.0876 18.2296L11.3156 18.07L11.5437 17.9105L11.6754 17.9918L11.8072 18.0731L11.7136 17.9219L11.6201 17.7708L11.8162 17.846L12.0123 17.9211L11.9554 17.8292L11.8986 17.7373L12.2355 17.5386L12.5723 17.3398L12.704 17.4211L12.8358 17.5024L12.7616 17.3826L12.6875 17.2628L12.8686 17.1934L13.0496 17.1239L13.1457 17.1833L13.2418 17.2425L13.3245 17.1089L13.4072 16.9753L13.2752 17.0567L13.1433 17.1382V17.0784V17.0186L13.3857 16.8891L13.628 16.7595L13.5412 16.8999L13.4543 17.0402L13.6131 16.9826L13.7719 16.9249L13.7492 16.8142L13.7265 16.7035L14.1773 16.4505L14.628 16.1975L14.7605 16.2792L14.8929 16.361L14.8227 16.2476L14.7526 16.1342L15.2223 15.8705L15.6921 15.6068L15.6018 15.7528L15.5115 15.8987L15.6702 15.8411L15.829 15.7835L15.8011 15.6571L15.7732 15.5307L16.2336 15.2961L16.694 15.0614L16.7965 15.1247L16.8989 15.1879L16.9816 15.0543L17.0643 14.9207L16.9324 15.0021L16.8004 15.0836V15.0227V14.9618L17.1467 14.783L17.4929 14.6042L17.6215 14.6836L17.7501 14.7629L17.6815 14.6521L17.6129 14.5412L17.9498 14.3425L18.2866 14.1437L18.4183 14.225L18.5501 14.3063L18.4815 14.1955L18.4129 14.0846L18.7392 13.8921L19.0656 13.6996L19.2187 13.7384L19.3719 13.7772L19.2734 13.7251L19.1749 13.673L19.7305 13.3457L20.2862 13.0185L20.4254 13.0691L20.5646 13.1198L20.643 12.993L20.7215 12.8662L20.5896 12.9476L20.4576 13.0291V12.9682V12.9073L20.813 12.7238L21.1685 12.5402L21.0928 12.6625L21.0172 12.7847L21.1939 12.717L21.3706 12.6493L21.3203 12.568L21.2701 12.4868L21.6069 12.288L21.9438 12.0893L22.0755 12.1706L22.2072 12.2519L22.1386 12.1411L22.0701 12.0302L22.4069 11.8314L22.7438 11.6327L22.8755 11.714L23.0072 11.7953L22.9407 11.6878L22.8741 11.5802L23.4374 11.2639L24.0007 10.9477L24.1326 11.0291L24.2644 11.1104L24.1858 10.9835L24.1073 10.8566L24.4253 10.6961L24.7434 10.5357L24.9021 10.592L25.0609 10.6482L24.9925 10.5376L24.9241 10.4271L25.3938 10.1634L25.8636 9.89971L25.7705 10.0594L25.6774 10.2191L25.9861 9.8946L26.2949 9.57014L26.4679 9.63644L26.641 9.7028L26.5785 9.6019L26.5161 9.50105L26.6972 9.43164L26.8783 9.36223L26.9831 9.4269L27.0878 9.49157L27.1544 9.31825L27.221 9.14489L27.8679 8.78283L28.5148 8.42077L29.0216 8.1267L29.5284 7.83268L29.4435 7.97002L29.3585 8.10732H29.4795H29.6005V7.93911V7.7708L29.956 7.58721L30.3114 7.40363L30.2258 7.54203L30.1401 7.68043L30.2989 7.62276L30.4577 7.5652L30.4298 7.4387L30.4019 7.31231L30.8556 7.08112L31.3093 6.84993L31.3978 6.87926L31.4863 6.9086L31.7522 6.64296L32.0182 6.37733L32.1867 6.44189L32.3553 6.50646L32.2984 6.41461L32.2415 6.32272L32.5784 6.12397L32.9153 5.92516L33.0302 5.99605L33.145 6.06698L33.2133 5.88919L33.2816 5.7114L33.384 5.77455L33.4863 5.83769V5.71972V5.60181L33.8006 5.44329L34.1148 5.28483L34.2472 5.33223L34.3796 5.37973L34.4649 5.24191L34.5502 5.10409L34.4182 5.18551L34.2863 5.26698V5.2061V5.14522L34.6325 4.96643L34.9787 4.78758L35.1073 4.86695L35.2359 4.94636L35.1673 4.83551L35.0987 4.72465L35.4356 4.5259L35.7725 4.32715L35.9042 4.40846L36.0359 4.48972L35.9644 4.37428L35.893 4.25885L36.4607 3.95019L37.0285 3.64158L37.1352 3.70746L37.2419 3.77334L37.3246 3.63968L37.4073 3.50608L37.2754 3.5875L37.1434 3.66891V3.60803V3.54716L37.4897 3.36836L37.8359 3.18952L37.9645 3.26894L38.093 3.3483L38.0244 3.23728L37.9557 3.12632L38.6956 2.70128L39.4356 2.27623L39.5752 2.35633L39.7149 2.43644L39.6278 2.34069L39.5407 2.2449L40.0688 1.93682L40.597 1.62869L40.8417 1.68177L41.0863 1.7348L40.9313 1.625L40.7762 1.51525L40.9027 1.43715L41.0292 1.35905L41.1611 1.44052L41.2931 1.52199L41.2219 1.40687L41.1506 1.29175L41.44 1.16004L41.7295 1.02838L41.6491 1.15819L41.5688 1.28801L41.7276 1.23045L41.8863 1.17278L41.8578 1.04439L41.8292 0.915943L41.9435 0.898722L42.0578 0.881449L42.2006 0.870231L42.3435 0.859014L42.4945 0.716349L42.6456 0.573632H42.7802H42.9149L42.7435 0.684225L42.5721 0.794923H42.7721H42.9721V0.623662V0.452507H43.1342H43.2962L43.5056 0.384624L43.7149 0.316794L43.5435 0.439973L43.3721 0.563099H43.5599H43.7476L43.8182 0.379515L43.8887 0.195984L44.2795 0.241591L44.6704 0.287144L44.609 0.187979L44.5476 0.0888672L45.984 0.133052L47.4203 0.177236L47.6338 0.370194L47.8473 0.563099H48.0097H48.1721L48.0007 0.439973L47.8293 0.316794L48.0399 0.385098L48.2505 0.453455L48.5248 0.522233L48.7991 0.590958L48.724 0.712347L48.6489 0.833683L48.8391 0.76085L49.0293 0.687911L49.2 0.753424L49.3708 0.818832L49.3084 0.919735L49.246 1.02058L49.4086 0.958284L49.5712 0.895931L49.6395 1.07372L49.7078 1.25146H49.8543H50.0007L49.8293 1.14087L49.6578 1.03022H49.7721H49.8864L50.2016 1.23782L50.5168 1.44542L50.4538 1.5083L50.3908 1.57118L50.5731 1.64106L50.7554 1.71095L50.6751 1.58113L50.5947 1.45132L51.0645 1.715L51.5343 1.97869L51.4641 2.09207L51.394 2.2054L51.5257 2.12409L51.6574 2.04283L51.9943 2.24158L52.3311 2.44033L52.2743 2.53223L52.2174 2.62413L52.3662 2.56978L52.515 2.51543L53.0706 2.84268L53.6263 3.16993L53.5278 3.22207L53.4293 3.27415L53.5804 3.23623L53.7316 3.19826L53.9519 3.31596L54.1722 3.43377V3.60092V3.76813H54.2932H54.4142L54.3331 3.637L54.2519 3.50587L54.7217 3.76955L55.1914 4.03324L55.1213 4.14662L55.0511 4.26L55.1828 4.17869L55.3145 4.09738L55.6514 4.29618L55.9883 4.49494L55.9197 4.60574L55.8511 4.71659L55.9797 4.63718L56.1083 4.55787L56.4545 4.73666L56.8007 4.91545V4.97633V5.03721L56.6865 4.96669L56.5722 4.89612V5.0242V5.15228L56.7722 5.132L56.9722 5.11173L57.1218 5.12463L57.2714 5.13758L57.1898 5.2694L57.1083 5.40116L57.2336 5.3238L57.359 5.24639L58.6159 5.95455L59.8727 6.66266L59.8661 6.72764L59.8594 6.79274L59.8747 6.90686L59.89 7.02098L59.9807 6.87831L60.0714 6.73565L60.2933 6.91534L60.5151 7.09502L60.3546 7.01187L60.1941 6.92866L60.2775 7.06343L60.3609 7.19824L60.4951 7.18186L60.6294 7.16549L60.8008 7.18055L60.9722 7.19566L60.8008 7.31884L60.6294 7.44202L60.8266 7.37883L61.0239 7.31558L61.7409 7.71924L62.458 8.12285L62.4963 8.22897L62.5346 8.33503L62.635 8.2731L62.7353 8.21111L62.9967 8.47217L63.258 8.73316L63.3471 8.70341L63.4363 8.6736L63.7757 8.84892L64.1151 9.02418V9.08506V9.14594L63.9832 9.06452L63.8512 8.98305L63.9346 9.11787L64.0181 9.25269L64.1523 9.23626L64.2865 9.21988L64.458 9.23499L64.6294 9.25005L64.458 9.36997L64.2865 9.48983L64.5151 9.42979L64.7437 9.36976L65.172 9.63186L65.6003 9.89392L65.5183 9.97581L65.4364 10.0576L65.6241 9.98571L65.8117 9.91382L66.0491 10.1509L66.2866 10.388V10.3269V10.2658L66.5151 10.388L66.7437 10.5102V10.6774V10.8446H66.8647H66.9858L66.9099 10.7221L66.8341 10.5995L67.3032 10.8385L67.7723 11.0776V11.139V11.2005L67.6403 11.1191L67.5084 11.0377L67.5911 11.1713L67.6738 11.3049L67.7768 11.2413L67.8799 11.1777L68.2546 11.3659L68.6294 11.5541L68.8393 11.7986L69.0493 12.0432L68.9696 11.8911L68.89 11.7389L69.2454 11.9225L69.6009 12.1061V12.2743V12.4427H69.7219H69.8429L69.7671 12.3201L69.6913 12.1976L70.1603 12.4365L70.6294 12.6756V12.7371V12.7986L70.4975 12.7171L70.3655 12.6357L70.444 12.7625L70.5225 12.8892L70.6902 12.825L70.858 12.7607V12.9441V13.1275H70.979H71.1001L71.0189 12.9964L70.9378 12.8653L71.4075 13.129L71.8773 13.3926L71.8071 13.506L71.737 13.6194L71.8687 13.5381L72.0004 13.4568L72.3373 13.6555L72.6742 13.8543L72.6056 13.9651L72.537 14.076L72.6656 13.9966L72.7942 13.9172L73.1404 14.0961L73.4866 14.2748V14.3357V14.3966L73.3547 14.3152L73.2227 14.2337L73.3054 14.3674L73.3881 14.501L73.4842 14.4417L73.5803 14.3824L73.7613 14.4518L73.9424 14.5212L73.8683 14.641L73.7941 14.7608L73.9258 14.6795L74.0576 14.5982L74.3944 14.797L74.7313 14.9957L74.6627 15.1066L74.5941 15.2174L74.7237 15.1374L74.8533 15.0575L75.0842 15.1809L75.3152 15.3043V15.4715V15.6387H75.4362H75.5572L75.4768 15.5087L75.3963 15.3787L75.9762 15.7042L76.5561 16.0298L76.5357 16.1339L76.5152 16.238L76.674 16.2957L76.8327 16.3532L76.7459 16.213L76.6591 16.0727L77.1208 16.3381L77.5825 16.6035L77.5169 16.7094L77.4513 16.8154L77.5764 16.7383L77.7015 16.661L78.0508 16.8732L78.4001 17.0854L78.3148 17.1794L78.2295 17.2734L78.3721 17.1914L78.5147 17.1095L78.8516 17.3082L79.1885 17.507L79.1316 17.5989L79.0748 17.6908L79.2236 17.6351L79.3724 17.5794L79.7152 17.8069L80.0581 18.0343H79.9505H79.843L80.0648 18.2019L80.2866 18.3695L80.3942 18.3737L80.5018 18.3781L80.2799 18.2013L80.0581 18.0246L80.4295 18.2043L80.8009 18.384V18.4448V18.5057L80.669 18.4242L80.537 18.3428L80.6234 18.4823L80.7098 18.6219L80.8683 18.5612L81.0268 18.5005L80.9995 18.6247L80.9723 18.7491L81.1311 18.8066L81.2899 18.8643L81.2031 18.724L81.1163 18.5838L81.578 18.8491L82.0396 19.1145L81.9741 19.2205L81.9085 19.3265L82.0402 19.2452L82.1719 19.1639L82.5088 19.3627L82.8456 19.5614L82.7888 19.6533L82.7319 19.7452L82.928 19.6701L83.1241 19.5949L83.0423 19.7271L82.9605 19.8594L83.1126 19.8011L83.2646 19.7428L83.4899 19.925L83.7152 20.1072L83.5547 20.0241L83.3942 19.9408L83.4726 20.0677L83.5511 20.1944L83.7376 20.123L83.9241 20.0515L83.8306 20.2026L83.737 20.3538L83.8587 20.2787L83.9803 20.2037L84.1614 20.2731L84.3425 20.3425L84.2683 20.4623L84.1942 20.5821L84.3259 20.5008L84.4577 20.4194L84.6857 20.579L84.9138 20.7385L84.8323 20.82L84.7508 20.9014L84.9429 20.8277L85.1351 20.754L85.4439 21.0785L85.7526 21.4029L85.6695 21.2594L85.5864 21.1158L85.8758 21.2475L86.1652 21.3792L86.1129 21.4638L86.0605 21.5484L86.2593 21.5329L86.4581 21.5173L86.4267 21.6685L86.3953 21.8197L86.5165 21.7449L86.6377 21.67L87.205 22.0336L87.7724 22.3972V22.5443V22.6914L87.9724 22.778L88.1724 22.8645L88.326 22.896L88.4796 22.9275L88.8082 23.295L89.1367 23.6626L89.0655 23.7778L88.9942 23.893L89.1109 23.8209L89.2276 23.7489L89.4255 23.9673L89.6234 24.1857L89.5532 24.2991L89.4829 24.4126L89.6168 24.4952L89.7506 24.5778L89.6581 24.4283L89.5657 24.2789L89.6973 24.3602L89.8291 24.4415L90.2819 25.2606L90.7348 26.0796L90.6698 26.3384L90.6048 26.5971H90.7886H90.9724V26.7019V26.8067L91.049 27.006L91.1255 27.2053L90.9918 27.1227L90.8581 27.0402V27.1489V27.2575L91.042 27.328L91.226 27.3985L91.1521 27.8253L91.0782 28.2522L91.195 28.0809L91.3118 27.9098L91.3135 28.1666L91.3152 28.4234H91.1832H91.0512L91.2404 28.6321L91.4295 28.8409V50.0725V71.3042L91.3608 71.3727L91.2922 71.4413L91.2589 71.9694L91.2256 72.4975L91.025 72.644L90.8244 72.7906L90.8892 73.0652L90.954 73.3398L90.7512 73.8461L90.5484 74.3525L90.4757 74.1886L90.403 74.0247L90.465 74.2756L90.5269 74.5266L90.3211 74.7417L90.1152 74.9568L90.0785 75.1143L90.0419 75.2717L89.6579 75.7941L89.274 76.3164L88.6373 76.9179L88.0005 77.5193L87.8943 77.4538L87.7881 77.3882L87.7054 77.5219L87.6227 77.6555L87.7832 77.5709L87.9438 77.4863L87.6581 77.7225L87.3723 77.9586L87.2331 77.9086L87.0939 77.8585L87.0155 77.9853L86.937 78.1121L87.0975 78.0289L87.258 77.9457L87.0327 78.1279L86.8075 78.3102L86.6554 78.2519L86.5033 78.1936L86.5617 78.288L86.6202 78.3824L86.1504 78.6462L85.6807 78.9098L85.7748 78.7502L85.8689 78.5905L85.5434 78.9089L85.2178 79.2273L85.0606 79.1671L84.9033 79.1067L84.9731 79.2196L85.0429 79.3324L84.8933 79.3458L84.7437 79.3592L84.6095 79.3427L84.4753 79.3264L84.3918 79.4612L84.3084 79.596L84.4404 79.5145L84.5723 79.4331V79.494V79.5548L84.258 79.7089L83.9437 79.8628L83.7437 79.8176L83.5437 79.7723V79.9478V80.1234L83.3014 80.253L83.059 80.3825L83.1367 80.257L83.2144 80.1314H83.1544H83.0945L82.7359 80.4816L82.3773 80.8317L82.2117 80.7682L82.0461 80.7048L82.116 80.8176L82.1858 80.9304L82.0362 80.9438L81.8866 80.9572L81.8009 80.9438L81.7152 80.9304V81.0406V81.1507L81.4728 81.2802L81.2304 81.4098L81.3173 81.2695L81.4041 81.1291L81.2454 81.1867L81.0866 81.2444L81.118 81.3812L81.1494 81.5182L81.0332 81.4464L80.917 81.3747L80.716 81.5036L80.5151 81.6326L80.7152 81.5704L80.9152 81.5084V81.5589V81.6095L80.5689 81.7883L80.2227 81.9671L80.111 81.8981L79.9992 81.8291L79.9291 82.0118L79.8589 82.1945L79.5173 82.3709L79.1757 82.5473L79.2522 82.4237L79.3286 82.3002H79.2076H79.0866V82.4674V82.6346L78.8556 82.7581L78.6247 82.8815L78.4951 82.8015L78.3655 82.7215L78.437 82.837L78.5084 82.9525L77.9235 83.2704L77.3387 83.5883L77.4185 83.4593L77.4984 83.3301L77.3247 83.3968L77.1509 83.4633L77.1759 83.5664L77.2009 83.6695L76.3584 84.1379L75.516 84.6062L75.5937 84.4805L75.6715 84.3548H75.5505H75.4294V84.5221V84.6892L75.2091 84.807L74.9888 84.9247L74.8207 84.8603L74.6525 84.7959L74.5779 84.9165L74.5033 85.0371L74.7092 84.9727L74.9151 84.9083L74.7142 85.0373L74.5133 85.1662L74.4078 85.1011L74.3024 85.036L74.2196 85.1697L74.137 85.3033L74.2689 85.2218L74.4008 85.1404V85.2013V85.2621L74.0546 85.441L73.7084 85.6198L73.5798 85.5404L73.4512 85.461L73.5198 85.5718L73.5884 85.6827L73.2515 85.8815L72.9146 86.0802L72.7829 85.9989L72.6512 85.9176L72.7448 86.0688L72.8383 86.22L72.6518 86.1485L72.4653 86.077L72.3868 86.2038L72.3084 86.3306L72.4689 86.2474L72.6294 86.1642L72.4183 86.336L72.2072 86.5079L72.0281 86.4393L71.849 86.3706L71.9167 86.4799L71.9843 86.5892L71.421 86.9055L70.8577 87.2218L70.7514 87.1562L70.6452 87.0906L70.5625 87.2243L70.4798 87.3579L70.6117 87.2765L70.7437 87.195V87.2565V87.3179L70.2746 87.557L69.8055 87.796L69.8845 87.6449L69.9635 87.4938L69.7407 87.7671L69.5179 88.0403L69.3703 87.9492L69.2226 87.8581L69.3042 87.9899L69.3857 88.1216H69.2647H69.1437H69.0865H69.0294L68.795 88.3558L68.5605 88.5899L68.3092 88.5195L68.0579 88.4491L68.2104 88.5548L68.3628 88.6606L68.1715 88.7339L67.9802 88.8073L67.8841 88.748L67.788 88.6886L67.7053 88.8223L67.6226 88.9559L67.7546 88.8745L67.8865 88.793V88.8539V88.9148L67.5403 89.0936L67.1941 89.2724L67.0911 89.2088L66.988 89.1453L66.9053 89.2789L66.8226 89.4125L66.9546 89.3311L67.0865 89.2496V89.3094V89.3692L66.8441 89.4987L66.6018 89.6283L66.6886 89.4879L66.7755 89.3476L66.6167 89.4053L66.4579 89.4629L66.4829 89.5805L66.5079 89.698L66.3341 89.7646L66.1604 89.8312L66.2421 89.6898L66.3239 89.5485L66.0152 89.8729L65.7064 90.1974L65.5334 90.1311L65.3604 90.0647L65.4302 90.1776L65.5 90.2904L65.3504 90.3037L65.2008 90.3171L65.0465 90.296L64.8922 90.2748L64.964 90.3909L65.0358 90.507L64.7902 90.6382L64.5446 90.7695L64.6223 90.644L64.7 90.5184H64.579H64.4579V90.6621V90.8059L64.2247 90.9514L63.9915 91.0969L63.8642 91.0183L63.7369 90.9397L63.8081 91.0548L63.8793 91.1699L63.5899 91.3016L63.3005 91.4333L63.3717 91.3183L63.4429 91.2033H63.3218H63.2008V91.3715V91.5399L62.8453 91.7234L62.4899 91.907L62.5664 91.7834L62.6428 91.6598H62.5218H62.4008V91.827V91.9943L62.1698 92.1177L61.9389 92.2411L61.8093 92.1611L61.6798 92.0812L61.7613 92.2129L61.8428 92.3447H61.7218H61.6008L61.5151 92.362L61.4293 92.3792L61.3038 92.5507L61.1783 92.7221L61.0459 92.6404L60.9134 92.5586L60.8424 92.7436L60.7713 92.9287L60.6183 92.87L60.4652 92.8114L60.3868 92.9382L60.3083 93.065L60.4403 92.9835L60.5722 92.902V92.9636V93.0251L60.1151 93.258L59.6579 93.4909V93.4097V93.3285L59.5038 93.5389L59.3497 93.7494L59.2004 93.6573L59.0512 93.5651L59.1276 93.6887L59.2041 93.8123L58.9453 93.9002L58.6865 93.9881L58.5923 93.9627L58.4981 93.9372L58.563 94.0422L58.628 94.1472L58.4469 94.2166L58.2658 94.286L58.1442 94.2109L58.0226 94.1359L58.0927 94.2492L58.1629 94.3626L57.6831 94.632L57.2033 94.9013L56.9163 94.8797L56.6293 94.8582L56.7728 94.9498L56.9164 95.0414L56.4413 95.3081L55.9662 95.5748L56.0474 95.4436L56.1285 95.3125H56.0075H55.8865V95.4797V95.6469L55.6555 95.7703L55.4246 95.8938L55.295 95.8138L55.1654 95.7338L55.2369 95.8492L55.3083 95.9647L54.7117 96.2744L54.115 96.5842L54.3369 96.4049L54.5587 96.2257L54.4512 96.23L54.3436 96.2343L54.0579 96.47L53.7722 96.7056L53.9436 96.6301L54.115 96.5548L53.8897 96.7369L53.6644 96.9191L53.5124 96.8608L53.3603 96.8025L53.4421 96.9348L53.5239 97.0671L53.3278 96.9919L53.1317 96.9167L53.1886 97.0086L53.2454 97.1005L52.9086 97.2992L52.5717 97.498L52.44 97.4167L52.3083 97.3354L52.3769 97.4462L52.4454 97.5571L52.1086 97.7559L51.7717 97.9546L51.64 97.8733L51.5083 97.792L51.5824 97.9118L51.6566 98.0316L51.4755 98.101L51.2944 98.1704L51.1876 98.1045L51.0808 98.0386L51.1122 98.1897L51.1436 98.3409L50.9448 98.3254L50.746 98.3099L50.8013 98.3992L50.8565 98.4885L50.6858 98.5539L50.515 98.6194V98.4898V98.3602L50.4293 98.4458L50.3436 98.5314L50.341 98.6646L50.3384 98.7977L50.1424 98.7822L49.9464 98.7667L50.0008 98.8547L50.0553 98.9427L49.706 99.0872L49.3566 99.2318L48.9931 99.2434L48.6296 99.2546L48.6582 99.3973L48.6867 99.54H48.5818H48.4768L48.2675 99.6078L48.0581 99.6757L48.2296 99.5525L48.401 99.4293H48.2132H48.0254L47.9542 99.6149L47.8829 99.8004L47.3991 99.734L46.9153 99.6677L47.139 99.7581L47.3627 99.8485L46.6365 99.9243L45.9103 100H45.4699L45.4692 99.9918ZM44.3431 99.7455H44.6288L44.486 99.6879L44.3431 99.6303L44.2002 99.6879L44.0574 99.7455H44.3431ZM46.686 99.7636H46.7431V99.7065V99.6494H46.686H46.6288V99.7065V99.7636H46.686ZM49.486 99.0787H49.6384L49.5622 99.0026L49.486 98.9265L49.4098 99.0026L49.3336 99.0787H49.486ZM41.6002 98.8504H41.7526L41.6764 98.7743L41.6002 98.6982L41.524 98.7743L41.4478 98.8504H41.6002ZM41.3145 98.7362H41.3716V98.6791V98.6221H41.3145H41.2574V98.6791V98.7362H41.3145ZM41.0859 98.6221H41.1431V98.565V98.5079H41.0859H41.0288V98.565V98.6221H41.0859ZM40.8641 98.5079H40.9145V98.3938V98.2797H40.7935H40.6724L40.7431 98.3938L40.8137 98.5079H40.8641ZM40.3431 98.1655H40.4954L40.4193 98.0894L40.3431 98.0133L40.2669 98.0894L40.1907 98.1655H40.3431ZM52.0574 97.7089H52.1146V97.6519V97.5948H52.0574H52.0003V97.6519V97.7089H52.0574ZM52.6289 97.3665H52.686V97.3094V97.2523H52.6289H52.5717V97.3094V97.3665H52.6289ZM38.6859 97.2523H38.7431V97.1953V97.1382H38.6859H38.6288V97.1953V97.2523H38.6859ZM52.8574 97.2523H52.9146V97.1953V97.1382H52.8574H52.8003V97.1953V97.2523H52.8574ZM38.4926 97.1365H38.528L38.4573 97.0224L38.3867 96.9082H38.2506H38.1145L38.2859 97.0188L38.4573 97.1295H38.4927L38.4926 97.1365ZM37.4288 96.5675H37.4859V96.5104V96.4533H37.4288H37.3716V96.5104V96.5675H37.4288ZM54.9146 96.1109H54.9717V96.0538V95.9967H54.9146H54.8574V96.0538V96.1109H54.9146ZM55.7146 95.6543H55.7717V95.5972V95.5402H55.7146H55.6574V95.5972V95.6543H55.7146ZM35.6002 95.5402H35.6573V95.4831V95.426H35.6002H35.543V95.4831V95.5402H35.6002ZM35.3716 95.426H35.4287V95.3689V95.3119H35.3716H35.3145V95.3689V95.426H35.3716ZM56.286 95.3119H56.3432V95.2548V95.1977H56.286H56.2289V95.2548V95.3119H56.286ZM56.5146 95.1977H56.5717V95.1406V95.0836H56.5146H56.4574V95.1406V95.1977H56.5146ZM57.3146 94.7411H57.3717V94.6841V94.627H57.3146H57.2575V94.6841V94.7411H57.3146ZM34.0355 94.6253H34.0708L34.0002 94.5111L33.9295 94.3969H33.7934H33.6573L33.8288 94.5076L34.0002 94.6183H34.0355L34.0355 94.6253ZM57.6338 94.5626L57.8387 94.4847L57.7748 94.4207L57.7108 94.3569L57.5698 94.4987L57.4289 94.6406L57.6338 94.5626ZM59.3718 93.5997H59.4289V93.5426V93.4855H59.3718H59.3146V93.5426V93.5997H59.3718ZM31.943 93.4855H32.0002V93.4285V93.3714H31.943H31.8859V93.4285V93.4855H31.943ZM31.7144 93.3714H31.7716V93.3143V93.2573H31.7144H31.6573V93.3143V93.3714H31.7144ZM31.3716 93.1431H31.4287V93.086V93.029H31.3716H31.3144V93.086V93.1431H31.3716ZM60.1146 93.1431H60.267L60.1908 93.067L60.1146 92.9909L60.0384 93.067L59.9622 93.1431H60.1146ZM31.1621 92.9909L31.2382 92.9148L31.1621 92.8387L31.0859 92.7626V92.9148V93.067L31.1621 92.9909ZM30.9144 92.9148H30.9716V92.8577V92.8007H30.9144H30.8573V92.8577V92.9148H30.9144ZM30.1144 92.4582H30.1716V92.4012V92.3441H30.1144H30.0573V92.4012V92.4582H30.1144ZM62.1718 92.0017H62.3241L62.248 91.9256L62.1718 91.8495L62.0956 91.9256L62.0194 92.0017H62.1718ZM28.8573 91.7734H28.9144V91.7163V91.6592H28.8573H28.8001V91.7163V91.7734H28.8573ZM62.8003 91.6592H62.8575V91.6022V91.5451H62.8003H62.7432V91.6022V91.6592H62.8003ZM63.0289 91.5451H63.0861V91.488V91.4309H63.0289H62.9718V91.488V91.5451H63.0289ZM28.2858 91.4309H28.343V91.3739V91.3168H28.2858H28.2287V91.3739V91.4309H28.2858ZM28.0573 91.3168H28.1144V91.2597V91.2026H28.0573H28.0001V91.2597V91.3168H28.0573ZM27.2573 90.8602H27.3144V90.8031V90.7461H27.2573H27.2001V90.8031V90.8602H27.2573ZM27.4858 90.8602H27.543V90.8031V90.7461H27.4858H27.4287V90.8031V90.8602H27.4858ZM26.5144 90.4036H26.6668L26.5906 90.3275L26.5144 90.2514L26.4382 90.3275L26.362 90.4036H26.5144ZM26.2354 90.2894H26.2858V90.2391V90.1888L26.1539 90.1074L26.0219 90.0259L26.1035 90.1577L26.185 90.2894H26.2354ZM25.7144 89.947H25.8668L25.7906 89.8709L25.7144 89.7948L25.6382 89.8709L25.562 89.947H25.7144ZM65.8861 89.947H65.9432V89.89V89.8329H65.8861H65.8289V89.89V89.947H65.8861ZM25.4287 89.8329H25.4858V89.7758V89.7187H25.4287H25.3715V89.7758V89.8329H25.4287ZM25.2001 89.7187H25.2572V89.6616V89.6046H25.2001H25.143V89.6616V89.7187H25.2001ZM24.6287 89.3763H24.6858V89.3192V89.2622H24.6287H24.5715V89.3192V89.3763H24.6287ZM24.4001 89.2622H24.4572V89.2051V89.148H24.4001H24.343V89.2051V89.2622H24.4001ZM67.4861 89.0338H67.5432V88.9768V88.9197H67.4861H67.4289V88.9768V89.0338H67.4861ZM22.8001 88.349H22.8572V88.2919V88.2348H22.8001H22.7429V88.2919V88.349H22.8001ZM68.7432 88.349H68.8004V88.2919V88.2348H68.7432H68.6861V88.2919V88.349H68.7432ZM22.5715 88.2348H22.6287V88.1778V88.1207H22.5715H22.5144V88.1778V88.2348H22.5715ZM69.5432 87.8924H69.6004V87.8353V87.7782H69.5432H69.4861V87.8353V87.8924H69.5432ZM21.5429 87.6641H21.6001V87.607V87.5499H21.5429H21.4858V87.607V87.6641H21.5429ZM70.2053 87.4855L70.4102 87.4076L70.3463 87.3437L70.2823 87.2798L70.1413 87.4216L70.0004 87.5635L70.2053 87.4855ZM20.9715 87.3217H21.0287V87.2646V87.2075H20.9715H20.9144V87.2646V87.3217H20.9715ZM20.7429 87.2075H20.8001V87.1504V87.0934H20.7429H20.6858V87.1504V87.2075H20.7429ZM20.5144 87.0934H20.5715V87.0363V86.9792H20.5144H20.4572V87.0363V87.0934H20.5144ZM71.0861 86.9792H71.2385L71.1623 86.9031L71.0861 86.8271L71.0099 86.9031L70.9337 86.9792H71.0861ZM71.3718 86.865H71.429V86.808V86.751H71.3718H71.3147V86.808V86.865H71.3718ZM73.2004 85.8378H73.2575V85.7807V85.7236H73.2004H73.1433V85.7807V85.8378H73.2004ZM17.3144 85.267H17.3715V85.21V85.1529H17.3144H17.2572V85.21V85.267H17.3144ZM17.0858 85.1529H17.1429V85.0958V85.0387H17.0858H17.0286V85.0958V85.1529H17.0858ZM16.2858 84.6963H16.3429V84.6392V84.5822H16.2858H16.2286V84.6392V84.6963H16.2858ZM16.0925 84.5804H16.1278L16.0572 84.4662L15.9866 84.3521H15.8505H15.7144L15.8858 84.4628L16.0572 84.5734H16.0925L16.0925 84.5804ZM15.4858 84.2397H15.5429V84.1826V84.1256H15.4858H15.4286V84.1826V84.2397H15.4858ZM76.0576 84.2397H76.1147V84.1826V84.1256H76.0576H76.0004V84.1826V84.2397H76.0576ZM15.2925 84.1238H15.3278L15.2572 84.0098L15.1866 83.8956H15.0505H14.9144L15.0858 84.0062L15.2572 84.1169H15.2925L15.2925 84.1238ZM76.3433 84.0114H76.4957L76.4195 83.9353L76.3433 83.8592L76.2671 83.9353L76.1909 84.0114H76.3433ZM76.7433 83.8244L76.9147 83.7588V83.7139V83.669H76.7433H76.5719V83.7796V83.8902L76.7433 83.8244ZM77.6576 83.3266H77.7147V83.2695V83.2124H77.6576H77.6004V83.2695V83.3266H77.6576ZM13.6925 83.2106H13.7278L13.6572 83.0965L13.5866 82.9823H13.4504H13.3143L13.4858 83.093L13.6572 83.2037H13.6925L13.6925 83.2106ZM77.8861 83.2106H77.9433V83.1536V83.0965H77.8861H77.829V83.1536V83.2106H77.8861ZM78.1147 83.0965H78.1719V83.0394V82.9823H78.1147H78.0576V83.0394V83.0965H78.1147ZM13.2 82.9823H13.2572V82.9253V82.8682H13.2H13.1429V82.9253V82.9823H13.2ZM78.6861 82.6399H78.7433V82.5828V82.5258H78.6861H78.629V82.5828V82.6399H78.6861ZM78.9147 82.6399H78.9719V82.5828V82.5258H78.9147H78.8576V82.5828V82.6399H78.9147ZM12.4 82.5258H12.4572V82.4687V82.4116H12.4H12.3429V82.4687V82.5258H12.4ZM79.4862 82.2975H79.5433V82.2404V82.1833H79.4862H79.429V82.2404V82.2975H79.4862ZM11.8286 82.1833H11.8857V82.1263V82.0692H11.8286H11.7715V82.1263V82.1833H11.8286ZM79.7147 82.1833H79.7719V82.1263V82.0692H79.7147H79.6576V82.1263V82.1833H79.7147ZM11.6353 82.0674H11.6707L11.6 81.9534L11.5294 81.8392H11.3933H11.2572L11.4286 81.9498L11.6 82.0605H11.6354L11.6353 82.0674ZM10.8 81.6126H10.8572V81.5555V81.4985H10.8H10.7429V81.5555V81.6126H10.8ZM10.5715 81.4985H10.6286V81.4414V81.3843H10.5715H10.5143V81.4414V81.4985H10.5715ZM10 81.156H10.0572V81.099V81.0419H10H9.94288V81.099V81.156H10ZM81.5433 81.156H81.6005V81.099V81.0419H81.5433H81.4862V81.099V81.156H81.5433ZM82.5148 80.5853H82.6671L82.5909 80.5092L82.5148 80.4331L82.4386 80.5092L82.3624 80.5853H82.5148ZM8.51429 80.357H8.57144V80.2999V80.2429H8.51429H8.45715V80.2999V80.357H8.51429ZM83.3719 80.1287H83.429V80.0716V80.0146H83.3719H83.3148V80.0716V80.1287H83.3719ZM84.1719 79.6721H84.229V79.6151V79.558H84.1719H84.1148V79.6151V79.6721H84.1719ZM7.17818 79.5562H7.21351L7.14288 79.4421L7.07224 79.3279H6.93613H6.80002L6.97144 79.4386L7.14288 79.5493H7.17821L7.17818 79.5562ZM86.0005 78.6448H86.0576V78.5878V78.5307H86.0005H85.9433V78.5878V78.6448H86.0005ZM5.37142 78.5307H5.5238L5.44761 78.4546L5.37142 78.3785L5.29522 78.4546L5.21904 78.5307H5.37142ZM86.229 78.5307H86.2862V78.4736V78.4165H86.229H86.1719V78.4736V78.5307H86.229ZM5.0857 78.4165H5.14285V78.3595V78.3024H5.0857H5.02856V78.3595V78.4165H5.0857ZM4.85713 78.3024H4.91428V78.2453V78.1883H4.85713H4.79999V78.2453V78.3024H4.85713ZM86.8005 78.1883H86.8576V78.1312V78.0741H86.8005H86.7433V78.1312V78.1883H86.8005ZM4.2857 77.9599H4.34284V77.9029V77.8458H4.2857H4.22855V77.9029V77.9599H4.2857ZM87.3719 77.8458H87.4291V77.7887V77.7317H87.3719H87.3148V77.7887V77.8458H87.3719ZM88.2223 77.161H88.3299L88.3997 77.0481L88.4695 76.9353L88.2921 77.0032L88.1148 77.0712V77.1161V77.161H88.2223ZM88.5842 76.8185H88.6414L89.0291 76.419L89.4168 76.0195H89.3596H89.3025L88.9148 76.419L88.5271 76.8185H88.5842ZM2.79998 76.7043H2.85711V76.6473V76.5902H2.79998H2.74283V76.6473V76.7043H2.79998ZM45.6574 76.3619H46.7566L46.6765 76.2324L46.5964 76.103L46.9554 76.1556L47.3145 76.2082V76.1037V75.9992L47.9897 76.038L48.6648 76.0768L48.6115 75.9912L48.5582 75.9056L48.8792 75.9138L49.2003 75.922L48.9717 76.0201L48.7431 76.1182L49.0452 76.1264L49.3472 76.1346L49.4047 75.9849L49.4622 75.8353L50.3895 75.6935L51.3167 75.5518L51.4476 75.6325L51.5784 75.7133L51.5055 75.5954L51.4326 75.4776L51.7602 75.4121L52.0879 75.3466L52.4155 75.2823L52.7431 75.2179L52.5146 75.3259L52.286 75.4337L52.5431 75.4419L52.8003 75.4501V75.2665V75.0829L53.1146 75.1558L53.4289 75.2287L53.2768 75.1273L53.1247 75.0257L53.4885 74.953L53.8523 74.8804L53.9835 74.9553L54.1146 75.0301L54.0248 74.9317L53.9351 74.8333L54.4512 74.6308L54.9674 74.4283L55.1597 74.502L55.3521 74.5757L55.2768 74.4542L55.2016 74.3326L55.3885 74.2609L55.5754 74.1893L55.8164 74.2564L56.0574 74.3236L55.905 74.2179L55.7526 74.1121L55.9439 74.0388L56.1352 73.9655L56.2568 74.0406L56.3785 74.1156L56.2969 73.9838L56.2154 73.8521L56.4221 73.8352L56.6289 73.8184L56.8186 73.8068L57.0082 73.7951L57.1008 73.7035L57.1933 73.6118L56.9682 73.6819L56.7432 73.7521L57.1432 73.5225L57.5432 73.293L57.7717 73.3518L58.0003 73.4105L57.8497 73.306L57.6992 73.2014L58.0783 73.0431L58.4575 72.8848L58.5717 72.9214L58.686 72.9581L58.6012 72.8733L58.5163 72.7885L59.4583 72.2195L60.4003 71.6505L60.5382 71.6462L60.676 71.6418L60.6207 71.5525L60.5654 71.4631L60.8257 71.3152L61.086 71.1673H61.2575H61.4289V71.0156V70.8639L61.6457 70.7055L61.8626 70.5471L61.9521 70.6024L62.0417 70.6577L62.1244 70.524L62.2071 70.3904L62.0466 70.475L61.8861 70.5596L62.1686 70.3304L62.4511 70.1011L62.5271 70.1479L62.603 70.1949L62.7588 69.9963L62.9146 69.7978L62.6861 69.9691L62.4575 70.1403L62.6187 69.9353L62.7798 69.7304L62.9389 69.7914L63.0979 69.8524L63.0361 69.7524L62.9743 69.6525L63.1264 69.5265L63.2785 69.4003L63.3374 69.4592L63.3963 69.518L63.5555 69.3156L63.7146 69.113L63.4861 69.2823L63.2575 69.4515L63.4728 69.1994L63.688 68.9472L63.8047 69.0192L63.9214 69.0912L63.852 68.979L63.7826 68.8669L64.4495 68.2078L65.1164 67.5487L65.1682 67.646L65.22 67.7432L65.1846 67.599L65.1492 67.4548L65.4605 67.1361L65.7718 66.8174L65.6004 67.0521L65.4289 67.2867L65.6834 67.0716L65.9378 66.8567L65.887 66.7746L65.8362 66.6925L65.9948 66.476L66.1534 66.2594H66.296H66.4386L66.4578 65.9986L66.477 65.7378L65.9326 65.4321L65.3883 65.1265L65.4431 65.0379L65.4979 64.9493L65.3321 65.0129L65.1663 65.0764L65.0799 64.9368L64.9936 64.7973L65.1432 64.8896L65.2928 64.982L65.2143 64.8551L65.1359 64.7284L64.9724 64.791L64.809 64.8537L64.5002 64.5292L64.1915 64.2048L64.2846 64.3644L64.3777 64.5241L63.9079 64.2604L63.4382 63.9967L63.5083 63.8833L63.5785 63.77L63.4489 63.85L63.3193 63.93L63.0884 63.8065L62.8575 63.6831V63.5025V63.322L62.6396 63.3789L62.4218 63.4358L62.1142 63.2342L61.8065 63.0327L61.9606 62.9696L62.1146 62.9065L61.8289 62.9277L61.5432 62.9488L61.5746 62.7976L61.606 62.6465L61.4912 62.7173L61.3764 62.7882L61.1455 62.6647L60.9146 62.5413V62.3741V62.2069H60.7936H60.6725L60.7537 62.338L60.8348 62.4692L60.3651 62.2055L59.8953 61.9418L59.9654 61.8284L60.0356 61.715L59.9039 61.7963L59.7722 61.8777L59.4353 61.6789L59.0984 61.4802L59.167 61.3693L59.2356 61.2585L59.1053 61.3389L58.9749 61.4193L58.459 61.1174L57.9431 60.8154L58.0162 60.6973L58.0892 60.5792L57.9305 60.6354L57.7717 60.6917L57.4537 60.5312L57.1357 60.3708L57.2033 60.2615L57.2709 60.1523H57.1742H57.0774L56.5196 60.7179L55.9618 61.2835L55.8491 61.2138L55.7364 61.1443L55.8144 61.2704L55.8924 61.3964L55.6756 61.5123L55.4589 61.6281L55.403 61.5723L55.3471 61.5165L55.188 61.719L55.0288 61.9215L55.2057 61.8074L55.3825 61.6932L55.1652 61.8924L54.9479 62.0915L54.8278 62.0174L54.7078 61.9433L54.7813 62.0621L54.8549 62.181L54.6897 62.3179L54.5246 62.4549L54.4132 62.3861L54.3018 62.3173L54.2191 62.451L54.1364 62.5846L54.2683 62.5032L54.4003 62.4217V62.4742V62.5267L53.9915 62.7677L53.5827 63.0086L53.4851 62.9483L53.3875 62.888L53.3048 63.0217L53.2221 63.1553L53.354 63.0739L53.486 62.9924V63.0633V63.1341L52.2682 63.715L51.0504 64.2961L50.7366 64.3073L50.4227 64.3185L50.4678 64.392L50.5129 64.4654L50.228 64.5368L49.9431 64.6083L49.6288 64.5473L49.3145 64.4862L49.5431 64.5867L49.7717 64.6871L49.0859 64.8353L48.4002 64.9836L47.976 64.9987L47.5518 65.0138L47.4713 65.0942L47.3907 65.1747H46.6669H45.9431V65.0796V64.9845H45.7767H45.6103L45.6691 65.0796L45.728 65.1747L44.8927 65.1596L44.0573 65.1445L44.4573 65.0544L44.8573 64.9644L44.1026 65.0239L43.3478 65.0835L43.2776 64.9007L43.2074 64.718L42.8895 64.7262L42.5716 64.7344L42.8002 64.8429L43.0288 64.9513L42.743 64.8935L42.4573 64.8356H42.3077H42.1581L42.2185 64.738L42.279 64.6403L41.9797 64.6974L41.6805 64.7546L41.7689 64.6116L41.8574 64.4687L41.6145 64.5457L41.3716 64.6227V64.5044V64.3862L41.1814 64.4591L40.9912 64.5319L41.0815 64.3862L41.1717 64.2405L40.9423 64.3131L40.713 64.3858L40.6409 64.1982L40.5688 64.0107L40.3306 64.0729L40.0924 64.1351L39.9224 64.07L39.7524 64.0048L39.9049 63.899L40.0573 63.7933L39.8137 63.8613L39.5701 63.9293L39.503 63.7546L39.4359 63.58H39.2895H39.143L39.3144 63.6907L39.4859 63.8013H39.3649H39.2439L39.022 63.6216L38.8002 63.4419L38.9607 63.5251L39.1212 63.6083L39.0378 63.4735L38.9543 63.3386L38.8201 63.355L38.6859 63.3714L38.5363 63.3581L38.3867 63.3447L38.4565 63.2318L38.5263 63.119L38.3302 63.1941L38.1341 63.2693L38.2276 63.1181L38.3212 62.967L38.1894 63.0483L38.0577 63.1296L37.8297 62.9701L37.6016 62.8105L37.6866 62.7257L37.7716 62.6408L37.6573 62.6637L37.543 62.6865L37.3934 62.6731L37.2438 62.6598L37.3254 62.528L37.4069 62.3962L37.2861 62.4708L37.1653 62.5453L36.4698 62.0232L35.7744 61.5011L35.6962 61.367L35.618 61.233L35.8466 61.4327L36.0753 61.6324H36.1774H36.2796L36.0541 61.4747L35.8287 61.317L35.7474 61.3321L35.666 61.3472L35.0963 60.7868L34.5266 60.2263L34.5491 60.1019L34.5715 59.9775L34.4352 60.0038L34.299 60.0301L34.0654 59.7335L33.8318 59.4369L33.8892 59.3441L33.9467 59.2512L33.8129 59.1687L33.6791 59.086L33.7664 59.2463L33.8537 59.4067L33.5592 59.0642L33.2647 58.7218L33.3131 58.5828L33.3615 58.4438L33.2346 58.3654L33.1076 58.287L33.1909 58.4473L33.2742 58.6077L33.0856 58.3794L32.897 58.1511L32.7248 57.8246L32.5526 57.4981L32.6764 57.5745L32.8001 57.6509V57.53V57.4091H32.6327H32.4653L32.3417 57.1785L32.2181 56.9479L32.2982 56.8184L32.3783 56.689L32.2269 56.7824L32.0755 56.8758L32.1508 56.68L32.226 56.4841L32.1131 56.5538L32.0001 56.6236V56.5691V56.5146L31.9322 56.3055L31.8642 56.0965L31.9875 56.2677L32.1109 56.4389L32.1126 56.2926L32.1143 56.1464L31.9501 56.0834L31.7859 56.0205L31.8552 55.84L31.9246 55.6595L31.7991 55.7369L31.6736 55.8144L31.6009 55.5855L31.5281 55.3565L31.6103 55.2237L31.6925 55.091L31.5735 55.1644L31.4546 55.2378L31.3974 55.0393L31.3403 54.8409L31.2594 54.6126L31.1785 54.3843L31.3018 54.5555L31.4251 54.7267L31.4268 54.598L31.4286 54.4693L31.252 54.323L31.0755 54.1767L31.1375 53.8239L31.1994 53.4711L31.0832 53.6994L30.967 53.9277L31.0246 53.551L31.0823 53.1744L30.9859 53.2338L30.8895 53.2934L30.7534 52.4698L30.6172 51.6462L30.5797 50.3899L30.5422 49.1335L30.6283 49.9326L30.7144 50.7316L30.6791 49.3268L30.6437 47.9221L30.8076 47.8592L30.9714 47.7965V47.6878V47.5791L30.8571 47.6497L30.7428 47.7202V47.5355V47.3508L30.8694 47.4289L30.9959 47.5071L30.9204 47.2694L30.8449 47.0319L30.923 46.6161L31.0011 46.2002L31.1038 46.3542L31.2065 46.5082L31.1855 46.2228L31.1645 45.9375L31.184 45.6521L31.2035 45.3667L31.3268 45.538L31.4502 45.7092L31.3823 45.5004L31.3145 45.2915L31.3838 45.016L31.453 44.7405L31.5727 44.8145L31.6925 44.8884L31.6191 44.7697L31.5456 44.6511L31.6686 44.2988L31.7915 43.9466L31.9243 43.9716L32.0572 43.9967L32.0689 43.6714L32.0806 43.3461L32.2215 43.2591L32.3624 43.1721L32.3541 43.0707L32.3456 42.9693L32.4084 42.7719L32.4711 42.5745L32.5927 42.6008L32.7143 42.6272L32.772 42.4685L32.8297 42.31L32.6892 42.3967L32.5487 42.4835L32.6801 42.2382L32.8115 41.9929L32.9377 42.0708L33.0639 42.1487L32.9849 42.021L32.9058 41.8931L33.2097 41.4345L33.5137 40.9757L33.6317 41.0486L33.7497 41.1215L33.6817 41.0116L33.6137 40.9016L33.8817 40.5659L34.1498 40.23L34.3035 40.2257L34.4572 40.2214L34.4272 40.0394L34.3971 39.8575L34.592 39.6996L34.7868 39.5417L34.6901 39.702L34.5934 39.8623L34.7272 39.7797L34.861 39.6971L34.8034 39.6041L34.7458 39.511L35.2615 39.0362L35.7772 38.5615L35.9063 38.6411L36.0354 38.7209L35.9601 38.5991L35.8847 38.4773L36.3432 38.1147L36.8017 37.752L36.969 37.7274L37.1364 37.7028L37.2254 37.6051L37.3144 37.5074L37.1539 37.6005L36.9934 37.6935L37.0797 37.5539L37.1661 37.4143L37.3223 37.4742L37.4785 37.534L37.557 37.4072L37.6354 37.2805L37.4858 37.3728L37.3362 37.4652L37.4207 37.3287L37.5051 37.1923L37.7526 37.2615L38.0001 37.3307L37.8418 37.2213L37.6835 37.112L37.9413 36.9742L38.1991 36.8364L38.1215 36.9619L38.0438 37.0875H38.1648H38.2859V36.9269V36.7664L38.543 36.8227L38.8001 36.879L38.6287 36.7567L38.4573 36.6343H38.6001H38.743L38.8105 36.6421L38.8781 36.6499L39.0105 36.487L39.143 36.3242L39.3489 36.2524L39.5549 36.1807L39.485 36.2936L39.4152 36.4064H39.5362H39.6573V36.2229V36.0396L39.8346 36.1075L40.012 36.1755L39.9422 36.0626L39.8724 35.9498L40.0791 35.9365L40.2859 35.9231L40.4402 35.9442L40.5945 35.9654L40.5267 35.8557L40.4589 35.7462L40.7347 35.677L41.0106 35.6078L41.2196 35.6756L41.4287 35.7433L41.2573 35.6202L41.0859 35.497L41.343 35.478L41.6002 35.4591L41.743 35.4478L41.8859 35.4366L41.9621 35.331L42.0384 35.2254L42.6083 35.2168L43.1781 35.2081L43.1253 35.1225L43.0724 35.0369H43.2573H43.4422L43.3716 35.1511L43.301 35.2652H43.422H43.543V35.1443V35.0234L43.6573 35.094L43.7716 35.1645L43.7716 35.0722L43.7716 34.9798L45.743 34.994L47.7145 35.0083L47.8641 35.0225L48.0137 35.0368L47.943 35.1509L47.8724 35.2651H48.1363H48.4002L48.2288 35.1435L48.0573 35.0218L48.3431 35.0804L48.6288 35.1389L49.0686 35.2185L49.5085 35.2982L49.3544 35.4068L49.2002 35.5154L49.4894 35.4532L49.7785 35.391L50.0309 35.4569L50.2834 35.5228L50.2098 35.6416L50.1363 35.7605L50.263 35.6822L50.3897 35.604L50.6799 35.6768L50.9701 35.7495L50.896 35.8691L50.822 35.9887L50.955 35.9066L51.088 35.8246L51.3172 35.8972L51.5464 35.9699L51.4912 36.0591L51.4359 36.1484L51.7328 36.2835L52.0297 36.4186L52.0912 36.3572L52.1526 36.2959H52.0002H51.8478L51.9092 36.2345L51.9707 36.1732L52.2744 36.3114L52.5781 36.4496L52.432 36.5539L52.2859 36.6581L52.5268 36.6061L52.7678 36.554L52.9554 36.6589L53.1431 36.7638V36.9294V37.0949H53.2641H53.3851L53.304 36.9638L53.2229 36.8326L53.6687 37.0836L54.1145 37.3346L54.4002 37.5671L54.686 37.7996L54.5254 37.715L54.3649 37.6304L54.4476 37.764L54.5303 37.8976L54.6199 37.8424L54.7094 37.7871L54.9263 37.9631L55.1431 38.1391L54.9826 38.056L54.8221 37.9728L54.9048 38.1064L54.9875 38.2401L55.0842 38.1804L55.1809 38.1207L55.5308 38.4147L55.8807 38.7088L55.8547 38.7865L55.8288 38.8642L55.9252 38.8814L56.0216 38.8987L56.3497 39.2127L56.6778 39.5266L56.6064 39.6518L56.535 39.7771L56.6191 39.7019L56.7032 39.6267L57.0396 39.7231L57.3761 39.8195L57.3136 39.7184L57.251 39.6173L57.4966 39.486L57.7421 39.3548L57.6645 39.4803L57.5868 39.6058H57.7078H57.8288V39.4387V39.2715L58.086 39.1346L58.3431 38.9978L58.1717 39.206L58.0003 39.4142L58.25 39.2589L58.4998 39.1036L58.4562 39.0332L58.4127 38.9628L58.7496 38.7641L59.0865 38.5653L59.2182 38.6467L59.3499 38.7279L59.2813 38.6171L59.2127 38.5063L59.5663 38.2977L59.9198 38.0891L59.839 38.2197L59.7582 38.3502H59.8182H59.8781L60.2367 38.0001L60.5953 37.65L60.7513 37.7098L60.9072 37.7696L60.9857 37.6427L61.0642 37.516L60.9146 37.6083L60.765 37.7007L60.8513 37.5611L60.9377 37.4215L61.1035 37.4851L61.2693 37.5486L61.2069 37.4477L61.1445 37.3468L61.3255 37.2775L61.5066 37.2081L61.6027 37.2674L61.6988 37.3267L61.7815 37.193L61.8642 37.0594L61.7037 37.1508L61.5431 37.2423L61.6574 37.1302L61.7717 37.0181L62.3298 36.7002L62.8879 36.3823L62.8088 36.5102L62.7297 36.6381H62.8374H62.9451L63.0087 36.395L63.0724 36.1518L63.2757 36.2298L63.479 36.3077L63.3975 36.2263L63.316 36.1449L63.5441 35.9853L63.7721 35.8258L63.9039 35.9071L64.0356 35.9884L63.9421 35.8373L63.8485 35.6861L64.0446 35.7612L64.2407 35.8364L64.1589 35.7042L64.0771 35.572L64.2732 35.6471L64.4693 35.7223L64.3875 35.59L64.3057 35.4578L64.4922 35.5293L64.6787 35.6008L64.7572 35.474L64.8356 35.3472L64.6751 35.4386L64.5146 35.5301L64.6534 35.3804L64.7922 35.2308L65.0019 35.2152L65.2117 35.1997L65.4605 34.9511L65.7094 34.7026L65.8719 34.7648L66.0343 34.827L66.1207 34.6875L66.2071 34.5479L66.0575 34.6403L65.9079 34.7326L65.9942 34.5931L66.0806 34.4535L66.2655 34.5244L66.4505 34.5953L66.3737 34.5186L66.2969 34.4419L66.4604 34.2787L66.6238 34.1154L66.4878 33.8979L66.3518 33.6805L66.3027 33.7295L66.2535 33.7787L66.4071 33.9812L66.5607 34.1837L66.434 34.0696L66.3073 33.9554L65.8966 33.4595L65.486 32.9635L65.5391 32.8777L65.5922 32.7918L65.2248 32.4604L64.8575 32.1291L65.1432 32.48L65.4289 32.8307L64.8003 32.1735L64.1717 31.5162L63.5344 30.9095L62.8971 30.3028L63.163 30.5224L63.4289 30.7421V30.6355V30.5289L63.1717 30.3643L62.9146 30.1998L62.7538 30.173L62.593 30.1463L62.3538 29.8887L62.1146 29.631L62.3432 29.7956L62.5717 29.9601L62.4126 29.7576L62.2534 29.555L62.1971 29.6114L62.1408 29.6676L61.473 29.1998L60.8052 28.7319L60.8775 28.615L60.9499 28.498L60.8348 28.5691L60.7197 28.6401L60.5028 28.4641L60.286 28.2881L60.4289 28.3603L60.5717 28.4326V28.3046V28.1765L60.3146 28.2123L60.0574 28.2482L60.0846 28.1095L60.1118 27.971L59.9231 28.0433L59.7342 28.1157L59.8278 27.9645L59.9213 27.8134L59.7896 27.8947L59.6579 27.976L59.4298 27.8165L59.2018 27.6569L59.2867 27.5721L59.3717 27.4872L59.2574 27.51L59.1432 27.5329L58.9936 27.5195L58.844 27.5061L58.9255 27.3744L59.007 27.2426L58.8775 27.3225L58.7479 27.4025L58.517 27.2791L58.286 27.1557V26.9885V26.8212H58.165H58.044L58.1151 26.9363L58.1863 27.0513L57.8969 26.9196L57.6075 26.7879L57.667 26.6917L57.7265 26.5956L57.5491 26.6636L57.3717 26.7315V26.5481V26.3647H57.2507H57.1297L57.2008 26.4797L57.272 26.5947L56.9826 26.463L56.6932 26.3313L56.7527 26.2352L56.8122 26.139L56.6348 26.207L56.4574 26.275V26.1522V26.0294L56.2673 26.1023L56.0771 26.1752L56.1706 26.024L56.2642 25.8728L56.1425 25.9479L56.0209 26.023L55.8398 25.9536L55.6587 25.8842L55.7329 25.7644L55.807 25.6445L55.6803 25.7227L55.5536 25.8009L55.2518 25.7253L54.95 25.6496L55.1037 25.5502L55.2574 25.4508L55.0288 25.4694L54.8003 25.4879L54.5717 25.4681L54.3431 25.4483L54.5146 25.3283L54.686 25.2085L54.4574 25.2706L54.2288 25.3327L53.5697 25.1279L52.9105 24.9231L52.981 24.8527L53.0514 24.7823L52.8273 24.8408L52.6032 24.8994L52.5339 24.719L52.4646 24.5386H52.34H52.2153L52.2888 24.6573L52.3623 24.776L52.0384 24.6954L51.7146 24.6149L51.5632 24.4341L51.4119 24.2532L51.4842 24.3959L51.5566 24.5386H51.2927H51.0288L51.2003 24.4154L51.3717 24.2922L51.1571 24.3621L50.9425 24.4319L50.3601 24.3547L49.7777 24.2776L50.0033 24.1906L50.2288 24.1037L49.6504 24.165L49.0719 24.2263L48.8862 24.0409L48.7005 23.8554L48.6293 23.9704L48.5582 24.0854L48.2506 24.0721L47.9431 24.0587L48.2785 23.9866L48.6139 23.9144H45.6226H42.6313L42.5709 24.0716L42.5106 24.2287L41.9125 24.1613L41.3145 24.0938L41.5381 24.1851L41.7618 24.2764L41.2258 24.3499L40.6899 24.4232L40.3468 24.3547L40.0037 24.2862L39.9315 24.474L39.8594 24.6618L39.4738 24.5896L39.0883 24.5173L39.0145 24.7095L38.9406 24.9017L38.6418 24.8407L38.343 24.7796L38.5049 24.848L38.6667 24.9164L37.9906 25.1276L37.3145 25.3389L37.1657 25.2843L37.0169 25.2298L37.0987 25.362L37.1805 25.4942L36.9903 25.4213L36.8002 25.3485V25.4667V25.585L36.5573 25.508L36.3144 25.431L36.3852 25.5454L36.456 25.6598L36.2691 25.7315L36.0822 25.8031L35.8412 25.7359L35.6002 25.6688L35.7526 25.7745L35.905 25.8803L35.7137 25.9536L35.5224 26.0269L35.4008 25.9518L35.2791 25.8768L35.3607 26.0085L35.4422 26.1403L35.2355 26.1584L35.0287 26.1765L34.8871 26.1714L34.7455 26.1662L34.8201 26.2869L34.8948 26.4075L34.6987 26.3323L34.5026 26.2572L34.5621 26.3533L34.6215 26.4495L34.3309 26.5817L34.0402 26.7141L33.9168 26.6379L33.7934 26.5617L33.8626 26.6735L33.9317 26.7853L33.4147 27.0362L32.8978 27.287L32.97 27.1703L33.0422 27.0536H32.9212H32.8001V27.2208V27.388L32.6001 27.4907L32.4001 27.5934L32.2678 27.5458L32.1354 27.4981L32.0501 27.6359L31.9648 27.7738L32.0968 27.6923L32.2287 27.6108V27.6717V27.7326L31.9003 27.9022L31.572 28.0718L31.5003 28.0193L31.4287 27.9667L31.482 28.039L31.5353 28.1112L31.0775 28.4425L30.6197 28.7737L30.5178 28.7108L30.4159 28.6479L30.3332 28.7815L30.2505 28.9152L30.411 28.828L30.5716 28.7407L30.2287 29.0345L29.8858 29.3283L29.8001 29.3468L29.7144 29.3653L29.6287 29.3826L29.543 29.3999L29.3144 29.5361L29.0858 29.6723L29.2058 29.6766L29.3258 29.681L29.4368 29.5954L29.5478 29.5097L29.3335 29.7089L29.1192 29.908L28.9991 29.8339L28.8791 29.7598L28.9504 29.875L29.0216 29.9902L28.7479 30.247L28.4742 30.5039L28.3229 30.4166L28.1715 30.3292L28.2609 30.4273L28.3503 30.5254L27.2976 31.5812L26.2449 32.637L26.1524 32.5799L26.0599 32.5227L26.1209 32.6816L26.1819 32.8404L25.9834 33.0014L25.7848 33.1624L25.8822 32.9912L25.9796 32.82L25.8756 32.9151L25.7715 33.0102L25.7663 33.1434L25.7612 33.2765L25.615 33.245L25.4688 33.2136L25.5339 33.3186L25.5989 33.4237L25.3995 33.6378L25.2001 33.8518L25.2858 33.741L25.3715 33.6301L25.3681 33.5103L25.3646 33.3904L25.2295 33.6187L25.0943 33.847L25.09 34.0182L25.0857 34.1895L24.9343 34.158L24.783 34.1265L24.8397 34.2181L24.8964 34.3097L24.6668 34.5919L24.4373 34.874L24.5227 34.7029L24.608 34.5316L24.5055 34.6253L24.4029 34.7189L24.4016 34.9107L24.4003 35.1024L24.2574 35.0739L24.1146 35.0454L24.1281 35.131L24.1416 35.2167L24.1281 35.3661L24.1146 35.5155L23.9717 35.4334L23.8289 35.3513L23.9106 35.4416L23.9922 35.532L23.878 35.7453L23.7637 35.9586H23.5963H23.4289V36.0795V36.2003L23.5546 36.1227L23.6802 36.0452L23.5488 36.2905L23.4174 36.5357L23.2894 36.4567L23.1614 36.3777L23.2282 36.5513L23.2949 36.725L23.0961 37.0275L22.8974 37.3301L22.8019 37.2437L22.7065 37.1571L22.7881 37.2989L22.8698 37.4407L22.7407 37.6413L22.6116 37.842L22.6761 37.6363L22.7405 37.4306L22.6198 37.5052L22.499 37.5797L22.5603 37.7394L22.6217 37.8991L22.5562 38.0696L22.4906 38.2402L22.3896 38.1779L22.2886 38.1155L22.3639 38.3114L22.4391 38.5072L22.3067 38.4255L22.1743 38.3437L22.2496 38.5396L22.3248 38.7356L22.1924 38.6538L22.06 38.5721L22.1353 38.7679L22.2106 38.9639L22.0782 38.8821L21.9458 38.8004L22.021 38.9962L22.0963 39.1921L21.9755 39.1176L21.8547 39.0429L21.8598 39.1844L21.8649 39.3259L21.8468 39.5323L21.8288 39.7389L21.7158 39.6691L21.6029 39.5994L21.6709 39.7766L21.739 39.9537H21.542H21.345L21.4077 40.193L21.4703 40.4323L21.409 40.5918L21.3477 40.7514L21.2456 40.6884L21.1435 40.6253L21.1614 40.8317L21.1793 41.038L21.1612 41.2446L21.1431 41.451L21.0301 41.3813L20.9171 41.3116L20.9848 41.4877L21.0525 41.6639L20.8638 41.7363L20.6752 41.8086L20.6978 42.1082L20.7204 42.4078L20.7032 42.6143L20.686 42.8208L20.5823 42.7568L20.4787 42.6929L20.5423 42.9358L20.6059 43.1786L20.4136 43.2861L20.2214 43.3936L20.2947 43.7841L20.3681 44.1747L20.1842 44.2452L20.0002 44.3156L20.002 44.5032L20.0037 44.6907L20.127 44.5195L20.2503 44.3483L20.1823 44.5578L20.1142 44.7672L20.036 45.4139L19.9578 46.0605L19.8723 45.7751L19.7867 45.4898L19.8511 46.089L19.9154 46.6883H19.7796H19.6439L19.7145 46.8025L19.7851 46.9166H19.6641H19.543L19.5511 47.3446L19.5591 47.7727L19.6574 47.5444L19.7556 47.3161L19.7636 47.5539L19.7716 47.7917L19.7043 47.8589L19.637 47.9262L19.6513 49.9041L19.6656 51.8819L19.7278 52.3385L19.7901 52.7951L19.6684 52.6238L19.5466 52.4526L19.5449 52.8685L19.5431 53.2843L19.7273 53.3549L19.9116 53.4255L19.8438 53.9664L19.7761 54.5073L19.8694 54.2839L19.9627 54.0605L20.0335 54.5764L20.1043 55.0924L20.0424 55.3705L19.9804 55.6487L20.1029 55.4775L20.2253 55.3063L20.2271 55.5699L20.2288 55.8334L20.0859 55.7612L19.9431 55.6889L20.1242 55.84L20.3052 55.9912L20.3848 56.3336L20.4643 56.6761L20.3483 56.5048L20.2323 56.3336L20.2306 56.5904L20.2288 56.8472H20.4127H20.5965L20.5235 57.1612L20.4505 57.475L20.5781 57.3039L20.7058 57.1326L20.6495 57.3894L20.5931 57.6463H20.71H20.8269L20.7671 57.8747L20.7073 58.1032L20.8109 58.0392L20.9146 57.9752L20.9327 58.1818L20.9508 58.3882L20.9328 58.5946L20.9149 58.801L21.029 58.7306L21.1431 58.6601L21.1612 58.8666L21.1793 59.0731L21.1609 59.3014L21.1425 59.5297L21.2553 59.3585L21.3682 59.1873L21.3881 59.4156L21.408 59.6438L21.3895 59.8721L21.3711 60.1004L21.4839 59.9292L21.5968 59.758L21.6166 59.9863L21.6363 60.2146L21.6312 60.356L21.6261 60.4975L21.7193 60.44L21.8124 60.3825L21.8852 60.6114L21.9579 60.8403L21.891 60.9485L21.8241 61.0566L21.9812 61.1492L22.1384 61.2419L22.2746 61.5011L22.4109 61.7602L22.3308 61.8896L22.2507 62.0191L22.3744 61.9427L22.4981 61.8663L22.5861 62.1249L22.6742 62.3833L22.6487 62.4774L22.6232 62.5715L22.7597 62.4872L22.8963 62.4029L22.821 62.5988L22.7458 62.7947L22.8468 62.7323L22.9478 62.67L23.0173 62.8509L23.0867 63.0317L23.0109 63.1641L22.9351 63.2965L23.0291 63.2114L23.1231 63.1263L23.5095 63.6993L23.896 64.2724L23.8155 64.4122L23.7351 64.5521L23.8257 64.4703L23.9164 64.3886L24.1372 64.669L24.358 64.9494L24.2916 65.0568L24.2251 65.1641L24.3589 65.2467L24.4928 65.3293L24.4095 65.169L24.3262 65.0087L24.5024 65.2252L24.6787 65.4418L24.6167 65.542L24.5547 65.6421L24.7061 65.6106L24.8574 65.5792L24.8618 65.7504L24.8661 65.9216L25.0012 66.1499L25.1364 66.3782L25.1398 66.2583L25.1433 66.1384L25.0576 66.0276L24.9719 65.9168L25.2222 66.1979L25.4725 66.479L25.4203 66.5634L25.3681 66.6477L25.5019 66.7304L25.6358 66.813L25.539 66.6526L25.4423 66.4923L25.6408 66.6533L25.8394 66.8143L25.7857 66.9541L25.732 67.0939L26.0948 67.4209L26.4576 67.7479L26.1719 67.3971L25.8862 67.0462L26.5444 67.7395L27.2027 68.4328L27.9242 69.1176L28.6456 69.8025L28.2988 69.5172L27.952 69.2318L28.1191 69.4601L28.2862 69.6884L28.4528 69.8184L28.6195 69.9484L28.7488 69.8988L28.8781 69.8492L29.0393 70.0476L29.2005 70.2459L29.029 70.1486L28.8576 70.0513L28.9528 70.1552L29.0481 70.2591L29.1243 70.2634L29.2005 70.2678L29.4608 70.4121L29.7212 70.5565L29.6432 70.6825L29.5651 70.8086L29.6931 70.7296L29.821 70.6506L30.309 71.14L30.797 71.6294L30.6273 71.4097L30.4576 71.19L30.7719 71.3943L31.0862 71.5986V71.6493V71.7L30.9433 71.6178L30.8005 71.5357L30.8943 71.6382L30.988 71.7406H31.1228H31.2576L31.2959 71.8548L31.3342 71.969L31.4527 72.1117L31.5713 72.2544H31.6856H31.7999L31.643 72.0632L31.4862 71.872L31.8004 72.0763L32.1147 72.2806V72.3626V72.4445L32.2576 72.4489L32.4004 72.4532L32.8864 72.7342L33.3724 73.0153L33.2899 73.0977L33.2074 73.18L33.4227 73.0976L33.6379 73.015L33.5561 73.1473L33.4743 73.2795L33.6704 73.2043L33.8665 73.1292L33.7847 73.2614L33.7029 73.3936L33.899 73.3185L34.0951 73.2433L34.0015 73.3945L33.908 73.5457L34.0314 73.4695L34.1548 73.3934L34.4454 73.5257L34.7362 73.6579L34.6767 73.7541L34.6172 73.8502L34.8133 73.7751L35.0094 73.6999L34.9276 73.8321L34.8457 73.9644L35.0418 73.8892L35.238 73.814L35.1633 73.9347L35.0886 74.0554L35.2303 74.0502L35.3719 74.045L35.5786 74.0631L35.7854 74.0813L35.7038 74.2131L35.6223 74.3448L35.7411 74.2715L35.8599 74.1981L36.2068 74.3189L36.5536 74.4396L36.6163 74.6029L36.679 74.7661H36.8036H36.9282L36.8642 74.6627L36.8001 74.5591L37.2032 74.6827L37.6062 74.8062L37.4605 74.9036L37.3148 75.001L37.6005 74.9799L37.8862 74.9587L38.1719 74.9782L38.4576 74.9976L38.2862 75.1207L38.1148 75.2439L38.3239 75.1762L38.5329 75.1084L38.834 75.1839L39.135 75.2593L38.9106 75.3572L38.6862 75.455L39.0576 75.3986L39.4291 75.3422L39.7701 75.4103L40.1111 75.4784L40.037 75.5981L39.963 75.7177L40.159 75.6426L40.355 75.5675L41.1626 75.7058L41.9702 75.8441L42.0261 75.9898L42.0821 76.1355H42.2481H42.414L42.3434 76.0214L42.2727 75.9073H42.5719H42.8711L42.81 76.0061L42.7488 76.1049L43.212 76.0515L43.6751 75.998L44.1829 76.0741L44.6907 76.1502L44.6246 76.257L44.5585 76.3638L45.6574 76.3619ZM45.2002 76.2478H45.1431V76.1907V76.1336H45.2002H45.2574V76.1907V76.2478H45.2002ZM45.8288 76.2478H45.6764L45.7526 76.1717L45.8288 76.0956L45.905 76.1717L45.9812 76.2478H45.8288ZM46.1717 76.2478H46.0193L46.0955 76.1717L46.1717 76.0956L46.2479 76.1717L46.3241 76.2478H46.1717ZM61.3146 71.1112H61.2575V71.0541V70.9971H61.3146H61.3718V71.0541V71.1112H61.3146ZM66.3432 66.2029H66.2861V66.1459V66.0888H66.3432H66.4004V66.1459V66.2029H66.3432ZM40.4574 64.2624H40.305L40.3812 64.1864L40.4574 64.1103L40.5335 64.1864L40.6097 64.2624H40.4574ZM62.6861 63.5776H62.6289V63.5205V63.4635H62.6861H62.7432V63.5205V63.5776H62.6861ZM22.0001 61.0664H21.943V61.0093V60.9522H22.0001H22.0572V61.0093V61.0664H22.0001ZM34.4573 60.1532H34.4002V60.0962V60.0391H34.4573H34.5145V60.0962V60.1532H34.4573ZM19.7144 53.1903H19.6572V53.1333V53.0762H19.7144H19.7715V53.1333V53.1903H19.7144ZM31.943 43.8304H31.8859V43.7733V43.7162H31.943H32.0002V43.7733V43.8304H31.943ZM20.412 43.6853L20.3429 43.7543L20.352 43.5355L20.361 43.3167L20.421 43.4666L20.481 43.6163L20.412 43.6853H20.412ZM20.8763 42.0801L20.8001 42.1562V42.004V41.8518L20.8763 41.9279L20.9525 42.004L20.8763 42.0801ZM21.5429 40.1777H21.4858V40.1207V40.0636H21.5429H21.6001V40.1207V40.1777H21.5429ZM34.343 40.1777H34.2859V40.1207V40.0636H34.343H34.4002V40.1207V40.1777H34.343ZM55.9432 38.9221H55.886V38.8651V38.808H55.9432H56.0003V38.8651V38.9221H55.9432ZM60.0575 38.1231H60.0003V38.066V38.009H60.0575H60.1146V38.066V38.1231H60.0575ZM51.7146 36.1826H51.6574V36.1256V36.0685H51.7146H51.7717V36.1256V36.1826H51.7146ZM65.2004 35.1553H65.1432V35.0982V35.0411H65.2004H65.2575V35.0982V35.1553H65.2004ZM45.7145 34.8886H44.8574L45.286 34.8438L45.7145 34.7991L46.1431 34.8438L46.5717 34.8886H45.7145ZM39.2478 24.759L39.0288 24.7499L39.1788 24.69L39.3288 24.63L39.3978 24.699L39.4669 24.768L39.2478 24.7589V24.759ZM40.2288 24.5217H39.9431L40.0859 24.4641L40.2288 24.4066L40.3716 24.4641L40.5145 24.5217H40.2288ZM43.2574 24.0609L42.9145 24.0566L43.1167 24.004L43.3189 23.9514L43.4595 24.0082L43.6002 24.0651L43.2574 24.0607V24.0609ZM44.0574 76.2478H44.1145V76.1907V76.1336H44.0574H44.0002V76.1907V76.2478H44.0574ZM42.5716 76.1336H42.6288V76.0765V76.0195H42.5716H42.5145V76.0765V76.1336H42.5716ZM41.0288 75.9053H41.1812L41.105 75.8293L41.0288 75.7532L40.9526 75.8293L40.8764 75.9053H41.0288ZM50.4003 75.9053H50.5526L50.4765 75.8293L50.4003 75.7532L50.3241 75.8293L50.2479 75.9053H50.4003ZM89.5299 75.7912H89.587L89.6576 75.6771L89.7283 75.5629H89.6711H89.614L89.5434 75.6771L89.4727 75.7912H89.5299ZM39.7145 75.6771H39.7716V75.62V75.5629H39.7145H39.6573V75.62V75.6771H39.7145ZM51.9431 75.6771H52.0003V75.62V75.5629H51.9431H51.886V75.62V75.6771H51.9431ZM39.4859 75.5629H39.5431V75.5058V75.4487H39.4859H39.4288V75.5058V75.5629H39.4859ZM89.8862 75.3346H89.9434V75.2775V75.2204H89.8862H89.8291V75.2775V75.3346H89.8862ZM1.42854 74.9922H1.48568V74.9351V74.878H1.42854H1.37139V74.9351V74.9922H1.42854ZM54.6765 74.7548L54.8955 74.7639L54.8265 74.6949L54.7574 74.626L54.6074 74.6859L54.4574 74.7459L54.6765 74.7549V74.7548ZM1.19996 74.6497H1.25711V74.5926V74.5355H1.19996H1.14282V74.5926V74.6497H1.19996ZM57.3717 73.6224H57.5241L57.4479 73.5463L57.3717 73.4702L57.2955 73.5463L57.2194 73.6224H57.3717ZM90.6862 73.5083H90.7434V73.4512V73.3941H90.6862H90.6291V73.4512V73.5083H90.6862ZM58.3432 73.1658H58.4003V73.1088V73.0517H58.3432H58.286V73.1088V73.1658H58.3432ZM33.0859 73.0517H33.143V72.9946V72.9375H33.0859H33.0287V72.9946V73.0517H33.0859ZM32.8002 72.9375H32.9525L32.8764 72.8614L32.8002 72.7853L32.724 72.8614L32.6478 72.9375H32.8002ZM0.514247 72.5951H0.571384V72.538V72.4809H0.514247H0.457103V72.538V72.5951H0.514247ZM59.486 72.4809H59.5432V72.4239V72.3668H59.486H59.4289V72.4239V72.4809H59.486ZM59.765 72.2527H59.8726L59.9424 72.1398L60.0122 72.027L59.8348 72.095L59.6575 72.1629V72.2078V72.2527H59.765ZM91.1619 72.0529L91.2196 71.9102L91.1619 71.7676L91.1043 71.6249V71.9102V72.1956L91.1619 72.0529ZM60.286 71.9102H60.3432V71.8531V71.796H60.286H60.2289V71.8531V71.9102H60.286ZM61.086 71.3395H61.1432V71.2824V71.2253H61.086H61.0289V71.2824V71.3395H61.086ZM0.285677 71.2253H0.342814V71.1683V71.1112H0.285677H0.228526V71.1683V71.2253H0.285677ZM30.1144 71.1112H30.1716V71.0541V70.9971H30.1144H30.0573V71.0541V71.1112H30.1144ZM64.1256 68.7578L64.308 68.6571L64.6803 68.229L65.0526 67.801H65.0074H64.9622L64.4527 68.3297L63.9432 68.8584L64.1256 68.7578ZM66.2861 65.5181H66.4385L66.3623 65.442L66.2861 65.3659L66.2099 65.442L66.1337 65.5181H66.2861ZM66.0004 65.4039H66.0575V65.3469V65.2898H66.0004H65.9432V65.3469V65.4039H66.0004ZM44.9717 65.0615H45.0288V65.0044V64.9473H44.9717H44.9145V65.0044V65.0615H44.9717ZM46.2288 65.0615H46.286V65.0044V64.9473H46.2288H46.1717V65.0044V65.0615H46.2288ZM46.5717 65.0615H46.6288V65.0044V64.9473H46.5717H46.5145V65.0044V65.0615H46.5717ZM47.086 65.0351H47.486L47.286 64.983L47.086 64.9308L46.886 64.983L46.686 65.0351H47.086ZM43.4859 64.9475H43.5431V64.8904V64.8334H43.4859H43.4288V64.8904V64.9475H43.4859ZM48.505 64.8243L48.7241 64.8334L48.655 64.7645L48.586 64.6955L48.436 64.7554L48.286 64.8154L48.505 64.8245V64.8243ZM64.6289 64.605H64.6861V64.548V64.4909H64.6289H64.5718V64.548V64.605H64.6289ZM64.0575 64.2626H64.1146V64.2056V64.1485H64.0575H64.0003V64.2056V64.2626H64.0575ZM51.0193 64.1395L51.2384 64.1486L51.1693 64.0796L51.1003 64.0106L50.9503 64.0706L50.8003 64.1305L51.0193 64.1396V64.1395ZM63.8289 64.1486H63.8861V64.0915V64.0344H63.8289H63.7718V64.0915V64.1486H63.8289ZM23.4858 63.9203H23.543V63.8632V63.8061H23.4858H23.4287V63.8632V63.9203H23.4858ZM51.6574 63.9203H51.8098L51.7336 63.8441L51.6574 63.768L51.5812 63.8441L51.505 63.9203H51.6574ZM63.2928 63.8044H63.3281L63.2575 63.6902L63.1869 63.5761H63.0508H62.9146L63.0861 63.6867L63.2575 63.7973H63.2928L63.2928 63.8044ZM23.2763 63.6539L23.3525 63.5778L23.2763 63.5017L23.2001 63.4256V63.5778V63.73L23.2763 63.6539ZM52.1146 63.6919H52.2669L52.1908 63.6158L52.1146 63.5397L52.0384 63.6158L51.9622 63.6919H52.1146ZM52.4003 63.5777H52.4574V63.5207V63.4636H52.4003H52.3431V63.5207V63.5777H52.4003ZM52.6289 63.4636H52.686V63.4065V63.3494H52.6289H52.5717V63.4065V63.4636H52.6289ZM52.9481 63.285L53.153 63.207L53.089 63.1432L53.025 63.0793L52.8841 63.2211L52.7431 63.3629L52.9481 63.285ZM62.286 63.2353H62.4384L62.3622 63.1592L62.286 63.0831L62.2099 63.1592L62.1337 63.2353H62.286ZM38.0002 63.007H38.0573V62.9499V62.8928H38.0002H37.9431V62.9499V63.007H38.0002ZM53.6574 62.8928H53.7146V62.8358V62.7787H53.6574H53.6003V62.8358V62.8928H53.6574ZM53.886 62.6646H53.9431V62.6075V62.5504H53.886H53.8289V62.6075V62.6646H53.886ZM61.086 62.5504H61.1432V62.4933V62.4363H61.086H61.0289V62.4933V62.5504H61.086ZM36.9716 62.3221H37.0288V62.265V62.2079H36.9716H36.9145V62.265V62.3221H36.9716ZM36.6355 62.0938H36.6859V62.0435V61.9932L36.554 61.9117L36.422 61.8302L36.5036 61.962L36.5851 62.0938H36.6355ZM60.3908 62.0848L60.6098 62.0938L60.5408 62.0249L60.4718 61.9559L60.3218 62.0159L60.1718 62.0758L60.3908 62.0848V62.0848ZM22.2318 61.7513H22.2786L22.211 61.5752L22.1433 61.399L22.0888 61.4534L22.0343 61.5078L22.1097 61.6296L22.185 61.7513H22.2318ZM59.7337 61.7134L59.8098 61.6373L59.7337 61.5612L59.6575 61.4851V61.6373V61.7895L59.7337 61.7134ZM59.486 61.6373H59.5432V61.5802V61.5231H59.486H59.4289V61.5802V61.6373H59.486ZM58.686 61.1807H58.7432V61.1236V61.0665H58.686H58.6289V61.1236V61.1807H58.686ZM69.7516 61.0095H71.9575L71.9053 60.7357L71.853 60.4619L71.9865 60.5443L72.12 60.6268L72.1087 58.7246L72.0974 56.8224L72.1346 56.7857L72.1718 56.749L73.7718 56.7279L75.3718 56.7067L75.6861 56.7175L76.0004 56.7283L76.0251 58.7544L76.0497 60.7805L76.1147 58.6688L76.1796 56.5571L76.2043 58.7497L76.229 60.9424L78.4468 60.9756L80.6647 61.0088L80.6115 60.9233L80.5584 60.8376H80.6794H80.8004V58.783V56.7284L81.0004 56.7201L81.2004 56.7119L82.7433 56.7176L84.2862 56.7232L84.6005 56.6598L84.9147 56.5964L84.9298 56.1774L84.9448 55.7584L85.029 56.1579L85.1132 56.5575L85.1282 54.4104L85.1433 52.2635L85.0095 52.346L84.8758 52.4286L84.9511 52.2327L85.0264 52.0368L84.9134 52.1066L84.8004 52.1763V52.0554V51.9345H82.8004H80.8004V49.9465V47.9585L80.6575 47.8983L80.5147 47.8382L82.7574 47.8602L85.0002 47.8822L84.938 47.7208L84.8758 47.5594L85.0095 47.642L85.1433 47.7245V45.6564V43.5883L85.0167 43.6664L84.8902 43.7445L84.9585 43.4734L85.0269 43.2022L84.9613 43.345L84.8956 43.4876L84.5909 43.4764L84.2861 43.4652L84.5718 43.3738L84.8575 43.2824L82.829 43.2712L80.8004 43.26V41.2558V39.2514L80.6667 39.334L80.533 39.4165L80.6037 39.2324L80.6744 39.0483L80.5088 39.1117L80.3432 39.1752V39.0463V38.9174L78.2767 38.9484L76.2102 38.9794L76.197 41.2624L76.1839 43.5453L76.1169 41.3766L76.0499 39.2078L76.0251 41.2338L76.0004 43.26H74.0575H72.1146V41.2556V39.2514L72.0289 39.3032L71.9432 39.355L71.8072 39.2079L71.6712 39.0609L71.7405 38.9916L71.8099 38.9224H69.8547H67.8995L67.8289 39.0365L67.7583 39.1507H67.644H67.5297L67.6112 39.0189L67.6928 38.8871L67.5608 38.9686L67.4289 39.0501V41.155V43.26H65.3286H63.2283L63.101 43.4132L62.9737 43.5663L63.0257 43.6182L63.0776 43.6701L63.0908 45.862L63.104 48.054L64.6664 48.0308L66.2288 48.0074L64.7431 47.9399L63.2574 47.8724L65.3717 47.8676L67.486 47.8629L66.8574 47.9398L66.2288 48.0168L66.7595 48.0354L67.2901 48.0539L67.3595 48.2344L67.4288 48.415V50.1749V51.9348L65.286 51.9512L63.1431 51.9672L63.6003 52.0489L64.0574 52.1307L63.5717 52.1471L63.086 52.1635L63.0811 52.3061L63.0763 52.4488L63.0842 54.4464L63.0921 56.4439L63.2823 56.5866L63.4725 56.7293H65.4507H67.4289V58.7175V60.7058L67.4872 60.8578L67.5455 61.0098H69.7515L69.7516 61.0095ZM71.9433 56.729H71.8861V56.672V56.6149H71.9433H72.0004V56.672V56.729H71.9433ZM80.629 56.729H80.5719V56.672V56.6149H80.629H80.6862V56.672V56.729H80.629ZM84.9933 55.5603L84.9413 55.7588L84.9434 55.3022L84.9456 54.8456L84.9953 55.1038L85.045 55.3619L84.993 55.5603H84.9933ZM84.9719 54.7885H84.9147V54.7314V54.6743H84.9719H85.0291V54.7314V54.7885H84.9719ZM66.7432 52.1321H66.2289L66.4861 52.0826L66.7432 52.0331L67.0004 52.0826L67.2575 52.1321H66.7432ZM67.3718 52.1631H67.3147V52.1061V52.049H67.3718H67.4289V52.1061V52.1631H67.3718ZM71.9433 52.1631H71.8861V52.1061V52.049H71.9433H72.0004V52.1061V52.1631H71.9433ZM72.9147 52.145H72.629L72.7718 52.0875L72.9147 52.0299L73.0575 52.0875L73.2004 52.145H72.9147ZM75.7147 52.1631H75.6576V52.1061V52.049H75.7147H75.7718V52.1061V52.1631H75.7147ZM76.2003 50.1695L76.1662 52.2202L76.1405 50.0801L76.1147 47.9398L75.7433 47.957L75.3719 47.9743L75.6862 48.0218L76.0004 48.0694V50.0023V51.9352H74.0576H72.1147V49.9947V48.0542L73.7433 48.0301L75.3719 48.0059L73.6004 47.9398L71.829 47.8736L73.9754 47.8495L76.1219 47.8253L76.1782 47.9719L76.2345 48.1184L76.2003 50.1695ZM80.629 52.1631H80.5719V52.1061V52.049H80.629H80.6862V52.1061V52.1631H80.629ZM80.9719 52.1631H80.9147V52.1061V52.049H80.9719H81.029V52.1061V52.1631H80.9719ZM81.429 52.1407L81.0862 52.1364L81.2883 52.0838L81.4905 52.0312L81.6312 52.088L81.7719 52.1449L81.429 52.1406V52.1407ZM82.0576 52.145H81.7719L81.9147 52.0875L82.0576 52.0299L82.2005 52.0875L82.3433 52.145H82.0576ZM84.9978 47.1152L84.9532 47.5402L84.954 46.627L84.9549 45.7139L84.9988 46.202L85.0427 46.6901L84.998 47.1152H84.9978ZM84.9719 45.6568H84.9148V45.5997V45.5426H84.9719H85.0291V45.5997V45.6568H84.9719ZM63.6003 43.4592L63.1432 43.4549L63.4017 43.4053L63.6602 43.3556L63.8588 43.4076L64.0575 43.4596L63.6003 43.4552V43.4592ZM64.3432 43.4881H64.1908L64.267 43.412L64.3432 43.336L64.4194 43.412L64.4956 43.4881H64.3432ZM64.8004 43.4881H64.648L64.7242 43.412L64.8004 43.336L64.8766 43.412L64.9527 43.4881H64.8004ZM65.2575 43.4881H65.1051L65.1813 43.412L65.2575 43.336L65.3337 43.412L65.4099 43.4881H65.2575ZM65.7147 43.4881H65.5623L65.6385 43.412L65.7147 43.336L65.7908 43.412L65.867 43.4881H65.7147ZM66.2194 43.4791L66.0004 43.47L66.1504 43.41L66.3004 43.3501L66.3694 43.4191L66.4385 43.488L66.2194 43.479V43.4791ZM66.8004 43.4657L66.4575 43.4614L66.6597 43.4088L66.8619 43.3561L67.0026 43.413L67.1432 43.4699L66.8004 43.4656V43.4657ZM72.629 43.4554H72.0576L72.3734 43.4076L72.6893 43.3599L72.9448 43.4092L73.2004 43.4584L72.629 43.4554ZM73.4861 43.4881H73.3337L73.4099 43.412L73.4861 43.336L73.5623 43.412L73.6385 43.4881H73.4861ZM73.9433 43.4881H73.7909L73.8671 43.412L73.9433 43.336L74.0195 43.412L74.0957 43.4881H73.9433ZM74.4004 43.4881H74.248L74.3242 43.412L74.4004 43.336L74.4766 43.412L74.5528 43.4881H74.4004ZM74.8576 43.4881H74.7052L74.7814 43.412L74.8576 43.336L74.9338 43.412L75.0099 43.4881H74.8576ZM75.6004 43.4592L75.1433 43.4549L75.4018 43.4053L75.6602 43.3556L75.8589 43.4076L76.0576 43.4596L75.6004 43.4552V43.4592ZM81.5433 43.4506H80.7433L81.1122 43.4048L81.4811 43.3589L81.9122 43.4038L82.3433 43.4488H81.5433V43.4506ZM82.629 43.4881H82.4767L82.5528 43.412L82.629 43.336L82.7052 43.412L82.7814 43.4881H82.629ZM83.0862 43.4881H82.9338L83.01 43.412L83.0862 43.336L83.1624 43.412L83.2386 43.4881H83.0862ZM83.5433 43.4881H83.391L83.4671 43.412L83.5433 43.336L83.6195 43.412L83.6957 43.4881H83.5433ZM84.0005 43.4881H83.8481L83.9243 43.412L84.0005 43.336L84.0767 43.412L84.1529 43.4881H84.0005ZM71.9433 43.1457H71.8861V43.0886V43.0316H71.9433H72.0004V43.0886V43.1457H71.9433ZM76.3433 39.1506H76.1909L76.2671 39.0745L76.3433 38.9984L76.4195 39.0745L76.4957 39.1506H76.3433ZM56.1319 60.9524H56.189L56.4575 60.6671L56.7259 60.3817H56.6687H56.6116L56.3432 60.6671L56.0748 60.9524H56.1319ZM58.4003 60.9524H58.5527L58.4765 60.8763L58.4003 60.8003L58.3241 60.8763L58.2479 60.9524H58.4003ZM72.0576 60.8383H72.1147V60.7813V60.7242H72.0576H72.0004V60.7813V60.8383H72.0576ZM57.6003 60.4959H57.7527L57.6765 60.4197L57.6003 60.3436L57.5241 60.4197L57.4479 60.4959H57.6003ZM56.7432 60.2675H56.8003V60.2105V60.1534H56.7432H56.686V60.2105V60.2675H56.7432ZM34.2355 59.811H34.2859V59.7607V59.7103L34.1539 59.6289L34.022 59.5474L34.1035 59.6792L34.1851 59.811H34.2355ZM33.5498 58.8978H33.6002V58.8475V58.7972L33.4682 58.7157L33.3363 58.6342L33.4178 58.7661L33.4994 58.8978H33.5498ZM32.9716 58.0988H33.0287V58.0417V57.9847H32.9716H32.9145V58.0417V58.0988H32.9716ZM32.5335 57.2617L32.6097 57.1856L32.5335 57.1095L32.4573 57.0334V57.1856V57.3378L32.5335 57.2617ZM31.7145 55.5876H31.7716V55.5305V55.4735H31.7145H31.6573V55.5305V55.5876H31.7145ZM30.9263 52.5889L30.9954 52.5199L30.9354 52.3701L30.8753 52.2203L30.8663 52.4391L30.8573 52.6578L30.9263 52.5889H30.9263ZM19.6001 52.3915H19.6572V52.3345V52.2774H19.6001H19.5429V52.3345V52.3915H19.6001ZM82.6862 48.0078L84.5148 48.008L83.6345 47.9692L82.7542 47.9303L81.8059 47.9687L80.8576 48.0071L82.6862 48.0074V48.0078ZM84.6862 48.054H84.8386L84.7624 47.9778L84.6862 47.9017L84.61 47.9778L84.5338 48.054H84.6862ZM31.8406 44.4845L31.9097 44.4155L31.8497 44.2658L31.7896 44.1159L31.7806 44.3347L31.7716 44.5535L31.8406 44.4845H31.8406ZM32.5145 42.9174H32.5716V42.8603V42.8033H32.5145H32.4573V42.8603V42.9174H32.5145ZM33.2658 41.6935L33.5303 41.4399L33.4664 41.3761L33.4026 41.3123L33.2019 41.6297L33.0012 41.9472L33.2658 41.6935ZM33.9867 40.6345H34.0438L34.1145 40.5204L34.1851 40.4062H34.1279H34.0708L34.0002 40.5204L33.9295 40.6345H33.9867ZM35.1076 39.3789H35.1648L35.3716 39.1506L35.5785 38.9223H35.5213H35.4642L35.2573 39.1506L35.0505 39.3789H35.1076ZM58.8003 38.9223H58.8575V38.8653V38.8082H58.8003H58.7432V38.8653V38.9223H58.8003ZM55.607 38.6941H55.6575V38.6437V38.5933L55.5255 38.5119L55.3936 38.4305L55.4751 38.5622L55.5567 38.6941H55.607ZM36.222 38.4657H36.343V38.3516V38.2374H36.2926H36.2423L36.1716 38.3516L36.101 38.4657H36.222ZM55.2574 38.4657H55.3146V38.4087V38.3516H55.2574H55.2003V38.4087V38.4657H55.2574ZM59.6003 38.4657H59.6575V38.4087V38.3516H59.6003H59.5432V38.4087V38.4657H59.6003ZM36.743 38.0092H36.8002V37.9521V37.895H36.743H36.6859V37.9521V38.0092H36.743ZM60.4003 38.0092H60.4575V37.9521V37.895H60.4003H60.3432V37.9521V38.0092H60.4003ZM54.1146 37.5525H54.1717V37.4955V37.4385H54.1146H54.0574V37.4955V37.5525H54.1146ZM53.7717 37.3243H53.8289V37.2672V37.2101H53.7717H53.7146V37.2672V37.3243H53.7717ZM53.5431 37.2101H53.6003V37.1531V37.096H53.5431H53.486V37.1531V37.2101H53.5431ZM62.0575 37.096H62.2099L62.1337 37.0199L62.0575 36.9438L61.9813 37.0199L61.9051 37.096H62.0575ZM23.0287 36.9818H23.0858V36.9247V36.8676H23.0287H22.9715V36.9247V36.9818H23.0287ZM52.9717 36.8676H53.0289V36.8107V36.7536H52.9717H52.9146V36.8107V36.8676H52.9717ZM39.1431 36.5253H39.2002V36.4682V36.4111H39.1431H39.0859V36.4682V36.5253H39.1431ZM63.1432 36.4111H63.2004V36.354V36.2969H63.1432H63.0861V36.354V36.4111H63.1432ZM40.7431 35.9545H40.8002V35.8975V35.8404H40.7431H40.6859V35.8975V35.9545H40.7431ZM23.7144 35.8404H23.7715V35.7833V35.7262H23.7144H23.6573V35.7833V35.8404H23.7144ZM42.1145 35.4979H42.1717V35.4409V35.3838H42.1145H42.0574V35.4409V35.4979H42.1145ZM24.6287 34.3565H24.6858V34.2994V34.2423H24.6287H24.5715V34.2994V34.3565H24.6287ZM66.1324 33.5574H66.1718V33.5182V33.4789L65.9146 33.2615L65.6575 33.044L65.8752 33.3008L66.0929 33.5577L66.1324 33.5574ZM26.4178 32.3018H26.4634L27.2603 31.4772L28.0573 30.6525L27.7716 30.8965L27.4859 31.1404L27.0824 31.5214L26.679 31.9023L26.5256 32.1021L26.3721 32.3018H26.4178ZM28.5004 30.3614H28.5436L28.7004 30.1616L28.8573 29.9619L28.6573 30.1185L28.4573 30.2752V30.3183V30.3615L28.5004 30.3614ZM61.7785 29.3341H61.8289V29.2838V29.2334L61.697 29.152L61.565 29.0705L61.6466 29.2023L61.7281 29.3341H61.7785ZM29.8859 29.2199H29.943V29.1629V29.1058H29.8859H29.8287V29.1629V29.2199H29.8859ZM61.4357 29.1058H61.4861V28.9916V28.8775H61.365H61.244L61.3146 28.9916L61.3853 29.1058H61.4357ZM30.6724 28.6492H30.7295L30.8002 28.5351L30.8708 28.4209H30.8136H30.7565L30.6859 28.5351L30.6152 28.6492H30.6724ZM31.0859 28.3068H31.2382L31.1621 28.2307L31.0859 28.1546L31.0097 28.2307L30.9335 28.3068H31.0859ZM31.8287 27.8502H31.8859V27.7931V27.7361H31.8287H31.7716V27.7931V27.8502H31.8287ZM32.6287 27.3936H32.6859V27.3365V27.2794H32.6287H32.5716V27.3365V27.3936H32.6287ZM58.686 27.2794H58.7432V27.2224V27.1653H58.686H58.6289V27.2224V27.2794H58.686ZM58.4575 27.1653H58.5146V27.1083V27.0512H58.4575H58.4003V27.1083V27.1653H58.4575ZM33.3145 26.937H33.3716V26.88V26.8229H33.3145H33.2573V26.88V26.937H33.3145ZM34.2288 26.4805H34.2859V26.4234V26.3663H34.2288H34.1716V26.4234V26.4805H34.2288ZM90.572 26.138H90.6291V26.0809V26.0238H90.572H90.5148V26.0809V26.138H90.572ZM90.4577 25.9097H90.5148V25.8527V25.7956H90.4577H90.4005V25.8527V25.9097H90.4577ZM36.1716 25.6814H36.2288V25.6244V25.5673H36.1716H36.1145V25.6244V25.6814H36.1716ZM90.3465 25.6814H90.3933L90.3257 25.5053L90.258 25.3291L90.2035 25.3835L90.1491 25.4379L90.2244 25.5597L90.2997 25.6814H90.3465ZM37.5194 25.1604L37.7243 25.0825L37.6604 25.0186L37.5964 24.9547L37.4554 25.0965L37.3145 25.2383L37.5194 25.1604ZM90.1148 25.2248H90.172V25.1678V25.1107H90.1148H90.0577V25.1678V25.2248H90.1148ZM89.4358 24.1975H89.4862V24.1472V24.0968L89.3543 24.0154L89.2223 23.934L89.3039 24.0657L89.3854 24.1975H89.4358ZM2.45713 23.7403L2.6857 23.5987L2.95153 23.2703L3.21737 22.9419H3.17474H3.1321L2.68034 23.4119L2.22857 23.8819L2.45713 23.7403ZM88.6291 23.3985H88.6862V23.3414V23.2843H88.6291H88.5719V23.3414V23.3985H88.6291ZM87.6005 22.4853H87.6576V22.4283V22.3712H87.6005H87.5434V22.4283V22.4853H87.6005ZM87.2576 22.257H87.3148V22.2V22.1429H87.2576H87.2005V22.2V22.257H87.2576ZM86.8644 22.0287H86.9719V21.9839V21.939L86.7946 21.8711L86.6172 21.8031L86.687 21.9159L86.7569 22.0287H86.8644ZM4.97143 21.8004H5.02856V21.7434V21.6863H4.97143H4.91428V21.7434V21.8004H4.97143ZM85.8862 21.458H85.9433V21.4009V21.3438H85.8862H85.8291V21.4009V21.458H85.8862ZM85.3148 21.1156H85.3719V21.0585V21.0014H85.3148H85.2576V21.0585V21.1156H85.3148ZM7.07898 20.659H7.18652L7.25635 20.5462L7.32616 20.4333L7.1488 20.5013L6.97144 20.5693V20.6141V20.659H7.07898ZM84.5148 20.659H84.5719V20.6019V20.5448H84.5148H84.4576V20.6019V20.659H84.5148ZM7.54287 20.4307H7.69525L7.61906 20.3546L7.54287 20.2785L7.46668 20.3546L7.39049 20.4307H7.54287ZM7.87898 20.2024H7.98652L8.05635 20.0896L8.12617 19.9768L7.9488 20.0447L7.77144 20.1127V20.1576V20.2024H7.87898ZM8.28573 19.9741H8.34287V19.917V19.86H8.28573H8.22859V19.917V19.9741H8.28573ZM8.62859 19.7458H8.68573V19.6888V19.6317H8.62859H8.57145V19.6888V19.7458H8.62859ZM8.85716 19.6317H8.91431V19.5746V19.5175H8.85716H8.80002V19.5746V19.6317H8.85716ZM9.14288 19.5175H9.29526L9.21907 19.4414L9.14288 19.3653L9.06669 19.4414L8.9905 19.5175H9.14288ZM82.4576 19.5175H82.5148V19.4605V19.4034H82.4576H82.4005V19.4605V19.5175H82.4576ZM9.42859 19.2892H9.48574V19.2322V19.1751H9.42859H9.37145V19.2322V19.2892H9.42859ZM9.65717 19.1751H9.71431V19.118V19.0609H9.65717H9.60002V19.118V19.1751H9.65717ZM81.429 18.9468H81.4862V18.8897V18.8327H81.429H81.3719V18.8897V18.9468H81.429ZM10.6857 18.6044H10.7429V18.5473V18.4902H10.6857H10.6286V18.5473V18.6044H10.6857ZM79.6005 17.9195H79.6576V17.8624V17.8054H79.6005H79.5433V17.8624V17.9195H79.6005ZM79.3719 17.8054H79.429V17.7483V17.6912H79.3719H79.3147V17.7483V17.8054H79.3719ZM12.2858 17.6927H12.3429V17.6356V17.5785H12.2858H12.2286V17.6356V17.6927H12.2858ZM12.5143 17.5785H12.5715V17.5214V17.4644H12.5143H12.4572V17.5214V17.5785H12.5143ZM78.7433 17.4644H78.8957L78.8195 17.3883L78.7433 17.3122L78.6671 17.3883L78.5909 17.4644H78.7433ZM77.7719 16.8936H77.829V16.8366V16.7795H77.7719H77.7147V16.8366V16.8936H77.7719ZM14.1143 16.6654H14.1715V16.6083V16.5512H14.1143H14.0572V16.6083V16.6654H14.1143ZM14.3429 16.5512H14.4V16.4941V16.4371H14.3429H14.2858V16.4941V16.5512H14.3429ZM14.5715 16.4371H14.6286V16.38V16.3229H14.5715H14.5143V16.38V16.4371H14.5715ZM76.9719 16.4371H77.029V16.38V16.3229H76.9719H76.9147V16.38V16.4371H76.9719ZM15.1429 16.0946H15.2V16.0376V15.9805H15.1429H15.0858V16.0376V16.0946H15.1429ZM76.2861 16.0946H76.3433V16.0376V15.9805H76.2861H76.229V16.0376V16.0946H76.2861ZM15.3715 15.9805H15.4286V15.9234V15.8663H15.3715H15.3143V15.9234V15.9805H15.3715ZM75.8929 15.8663H76.0004V15.8215V15.7766L75.8231 15.7087L75.6457 15.6407L75.7155 15.7535L75.7853 15.8663H75.8929ZM16.0572 15.6381H16.1143V15.581V15.5239H16.0572H16.0001V15.581V15.6381H16.0572ZM75.1433 15.4098H75.2004V15.3527V15.2956H75.1433H75.0861V15.3527V15.4098H75.1433ZM17.2001 14.9532H17.2572V14.8961V14.839H17.2001H17.1429V14.8961V14.9532H17.2001ZM74.3433 14.9532H74.4004V14.8961V14.839H74.3433H74.2861V14.8961V14.9532H74.3433ZM17.4286 14.839H17.4858V14.782V14.7249H17.4286H17.3715V14.782V14.839H17.4286ZM74.1147 14.839H74.1718V14.782V14.7249H74.1147H74.0576V14.782V14.839H74.1147ZM18.0001 14.4966H18.0572V14.4395V14.3825H18.0001H17.9429V14.4395V14.4966H18.0001ZM73.0861 14.2683H73.1433V14.2112V14.1542H73.0861H73.029V14.2112V14.2683H73.0861ZM72.8575 14.1542H72.9147V14.0971V14.04H72.8575H72.8004V14.0971V14.1542H72.8575ZM18.8001 14.04H18.8572V13.983V13.9259H18.8001H18.7429V13.983V14.04H18.8001ZM72.2861 13.8117H72.3433V13.7547V13.6976H72.2861H72.229V13.7547V13.8117H72.2861ZM72.0575 13.6976H72.1147V13.6405V13.5834H72.0575H72.0004V13.6405V13.6976H72.0575ZM19.8287 13.4693H19.8858V13.4122V13.3552H19.8287H19.7715V13.4122V13.4693H19.8287ZM20.0572 13.3552H20.1144V13.2981V13.241H20.0572H20.0001V13.2981V13.3552H20.0572ZM71.4861 13.3552H71.5432V13.2981V13.241H71.4861H71.429V13.2981V13.3552H71.4861ZM20.2858 13.241H20.3429V13.1839V13.1269H20.2858H20.2287V13.1839V13.241H20.2858ZM71.2575 13.241H71.3147V13.1839V13.1269H71.2575H71.2004V13.1839V13.241H71.2575ZM21.6572 12.442H21.7144V12.3849V12.3278H21.6572H21.6001V12.3849V12.442H21.6572ZM69.429 12.2137H69.4861V12.1566V12.0996H69.429H69.3718V12.1566V12.2137H69.429ZM69.2004 12.0996H69.2575V12.0425V11.9854H69.2004H69.1432V12.0425V12.0996H69.2004ZM22.4572 11.9854H22.5144V11.9283V11.8713H22.4572H22.4001V11.9283V11.9854H22.4572ZM68.629 11.7571H68.6861V11.7V11.6429H68.629H68.5718V11.7V11.7571H68.629ZM68.4004 11.6429H68.4575V11.5859V11.5288H68.4004H68.3432V11.5859V11.6429H68.4004ZM23.5049 11.4908L23.5811 11.4147L23.5049 11.3386L23.4287 11.2625V11.4147V11.5668L23.5049 11.4908ZM68.1147 11.5287H68.267L68.1908 11.4527L68.1147 11.3766L68.0385 11.4527L67.9623 11.5287H68.1147ZM23.7715 11.3005H23.9239L23.8477 11.2243L23.7715 11.1482L23.6953 11.2243L23.6191 11.3005H23.7715ZM67.3718 11.0721H67.4289V11.0151V10.958H67.3718H67.3147V11.0151V11.0721H67.3718ZM66.5147 10.6156H66.667L66.5908 10.5395L66.5147 10.4634L66.4385 10.5395L66.3623 10.6156H66.5147ZM25.3144 10.3873H25.3715V10.3302V10.2731H25.3144H25.2572V10.3302V10.3873H25.3144ZM66.0194 10.3493L66.0956 10.2732L66.0194 10.1972L65.9432 10.1211V10.2732V10.4254L66.0194 10.3493ZM25.543 10.2732H25.6001V10.2162V10.1591H25.543H25.4858V10.2162V10.2732H25.543ZM65.7718 10.1591H65.8289V10.102V10.045H65.7718H65.7146V10.102V10.1591H65.7718ZM26.2287 9.93083H26.2858V9.87374V9.81666H26.2287H26.1715V9.87374V9.93083H26.2287ZM65.2004 9.93083H65.2575V9.87374V9.81666H65.2004H65.1432V9.87374V9.93083H65.2004ZM64.9718 9.70248H65.0289V9.64545V9.58836H64.9718H64.9146V9.64545V9.70248H64.9718ZM27.3716 9.24595H27.4287V9.18886V9.13177H27.3716H27.3144V9.18886V9.24595H27.3716ZM63.6003 9.01765H63.6575V8.96056V8.90348H63.6003H63.5432V8.96056V9.01765H63.6003ZM28.222 8.7893H28.3295L28.3993 8.6765L28.4691 8.56364L28.2918 8.63163L28.1144 8.69962V8.74449V8.7893H28.222ZM28.6287 8.56106H28.6858V8.50397V8.44689H28.6287H28.5716V8.50397V8.56106H28.6287ZM28.9716 8.33277H29.0287V8.27568V8.21859H28.9716H28.9144V8.27568V8.33277H28.9716ZM62.0642 8.10447H62.1718V8.0596V8.01473L61.9944 7.94675L61.817 7.87876L61.8869 7.99161L61.9567 8.10447H62.0642ZM29.7716 7.87618H29.8287V7.81909V7.76206H29.7716H29.7144V7.81909V7.87618H29.7716ZM61.6575 7.87618H61.7146V7.81909V7.76206H61.6575H61.6003V7.81909V7.87618H61.6575ZM30.6724 7.41959H30.7295L30.8001 7.30547L30.8708 7.19129H30.8136H30.7565L30.6859 7.30547L30.6152 7.41959H30.6724ZM31.8287 6.7347H31.8859V6.67767V6.62058H31.8287H31.7716V6.67767V6.7347H31.8287ZM59.6071 6.7347H59.6575V6.68441V6.63406L59.5255 6.55259L59.3936 6.47112L59.4751 6.60294L59.5567 6.7347H59.6071ZM59.2575 6.50646H59.3146V6.44937V6.39229H59.2575H59.2003V6.44937V6.50646H59.2575ZM59.0289 6.39229H59.086V6.3352V6.27811H59.0289H58.9717V6.3352V6.39229H59.0289ZM32.6287 6.27811H32.6859V6.22108V6.16399H32.6287H32.5716V6.22108V6.27811H32.6287ZM58.7432 6.27811H58.8956L58.8194 6.20201L58.7432 6.12591L58.667 6.20201L58.5908 6.27811H58.7432ZM58.4575 6.04982H58.5146V5.99278V5.9357H58.4575H58.4003V5.99278V6.04982H58.4575ZM58.2289 5.9357H58.286V5.87866V5.82157H58.2289H58.1717V5.87866V5.9357H58.2289ZM57.9432 5.82157H58.0956L58.0194 5.74548L57.9432 5.66938L57.867 5.74548L57.7908 5.82157H57.9432ZM33.6573 5.7074H33.7145V5.65031V5.59328H33.6573H33.6002V5.65031V5.7074H33.6573ZM33.943 5.59328H34.0954L34.0192 5.51718L33.943 5.44103L33.8668 5.51718L33.7906 5.59328H33.943ZM34.7867 5.13669H34.8438L34.9145 5.02251L34.9851 4.90839H34.9279H34.8708L34.8002 5.02251L34.7295 5.13669H34.7867ZM56.4003 4.90839H56.4574V4.85131V4.79422H56.4003H56.3432V4.85131V4.90839H56.4003ZM56.1717 4.79422H56.2289V4.73713V4.6801H56.1717H56.1146V4.73713V4.79422H56.1717ZM35.4859 4.6801H35.543V4.62306V4.56598H35.4859H35.4287V4.62306V4.6801H35.4859ZM35.7145 4.56598H35.7716V4.50889V4.4518H35.7145H35.6573V4.50889V4.56598H35.7145ZM55.6003 4.4518H55.6574V4.39472V4.33768H55.6003H55.5432V4.39472V4.4518H55.6003ZM36.3363 4.22351H36.4438L36.5137 4.1107L36.5835 3.99785L36.4061 4.06583L36.2288 4.13377V4.17864V4.22351H36.3363ZM36.743 3.99521H36.8002V3.93818V3.88109H36.743H36.6859V3.93818V3.99521H36.743ZM54.8003 3.99521H54.8574V3.93818V3.88109H54.8003H54.7431V3.93818V3.99521H54.8003ZM54.5717 3.88109H54.6289V3.82401V3.76692H54.5717H54.5146V3.82401V3.88109H54.5717ZM53.886 3.53862H53.9431V3.48154V3.4245H53.886H53.8289V3.48154V3.53862H53.886ZM38.3934 3.08209H38.501L38.5708 2.96923L38.6406 2.85637L38.4633 2.92436L38.2859 2.99235V3.03722V3.08209H38.3934ZM53.0289 3.08209H53.1431V3.03174V2.98139L53.0289 2.91083L52.9146 2.84031V2.96117V3.08209H53.0289ZM38.8002 2.85374H38.8573V2.7967V2.73962H38.8002H38.7431V2.7967V2.85374H38.8002ZM52.7431 2.85374H52.8003V2.7967V2.73962H52.7431H52.686V2.7967V2.85374H52.7431ZM39.1431 2.62544H39.2002V2.56841V2.51132H39.1431H39.0859V2.56841V2.62544H39.1431ZM51.9431 2.3972H52.0003V2.34011V2.28303H51.9431H51.886V2.34011V2.3972H51.9431ZM51.7146 2.28303H51.7717V2.22594V2.16891H51.7146H51.6574V2.22594V2.28303H51.7146ZM40.1716 2.05473H40.2288V1.99765V1.94056H40.1716H40.1145V1.99765V2.05473H40.1716ZM40.4574 1.94056H40.6097L40.5335 1.86451L40.4574 1.78841L40.3812 1.86451L40.305 1.94056H40.4574ZM51.1431 1.94056H51.2003V1.88352V1.82649H51.1431H51.086V1.88352V1.94056H51.1431ZM50.9146 1.82649H50.9717V1.7694V1.71232H50.9146H50.8574V1.7694V1.82649H50.9146ZM50.2356 1.48402H50.286V1.43368V1.38338L50.154 1.30191L50.0221 1.22044L50.1036 1.35226L50.1852 1.48402H50.2356ZM41.4288 1.36985H41.4859V1.31276V1.25573H41.4288H41.3716V1.31276V1.36985H41.4288ZM42.1145 1.02743H42.1716V0.970344V0.91331H42.1145H42.0574V0.970344V1.02743H42.1145ZM49.086 0.91331H49.1431V0.856223V0.799136H49.086H49.0288V0.856223V0.91331H49.086ZM44.9621 0.33354L45.1812 0.342599L45.1121 0.27361L45.0431 0.204674L44.8931 0.264604L44.7431 0.324588L44.9621 0.333646V0.33354ZM46.6288 0.315846H47.0288L46.8288 0.263656L46.6288 0.211467L46.4288 0.263656L46.2288 0.315846H46.6288ZM43.3145 99.6491H43.1621L43.2383 99.5731L43.3145 99.4969L43.3907 99.5731L43.4669 99.6491H43.3145ZM48.9145 99.4209H48.7622L48.8384 99.3448L48.9145 99.2687L48.9907 99.3448L49.0669 99.4209H48.9145ZM60.9718 92.8004H60.9146V92.7433V92.6863H60.9718H61.0289V92.7433V92.8004H60.9718ZM80.0576 82.0707H80.0005V82.0137V81.9566H80.0576H80.1147V82.0137V82.0707H80.0576ZM82.9147 80.4727H82.8576V80.4156V80.3585H82.9147H82.9719V80.4156V80.4727H82.9147ZM83.7148 80.016H83.6576V79.959V79.902H83.7148H83.7719V79.959V80.016H83.7148ZM91.0291 73.0532H90.9719V72.9961V72.939H91.0291H91.0862V72.9961V73.0532H91.0291ZM0.189936 65.0915L0.132291 65.2342V64.9488V64.6635L0.189936 64.8062L0.247574 64.9488L0.189936 65.0915ZM0.189936 55.9599L0.132291 56.1025V55.8172V55.5318L0.189936 55.6745L0.247574 55.8172L0.189936 55.9599ZM0.189936 46.8282L0.132291 46.9709V46.6855V46.4002L0.189936 46.5428L0.247574 46.6855L0.189936 46.8282ZM0.189936 37.6966L0.132291 37.8392V37.5538V37.2685L0.189936 37.4112L0.247574 37.5538L0.189936 37.6966ZM0.171402 30.0202H0.114258V29.9632V29.9061H0.171402H0.228546V29.9632V30.0202H0.171402ZM0.19045 29.7539L0.114258 29.83V29.6778V29.5256L0.19045 29.6017L0.266642 29.6778L0.19045 29.7539ZM90.8005 26.4817H90.7434V26.4246V26.3676H90.8005H90.8577V26.4246V26.4817H90.8005ZM88.1859 22.8291H88.1428L87.9859 22.6293L87.8291 22.4296L88.0291 22.5862L88.2291 22.7428V22.786V22.8292L88.1859 22.8291ZM27.0287 9.35986H26.9716V9.30277V9.24574H27.0287H27.0859V9.30277V9.35986H27.0287ZM63.2575 8.67497H63.2004V8.61794V8.56085H63.2575H63.3146V8.61794V8.67497H63.2575ZM31.4859 6.84882H31.4287V6.79174V6.73465H31.4859H31.543V6.79174V6.84882H31.4859ZM33.0859 5.9357H33.0287V5.87861V5.82152H33.0859H33.143V5.87861V5.9357H33.0859Z" fill="#BD00FF"/>
</g>
<defs>
<clipPath id="clip0_29_138">
<rect width="91.453" height="100" fill="white"/>
</clipPath>
</defs>
</svg>
