<svg width="91" height="100" viewBox="0 0 91 100" fill="none" xmlns="http://www.w3.org/2000/svg">
    <g clip-path="url(#clip0_29_42)">
    <rect x="20.3892" y="19.708" width="49.635" height="59.854" fill="white"/>
    <path d="M39.9124 98.4786C39.9932 98.4463 40.0896 98.4502 40.1268 98.4874C40.164 98.5247 40.098 98.5511 39.98 98.5463C39.8498 98.5409 39.8232 98.5144 39.9124 98.4786ZM50.6481 98.4786C50.7288 98.4463 50.8253 98.4502 50.8624 98.4874C50.8996 98.5247 50.8337 98.5511 50.7157 98.5463C50.5854 98.5409 50.5589 98.5144 50.6481 98.4786ZM34.0221 96.8587C33.8155 96.7992 33.6682 96.7287 33.6947 96.7021C33.7213 96.6756 33.9657 96.7239 34.2381 96.8095C34.7942 96.9842 34.6063 97.0271 34.0221 96.8587ZM56.2046 96.8924C56.5504 96.7441 57.1301 96.6296 56.9315 96.7488C56.8393 96.8042 56.5877 96.8807 56.3724 96.9189C56.1084 96.9657 56.0537 96.9571 56.2046 96.8924ZM28.1704 95.1188C28.2511 95.0864 28.3475 95.0904 28.3847 95.1276C28.4219 95.1648 28.356 95.1913 28.2379 95.1864C28.1076 95.1811 28.0811 95.1545 28.1704 95.1188ZM62.3902 95.1188C62.471 95.0864 62.5674 95.0904 62.6046 95.1276C62.6418 95.1648 62.5758 95.1913 62.4578 95.1864C62.3275 95.1811 62.301 95.1545 62.3902 95.1188ZM27.3875 94.8948C27.4683 94.8624 27.5647 94.8664 27.6019 94.9036C27.6391 94.9408 27.5732 94.9673 27.4551 94.9625C27.3248 94.9571 27.2983 94.9305 27.3875 94.8948V94.8948ZM63.173 94.8948C63.2538 94.8624 63.3502 94.8664 63.3874 94.9036C63.4246 94.9408 63.3586 94.9673 63.2406 94.9625C63.1103 94.9571 63.0838 94.9305 63.173 94.8948V94.8948ZM21.6493 93.2914C21.5083 93.2307 21.4876 93.1951 21.5934 93.1951C21.6856 93.1951 21.8618 93.2384 21.9848 93.2914C22.1258 93.3521 22.1464 93.3876 22.0407 93.3876C21.9484 93.3876 21.7723 93.3443 21.6493 93.2914ZM68.7295 93.2914C68.8526 93.2384 69.0287 93.1951 69.121 93.1951C69.2267 93.1951 69.206 93.2307 69.065 93.2914C68.942 93.3443 68.7659 93.3876 68.6736 93.3876C68.5679 93.3876 68.5886 93.352 68.7295 93.2914ZM45.4131 85.6299V79.3194L46.0561 79.0953C46.4097 78.972 47.2778 78.6922 47.9851 78.4734C49.4107 78.0325 51.1293 77.4596 54.9786 76.1421C56.3954 75.6571 57.639 75.2603 57.7421 75.2603C57.8452 75.2603 59.0008 74.8911 60.3102 74.4398C61.6195 73.9886 63.4305 73.3757 64.3347 73.0779C65.2389 72.7801 66.0314 72.5039 66.0957 72.464C66.2158 72.3897 67.1059 59.4398 67.1082 57.7332C67.1082 57.2404 67.3324 53.4102 67.6051 49.2216C68.2274 39.6593 68.8425 29.7812 69.0695 25.7028C69.1655 23.9781 69.2739 22.2267 69.3104 21.811L69.3767 21.055L57.3669 21.055L45.3572 21.055L45.3867 14.5034L45.4163 7.95166H63.4272H81.438L81.369 8.53963C81.2512 9.54224 80.6539 16.152 80.4152 19.0951C80.0353 23.7783 79.4291 30.7053 78.9548 35.7823C78.7074 38.4309 78.4599 41.3792 78.4047 42.3339C78.3495 43.2887 77.9982 47.3709 77.6239 51.4055C77.2497 55.4401 76.8681 59.6987 76.776 60.869C76.528 64.0196 75.7668 72.7159 75.3252 77.4442C75.1123 79.7233 74.9376 82.0004 74.9369 82.5044C74.9369 83.281 74.9061 83.4292 74.7401 83.4757C74.6324 83.5059 74.0412 83.6818 73.4261 83.8665C70.5562 84.7283 70.0452 84.8747 69.6798 84.9392C69.4645 84.9772 68.8103 85.1545 68.226 85.3333C65.4401 86.1855 64.8384 86.3615 63.641 86.6744C62.9337 86.8593 61.3517 87.315 60.1255 87.6871C58.8993 88.0592 57.824 88.3636 57.7358 88.3636C57.6478 88.3636 56.3224 88.7408 54.7906 89.2017C53.2588 89.6627 51.6921 90.1131 51.3092 90.2026C50.7521 90.3327 46.1138 91.6932 45.5525 91.8911C45.4418 91.9302 45.4128 90.6299 45.4128 85.6299H45.4131ZM15.6454 91.535C15.7261 91.5026 15.8226 91.5066 15.8598 91.5438C15.897 91.581 15.8311 91.6075 15.713 91.6026C15.5827 91.5973 15.5562 91.5707 15.6454 91.535V91.535ZM74.9151 91.535C74.9959 91.5026 75.0923 91.5066 75.1295 91.5438C75.1667 91.581 75.1007 91.6075 74.9827 91.6026C74.8524 91.5973 74.8259 91.5707 74.9151 91.535V91.535ZM9.2921 89.7636C8.77007 89.5622 8.99561 89.5583 9.62762 89.7578C9.90438 89.8451 10.0302 89.9161 9.90716 89.9155C9.78417 89.9151 9.50736 89.8466 9.2921 89.7636ZM81.0867 89.7578C81.3635 89.6704 81.6403 89.602 81.7018 89.6058C81.8975 89.6177 81.0405 89.9145 80.8071 89.9155C80.6842 89.916 80.8114 89.8451 81.0867 89.7578ZM83.2435 76.9962C83.2435 76.6882 83.2659 76.5755 83.2917 76.7457C83.3175 76.916 83.3167 77.168 83.2917 77.3057C83.2651 77.4435 83.2441 77.304 83.245 76.9962H83.2435ZM7.22326 75.2603C7.17875 74.6376 7.16655 74.1038 7.19623 74.0742C7.22581 74.0446 7.28604 74.5303 7.33017 75.1534C7.37425 75.7765 7.38649 76.3102 7.3572 76.3394C7.32804 76.3686 7.26777 75.883 7.22326 75.2603ZM83.3568 75.8203C83.3568 75.4815 83.378 75.3429 83.4034 75.5123C83.4292 75.6817 83.4292 75.9588 83.4034 76.1282C83.3777 76.2976 83.3568 76.159 83.3568 75.8203ZM45.4131 60.309V52.6374H51.1164H56.8197L56.8193 53.0014C56.8193 53.6304 56.0452 64.2927 55.9943 64.3752C55.9456 64.454 55.5117 64.6034 53.1293 65.3615C52.422 65.5866 51.7929 65.8062 51.7314 65.8496C51.5751 65.9599 49.6167 66.6299 48.9058 66.8164C48.5819 66.9013 47.7103 67.198 46.969 67.4757C46.2278 67.7534 45.5745 67.9806 45.5172 67.9806C45.4539 67.9806 45.4131 64.9704 45.4131 60.309ZM23.7578 58.8531C23.7575 58.2987 23.7764 58.0578 23.7997 58.3177C23.8234 58.5777 23.8234 59.0313 23.7997 59.3257C23.7764 59.6201 23.7574 59.4075 23.757 58.8531H23.7578ZM84.9209 57.9571C84.9209 57.6492 84.9433 57.5365 84.9692 57.7067C84.995 57.8769 84.9941 58.1289 84.9692 58.2667C84.9426 58.4044 84.9216 58.265 84.9224 57.9571H84.9209ZM5.55092 56.2161C5.5068 55.593 5.49455 55.0593 5.52384 55.0301C5.553 55.0009 5.61327 55.4865 5.65778 56.1092C5.70228 56.732 5.71453 57.2657 5.68481 57.2953C5.65523 57.3249 5.595 56.8393 5.55087 56.2161H5.55092ZM85.03 56.8372C85.0257 56.5292 85.0625 55.9748 85.1083 55.6053C85.1836 54.9979 85.1919 54.9817 85.1949 55.4373C85.1949 55.7145 85.1616 56.2688 85.1166 56.6692C85.0391 57.3596 85.0346 57.3682 85.03 56.8372ZM5.41162 54.3173C5.41162 53.9785 5.43271 53.8399 5.45816 54.0093C5.48394 54.1787 5.48394 54.4559 5.45816 54.6253C5.43238 54.7947 5.41162 54.6561 5.41162 54.3173ZM45.3873 36.8462L45.4173 31.5825H51.7975H58.1776L58.1116 32.1704C58.0451 32.7624 57.7169 36.9151 57.4698 40.29L57.3365 42.1099L51.3468 42.11L45.3571 42.11L45.3873 36.8462ZM86.7117 37.6302C86.7117 37.2914 86.7329 37.1528 86.7583 37.3222C86.7841 37.4916 86.7841 37.7688 86.7583 37.9381C86.7325 38.1075 86.7117 37.969 86.7117 37.6302ZM3.84443 36.4542C3.84443 36.1462 3.86686 36.0335 3.89273 36.2038C3.91851 36.374 3.91766 36.626 3.89273 36.7637C3.8661 36.9015 3.84514 36.7621 3.84598 36.4542H3.84443ZM86.822 36.4542C86.822 36.1462 86.8444 36.0335 86.8703 36.2038C86.8961 36.374 86.8952 36.626 86.8703 36.7637C86.8437 36.9015 86.8227 36.7621 86.8235 36.4542H86.822ZM3.64982 34.7132C3.60569 34.0901 3.59349 33.5564 3.62278 33.5272C3.65195 33.498 3.71222 33.9836 3.75672 34.6063C3.80123 35.229 3.81347 35.7628 3.78376 35.7924C3.75417 35.8219 3.6939 35.3363 3.64982 34.7132ZM86.9365 35.2223C86.9365 34.8527 86.9581 34.715 86.9829 34.9163C87.0079 35.1176 87.0074 35.42 86.9829 35.5883C86.9576 35.7566 86.937 35.5917 86.9377 35.2223H86.9365ZM21.843 31.2465C21.843 31.0309 21.8658 30.9427 21.8941 31.0505C21.9224 31.1583 21.9224 31.3347 21.8941 31.4425C21.8658 31.5503 21.843 31.4621 21.843 31.2465ZM88.501 17.3592C88.501 17.0204 88.5221 16.8818 88.5476 17.0512C88.5734 17.2206 88.5734 17.4978 88.5476 17.6672C88.5218 17.8366 88.501 17.698 88.501 17.3592ZM1.96995 15.6206C1.92561 15.0285 1.91329 14.52 1.94245 14.4907C1.97161 14.4614 2.032 14.9218 2.07634 15.5139C2.12067 16.106 2.13295 16.6145 2.10379 16.6438C2.07462 16.6732 2.01429 16.2127 1.96995 15.6206ZM88.6128 16.1272C88.6128 15.7885 88.634 15.6499 88.6594 15.8193C88.6852 15.9886 88.6852 16.2658 88.6594 16.4352C88.6337 16.6046 88.6128 16.466 88.6128 16.1272Z" fill="#6197FF"/>
    <path d="M44.5743 99.8416C43.3638 99.4432 40.2471 98.5288 39.6538 98.398C39.2848 98.3166 37.8015 97.8903 36.3577 97.4506C34.9139 97.0109 33.6617 96.6512 33.5749 96.6512C33.4882 96.6512 32.6566 96.4195 31.7269 96.1363C30.7971 95.8532 29.4074 95.4461 28.6386 95.2319C26.7669 94.7102 25.1284 94.2393 23.774 93.8337C22.6547 93.4986 22.266 93.3902 20.6987 92.9757C20.2374 92.8537 19.0045 92.4932 17.9588 92.1747C16.9133 91.8561 15.7558 91.5292 15.3868 91.4483C15.0177 91.3674 13.4539 90.9174 11.9116 90.4484C10.3694 89.9793 8.98032 89.5955 8.82495 89.5955C8.55111 89.5955 8.5404 89.5672 8.47493 88.6716C8.43774 88.1634 8.33011 86.9413 8.23569 85.9557C8.14126 84.9702 7.9625 83.1054 7.83841 81.8119C7.71436 80.5184 7.55913 78.6789 7.49345 77.7241C7.42776 76.7694 6.99981 71.906 6.5424 66.9167C6.08504 61.9273 5.71143 57.5894 5.71219 57.2769C5.71219 56.9644 5.33454 52.6806 4.87131 47.7574C4.40811 42.8342 3.9866 38.0718 3.93466 37.1744C3.88271 36.277 3.4573 31.3381 2.98929 26.199C2.52127 21.0599 2.0854 16.1244 2.02065 15.2312C1.95594 14.3381 1.82948 12.8514 1.73967 11.9274C1.31506 7.55793 0.681152 0.606985 0.681152 0.320194V0H45.3571H90.033V0.320194C90.033 0.607988 89.3933 7.62118 88.9742 11.9274C88.8843 12.8514 88.7319 14.6153 88.6355 15.8472C88.5391 17.0791 88.1085 21.9677 87.6787 26.7107C87.2488 31.4536 86.8465 36.0146 86.7847 36.8462C86.7228 37.6777 86.2916 42.5396 85.8265 47.6503C85.3613 52.761 84.9364 57.7 84.8823 58.6258C84.8281 59.5515 84.4527 63.8116 84.048 68.0926C83.6432 72.3736 83.2674 76.6574 83.2127 77.6121C83.158 78.5669 83.0352 80.1544 82.9397 81.1399C82.507 85.6089 82.3017 87.8163 82.2392 88.6716C82.1743 89.5612 82.1615 89.5955 81.8955 89.5955C81.7436 89.5955 80.3545 89.9784 78.8088 90.4463C77.2631 90.9143 75.6965 91.3642 75.3275 91.4463C74.9584 91.5283 73.8009 91.8566 72.7553 92.1759C71.7097 92.4952 70.4516 92.8603 69.9596 92.9873C69.4675 93.1142 68.3102 93.4405 67.3875 93.7124C65.5584 94.2514 64.2269 94.6322 62.0756 95.2319C61.3068 95.4461 59.9229 95.8444 59.0003 96.117C58.0777 96.3895 56.9203 96.7162 56.4283 96.8429C55.9362 96.9697 54.5174 97.3816 53.2754 97.7583C52.0333 98.1349 50.9513 98.4431 50.871 98.4431C50.7906 98.4432 49.5529 98.7959 48.1204 99.2271C46.6879 99.6582 45.4047 100.006 45.2688 99.9999C45.1328 99.9938 44.8203 99.9226 44.5743 99.8416ZM48.1528 91.1035C49.506 90.6974 50.9264 90.292 51.3094 90.2025C51.6924 90.113 53.259 89.6627 54.7908 89.2017C56.3226 88.7407 57.648 88.3636 57.7361 88.3636C57.8242 88.3636 58.8996 88.0591 60.1258 87.687C61.352 87.3149 62.9339 86.8592 63.6412 86.6744C64.8386 86.3615 65.4404 86.1854 68.2262 85.3332C68.8106 85.1545 69.4648 84.9771 69.68 84.9391C70.0455 84.8746 70.5565 84.7283 73.4263 83.8664C74.0414 83.6817 74.6327 83.5059 74.7403 83.4757C74.9062 83.4291 74.9362 83.2809 74.9371 82.5043C74.9371 82.0003 75.1124 79.7232 75.3253 77.4441C75.767 72.7159 76.5282 64.0196 76.7762 60.869C76.8683 59.6986 77.2499 55.44 77.6241 51.4054C77.9984 47.3708 78.3497 43.2886 78.4049 42.3339C78.46 41.3791 78.7077 38.4309 78.9551 35.7822C79.4293 30.7052 80.0355 23.7782 80.4154 19.095C80.6542 16.152 81.2514 9.54219 81.3691 8.53957L81.4382 7.9516H63.4265H45.4148L45.3861 14.4753L45.3573 20.999L33.2518 21.0275L21.1462 21.056V21.4754C21.1464 21.7061 21.2974 23.7569 21.4817 26.0326C21.6659 28.3083 21.8167 30.488 21.8167 30.8764V31.5824H33.6158H45.4149L45.3858 36.8182L45.3566 42.0539L39.2619 42.1099L33.1672 42.1659L33.4401 47.4016L33.7129 52.6374H39.5627H45.4125V60.3638V68.0902L44.4899 67.7446C43.9825 67.5544 43.0893 67.2447 42.505 67.0563C41.9207 66.8679 40.8135 66.4916 40.0447 66.22C39.2759 65.9485 38.1687 65.5717 37.5845 65.3827C37.0001 65.1937 36.1195 64.9016 35.6275 64.7334L34.7328 64.4277L34.6608 63.6334C34.6211 63.1965 34.5519 61.728 34.5068 60.3701L34.4248 57.9011H29.0712H23.7176L23.718 58.4331C23.718 59.9566 24.5149 72.4001 24.6151 72.4622C24.678 72.5011 25.3951 72.7515 26.2086 73.0187C27.022 73.2859 28.8348 73.8996 30.2368 74.3824C31.6389 74.8652 32.87 75.2602 32.9726 75.2602C33.0752 75.2602 34.3184 75.6583 35.7353 76.1449C37.1522 76.6314 38.563 77.106 38.8706 77.1995C39.1781 77.2929 40.3607 77.6769 41.4985 78.0527C42.6364 78.4285 43.9825 78.8716 44.49 79.0374L45.4126 79.3388V85.6396C45.4126 90.6318 45.4418 91.9302 45.5524 91.8911C45.6292 91.864 46.7993 91.5096 48.1524 91.1035L48.1528 91.1035Z" fill="#0057FF"/>
    </g>
    <defs>
    <clipPath id="clip0_29_42">
    <rect width="89.3519" height="100" fill="white" transform="translate(0.681152)"/>
    </clipPath>
    </defs>
</svg>