<svg width="75"
height="75"
viewBox="0 0 75 75"
fill="none"
xmlns="http://www.w3.org/2000/svg"
>
<path d="M35.3474 74.9541C27.5627 74.5054 20.1737 71.6859 14.1042 66.848C12.6086 65.6559 10.8225 63.9717 9.55945 62.5626C4.44119 56.8523 1.2121 49.8064 0.259855 42.2708C0.0292219 40.4456 0.000308578 39.9137 2.79174e-06 37.4899C-0.000324253 35.0622 0.0277478 34.5477 0.2614 32.6951C1.52367 22.6867 6.81194 13.5961 14.9262 7.48632C20.1496 3.55328 26.2447 1.07489 32.6944 0.261405C34.547 0.0277485 35.0615 -0.000303347 37.4891 2.44602e-06C39.9128 0.000313145 40.4448 0.029223 42.2699 0.259862C49.8053 1.21212 56.8511 4.44129 62.5613 9.55966C63.4521 10.3582 65.0417 11.9705 65.7836 12.8281C71.7939 19.7755 75.0002 28.3456 75 37.4622C75 46.7613 71.7138 55.4233 65.5282 62.4297C64.4079 63.6987 62.6384 65.3966 61.2602 66.5252C55.4531 71.2801 48.4383 74.1581 40.9719 74.849C39.3597 74.9981 36.9069 75.044 35.3474 74.9541V74.9541ZM52.0045 46.0995C47.5785 41.6732 43.9348 38.0602 43.9075 38.0706C43.8801 38.081 42.4724 39.152 40.7792 40.4506C39.086 41.7491 37.684 42.8116 37.6637 42.8116C37.6433 42.8116 36.2327 41.7408 34.5289 40.432C32.8251 39.1232 31.4167 38.0523 31.399 38.0523C31.3814 38.0523 27.7457 41.6737 23.3197 46.0998L15.2724 54.1473H37.6621H60.0518L52.0045 46.0995ZM28.1757 35.5605C28.0477 35.4394 15.2168 25.5917 15.1871 25.5917C15.1745 25.5917 15.1642 30.8047 15.1642 37.1761V48.7606L21.7184 42.2063L28.2726 35.6521L28.1757 35.5605ZM60.1494 31.3985L60.1384 25.6031L53.5918 30.6243L47.0453 35.6455L53.5918 42.1924L60.1384 48.7392L60.1494 42.9666C60.1554 39.7916 60.1554 34.586 60.1494 31.3985V31.3985ZM48.8453 29.3691L59.9476 20.854L48.8013 20.8431C42.6709 20.8371 32.6517 20.8371 26.5366 20.8431L15.4181 20.854L26.5288 29.3889C32.6397 34.0831 37.6628 37.9149 37.6913 37.904C37.7197 37.8931 42.739 34.0524 48.8453 29.3691V29.3691Z" fill="#75DBCD"/>
</svg>
