<svg className="icon"
width="100%"
height="100%"
viewBox="0 0 100 100"
fill="none"
xmlns="http://www.w3.org/2000/svg"
>
<path d="M34.4276 99.9496C34.1559 99.9086 33.0876 99.535 31.8528 99.0492C23.0569 95.5884 15.7043 89.8459 9.92426 81.9227C3.80829 73.5389 0.565663 64.358 0.0457961 53.9536C-0.0125014 52.7869 -0.0158494 49.8503 0.0398272 48.7199C0.286728 43.7077 1.0662 39.3958 2.54394 34.8675C3.27449 32.6288 4.07419 30.6666 5.17595 28.4094C9.35612 19.8453 15.6028 12.7842 23.4427 7.76117C25.504 6.44047 28.2585 4.95162 30.2598 4.07651C35.8502 1.63191 41.3153 0.356532 47.572 0.0363957C48.5378 -0.013022 51.4641 -0.0118652 52.4916 0.0383383C60.2622 0.417997 67.4978 2.50911 74.1585 6.30023C82.5392 11.0702 89.1321 17.8187 93.8374 26.4434C94.3684 27.4167 95.3964 29.5236 95.8275 30.5221C97.7599 34.9976 99.0101 39.6109 99.6206 44.5186C99.9208 46.9318 100 48.346 100 51.2648C99.9995 53.6865 99.9717 54.4223 99.8098 56.2584C99.048 64.8989 96.1562 73.0357 91.2947 80.2181C85.5298 88.7352 78.0732 94.9331 69.101 98.6657C67.7102 99.2443 66.0264 99.8593 65.6339 99.932C64.9183 100.065 64.2337 100.002 63.7303 99.7567C63.3789 99.5858 62.9314 99.115 62.7282 98.7024C62.435 98.1072 62.4494 98.5399 62.4479 90.2774C62.447 85.7683 62.4276 82.4495 62.3995 82.0187C62.1955 78.8908 61.4261 76.621 59.9579 74.8164C59.7646 74.5787 59.485 74.2708 59.3366 74.1321C59.1731 73.9793 59.0914 73.8727 59.1292 73.8614C59.1635 73.8511 59.5922 73.7951 60.0818 73.737C61.8063 73.5324 64.1718 73.0832 65.6808 72.6737C67.875 72.0783 70.3485 70.9905 72.4587 69.6928C74.7249 68.2991 76.646 66.4733 77.9583 64.4659C79.9396 61.4352 81.2935 57.1744 81.7257 52.6092C81.895 50.8208 81.9499 48.0551 81.8426 46.7179C81.563 43.2331 80.5264 40.1201 78.7279 37.3643C78.2641 36.6536 77.5001 35.6445 77.0462 35.1432C76.8616 34.9393 76.7824 34.8159 76.7996 34.7591C76.8136 34.7131 76.9126 34.4269 77.0196 34.1232C77.3686 33.1331 77.6356 31.9213 77.7759 30.6901C77.8653 29.9054 77.8522 27.9641 77.7516 27.113C77.5464 25.3761 77.1252 23.6244 76.4904 21.8686L76.2523 21.2097L75.8978 21.1266C75.4309 21.0173 74.4457 21.0204 73.8098 21.1331C72.7051 21.329 71.5323 21.7064 69.8605 22.4039C67.6371 23.3315 66.2351 24.0803 63.9269 25.5729C63.2036 26.0406 62.59 26.4365 62.5632 26.4526C62.5365 26.4687 62.1148 26.3771 61.6262 26.249C58.8384 25.5184 56.2451 25.0917 53.1475 24.854C52.2358 24.784 48.5847 24.7554 47.6189 24.8107C44.3898 24.9956 41.4264 25.4544 38.4825 26.2251L37.4986 26.4827L36.7255 25.9652C34.5905 24.536 33.5132 23.94 31.3293 22.9798C28.0547 21.54 26.4347 21.0542 24.9185 21.0575C24.4036 21.0586 23.7787 21.1514 23.7017 21.2382C23.6817 21.2607 23.5582 21.5924 23.4272 21.9753C22.826 23.7328 22.4857 25.1717 22.263 26.8969C22.1466 27.7991 22.1474 30.1118 22.2644 30.9782C22.4242 32.1609 22.7124 33.3637 23.0712 34.3453C23.1771 34.6352 23.2272 34.8365 23.2021 34.8716C23.1798 34.9028 22.9953 35.1199 22.7923 35.354C20.8993 37.5371 19.4859 40.2598 18.7578 43.1261C18.2941 44.9517 18.1217 46.4828 18.1219 48.7726C18.1224 53.055 18.6642 56.4854 19.8825 59.9176C21.364 64.0915 23.4746 66.9636 26.6755 69.1615C28.5486 70.4477 31.1311 71.7045 33.3191 72.3947C35.098 72.9558 37.8382 73.5111 40.0755 73.7638C40.4878 73.8104 40.834 73.8556 40.8448 73.8644C40.8556 73.8732 40.7064 74.0478 40.5133 74.2524C39.103 75.746 38.2097 77.682 37.8004 80.1316C37.7461 80.4565 37.6857 80.7393 37.6662 80.7602C37.6467 80.781 37.3702 80.9065 37.0517 81.039C35.4834 81.6915 33.9272 81.9962 31.7825 82.071C30.1166 82.129 29.0438 81.8995 27.7064 81.1989C26.7628 80.7045 25.9741 80.0959 25.1522 79.2275C24.4789 78.5161 23.9472 77.7929 23.3037 76.713C22.5677 75.478 22.1156 74.8867 21.2639 74.0454C20.5564 73.3465 19.5192 72.6174 18.4293 72.053C17.552 71.5987 17.131 71.4606 16.1668 71.3108C15.3363 71.1817 14.905 71.1832 14.2165 71.3172C13.3219 71.4914 13.0742 71.8412 13.3906 72.4837C13.745 73.2029 14.5104 73.951 15.4114 74.4586C16.4939 75.0684 17.4664 76.0572 18.5726 77.673C19.457 78.9649 19.988 80.016 20.8172 82.1163C21.1709 83.0121 21.4961 83.6185 21.9664 84.2595C23.2641 86.0278 25.4777 87.4098 27.7531 87.8723C29.5987 88.2474 31.4996 88.4114 33.4692 88.3654C34.8584 88.333 35.1475 88.3045 36.5285 88.0633C37.0773 87.9675 37.5331 87.8971 37.5415 87.9068C37.5582 87.9265 37.6152 93.9546 37.6216 96.3757L37.6256 97.9125L37.5016 98.2911C37.2142 99.1687 36.6033 99.7557 35.7945 99.9314C35.459 100.004 34.8441 100.012 34.4275 99.9496H34.4276Z" fill="#75DBCD"/>
</svg>
