<svg width="88" height="100" viewBox="0 0 88 100" fill="none" xmlns="http://www.w3.org/2000/svg">
    <g clip-path="url(#clip0_29_48)">
    <rect x="7.97107" y="11.5942" width="71.7391" height="70.2899" fill="white"/>
    <path d="M43.9447 86.5134L43.9497 80.8276L55.1194 77.7322C61.2628 76.0297 66.2953 74.6296 66.3028 74.6209C66.3348 74.5838 66.5882 71.7336 67.7768 58.041L69.0324 43.5775L69.2211 42.1472C69.3249 41.3605 69.4144 40.6966 69.4199 40.6718L69.43 40.6268H56.6849H43.9398V34.9655V29.3041H57.1677H70.3957L70.491 28.1488C70.5435 27.5134 70.7161 25.7377 70.8747 24.2029C71.137 21.6641 71.1719 21.2803 71.2618 19.9518C71.3161 19.1486 71.3606 18.4622 71.3607 18.4265L71.3609 18.3614H57.6504H43.9398V12.7901V7.21875H61.8322C71.673 7.21875 79.7246 7.22274 79.7246 7.22761C79.7246 7.23643 79.3667 11.2826 79.1972 13.1902C79.1484 13.7403 78.9824 15.6173 78.8285 17.3612C78.6746 19.1051 78.5178 20.8785 78.4799 21.3022C78.4421 21.7258 78.2853 23.4992 78.1315 25.2431C77.9776 26.987 77.8208 28.7605 77.783 29.1841C77.7451 29.6077 77.5883 31.3811 77.4345 33.125C77.2806 34.8689 77.1238 36.6424 77.086 37.066C77.0482 37.4896 76.8914 39.263 76.7375 41.0069C76.5836 42.7508 76.4268 44.5243 76.389 44.9479C76.3512 45.3715 76.1944 47.1449 76.0405 48.8888C75.8867 50.6327 75.7298 52.4062 75.692 52.8298C75.6542 53.2534 75.4974 55.0268 75.3435 56.7707C75.1897 58.5146 75.0329 60.2881 74.9951 60.7117C74.9572 61.1353 74.8004 62.9087 74.6466 64.6526C74.4927 66.3965 74.3359 68.17 74.2981 68.5936C74.2603 69.0172 74.1034 70.7906 73.9496 72.5345C73.7957 74.2784 73.6389 76.0519 73.6011 76.4755C73.5633 76.8991 73.4065 78.6725 73.2528 80.4164C72.9044 84.3681 72.9221 84.1778 72.9015 84.1961C72.892 84.2045 72.4721 84.3247 71.9683 84.4631C71.4644 84.6015 70.2502 84.9366 69.27 85.2076C68.2897 85.4787 66.8223 85.8844 66.0091 86.1092C65.1959 86.3339 63.8629 86.7024 63.0469 86.9279C62.231 87.1535 60.8935 87.5232 60.0748 87.7495C59.2561 87.9758 57.9232 88.3443 57.1127 88.5683C56.3022 88.7924 54.967 89.1615 54.1456 89.3885C53.3241 89.6156 51.9844 89.9859 51.1685 90.2115C50.3525 90.4371 49.1517 90.769 48.5 90.9491C47.8484 91.1291 46.5641 91.4841 45.6461 91.7379C44.7281 91.9917 43.9687 92.1993 43.9584 92.1993C43.9468 92.1993 43.9417 90.0393 43.9448 86.5134H43.9447ZM21.1602 74.4833C21.1611 74.46 21.1658 74.4553 21.1722 74.4712C21.178 74.4857 21.1772 74.5029 21.1706 74.5096C21.164 74.5162 21.1593 74.5044 21.1602 74.4833H21.1602ZM21.1004 73.7231C21.1014 73.6998 21.1061 73.6951 21.1125 73.7111C21.1182 73.7255 21.1175 73.7428 21.1109 73.7494C21.1043 73.7561 21.0996 73.7442 21.1004 73.7231H21.1004ZM21.0805 73.4631C21.0815 73.4398 21.0862 73.435 21.0925 73.451C21.0983 73.4654 21.0976 73.4827 21.091 73.4893C21.0844 73.496 21.0797 73.4842 21.0805 73.4631H21.0805ZM21.0208 72.7029C21.0217 72.6796 21.0265 72.6749 21.0328 72.6908C21.0386 72.7053 21.0379 72.7225 21.0312 72.7292C21.0246 72.7358 21.0199 72.724 21.0208 72.7029H21.0208ZM20.961 71.9427C20.962 71.9194 20.9667 71.9147 20.9731 71.9306C20.9788 71.9451 20.9781 71.9623 20.9715 71.969C20.9649 71.9756 20.9602 71.9638 20.961 71.9427H20.961ZM20.9411 71.6827C20.9421 71.6594 20.9468 71.6546 20.9532 71.6706C20.9589 71.685 20.9582 71.7023 20.9516 71.7089C20.945 71.7156 20.9403 71.7037 20.9411 71.6827H20.9411ZM20.8814 70.9225C20.8823 70.8992 20.8871 70.8944 20.8934 70.9104C20.8992 70.9248 20.8985 70.9421 20.8918 70.9487C20.8852 70.9554 20.8805 70.9436 20.8814 70.9225H20.8814ZM20.8216 70.1623C20.8226 70.139 20.8273 70.1342 20.8337 70.1502C20.8394 70.1646 20.8387 70.1819 20.8321 70.1885C20.8255 70.1952 20.8208 70.1834 20.8216 70.1623H20.8216ZM20.8017 69.9022C20.8027 69.8789 20.8074 69.8742 20.8138 69.8901C20.8195 69.9046 20.8188 69.9218 20.8122 69.9285C20.8056 69.9351 20.8009 69.9233 20.8017 69.9022H20.8017ZM43.9398 60.5302V51.7695H50.6407H57.3417L57.3413 51.8245C57.3408 51.9031 55.9914 66.016 55.9838 66.0221C55.9804 66.0248 53.2982 66.7531 50.0234 67.6403C46.7486 68.5276 44.0401 69.262 44.0045 69.2723L43.9398 69.291V60.5302H43.9398ZM20.742 69.142C20.7429 69.1187 20.7477 69.114 20.754 69.13C20.7598 69.1444 20.7591 69.1617 20.7524 69.1683C20.7458 69.1749 20.7411 69.1631 20.742 69.142H20.742ZM20.6822 68.3819C20.6832 68.3586 20.6879 68.3538 20.6943 68.3698C20.7 68.3842 20.6993 68.4015 20.6927 68.4081C20.6861 68.4148 20.6814 68.4029 20.6822 68.3819H20.6822ZM20.6026 67.3616C20.6035 67.3383 20.6083 67.3336 20.6146 67.3495C20.6204 67.364 20.6197 67.3812 20.613 67.3879C20.6064 67.3945 20.6017 67.3827 20.6026 67.3616V67.3616ZM20.5428 66.6014C20.5438 66.5781 20.5485 66.5734 20.5549 66.5893C20.5606 66.6038 20.5599 66.621 20.5533 66.6277C20.5467 66.6343 20.542 66.6225 20.5428 66.6014V66.6014ZM20.4632 65.5812C20.4642 65.5579 20.4689 65.5531 20.4752 65.5691C20.481 65.5835 20.4803 65.6008 20.4737 65.6074C20.467 65.6141 20.4623 65.6023 20.4632 65.5812H20.4632ZM20.3835 64.5609C20.3845 64.5376 20.3892 64.5329 20.3956 64.5489C20.4013 64.5633 20.4006 64.5805 20.394 64.5872C20.3874 64.5938 20.3827 64.582 20.3835 64.5609H20.3835ZM20.3238 63.8008C20.3248 63.7774 20.3295 63.7727 20.3358 63.7887C20.3416 63.8031 20.3409 63.8204 20.3343 63.827C20.3276 63.8337 20.3229 63.8218 20.3238 63.8008H20.3238ZM20.3039 63.5407C20.3048 63.5174 20.3096 63.5126 20.3159 63.5286C20.3217 63.543 20.321 63.5603 20.3143 63.5669C20.3077 63.5736 20.303 63.5618 20.3039 63.5407V63.5407ZM20.2441 62.7805C20.2451 62.7572 20.2498 62.7525 20.2562 62.7684C20.2619 62.7829 20.2612 62.8001 20.2546 62.8068C20.248 62.8134 20.2433 62.8016 20.2441 62.7805V62.7805ZM20.1844 62.0203C20.1854 61.997 20.1901 61.9923 20.1964 62.0082C20.2022 62.0227 20.2015 62.0399 20.1949 62.0466C20.1882 62.0532 20.1835 62.0414 20.1844 62.0203H20.1844ZM20.1645 61.7603C20.1654 61.737 20.1702 61.7322 20.1765 61.7482C20.1823 61.7626 20.1816 61.7799 20.1749 61.7865C20.1683 61.7932 20.1636 61.7813 20.1645 61.7603H20.1645ZM20.1047 61.0001C20.1057 60.9768 20.1104 60.972 20.1168 60.988C20.1225 61.0024 20.1218 61.0197 20.1152 61.0263C20.1086 61.033 20.1039 61.0212 20.1047 61.0001H20.1047ZM20.045 60.2399C20.046 60.2166 20.0507 60.2118 20.057 60.2278C20.0628 60.2422 20.0621 60.2595 20.0555 60.2661C20.0489 60.2728 20.0441 60.261 20.045 60.2399H20.045ZM20.0251 59.9798C20.0261 59.9565 20.0308 59.9518 20.0371 59.9677C20.0429 59.9822 20.0422 59.9994 20.0356 60.0061C20.0289 60.0127 20.0242 60.0009 20.0251 59.9798H20.0251ZM30.9577 59.9798C30.9586 59.9565 30.9634 59.9518 30.9697 59.9677C30.9755 59.9822 30.9748 59.9994 30.9681 60.0061C30.9615 60.0127 30.9568 60.0009 30.9577 59.9798H30.9577ZM19.9654 59.2196C19.9663 59.1963 19.971 59.1916 19.9774 59.2076C19.9831 59.222 19.9824 59.2393 19.9758 59.2459C19.9692 59.2525 19.9645 59.2407 19.9654 59.2196H19.9654ZM30.878 59.0796C30.879 59.0563 30.8837 59.0516 30.8901 59.0675C30.8958 59.082 30.8951 59.0992 30.8885 59.1059C30.8819 59.1125 30.8772 59.1007 30.878 59.0796H30.878ZM19.9056 58.4595C19.9066 58.4362 19.9113 58.4314 19.9176 58.4474C19.9234 58.4618 19.9227 58.4791 19.9161 58.4857C19.9095 58.4924 19.9047 58.4805 19.9056 58.4595H19.9056ZM30.7984 58.1794C30.7993 58.1561 30.804 58.1514 30.8104 58.1673C30.8162 58.1817 30.8154 58.199 30.8088 58.2056C30.8022 58.2123 30.7975 58.2005 30.7984 58.1794H30.7984ZM19.826 57.4392C19.8269 57.4159 19.8316 57.4112 19.838 57.4271C19.8437 57.4416 19.843 57.4588 19.8364 57.4655C19.8298 57.4721 19.8251 57.4603 19.826 57.4392H19.826ZM30.7187 57.2792C30.7197 57.2559 30.7244 57.2511 30.7307 57.2671C30.7365 57.2815 30.7358 57.2988 30.7292 57.3054C30.7226 57.3121 30.7178 57.3003 30.7187 57.2792H30.7187ZM18.5913 44.6561C18.5923 44.6328 18.597 44.6281 18.6033 44.644C18.6091 44.6585 18.6084 44.6757 18.6018 44.6824C18.5952 44.689 18.5904 44.6772 18.5913 44.6561H18.5913ZM18.4519 43.0958C18.4529 43.0724 18.4576 43.0677 18.464 43.0837C18.4697 43.0981 18.469 43.1154 18.4624 43.122C18.4558 43.1287 18.4511 43.1168 18.4519 43.0958H18.4519ZM18.3125 41.5354C18.3135 41.5121 18.3182 41.5073 18.3246 41.5233C18.3303 41.5377 18.3296 41.555 18.323 41.5616C18.3164 41.5683 18.3117 41.5565 18.3125 41.5354H18.3125ZM18.1731 39.975C18.1741 39.9517 18.1788 39.947 18.1852 39.9629C18.1909 39.9774 18.1902 39.9946 18.1836 40.0013C18.177 40.0079 18.1723 39.9961 18.1731 39.975H18.1731ZM29.2252 39.1348C29.2261 39.1115 29.2309 39.1067 29.2372 39.1227C29.243 39.1371 29.2423 39.1544 29.2356 39.161C29.229 39.1677 29.2243 39.1559 29.2252 39.1348H29.2252ZM18.0337 38.4146C18.0347 38.3913 18.0394 38.3866 18.0458 38.4025C18.0515 38.417 18.0508 38.4342 18.0442 38.4409C18.0376 38.4475 18.0329 38.4357 18.0337 38.4146H18.0337ZM29.1256 37.9745C29.1266 37.9512 29.1313 37.9465 29.1377 37.9624C29.1434 37.9769 29.1427 37.9941 29.1361 38.0008C29.1295 38.0074 29.1248 37.9956 29.1256 37.9745H29.1256ZM17.8943 36.8542C17.8953 36.8309 17.9 36.8262 17.9064 36.8422C17.9121 36.8566 17.9114 36.8739 17.9048 36.8805C17.8982 36.8871 17.8935 36.8753 17.8943 36.8542H17.8943ZM17.7549 35.2939C17.7559 35.2706 17.7606 35.2658 17.767 35.2818C17.7727 35.2962 17.772 35.3135 17.7654 35.3201C17.7588 35.3268 17.7541 35.315 17.7549 35.2939H17.7549ZM17.6155 33.7335C17.6165 33.7102 17.6212 33.7054 17.6276 33.7214C17.6333 33.7358 17.6326 33.7531 17.626 33.7597C17.6194 33.7664 17.6147 33.7546 17.6155 33.7335H17.6155ZM28.7273 33.3334C28.7283 33.3101 28.733 33.3053 28.7394 33.3213C28.7451 33.3357 28.7444 33.353 28.7378 33.3596C28.7312 33.3663 28.7265 33.3545 28.7273 33.3334H28.7273ZM17.4762 32.1731C17.4771 32.1498 17.4818 32.1451 17.4882 32.161C17.4939 32.1755 17.4932 32.1927 17.4866 32.1994C17.48 32.206 17.4753 32.1942 17.4761 32.1731H17.4762ZM28.6278 32.1731C28.6287 32.1498 28.6335 32.1451 28.6398 32.161C28.6456 32.1755 28.6449 32.1927 28.6382 32.1994C28.6316 32.206 28.6269 32.1942 28.6278 32.1731H28.6278ZM28.5282 31.0128C28.5292 30.9895 28.5339 30.9848 28.5402 31.0007C28.546 31.0152 28.5453 31.0324 28.5387 31.0391C28.5321 31.0457 28.5273 31.0339 28.5282 31.0128H28.5282ZM17.3368 30.6127C17.3377 30.5894 17.3424 30.5847 17.3488 30.6006C17.3545 30.6151 17.3538 30.6323 17.3472 30.639C17.3406 30.6456 17.3359 30.6338 17.3368 30.6127H17.3368ZM28.4286 29.8526C28.4296 29.8292 28.4343 29.8245 28.4407 29.8405C28.4464 29.8549 28.4457 29.8722 28.4391 29.8788C28.4325 29.8855 28.4278 29.8736 28.4286 29.8526H28.4286ZM17.1974 29.0524C17.1983 29.0291 17.203 29.0243 17.2094 29.0403C17.2151 29.0547 17.2144 29.072 17.2078 29.0786C17.2012 29.0853 17.1965 29.0734 17.1974 29.0524H17.1974ZM17.058 27.492C17.0589 27.4687 17.0636 27.4639 17.07 27.4799C17.0757 27.4943 17.075 27.5116 17.0684 27.5182C17.0618 27.5249 17.0571 27.5131 17.058 27.492H17.058Z" fill="#FF8854"/>
    <path d="M25.8411 94.9299C16.0237 92.142 7.98655 89.8563 7.98079 89.8505C7.97503 89.8447 6.177 69.6276 3.98516 44.9235L0 0.00707117L43.8384 0.00206412C67.9494 -0.00068804 87.6787 -0.00068804 87.6811 0.00206412C87.6836 0.00481628 85.892 20.2214 83.6999 44.9279L79.7141 89.8488L79.6048 89.8832C79.2526 89.994 43.7736 100.001 43.7363 100C43.7113 99.9993 35.6584 97.7178 25.8411 94.9299V94.9299ZM45.6461 91.7379C46.564 91.4842 47.8483 91.1292 48.5 90.9491C49.1517 90.769 50.3524 90.4371 51.1684 90.2116C51.9844 89.986 53.3241 89.6156 54.1455 89.3886C54.9669 89.1615 56.3021 88.7924 57.1126 88.5684C57.9231 88.3443 59.2561 87.9759 60.0748 87.7496C60.8935 87.5232 62.2309 87.1535 63.0469 86.928C63.8628 86.7024 65.1958 86.334 66.009 86.1092C66.8223 85.8844 68.2896 85.4787 69.2699 85.2077C70.2501 84.9366 71.4644 84.6016 71.9682 84.4632C72.472 84.3248 72.892 84.2046 72.9014 84.1961C72.922 84.1778 72.9043 84.3681 73.2527 80.4165C73.4065 78.6726 73.5632 76.8991 73.601 76.4755C73.6389 76.0519 73.7957 74.2785 73.9495 72.5346C74.1034 70.7907 74.2602 69.0172 74.298 68.5936C74.3358 68.17 74.4926 66.3966 74.6465 64.6527C74.8004 62.9088 74.9572 61.1353 74.995 60.7117C75.0328 60.2881 75.1896 58.5147 75.3435 56.7708C75.4973 55.0269 75.6542 53.2534 75.692 52.8298C75.7298 52.4062 75.8866 50.6328 76.0405 48.8889C76.1943 47.1449 76.3511 45.3715 76.3889 44.9479C76.4268 44.5243 76.5836 42.7509 76.7374 41.007C76.8913 39.263 77.0481 37.4896 77.0859 37.066C77.1237 36.6424 77.2806 34.869 77.4344 33.1251C77.5883 31.3811 77.7451 29.6077 77.7829 29.1841C77.8207 28.7605 77.9775 26.9871 78.1314 25.2432C78.2852 23.4992 78.4421 21.7258 78.4799 21.3022C78.5177 20.8786 78.6746 19.1052 78.8285 17.3613C78.9824 15.6173 79.1483 13.7404 79.1972 13.1903C79.3667 11.2827 79.7245 7.23649 79.7245 7.22767C79.7245 7.2228 71.673 7.21881 61.8321 7.21881H43.9398V12.7902V18.3615H30.1297C16.9904 18.3615 16.3196 18.3632 16.3198 18.3965C16.32 18.4158 16.3643 19.0932 16.4185 19.9019C16.5024 21.153 16.7191 23.6329 17.872 36.5368C18.6172 44.8773 19.227 51.7167 19.227 51.7355C19.227 51.7676 19.9542 51.7696 31.5834 51.7696H43.9398V60.5297V69.2898L43.84 69.3138C43.7404 69.3378 43.7308 69.3353 37.632 67.6829C34.2724 66.7727 31.518 66.0224 31.5112 66.0155C31.5043 66.0086 31.3248 64.0315 31.1122 61.6219L30.7257 57.2409L25.2751 57.2358L19.8244 57.2308V57.2859C19.8244 57.3833 21.1769 74.6202 21.1851 74.6284C21.1894 74.6328 26.2595 76.0404 32.4518 77.7565C41.3786 80.2303 43.7345 80.8766 43.8252 80.8766H43.9398V86.538C43.9398 90.0375 43.9469 92.1993 43.9584 92.1993C43.9686 92.1993 44.7281 91.9917 45.6461 91.7379V91.7379ZM29.3544 40.5118C29.3476 40.4486 29.132 37.9392 28.8753 34.9355C28.6187 31.9318 28.404 29.4359 28.3983 29.3892L28.388 29.3041H36.1639H43.9398V34.9655V40.6269H36.6533H29.3669L29.3544 40.5118Z" fill="#FF4D00"/>
    </g>
    <defs>
    <clipPath id="clip0_29_48">
    <rect width="87.6812" height="100" fill="white"/>
    </clipPath>
    </defs>
</svg>