<svg width="101" height="100" viewBox="0 0 101 100" fill="none" xmlns="http://www.w3.org/2000/svg">
    <g clip-path="url(#clip0_29_37)">
    <path d="M0.0328369 50V0H50.0328H100.033V50V100H50.0328H0.0328369V50ZM44.2668 91.9148C47.1897 91.3108 48.9806 90.3828 50.8879 88.4839C51.9054 87.4709 52.3139 86.9046 52.9313 85.6506C53.3557 84.7886 53.8699 83.4834 54.0741 82.75L54.4452 81.4167L54.4944 63.625L54.5435 45.8333H49.7089H44.8743L44.8289 63.0417C44.7854 79.4656 44.769 80.2872 44.468 81.0654C44.0414 82.168 43.1296 83.0477 42.1051 83.3449C41.0386 83.6544 38.7949 83.6196 38.0334 83.2819C36.7574 82.7159 35.4515 81.3481 34.5316 79.6142C34.3039 79.1847 34.0625 78.8334 33.9954 78.8334C33.8358 78.8334 26.6883 83.1518 26.3808 83.434C26.1797 83.6186 26.266 83.8529 26.9641 85.0165C29.9312 89.9624 34.7858 92.4587 41.0334 92.2508C42.0876 92.2157 43.5428 92.0646 44.2673 91.9148H44.2668ZM81.1805 91.8372C88.2599 90.3945 92.3859 85.6362 92.3604 78.9437C92.3346 72.2169 89.0625 68.2381 80.4762 64.4933C76.7052 62.8486 74.3909 61.7131 73.5471 61.0937C71.431 59.5404 71.1883 56.33 73.0672 54.7457C73.3692 54.4911 73.8544 54.183 74.1456 54.061C75.4529 53.5131 77.6679 53.6416 79.0546 54.3458C79.8384 54.7439 81.0854 55.996 81.6393 56.9411C81.9119 57.4063 82.1611 57.6532 82.3029 57.5987C82.8385 57.3932 89.409 53.0824 89.4838 52.8874C89.6648 52.4157 87.582 49.7635 85.896 48.3189C81.4228 44.4862 72.6825 44.1696 67.5508 47.6545C63.6269 50.3192 61.6984 54.8028 62.3547 59.7352C62.7813 62.941 63.8105 65.0953 65.9496 67.2606C68.0274 69.3639 70.2693 70.6869 75.5329 72.9161C79.0015 74.385 80.3406 75.1291 81.3726 76.1606C82.6349 77.4222 82.9824 78.7184 82.5136 80.4167C82.2485 81.3771 80.8783 82.6835 79.6162 83.179C78.7518 83.5184 78.3224 83.5724 76.4495 83.5775C74.6082 83.5825 74.1155 83.5255 73.1678 83.1981C71.1298 82.4939 69.2659 80.9868 67.8728 78.9167C67.5644 78.4583 67.2909 78.0562 67.2649 78.023C67.2265 77.9737 61.9933 80.9458 59.9021 82.2048L59.3546 82.5343L59.7981 83.3088C62.7239 88.4181 67.795 91.5054 74.4495 92.2286C75.8972 92.386 79.5222 92.1752 81.1805 91.8372Z" fill="#FFF500"/>
    <path d="M38.1162 91.9897C34.3513 91.5598 30.5807 89.5651 28.4391 86.8704C27.6661 85.8978 26.2903 83.6872 26.3936 83.5839C26.4731 83.5044 33.2022 79.4315 33.6386 79.1987C33.9653 79.0245 34.0445 79.0952 34.6136 80.0682C35.522 81.6215 36.5784 82.7496 37.5865 83.2428C39.9186 84.3838 43.172 83.7084 44.256 81.8582C45.031 80.5354 45.0289 80.5919 45.031 62.7917V46H49.7026H54.3745L54.3252 63.7084L54.2762 81.4167L53.9006 82.7501C52.3443 88.2769 48.635 91.3151 42.6139 91.9947C40.9259 92.1852 39.8152 92.184 38.1138 91.9897L38.1162 91.9897ZM74.0021 91.9985C68.9417 91.416 64.5192 89.1903 61.8136 85.8647C60.6435 84.4265 59.6518 82.8622 59.752 82.6126C59.7955 82.5049 61.13 81.6667 62.7183 80.75C64.3065 79.8334 65.9618 78.8772 66.3966 78.6252L67.1873 78.167L67.8395 79.1252C70.1237 82.4815 73.0971 83.9899 77.0329 83.789C80.4632 83.614 82.5911 82.0454 82.8198 79.5232C83.0788 76.6668 81.5425 75.268 75.1995 72.5846C67.3207 69.2515 64.1237 66.4052 62.843 61.5834C62.3708 59.8054 62.3288 56.2732 62.7609 54.6667C63.6325 51.4258 65.8694 48.6285 68.7893 47.1281C71.5227 45.7236 74.6014 45.1764 77.9788 45.4949C81.9326 45.8678 84.7172 47.1344 87.0385 49.6159C87.9662 50.6076 89.3661 52.5383 89.3661 52.8259C89.3661 53.0615 82.1371 57.5627 82.0721 57.3676C81.924 56.9235 80.5296 55.1811 79.9971 54.775C78.8583 53.9063 77.9035 53.6037 76.2828 53.5975C74.5809 53.5909 73.6513 53.9072 72.7638 54.7946C71.9687 55.5898 71.6505 56.4151 71.6505 57.6819C71.6505 60.2316 72.8236 61.3284 77.8788 63.5054C85.9488 66.9807 89.0493 69.1933 90.7759 72.7093C91.913 75.0247 92.1101 75.9599 92.1025 79C92.0962 81.2649 92.0453 81.748 91.6844 82.9188C90.2539 87.557 86.3991 90.6906 80.8225 91.7484C79.1529 92.0651 75.6855 92.1923 74.0021 91.9985Z" fill="black"/>
    </g>
    <defs>
    <clipPath id="clip0_29_37">
    <rect width="100" height="100" fill="white" transform="translate(0.032959)"/>
    </clipPath>
    </defs>
</svg>