<svg width="101" height="100" viewBox="0 0 101 100" fill="none" xmlns="http://www.w3.org/2000/svg">
<g clip-path="url(#clip0_29_119)">
<ellipse cx="50.2382" cy="50.2146" rx="45.0644" ry="44.206" fill="white"/>
<path d="M50.1766 99.9862L48.2556 99.9722L47.0837 99.8919L45.9119 99.8116L44.2517 99.6069L42.5916 99.4023L41.0779 99.1087L39.5642 98.815L38.3923 98.5233L37.2205 98.2315L36.0486 97.8843L34.8767 97.537L33.4285 97.0122L31.9803 96.4873L30.5965 95.8893L29.2126 95.2913L27.7966 94.5751L26.3806 93.8588L24.9158 92.9826L23.4509 92.1063L22.2625 91.2924L21.0742 90.4785L19.8894 89.5616L18.7045 88.6446L17.503 87.5942L16.3014 86.5437L15.1053 85.3476L13.9091 84.1515L12.8587 82.9499L11.8082 81.7484L10.8913 80.5635L9.97433 79.3787L9.16048 78.1903L8.34662 77.0019L7.47032 75.5371L6.59402 74.0723L5.87783 72.6563L5.1616 71.2402L4.56359 69.8564L3.96562 68.4726L3.44073 67.0244L2.91584 65.5762L2.5686 64.4043L2.22136 63.2324L1.92962 62.0606L1.63789 60.8887L1.3445 59.375L1.05114 57.8613L0.852534 56.25L0.653921 54.6387L0.55338 53.1416L0.452881 51.6446V50V48.3554L0.55338 46.8584L0.653921 45.3614L0.852534 43.75L1.05114 42.1387L1.3445 40.625L1.63789 39.1113L1.92962 37.9395L2.22136 36.7676L2.5686 35.5957L2.91584 34.4238L3.44073 32.9756L3.96562 31.5274L4.56359 30.1436L5.1616 28.7598L5.87783 27.3437L6.59402 25.9278L7.47032 24.4629L8.34662 22.9981L9.16048 21.8097L9.97433 20.6213L10.8913 19.4365L11.8082 18.2517L12.8587 17.0501L13.9091 15.8486L15.1053 14.6524L16.3014 13.4563L17.503 12.4058L18.7045 11.3554L19.8894 10.4384L21.0742 9.5215L22.2625 8.70764L23.4509 7.89375L24.9158 7.01749L26.3806 6.14118L27.7966 5.42495L29.2126 4.70872L30.5965 4.11076L31.9803 3.51275L33.4285 2.98786L34.8767 2.46297L36.0486 2.11573L37.2205 1.76848L38.3923 1.47675L39.5642 1.18502L41.0779 0.891661L42.5916 0.598265L44.2029 0.399657L45.8142 0.201049L47.3112 0.100541L48.8083 0H50.4529H52.0975L53.5945 0.100541L55.0915 0.201049L56.7029 0.399657L58.3142 0.598265L59.8279 0.891661L61.3416 1.18502L62.5134 1.47675L63.6853 1.76848L64.8572 2.11573L66.0291 2.46297L67.4773 2.98786L68.9255 3.51275L70.3093 4.11076L71.6931 4.70872L73.1091 5.42495L74.5251 6.14118L75.99 7.01749L77.4548 7.89375L78.6432 8.70764L79.8316 9.5215L81.0164 10.4384L82.2012 11.3554L83.4028 12.4058L84.6043 13.4563L85.8005 14.6524L86.9966 15.8486L88.0471 17.0501L89.0975 18.2517L90.0144 19.4365L90.9314 20.6213L91.7452 21.8097L92.5591 22.9981L93.4354 24.4629L94.3117 25.9278L95.0279 27.3437L95.7441 28.7598L96.3421 30.1436L96.9401 31.5274L97.465 32.9756L97.9899 34.4238L98.3372 35.5957L98.6844 36.7676L98.9761 37.9395L99.2679 39.1113L99.5612 40.625L99.8546 42.1387L100.053 43.75L100.252 45.3614L100.352 46.8584L100.453 48.3554V50V51.6446L100.352 53.1416L100.252 54.6387L100.053 56.25L99.8546 57.8613L99.5612 59.375L99.2679 60.8887L98.9761 62.0606L98.6844 63.2324L98.3372 64.4043L97.9899 65.5762L97.465 67.0244L96.9401 68.4726L96.3421 69.8564L95.7441 71.2402L95.0279 72.6563L94.3117 74.0723L93.4354 75.5371L92.5591 77.0019L91.7452 78.1903L90.9314 79.3787L90.0144 80.5635L89.0975 81.7484L88.0471 82.9499L86.9966 84.1515L85.8005 85.3476L84.6043 86.5437L83.4028 87.5942L82.2012 88.6446L81.0164 89.5616L79.8316 90.4785L78.6432 91.2924L77.4548 92.1063L75.99 92.9826L74.5251 93.8588L73.1091 94.5751L71.6931 95.2913L70.3093 95.8893L68.9255 96.4873L67.4773 97.0122L66.0291 97.537L64.8572 97.8843L63.6853 98.2315L62.5134 98.5233L61.3416 98.815L59.8279 99.1084L58.3142 99.4017L56.7029 99.6004L55.0915 99.799L53.5945 99.8995L52.0975 100L50.1766 99.9862ZM50.3837 91.4963L51.1447 91.504L51.8752 91.3531L52.6056 91.2022L53.0185 91.0241L53.4314 90.8461L69.0564 82.0362L84.6814 73.2264L85.3443 72.7819L86.0073 72.3374L86.4491 71.8377L86.8909 71.338L87.2323 70.7614L87.5737 70.1849L87.8365 69.4431L88.0994 68.7013L88.1263 50.3419L88.1533 31.9825L87.9996 31.2184L87.846 30.4543L87.6065 29.9127L87.367 29.371L86.9291 28.7574L86.4912 28.1438L85.9554 27.6663L85.4196 27.1886L84.3667 26.5949L83.3139 26.0012L68.5678 17.6728L53.8217 9.34445L53.2272 9.065L52.6327 8.78556L51.9577 8.64257L51.2827 8.49955H50.5344H49.7862L49.0359 8.64309L48.2857 8.78663L47.7421 9.03551L47.1984 9.2844L31.3372 18.2403L15.4759 27.1963L14.8799 27.7355L14.284 28.2749L13.8141 28.9946L13.3443 29.7143L13.0752 30.5083L12.8061 31.3023L12.7795 49.5581L12.753 67.814L12.8944 68.6335L13.0358 69.453L13.3706 70.153L13.7054 70.8531L14.164 71.4591L14.6226 72.0652L15.1302 72.4699L15.6378 72.8746L16.0284 73.0949L16.4191 73.3153L19.4952 75.0587L22.5714 76.8021L24.4269 77.7413L26.2823 78.6806L27.1124 78.9402L27.9425 79.1998L28.6261 79.354L29.3097 79.5081L30.921 79.5619L32.5324 79.6157L33.4112 79.4539L34.2902 79.2922L34.9249 79.0886L35.5597 78.8851L36.4009 78.4549L37.242 78.0248L37.8439 77.4801L38.4457 76.9355L38.8846 76.3204L39.3236 75.7053L39.7046 74.8905L40.0855 74.0757L40.2862 73.2869L40.4869 72.4982L40.5903 71.3338L40.6938 70.1694L40.6657 52.6073L40.6377 35.0451L40.3637 34.8094L40.0897 34.5737H37.7196H35.3494L35.1127 34.8257L34.876 35.0778L34.8271 53.0142L34.7783 70.9507L34.5431 71.5367L34.3079 72.1226L33.6642 72.7663L33.0205 73.41L32.4346 73.6366L31.8486 73.8632L30.8642 73.9067L29.8797 73.9502L29.1399 73.7472L28.4001 73.5442L27.8782 73.3128L27.3564 73.0814L23.1572 70.7164L18.958 68.3515L18.6894 68.0627L18.4209 67.7738V50.0263V32.2788L18.5913 32.002L18.7617 31.7251L34.4355 22.8788L50.1093 14.0326H50.4511H50.7929L66.3203 22.7799L81.8476 31.5273L82.1406 31.7738L82.4335 32.0204L82.4586 49.8543L82.4837 67.6882L82.3461 67.9543L82.2085 68.2204L81.5885 68.5669L80.9685 68.9134L65.9294 77.4017L50.8904 85.89L50.5267 85.9265L50.163 85.963L49.3548 85.4995L48.5467 85.036L45.2091 83.0969L41.8715 81.1578H41.581H41.2904L39.8893 81.8704L38.4881 82.583L37.3777 82.9594L36.2673 83.3359L36.0218 83.5471L35.7763 83.7583L35.8867 83.9645L35.997 84.1708L36.7055 84.6079L37.4139 85.045L42.4432 87.9514L47.4725 90.8578L47.9607 91.0472L48.449 91.2366L49.035 91.3652L49.6209 91.4939L50.3837 91.4963ZM59.779 67.3669L60.2673 67.3802L61.8902 67.286L63.5131 67.1917L64.5095 67.042L65.5059 66.8924L66.4421 66.6896L67.3783 66.4867L68.3638 66.1453L69.3494 65.8038L70.3932 65.2633L71.437 64.7228L72.216 64.0994L72.9951 63.476L73.4847 62.8902L73.9742 62.3043L74.3293 61.7198L74.6844 61.1352L74.9306 60.5293L75.1768 59.9234L75.3697 59.0396L75.5626 58.1557V56.9272V55.6988L75.4515 55.0712L75.3404 54.4435L75.1535 53.8087L74.9665 53.174L74.5979 52.5441L74.2294 51.9143L73.6434 51.3163L73.0575 50.7183L72.4716 50.3238L71.8856 49.9292L71.2997 49.6351L70.7138 49.341L69.9829 49.0785L69.2521 48.816L67.981 48.4836L66.7099 48.1511L65.3593 47.9035L64.0089 47.6559L60.7708 47.2113L57.5327 46.7666L56.2131 46.5231L54.8934 46.2797L53.9169 46.0338L52.9403 45.7879L52.2357 45.4506L51.5312 45.1133L51.2891 44.796L51.0471 44.4787L50.9463 44.0412L50.8455 43.6037L50.8418 43.1501L50.838 42.6965L51.031 42.0718L51.224 41.4471L51.5769 41.0348L51.9298 40.6225L52.3671 40.3216L52.8044 40.0208L53.5671 39.7424L54.3298 39.4641L55.1962 39.2881L56.0627 39.1122H58.9923H61.922L62.6545 39.2454L63.3869 39.3787L64.1681 39.6215L64.9494 39.8644L65.6099 40.2091L66.2704 40.5537L66.7957 41.1212L67.3211 41.6887L67.6137 42.2071L67.9064 42.7255L68.1092 43.3114L68.312 43.8973L68.4197 44.3236L68.5274 44.7498L68.7603 44.9828L68.9933 45.2157H71.3978H73.8023L74.0955 44.9225L74.3887 44.6293L74.325 43.9703L74.2613 43.3114L74.1628 42.7297L74.0643 42.1481L73.8166 41.3626L73.5688 40.577L73.1784 39.7958L72.7881 39.0145L72.3722 38.4286L71.9564 37.8426L71.1777 37.099L70.3991 36.3554L69.7056 35.9434L69.0121 35.5314L67.9697 35.0896L66.9274 34.6478L65.6454 34.3255L64.3634 34.0032L63.0939 33.8288L61.8244 33.6544H59.1388H56.4533L55.5255 33.7736L54.5978 33.8928L53.633 34.0884L52.6682 34.2841L51.7287 34.5831L50.7892 34.8821L49.9429 35.3005L49.0966 35.7188L48.5269 36.0907L47.9572 36.4625L47.0694 37.3464L46.1817 38.2303L45.7805 38.9139L45.3793 39.5975L45.0872 40.4764L44.7951 41.3553L44.6789 42.2342L44.5625 43.1132L44.6243 44.0409L44.6859 44.9686L44.8851 45.7987L45.0843 46.6288L45.4382 47.3458L45.7921 48.0628L46.5117 48.8277L47.2313 49.5927L48.0104 50.0924L48.7895 50.5922L49.5909 50.9352L50.3923 51.2783L51.3501 51.5628L52.3078 51.8473L53.5505 52.0888L54.7932 52.3304L55.965 52.4799L57.1369 52.6294L59.383 52.8787L61.6291 53.1281L62.8897 53.33L64.1503 53.5319L65.3173 53.8168L66.4844 54.1018L67.1329 54.3602L67.7814 54.6187L68.1232 54.8363L68.465 55.0539L68.7284 55.3336L68.9918 55.6132L69.1314 55.955L69.271 56.2967L69.336 56.7483L69.401 57.1997L69.3037 57.8039L69.2064 58.408L68.9527 58.9637L68.6989 59.5194L68.3378 59.8922L67.9767 60.2649L67.4343 60.5956L66.8919 60.9263L65.9981 61.2258L65.1043 61.5253L64.0991 61.6886L63.0939 61.8519L59.9689 61.8575L56.8439 61.863L55.7425 61.6883L54.6412 61.5137L53.7527 61.2233L52.8642 60.933L52.1916 60.5795L51.519 60.2261L50.988 59.6526L50.4571 59.0791L50.1516 58.4391L49.8462 57.7992L49.6498 56.9503L49.4534 56.1013L49.4094 55.8732L49.3653 55.6452L49.1109 55.4094L48.8564 55.1735H46.4998H44.1432L43.9336 55.3203L43.7241 55.4671L43.6094 55.8146L43.4948 56.162L43.6032 57.2724L43.7116 58.3828L43.948 59.1952L44.1844 60.0075L44.4436 60.5935L44.7027 61.1794L45.2268 61.969L45.751 62.7586L46.4525 63.4204L47.154 64.0822L47.9717 64.6152L48.7894 65.1482L49.5188 65.4852L50.2483 65.8222L51.2512 66.1571L52.2541 66.492L53.4748 66.7372L54.6955 66.9825L55.6004 67.0913L56.5053 67.2001L57.8953 67.2757L59.2853 67.3513L59.7736 67.3646L59.779 67.3669Z" fill="#5CFF76"/>
</g>
<defs>
<clipPath id="clip0_29_119">
<rect width="100" height="100" fill="white" transform="translate(0.452881)"/>
</clipPath>
</defs>
</svg>
