<svg width="113" height="100" viewBox="0 0 113 100" fill="none" xmlns="http://www.w3.org/2000/svg">
    <g clip-path="url(#clip0_29_34)">
    <path d="M78.5273 99.9916C75.1521 99.8789 71.138 98.4816 66.8808 95.9376C63.6031 93.9788 60.1578 91.3046 56.8717 88.1686L56.4442 87.7607L56.0047 88.1798C54.1363 89.9615 52.0362 91.7198 50.01 93.1987C44.0252 97.5672 38.169 99.9605 33.4815 99.9534C32.7643 99.9524 32.3323 99.9275 31.7818 99.8557C29.5691 99.5672 27.7398 98.7116 26.2756 97.2803C24.9547 95.9893 23.9763 94.4164 23.2163 92.3626C22.461 90.3212 22.0074 87.9739 21.8234 85.153C21.7341 83.7846 21.7439 81.696 21.8473 80.0538C22.0518 76.8065 22.618 73.2198 23.4962 69.6083C23.5861 69.2387 23.6227 69.0501 23.6058 69.0442C23.5918 69.0393 23.2723 68.9432 22.8959 68.8307C19.2544 67.7429 15.7448 66.3363 12.7438 64.7618C8.62481 62.6008 5.37821 60.1335 3.17446 57.4896C1.61475 55.6183 0.602436 53.6445 0.219967 51.7287C-0.0218173 50.5177 -0.0289383 49.4064 0.197386 48.2038C0.533406 46.4183 1.43796 44.5721 2.82945 42.8317C3.64285 41.8144 4.79016 40.6666 5.95666 39.7034C9.63778 36.6636 14.8192 34.0216 21.0366 32.014C21.6532 31.8149 23.0727 31.3821 23.572 31.2411L23.7005 31.2047L23.6463 30.9946C23.554 30.6366 23.2134 29.1492 23.081 28.5257C22.5011 25.7949 22.0761 22.8613 21.9033 20.397C21.8016 18.947 21.7597 16.8112 21.81 15.6451C21.9147 13.2171 22.1945 11.199 22.6798 9.37231C23.4212 6.58168 24.563 4.42447 26.1221 2.86897C26.8695 2.12334 27.5419 1.63341 28.4396 1.18049C28.9322 0.931968 29.1538 0.839157 29.6716 0.664436C32.007 -0.123604 34.8394 -0.0687697 38.0328 0.826309C43.465 2.34886 49.7058 6.25451 55.765 11.9234L56.2847 12.4097L56.4416 12.2656C56.5279 12.1864 56.8228 11.9102 57.097 11.6518C63.0775 6.01703 69.3277 2.09905 74.6489 0.649274C76.429 0.164305 78.2364 -0.0640647 79.6646 0.0155473C81.7934 0.134216 83.4892 0.690494 84.9813 1.75962C87.6846 3.69666 89.512 7.3019 90.2529 12.1599C90.8058 15.7852 90.7514 20.094 90.0938 24.7425C89.8159 26.7074 89.3811 28.9913 88.927 30.872C88.8759 31.0834 88.843 31.264 88.8537 31.2735C88.8645 31.2829 89.0427 31.3398 89.2497 31.3998C90.7466 31.8337 92.6486 32.4664 94.1433 33.0276C99.8045 35.153 104.503 37.8525 107.662 40.7945C110.51 43.4467 112.112 46.2421 112.394 49.0525C112.438 49.4927 112.438 50.3061 112.395 50.7638C112.057 54.2912 109.61 57.8801 105.357 61.0852C102.828 62.9908 99.7309 64.7299 96.1346 66.2638C94.093 67.1346 91.7888 67.9691 89.5549 68.6468C89.2892 68.7274 89.0764 68.8037 89.0808 68.8166C89.0852 68.8296 89.1461 69.0814 89.216 69.3763C90.1378 73.2631 90.6518 76.8641 90.8034 80.4987C90.8386 81.3424 90.8179 83.7415 90.769 84.4914C90.5727 87.4986 90.1146 89.9043 89.3174 92.1142C88.8993 93.2733 88.2892 94.5066 87.6675 95.4495C87.2426 96.0939 86.8039 96.6272 86.2178 97.2116C85.4875 97.9398 84.8754 98.3996 84.0485 98.8409C82.4698 99.6833 80.6506 100.063 78.5275 99.9916H78.5273ZM80.0335 95.1596C81.2131 95.0058 82.076 94.5969 82.8524 93.8237C83.5646 93.1144 84.1531 92.1609 84.6679 90.882C86.0542 87.438 86.4125 82.265 85.6661 76.4718C85.4378 74.7001 85.0765 72.6869 84.6874 71.019C84.4861 70.1563 84.4496 70.0151 84.4275 70.0151C84.4148 70.0151 84.106 70.0818 83.7415 70.1632C79.4155 71.1296 74.6702 71.851 69.5159 72.3258L69.208 72.3542L68.9134 72.776C65.9255 77.0542 63.0031 80.7641 60.0622 84.0123L59.773 84.3317L59.9424 84.4914C61.5365 85.9937 62.5169 86.8633 63.7782 87.8937C69.162 92.2922 74.4538 94.9287 78.4474 95.2023C78.8925 95.2328 79.6225 95.2132 80.0335 95.1596ZM34.0746 95.1567C37.4939 94.9281 41.8098 93.0956 46.3142 89.9598C48.4358 88.4829 50.4818 86.8085 52.6163 84.8025L53.0895 84.3578L53.0384 84.2954C53.0103 84.2611 52.776 84.0037 52.5178 83.7234C49.6168 80.5741 46.2157 76.3508 43.5888 72.6356L43.4332 72.4155L43.271 72.4016C37.7307 71.9259 33.2258 71.2828 28.8048 70.3364C28.5162 70.2746 28.2762 70.228 28.2714 70.2329C28.2395 70.2647 27.7879 72.258 27.5863 73.2568C26.0444 80.8932 26.2132 87.5256 28.0521 91.5561C28.635 92.8338 29.389 93.8008 30.2481 94.3725C30.9055 94.81 31.8617 95.0968 32.8883 95.1646C33.1526 95.182 33.7564 95.178 34.0746 95.1567V95.1567ZM56.6873 80.6128C58.1408 79.0077 59.8633 76.9329 61.451 74.8748C61.8958 74.2981 63.0367 72.7799 63.0367 72.7645C63.0367 72.7598 63.0033 72.7602 62.9626 72.7656C62.9218 72.771 62.4367 72.791 61.8846 72.8101C57.9637 72.9459 53.6452 72.9428 50.0785 72.8017C49.8464 72.7925 49.6529 72.7873 49.6486 72.7901C49.6393 72.7963 50.3945 73.7783 50.9887 74.5326C52.5448 76.5081 54.3137 78.6003 55.8276 80.2557C56.0848 80.537 56.3195 80.7971 56.3491 80.8337C56.3787 80.8703 56.4111 80.8971 56.4212 80.8934C56.4312 80.8897 56.551 80.7634 56.6873 80.6129V80.6128ZM59.3295 68.0988C61.0172 68.0605 62.1984 68.0175 63.7553 67.9378C64.5212 67.8986 65.0119 67.8695 66.2968 67.7873L66.5341 67.7721L67.0399 67.0057C70.3159 62.0421 73.4449 56.6181 76.1003 51.3002L76.77 49.959L76.4254 49.2696C73.7062 43.8302 70.3151 37.9846 67.0035 33.0282L66.5058 32.2833L66.3967 32.2696C66.1035 32.2328 63.9363 32.0995 62.6603 32.0397C60.2606 31.9272 59.1297 31.9032 56.2268 31.9033C53.2627 31.9033 51.8106 31.9368 49.3142 32.0624C48.2338 32.1168 46.1894 32.2456 46.05 32.2681C45.9856 32.2785 45.9075 32.388 45.1347 33.5511C43.7906 35.5737 42.8769 37.018 41.7176 38.9522C39.7247 42.2772 37.707 45.9945 36.116 49.2724L35.7468 50.0331L36.5351 51.611C37.4652 53.4729 37.9926 54.4854 38.8602 56.0751C40.9567 59.916 43.3013 63.7623 45.6917 67.2818L46.0434 67.7997L46.1389 67.8122C46.4779 67.8566 49.3979 67.9958 51.2078 68.054C53.2403 68.1193 57.4127 68.1423 59.3295 68.0988ZM55.4169 59.9073C53.732 59.7511 52.24 59.2458 50.8309 58.3541C49.7241 57.6538 48.6365 56.5856 47.8947 55.4704C46.187 52.9034 45.7526 49.731 46.706 46.7904C46.8879 46.2293 47.2086 45.5009 47.503 44.98C48.1571 43.8228 49.1376 42.7054 50.1926 41.915C50.8 41.4598 51.2451 41.1891 51.9264 40.8606C53.954 39.8827 56.2528 39.6306 58.4968 40.14C59.9142 40.4618 61.3537 41.1594 62.4892 42.0748C62.938 42.4367 63.4524 42.9295 63.7903 43.3213C63.8714 43.4155 63.944 43.4976 63.9515 43.5039C63.9936 43.5389 64.4922 44.2204 64.6384 44.4427C65.365 45.5478 65.878 46.8513 66.1142 48.1924C66.2242 48.8169 66.2413 49.0464 66.2417 49.9035C66.2417 50.7777 66.2258 50.9876 66.1053 51.675C65.7995 53.4185 64.9955 55.1014 63.8179 56.4629C63.1443 57.2417 62.2337 58.0118 61.4107 58.4986C60.3274 59.1396 59.2341 59.5533 58.0436 59.7728C57.4557 59.8812 57.0966 59.9125 56.3523 59.9201C55.957 59.9241 55.5361 59.9183 55.4169 59.9073ZM39.9131 67.2146C39.8903 67.1801 39.7183 66.9106 39.5308 66.6157C37.385 63.2412 35.368 59.7597 33.5636 56.3154C33.3863 55.977 33.2336 55.6925 33.2242 55.6831C33.2148 55.6737 33.1207 55.8736 33.0152 56.1272C31.8037 59.0388 30.7086 62.003 29.8411 64.7186C29.6914 65.1873 29.5689 65.5789 29.5689 65.5888C29.5689 65.6128 29.7196 65.646 30.9149 65.8859C33.569 66.4183 36.0098 66.8036 39.1393 67.184C40.0558 67.2953 39.9639 67.2917 39.9131 67.2146ZM73.3892 67.0945C76.1061 66.7506 78.7228 66.3219 81.1965 65.8154C81.8782 65.6758 83.1193 65.4069 83.1302 65.3965C83.1394 65.3876 82.594 63.7538 82.3528 63.0679C81.5726 60.8487 80.7719 58.7996 79.7652 56.4458C79.5438 55.9282 79.3545 55.5047 79.3445 55.5047C79.3344 55.5047 79.2785 55.5996 79.2203 55.7157C78.5575 57.0367 76.8872 60.0641 75.6802 62.1325C74.6998 63.8125 73.1114 66.4327 72.6547 67.1233C72.6293 67.1617 72.6234 67.1861 72.6395 67.1861C72.6539 67.1861 72.9913 67.1448 73.3892 67.0945ZM24.94 64.357C25.6529 61.999 26.832 58.6748 27.9261 55.9382C28.6337 54.1683 29.6055 51.8975 30.2972 50.3975C30.386 50.2049 30.4587 50.0388 30.4587 50.0283C30.4587 50.0178 30.3704 49.816 30.2624 49.5799C28.8504 46.4908 27.5444 43.2795 26.4088 40.1044C26.0893 39.2111 25.3368 36.9622 25.13 36.2829C25.0574 36.0444 24.9919 35.842 24.9845 35.8329C24.9696 35.8148 24.6583 35.9019 23.6944 36.1939C17.3015 38.1309 12.0905 40.7275 8.64869 43.6913C6.37418 45.6499 5.03999 47.6738 4.8393 49.47C4.66664 51.0153 5.44598 52.8235 7.10587 54.729C7.60607 55.3032 8.51981 56.1874 9.20763 56.7629C12.6745 59.6635 17.9361 62.3125 23.7856 64.1023C24.0742 64.1907 24.4284 64.2991 24.5727 64.3433C24.717 64.3875 24.8548 64.4215 24.8789 64.4188C24.9034 64.4162 24.9303 64.3889 24.94 64.357ZM88.5206 63.9589C93.4765 62.4219 97.9342 60.3837 101.259 58.1348C104.828 55.7205 107.068 53.1107 107.558 50.7971C107.772 49.7868 107.625 48.8145 107.09 47.7133C106.339 46.1662 104.862 44.5272 102.801 42.9529C99.5991 40.5072 95.0541 38.277 89.8201 36.5833C88.8773 36.2782 87.5596 35.8764 87.5479 35.8904C87.5457 35.8929 87.5061 36.0182 87.4599 36.1688C86.2723 40.0357 84.364 44.9456 82.3167 49.4014C82.1899 49.6773 82.0862 49.916 82.0862 49.9318C82.0862 49.9475 82.2313 50.271 82.4087 50.6507C84.5178 55.1643 86.2925 59.6031 87.5496 63.5088C87.6574 63.8435 87.75 64.1302 87.7555 64.1459C87.7609 64.1616 87.779 64.1745 87.7956 64.1745C87.8122 64.1745 88.1385 64.0775 88.5206 63.9589ZM33.5734 43.7035C35.2977 40.3938 37.4281 36.6989 39.4241 33.5564C39.8834 32.8333 39.8491 32.8948 39.7936 32.8948C39.7682 32.8948 39.4361 32.936 39.0556 32.9864C35.9412 33.3985 32.9268 33.9189 30.1779 34.5192L29.6347 34.6378L29.6486 34.696C29.6789 34.8233 30.0647 36.0182 30.334 36.8188C30.957 38.6709 31.6231 40.4773 32.3868 42.3859C32.7132 43.2016 33.2023 44.3934 33.2108 44.3936C33.2124 44.3936 33.3757 44.0831 33.5734 43.7035ZM79.699 43.456C80.8509 40.6894 81.8093 38.1104 82.6354 35.5541C82.7852 35.0905 82.9 34.7036 82.8905 34.6944C82.867 34.6715 81.3694 34.3473 80.327 34.1394C78.5543 33.786 76.6953 33.4652 74.8999 33.203C73.9889 33.07 72.6576 32.8938 72.6465 32.9048C72.6409 32.9104 72.6567 32.9438 72.6816 32.979C72.7456 33.0697 73.4467 34.1878 73.8804 34.8911C75.5874 37.6589 77.5979 41.1741 79.0433 43.9182C79.1798 44.1774 79.2986 44.3828 79.3072 44.3745C79.3158 44.3662 79.4921 43.9529 79.699 43.456ZM84.2747 29.7634C85.5192 24.5486 86.0487 19.4638 85.7816 15.2929C85.4495 10.1054 83.9104 6.42453 81.5993 5.29017C81.1576 5.07334 80.5704 4.90991 79.9417 4.82878C79.6353 4.78924 78.5428 4.78893 78.1851 4.82824C77.0776 4.95007 76.0319 5.18901 74.8428 5.59188C70.7121 6.99144 65.9325 10.0701 61.166 14.4014C60.375 15.1201 59.6603 15.8007 59.6603 15.835C59.6603 15.8451 59.7398 15.9379 59.8371 16.0413C59.9343 16.1447 60.245 16.4857 60.5274 16.7991C63.2512 19.8218 65.9413 23.1933 68.5639 26.8715C68.8636 27.2919 69.1227 27.6502 69.1396 27.6677C69.1616 27.6903 69.4193 27.7246 70.0332 27.7866C73.978 28.1851 77.6597 28.7301 81.2713 29.4503C82.0898 29.6135 83.6603 29.9492 83.9798 30.0292C84.2119 30.0873 84.1934 30.104 84.2747 29.7634V29.7634ZM29.1469 29.8487C33.2423 28.9481 38.0624 28.2047 42.7501 27.7508C43.0672 27.7201 43.3357 27.6894 43.3467 27.6826C43.3577 27.6758 43.4672 27.529 43.59 27.3564C45.4601 24.7288 47.4834 22.1144 49.5096 19.7076C50.637 18.3683 51.3081 17.6073 52.8124 15.9621L52.9341 15.829L52.6983 15.605C50.768 13.7714 48.5005 11.8937 46.4625 10.4415C41.9882 7.25318 37.8784 5.38364 34.4054 4.9568C33.935 4.89898 32.9094 4.88653 32.4663 4.93325C31.5253 5.03247 30.7892 5.27733 30.16 5.70046C28.725 6.66543 27.6299 8.78022 27.0476 11.7109C26.1753 16.1014 26.4945 21.9442 27.9625 28.4572C28.0737 28.9507 28.309 29.9435 28.3267 29.9943C28.3341 30.0153 28.3582 30.0213 28.4001 30.0124C28.4344 30.0052 28.7704 29.9315 29.1469 29.8487ZM50.3523 27.2247C51.3122 27.1821 52.8111 27.1429 54.4036 27.1187C56.8655 27.0813 59.9575 27.1272 62.3523 27.2366C62.6221 27.2489 62.8611 27.2591 62.8834 27.2592C62.9269 27.2594 62.843 27.1432 62.1261 26.2099C60.3913 23.9514 58.6399 21.8428 56.946 19.9731C56.6634 19.6611 56.4007 19.3696 56.3623 19.3253L56.2926 19.2448L55.8255 19.7557C53.828 21.9408 51.7884 24.3886 49.8515 26.9253L49.5927 27.2643L49.8299 27.2508C49.9603 27.2434 50.1954 27.2317 50.3523 27.2247Z" fill="#00FFE0"/>
    </g>
    <defs>
    <clipPath id="clip0_29_34">
    <rect width="112.394" height="100" fill="white" transform="translate(0.032959)"/>
    </clipPath>
    </defs>
</svg>